<?xml version="1.0" encoding="UTF-8" standalone="no"?>
<svg
   xmlns:dc="http://purl.org/dc/elements/1.1/"
   xmlns:cc="http://creativecommons.org/ns#"
   xmlns:rdf="http://www.w3.org/1999/02/22-rdf-syntax-ns#"
   xmlns:svg="http://www.w3.org/2000/svg"
   xmlns="http://www.w3.org/2000/svg"
   xmlns:sodipodi="http://sodipodi.sourceforge.net/DTD/sodipodi-0.dtd"
   xmlns:inkscape="http://www.inkscape.org/namespaces/inkscape"
   id="svg8"
   version="1.1"
   viewBox="0 0 102.03555 140.12536"
   height="140.12537mm"
   width="102.03555mm"
   sodipodi:docname="logo_trace_flat_invert.svg"
   inkscape:version="0.92.4 5da689c313, 2019-01-14">
  <sodipodi:namedview
     pagecolor="#ffffff"
     bordercolor="#666666"
     borderopacity="1"
     objecttolerance="10"
     gridtolerance="10"
     guidetolerance="10"
     inkscape:pageopacity="0"
     inkscape:pageshadow="2"
     inkscape:window-width="1280"
     inkscape:window-height="740"
     id="namedview33"
     showgrid="false"
     inkscape:zoom="0.89122573"
     inkscape:cx="347.33708"
     inkscape:cy="250.56853"
     inkscape:window-x="0"
     inkscape:window-y="31"
     inkscape:window-maximized="1"
     inkscape:current-layer="layer4" />
  <defs
     id="defs2" />
  <metadata
     id="metadata5">
    <rdf:RDF>
      <cc:Work
         rdf:about="">
        <dc:format>image/svg+xml</dc:format>
        <dc:type
           rdf:resource="http://purl.org/dc/dcmitype/StillImage" />
        <dc:title></dc:title>
      </cc:Work>
    </rdf:RDF>
  </metadata>
  <g
     transform="translate(-39.734743,-67.705674)"
     style="display:inline;opacity:1"
     id="layer1" />
  <g
     transform="translate(-39.734743,-67.705674)"
     style="display:inline;opacity:0.98999999"
     id="layer2" />
  <g
     transform="translate(-39.734743,-67.705674)"
     style="display:inline"
     id="layer3" />
  <g
     transform="translate(-39.734743,-67.705674)"
     id="layer4">
    <path
       style="display:inline;opacity:1;fill:none;fill-opacity:1;stroke:#000000;stroke-width:2.80052328;stroke-opacity:1"
       d="m 268.46484,0 c -8.64729,5.2913387e-5 -25.28716,24.852672 -30.30078,52.292969 -2.17346,11.895739 -1.62607,28.594506 0.47266,37.998047 -10.30256,-3.031057 -21.67123,-4.490236 -34.38672,-4.490235 -15.2002,3e-6 -30.7187,2.194176 -45.70898,7.015625 2.47768,-12.211157 0.59155,-29.411116 -1.85743,-40.966797 -5.89285,-27.805882 -15.09326,-48.7890659 -24.01953,-48.7890621 -8.92627,3.8e-6 -18.55013,20.8197401 -21.69726,46.2890621 -1.60715,13.006409 -2.23807,25.670958 1.82617,37.511719 2.30103,6.703822 7.78543,16.823192 12.4043,22.033202 -18.48485,12.4073 -34.800108,30.29166 -46.830082,54.82031 -4.545427,9.26793 -7.085486,20.8666 -11.375,31.66993 -3.964245,9.98411 -24.388056,31.90711 -33.339844,49.75 -12.831251,25.57549 -24.4350142,52.62785 -28.5957034,80.9375 -5.18382233,35.27111 -6.5154172,73.67414 5.1074214,106.82812 10.45815,29.8317 22.928963,48.93124 44.25,63.41602 39.449485,26.80063 95.378468,32.88476 139.244138,32.88476 41.35935,0 111.65498,6.61484 138.72657,-33.48633 26.98677,-39.97553 47.35564,-85.96369 52.36718,-133.50195 3.68705,-34.97446 -4.40071,-71.33696 -17.19922,-104.09375 -11.85535,-30.34288 -47.55986,-66.1906 -53.6582,-81.68164 -13.93898,-35.4079 -29.28329,-59.27466 -49.29687,-73.5918 3.16361,-3.734013 6.54081,-8.06748 8.25586,-11.447262 4.50708,-8.881917 7.53888,-18.861211 7.90625,-28.814454 C 281.54417,41.338371 277.11218,-1.511811e-5 268.46484,0 Z"
       transform="matrix(0.26458333,0,0,0.26458333,39.734743,67.705674)"
       id="path845" />
    <path
       style="display:inline;opacity:1;fill:#000000;fill-opacity:1;stroke:#000000;stroke-width:2.80052328;stroke-opacity:1"
       d="M 262.97461 129.46484 C 253.07206 129.46484 245.04297 136.98484 245.04297 146.25977 C 245.04297 155.53473 253.07202 163.05273 262.97461 163.05273 C 272.8772 163.05273 279.38867 155.28082 279.38867 146.00586 C 279.38863 136.73094 272.8772 129.46484 262.97461 129.46484 z M 135.94727 129.9707 C 127.29994 129.9707 118.52148 138.49525 118.52148 147.14258 C 118.5215 155.78991 126.7941 164.0625 135.44141 164.0625 C 144.08872 164.0625 152.61522 156.04378 152.61523 147.39648 C 152.61524 138.74915 144.59459 129.9707 135.94727 129.9707 z M 260.08984 137.69531 A 6.8749999 6.8749999 0 0 1 266.96484 144.57031 A 6.8749999 6.8749999 0 0 1 260.08984 151.44531 A 6.8749999 6.8749999 0 0 1 253.21484 144.57031 A 6.8749999 6.8749999 0 0 1 260.08984 137.69531 z M 139.28516 138.41016 A 7.5000001 7.8571432 0 0 1 146.78516 146.26758 A 7.5000001 7.8571432 0 0 1 139.28516 154.125 A 7.5000001 7.8571432 0 0 1 131.78516 146.26758 A 7.5000001 7.8571432 0 0 1 139.28516 138.41016 z "
       transform="matrix(0.26458333,0,0,0.26458333,39.734743,67.705674)"
       id="path843" />
    <path
       id="path846"
       transform="matrix(0.26458333,0,0,0.26458333,39.734743,67.705674)"
       style="display:inline;opacity:1;fill:#000000;fill-opacity:1;stroke:#000000;stroke-width:2.80052328;stroke-opacity:1"
       d="m 198.55469,218.69531 c -41.94099,-0.26228 -84.71887,14.39135 -113.937502,43.76563 -26.868412,27.01149 -42.63086,68.7698 -42.63086,106.36133 0,18.66013 -1.579972,62.54239 4.128906,91.39648 3.777759,19.09372 18.24602,33.76683 34.402344,41.8125 35.622232,17.73948 68.368892,4.98242 119.281252,4.98242 37.64933,0 86.81763,14.63088 113.55469,-7.54297 32.40136,-26.87149 40.03906,-98.79551 40.03906,-142.51172 0,-32.21378 -10.07116,-60.92563 -28.40039,-84.54492 -27.07023,-34.88311 -79.1582,-52.38219 -122.38086,-53.64648 -1.35071,-0.0395 -2.70371,-0.0638 -4.05664,-0.0723 z m -3.73242,28.28516 c 14.7933,0 28.3914,16.90968 25.71289,20.26953 1e-5,2.05009 -3.66953,1.62231 -8.45704,-0.0879 -4.30971,-1.53944 -9.35506,-4.28711 -16.36328,-4.28711 -7.03273,0 -16.95861,6.4931 -22.62695,8.20508 -6.25503,1.88916 -7.91017,-1.07356 -7.91016,-3.11719 -1.96422,-3.71701 14.85124,-20.98242 29.64454,-20.98242 z m 76.95507,4.9668 c 8.95348,0 18.93431,10.00994 23.14844,18.55859 2.37729,4.82256 5.23788,11.91889 1.19727,10.97461 -0.5051,4.2288 -11.60502,-14.03125 -25.60938,-14.03125 -14.00432,-4e-5 -23.96731,9.29353 -23.71484,1.15039 -4e-5,-4.73386 10.97415,-16.65234 24.97851,-16.65234 z m -152.62304,9.98828 c 7.37836,0 11.11111,2.23302 14.52539,4.18945 2.65246,1.5199 4.39173,1.98558 5.82031,6.00586 2.9421,8.27962 -2.77039,6.26758 -15.88086,6.26758 -4.25496,0 -11.32197,-0.0523 -17.24023,2.95312 -12.317205,6.25539 -22.212906,16.53663 -22.212894,10.60156 1.5e-5,-8.78679 21.877834,-30.01757 34.988284,-30.01757 z m 107.95898,25.61914 c 7.40647,0 15.4624,4.65386 19.06055,9.44336 2.70331,3.59837 4.72138,8.14918 2.125,10.6914 -5.22856,5.11956 -8.46649,-4.73047 -21.4375,-4.73047 -12.97099,0 -23.99201,11.24885 -23.23438,1.26368 0,-4.71334 4.34207,-7.05242 7.83985,-9.83789 4.09964,-3.2648 8.6472,-6.83008 15.64648,-6.83008 z m -67.29101,6.39062 c 12.03191,0 23.57058,12.24673 21.42773,18.48242 -5.00001,7.48566 -11.71809,-4.19726 -23.75,-4.19726 -12.03191,0 -16.96372,11.50437 -23.03516,5.44726 -1.07142,-8.0214 13.32551,-19.73242 25.35743,-19.73242 z m 138.66015,3.21485 c 11.88401,0 23.83963,19.0348 22.23242,26.25 -3.75001,7.21519 -7.84929,-6.60826 -20.80468,-10.17969 -11.45662,-3.15829 -20.75694,7.15806 -23.125,-0.17774 -2.75403,-8.53137 9.81326,-15.89257 21.69726,-15.89257 z M 90.089844,307.69531 c 6.97175,0 10.189566,1.76378 14.607426,3.33399 0,0 6.55216,2.84625 5.83789,8.54101 -1.42856,5.23896 -7.78688,1.69727 -19.375004,1.69727 -4.548446,0 -10.009326,5.65775 -13.880859,8.33203 -5.99201,4.139 -9.60157,4.90119 -9.601563,1.93555 3.8e-5,-4.88179 10.824018,-23.83985 22.41211,-23.83985 z" />
    <path
       inkscape:connector-curvature="0"
       id="path4627"
       d="m 56.680708,108.84086 c -4.964215,-1.29131 -11.508236,-1.00145 -12.40592,-1.93434 0,0 6.371526,-0.0691 11.460979,0.56974 8.323822,0.99858 12.617994,2.11745 12.195507,3.24632 -3.85552,-0.20182 -5.154567,-0.34189 -11.250566,-1.88172 z"
       style="display:inline;opacity:0.98999999;fill:#000000;fill-opacity:0.97260275;stroke:none;stroke-width:0.26458332;stroke-opacity:1" />
    <path
       inkscape:connector-curvature="0"
       id="path4633"
       d="m 61.13765,118.45349 c 10e-7,0.70453 -4.299042,0.8032 -9.35491,1.37017 -5.212187,0.58449 -8.504466,0.89352 -9.68564,0.56696 1.937127,-0.56279 4.713921,-1.2688 9.921875,-1.88988 5.150363,-0.61421 9.118676,-0.75178 9.118675,-0.0472 z"
       style="display:inline;opacity:0.98999999;fill:#000000;fill-opacity:1;stroke:none;stroke-width:0.26458332;stroke-opacity:1" />
    <path
       inkscape:connector-curvature="0"
       id="path4638"
       d="m 131.56146,104.16041 c -0.89769,0.87238 -4.10366,1.6011 -7.40497,3.16057 -4.2138,1.99049 -8.11287,3.13605 -8.96332,2.52354 -0.25986,-0.80151 3.85191,-1.7975 8.7001,-3.63512 4.58341,-1.73725 6.2744,-1.97642 7.66819,-2.04899 z"
       style="display:inline;fill:#000000;fill-opacity:1;stroke:none;stroke-width:0.26458332;stroke-opacity:1" />
    <path
       id="path4643"
       d="m 137.91107,111.43142 c -1.13582,0.52335 -5.11109,0.69284 -10.50703,0.7517 -4.5248,0.7284 -9.80554,1.24163 -10.37341,0.7851 -2.53904,-1.59242 4.7231,-2.40945 10.23977,-1.85418 5.31069,0.53454 10.37338,-0.30619 10.64067,0.31738 z"
       style="fill:#000000;fill-opacity:1;stroke:none;stroke-width:0.26458332;stroke-opacity:1"
       inkscape:connector-curvature="0" />
    <path
       inkscape:connector-curvature="0"
       id="path4646"
       d="m 137.34312,117.4951 c -3e-5,0.73804 -5.16497,-0.735 -10.28987,-1.36977 -5.21867,-0.64638 -9.35441,-0.36444 -9.35444,-1.10248 -10e-6,-0.73804 4.39654,-0.3675 9.42125,-0.0334 5.24699,0.34887 10.22307,1.76761 10.22306,2.50566 z"
       style="display:inline;opacity:1;fill:#000000;fill-opacity:1;stroke:none;stroke-width:0.26458332;stroke-opacity:1" />
    <path
       inkscape:connector-curvature="0"
       id="path4630"
       d="m 65.815101,113.94141 c -0.25019,1.83849 -5.879868,0.41829 -12.922061,-0.35436 -7.320688,-0.8032 -12.118839,-0.75587 -13.158297,-1.15754 0,0 6.168306,-0.0709 13.252791,-0.0709 7.084484,0 12.827567,1.5828 12.827567,1.5828 z"
       style="display:inline;opacity:1;fill:#000000;fill-opacity:1;stroke:none;stroke-width:0.26458332;stroke-opacity:1" />
  </g>
</svg>
