<?xml version="1.0" encoding="UTF-8" standalone="no"?>
<svg
   xmlns:dc="http://purl.org/dc/elements/1.1/"
   xmlns:cc="http://creativecommons.org/ns#"
   xmlns:rdf="http://www.w3.org/1999/02/22-rdf-syntax-ns#"
   xmlns:svg="http://www.w3.org/2000/svg"
   xmlns="http://www.w3.org/2000/svg"
   xmlns:sodipodi="http://sodipodi.sourceforge.net/DTD/sodipodi-0.dtd"
   xmlns:inkscape="http://www.inkscape.org/namespaces/inkscape"
   id="svg8"
   version="1.1"
   viewBox="0 0 102.03555 140.12536"
   height="140.12537mm"
   width="102.03555mm"
   sodipodi:docname="logo_trace_flat.svg"
   inkscape:version="0.92.4 5da689c313, 2019-01-14">
  <sodipodi:namedview
     pagecolor="#ffffff"
     bordercolor="#666666"
     borderopacity="1"
     objecttolerance="10"
     gridtolerance="10"
     guidetolerance="10"
     inkscape:pageopacity="0"
     inkscape:pageshadow="2"
     inkscape:window-width="1280"
     inkscape:window-height="740"
     id="namedview33"
     showgrid="false"
     inkscape:zoom="0.63019176"
     inkscape:cx="118.43052"
     inkscape:cy="194.12406"
     inkscape:window-x="0"
     inkscape:window-y="31"
     inkscape:window-maximized="1"
     inkscape:current-layer="layer4" />
  <defs
     id="defs2" />
  <metadata
     id="metadata5">
    <rdf:RDF>
      <cc:Work
         rdf:about="">
        <dc:format>image/svg+xml</dc:format>
        <dc:type
           rdf:resource="http://purl.org/dc/dcmitype/StillImage" />
        <dc:title />
      </cc:Work>
    </rdf:RDF>
  </metadata>
  <g
     transform="translate(-39.734743,-67.705674)"
     style="display:inline;opacity:1"
     id="layer1" />
  <g
     transform="translate(-39.734743,-67.705674)"
     style="display:inline;opacity:0.98999999"
     id="layer2" />
  <g
     transform="translate(-39.734743,-67.705674)"
     style="display:inline"
     id="layer3" />
  <g
     transform="translate(-39.734743,-67.705674)"
     id="layer4">
    <path
       style="display:inline;opacity:1;fill:none;fill-opacity:1;stroke:#000000;stroke-width:2.80052328;stroke-opacity:1"
       d="M 268.46484 0 C 259.81755 5.2913387e-05 243.17768 24.852672 238.16406 52.292969 C 235.9906 64.188708 236.53799 80.887475 238.63672 90.291016 C 228.33416 87.259959 216.96549 85.80078 204.25 85.800781 C 189.0498 85.800784 173.5313 87.994957 158.54102 92.816406 C 161.0187 80.605249 159.13257 63.40529 156.68359 51.849609 C 150.79074 24.043727 141.59033 3.0605431 132.66406 3.0605469 C 123.73779 3.0605507 114.11393 23.880287 110.9668 49.349609 C 109.35965 62.356018 108.72873 75.020567 112.79297 86.861328 C 115.094 93.56515 120.5784 103.68452 125.19727 108.89453 C 106.71242 121.30183 90.397162 139.18619 78.367188 163.71484 C 73.821761 172.98277 71.281702 184.58144 66.992188 195.38477 C 63.027943 205.36888 42.604132 227.29188 33.652344 245.13477 C 20.821093 270.71026 9.2173298 297.76262 5.0566406 326.07227 C -0.12718173 361.34338 -1.4587766 399.74641 10.164062 432.90039 C 20.622212 462.73209 33.093025 481.83163 54.414062 496.31641 C 93.863547 523.11704 149.79253 529.20117 193.6582 529.20117 C 235.01755 529.20117 305.31318 535.81601 332.38477 495.71484 C 359.37154 455.73931 379.74041 409.75115 384.75195 362.21289 C 388.439 327.23843 380.35124 290.87593 367.55273 258.11914 C 355.69738 227.77626 319.99287 191.92854 313.89453 176.4375 C 299.95555 141.0296 284.61124 117.16284 264.59766 102.8457 C 267.76127 99.111687 271.13847 94.77822 272.85352 91.398438 C 277.3606 82.516521 280.3924 72.537227 280.75977 62.583984 C 281.54417 41.338371 277.11218 -1.511811e-05 268.46484 0 z M 262.97461 129.46484 C 272.8772 129.46484 279.38863 136.73094 279.38867 146.00586 C 279.38867 155.28082 272.8772 163.05273 262.97461 163.05273 C 253.07202 163.05273 245.04297 155.53473 245.04297 146.25977 C 245.04297 136.98484 253.07206 129.46484 262.97461 129.46484 z M 135.94727 129.9707 C 144.59459 129.9707 152.61524 138.74915 152.61523 147.39648 C 152.61522 156.04378 144.08872 164.0625 135.44141 164.0625 C 126.7941 164.0625 118.5215 155.78991 118.52148 147.14258 C 118.52148 138.49525 127.29994 129.9707 135.94727 129.9707 z M 202.61133 218.76758 C 252.26547 218.76758 297.92196 237.53095 324.99219 272.41406 C 343.32142 296.03335 353.39258 324.7452 353.39258 356.95898 C 353.39258 400.67519 345.75488 472.59921 313.35352 499.4707 C 286.61646 521.64455 237.44816 507.01367 199.79883 507.01367 C 148.88647 507.01367 116.13981 519.77073 80.517578 502.03125 C 64.361254 493.98558 49.892993 479.31247 46.115234 460.21875 C 40.406356 431.36466 41.986328 387.4824 41.986328 368.82227 C 41.986328 331.23074 57.748777 289.47243 84.617188 262.46094 C 114.77836 232.13911 158.56986 218.76758 202.61133 218.76758 z "
       id="path846"
       transform="matrix(0.26458333,0,0,0.26458333,39.734743,67.705674)" />
    <path
       inkscape:connector-curvature="0"
       id="path4627"
       d="m 56.680708,108.84086 c -4.964215,-1.29131 -11.508236,-1.00145 -12.40592,-1.93434 0,0 6.371526,-0.0691 11.460979,0.56974 8.323822,0.99858 12.617994,2.11745 12.195507,3.24632 -3.85552,-0.20182 -5.154567,-0.34189 -11.250566,-1.88172 z"
       style="display:inline;opacity:0.98999999;fill:#000000;fill-opacity:0.97260275;stroke:none;stroke-width:0.26458332;stroke-opacity:1" />
    <path
       inkscape:connector-curvature="0"
       id="path4633"
       d="m 61.13765,118.45349 c 10e-7,0.70453 -4.299042,0.8032 -9.35491,1.37017 -5.212187,0.58449 -8.504466,0.89352 -9.68564,0.56696 1.937127,-0.56279 4.713921,-1.2688 9.921875,-1.88988 5.150363,-0.61421 9.118676,-0.75178 9.118675,-0.0472 z"
       style="display:inline;opacity:0.98999999;fill:#000000;fill-opacity:1;stroke:none;stroke-width:0.26458332;stroke-opacity:1" />
    <path
       inkscape:connector-curvature="0"
       id="path4608"
       d="m 68.980652,152.25874 c -0.377973,1.38614 -2.060277,0.44885 -5.126302,0.44885 -1.203443,0 -2.648311,1.4971 -3.672654,2.20467 -1.585386,1.09511 -2.540332,1.29669 -2.54033,0.51203 1e-5,-1.29164 2.863486,-6.30747 5.929502,-6.30747 1.844609,0 2.695936,0.46682 3.864827,0.88227 0,0 1.733941,0.75291 1.544957,2.25965 z"
       style="display:inline;fill:#000000;fill-opacity:1;stroke:none;stroke-width:0.26458332;stroke-opacity:1" />
    <path
       inkscape:connector-curvature="0"
       id="path4611"
       d="m 87.690482,150.36886 c -1.322919,1.98058 -3.100411,-1.11031 -6.283854,-1.11031 -3.183443,0 -4.488465,3.04365 -6.094866,1.44104 -0.28348,-2.12233 3.525634,-5.2208 6.709077,-5.2208 3.183444,0 6.236605,3.24021 5.669643,4.89007 z"
       style="display:inline;fill:#000000;fill-opacity:1;stroke:none;stroke-width:0.26458332;stroke-opacity:1" />
    <path
       inkscape:connector-curvature="0"
       id="path4614"
       d="m 105.43022,149.11541 c -1.38339,1.35455 -2.23995,-1.2518 -5.671864,-1.2518 -3.431908,0 -6.347655,2.97599 -6.147199,0.33408 -1e-6,-1.24707 1.14856,-1.86552 2.074013,-2.60251 1.084698,-0.86381 2.288111,-1.80744 4.140003,-1.80744 1.959627,0 4.090897,1.23148 5.042907,2.4987 0.71525,0.95207 1.2491,2.15634 0.56214,2.82897 z"
       style="display:inline;fill:#000000;fill-opacity:0.97260275;stroke:none;stroke-width:0.26458332;stroke-opacity:1" />
    <path
       inkscape:connector-curvature="0"
       id="path4617"
       d="m 124.5904,153.27455 c -0.99219,1.90902 -2.07649,-1.74814 -5.50427,-2.69308 -3.03123,-0.83563 -5.49194,1.89373 -6.11849,-0.0472 -0.72867,-2.25726 2.5962,-4.20499 5.74051,-4.20499 3.14431,0 6.30749,5.0363 5.88225,6.94532 z"
       style="display:inline;fill:#000000;fill-opacity:0.99315072;stroke:none;stroke-width:0.26458332;stroke-opacity:1" />
    <circle
       r="1.8190104"
       cy="105.95666"
       cx="108.55003"
       id="path4625"
       style="display:inline;fill:#000000;fill-opacity:1;stroke:none;stroke-width:0.27718893;stroke-opacity:1" />
    <path
       inkscape:connector-curvature="0"
       id="path4638"
       d="m 131.56146,104.16041 c -0.89769,0.87238 -4.10366,1.6011 -7.40497,3.16057 -4.2138,1.99049 -8.11287,3.13605 -8.96332,2.52354 -0.25986,-0.80151 3.85191,-1.7975 8.7001,-3.63512 4.58341,-1.73725 6.2744,-1.97642 7.66819,-2.04899 z"
       style="display:inline;fill:#000000;fill-opacity:1;stroke:none;stroke-width:0.26458332;stroke-opacity:1" />
    <path
       inkscape:connector-curvature="0"
       id="path4599"
       d="m 76.64428,139.70714 c 0.778431,2.19065 -0.733153,1.65816 -4.201965,1.65816 -1.125792,0 -2.995862,-0.0139 -4.561737,0.78129 -3.258926,1.65507 -5.876838,4.37529 -5.876835,2.80497 4e-6,-2.32484 5.788591,-7.94201 9.257397,-7.94201 1.952193,0 2.939572,0.59053 3.842932,1.10817 0.701798,0.40214 1.16223,0.52572 1.540208,1.58942 z"
       style="fill:#000000;fill-opacity:1;stroke:none;stroke-width:0.26458332;stroke-opacity:1" />
    <path
       inkscape:connector-curvature="0"
       id="path4602"
       d="m 98.084815,138.41536 c 3e-6,0.54242 -0.97105,0.42959 -2.237743,-0.0229 -1.14028,-0.40731 -2.475337,-1.13466 -4.329593,-1.13466 -1.860743,0 -4.48694,1.71844 -5.986689,2.1714 -1.654976,0.49984 -2.092555,-0.28415 -2.092552,-0.82486 -0.519702,-0.98346 3.928945,-5.55152 7.843005,-5.55152 3.914061,0 7.512262,4.47357 6.803572,5.36253 z"
       style="fill:#000000;fill-opacity:1;stroke:none;stroke-width:0.26458332;stroke-opacity:1" />
    <path
       inkscape:connector-curvature="0"
       id="path4605"
       d="m 118.08416,142.18059 c -0.13364,1.11887 -3.07058,-3.7123 -6.7759,-3.7123 -3.70531,-1e-5 -6.34155,2.45915 -6.27475,0.30461 -1e-5,-1.2525 2.90352,-4.40601 6.60884,-4.40601 2.36894,0 5.01004,2.64846 6.12503,4.91029 0.62899,1.27597 1.38586,3.15325 0.31678,2.90341 z"
       style="fill:#000000;fill-opacity:1;stroke:none;stroke-width:0.26458332;stroke-opacity:1" />
    <ellipse
       ry="2.0788691"
       rx="1.984375"
       cy="106.40551"
       cx="76.587425"
       id="path4620"
       style="fill:#000000;fill-opacity:1;stroke:none;stroke-width:0.31816182;stroke-opacity:1" />
    <path
       id="path4643"
       d="m 137.91107,111.43142 c -1.13582,0.52335 -5.11109,0.69284 -10.50703,0.7517 -4.5248,0.7284 -9.80554,1.24163 -10.37341,0.7851 -2.53904,-1.59242 4.7231,-2.40945 10.23977,-1.85418 5.31069,0.53454 10.37338,-0.30619 10.64067,0.31738 z"
       style="fill:#000000;fill-opacity:1;stroke:none;stroke-width:0.26458332;stroke-opacity:1"
       inkscape:connector-curvature="0" />
    <path
       inkscape:connector-curvature="0"
       id="path4646"
       d="m 137.34312,117.4951 c -3e-5,0.73804 -5.16497,-0.735 -10.28987,-1.36977 -5.21867,-0.64638 -9.35441,-0.36444 -9.35444,-1.10248 -10e-6,-0.73804 4.39654,-0.3675 9.42125,-0.0334 5.24699,0.34887 10.22307,1.76761 10.22306,2.50566 z"
       style="display:inline;opacity:1;fill:#000000;fill-opacity:1;stroke:none;stroke-width:0.26458332;stroke-opacity:1" />
    <path
       inkscape:connector-curvature="0"
       id="path4630"
       d="m 65.815101,113.94141 c -0.25019,1.83849 -5.879868,0.41829 -12.922061,-0.35436 -7.320688,-0.8032 -12.118839,-0.75587 -13.158297,-1.15754 0,0 6.168306,-0.0709 13.252791,-0.0709 7.084484,0 12.827567,1.5828 12.827567,1.5828 z"
       style="display:inline;opacity:1;fill:#000000;fill-opacity:1;stroke:none;stroke-width:0.26458332;stroke-opacity:1" />
  </g>
</svg>
