<?xml version="1.0" encoding="UTF-8" standalone="no"?>
<!-- Created with Inkscape (http://www.inkscape.org/) -->

<svg
   xmlns:dc="http://purl.org/dc/elements/1.1/"
   xmlns:cc="http://creativecommons.org/ns#"
   xmlns:rdf="http://www.w3.org/1999/02/22-rdf-syntax-ns#"
   xmlns:svg="http://www.w3.org/2000/svg"
   xmlns="http://www.w3.org/2000/svg"
   xmlns:sodipodi="http://sodipodi.sourceforge.net/DTD/sodipodi-0.dtd"
   xmlns:inkscape="http://www.inkscape.org/namespaces/inkscape"
   width="102.03555mm"
   height="140.12537mm"
   viewBox="0 0 102.03555 140.12536"
   version="1.1"
   id="svg8"
   inkscape:version="0.92.4 5da689c313, 2019-01-14"
   sodipodi:docname="logo_trace_i.svg">
  <defs
     id="defs2" />
  <sodipodi:namedview
     id="base"
     pagecolor="#ffffff"
     bordercolor="#666666"
     borderopacity="1.0"
     inkscape:pageopacity="0.0"
     inkscape:pageshadow="2"
     inkscape:zoom="0.7"
     inkscape:cx="116.58455"
     inkscape:cy="213.88071"
     inkscape:document-units="mm"
     inkscape:current-layer="layer1"
     showgrid="false"
     inkscape:window-width="1280"
     inkscape:window-height="740"
     inkscape:window-x="0"
     inkscape:window-y="31"
     inkscape:window-maximized="1"
     showguides="true"
     scale-x="1"
     fit-margin-top="0"
     fit-margin-left="0"
     fit-margin-right="0"
     fit-margin-bottom="0" />
  <metadata
     id="metadata5">
    <rdf:RDF>
      <cc:Work
         rdf:about="">
        <dc:format>image/svg+xml</dc:format>
        <dc:type
           rdf:resource="http://purl.org/dc/dcmitype/StillImage" />
        <dc:title />
      </cc:Work>
    </rdf:RDF>
  </metadata>
  <g
     inkscape:label="0"
     inkscape:groupmode="layer"
     id="layer1"
     style="display:inline;opacity:1"
     transform="translate(-39.734743,-67.705674)">
    <path
       sodipodi:nodetypes="ccccc"
       inkscape:connector-curvature="0"
       id="path4627-3"
       d="m 56.680708,108.84086 c -4.964215,-1.29131 -11.508236,-1.00145 -12.40592,-1.93434 0,0 6.371526,-0.0691 11.460979,0.56974 8.323822,0.99858 12.617995,2.11745 12.195508,3.24632 -3.855521,-0.20182 -5.154568,-0.34189 -11.250567,-1.88172 z"
       style="display:inline;opacity:0.98999999;fill:#000000;fill-opacity:0.97260275;stroke:none;stroke-width:0.26458332;stroke-opacity:1" />
    <path
       sodipodi:nodetypes="aacssca"
       inkscape:connector-curvature="0"
       id="path4659-6"
       d="m 114.01894,84.264345 c -0.0972,2.633462 -0.89941,5.273976 -2.09191,7.623983 -0.99024,1.95143 -4.08378,5.140104 -4.08378,5.140104 -3.36932,-0.534548 -4.09175,-2.202185 -4.85054,-4.952625 -0.65129,-2.360821 -0.85799,-7.172513 -0.24378,-10.534186 1.32652,-7.260245 5.72899,-13.835932 8.01692,-13.835946 2.28794,-4e-6 3.46063,10.937435 3.25309,16.55867 z"
       style="display:inline;fill:#050000;fill-opacity:1;stroke:none;stroke-width:0.26458332;stroke-opacity:1" />
    <path
       sodipodi:nodetypes="cscsc"
       inkscape:connector-curvature="0"
       id="path4633-7"
       d="m 61.13765,118.45349 c 10e-7,0.70453 -4.299042,0.8032 -9.35491,1.37017 -5.212187,0.58449 -8.504466,0.89352 -9.68564,0.56696 1.937127,-0.56279 4.713921,-1.2688 9.921875,-1.88988 5.150363,-0.61421 9.118676,-0.75178 9.118675,-0.0472 z"
       style="display:inline;opacity:0.98999999;fill:#000000;fill-opacity:1;stroke:none;stroke-width:0.26458332;stroke-opacity:1" />
    <path
       sodipodi:nodetypes="assasaassssaa"
       inkscape:connector-curvature="0"
       id="path846-5"
       d="m 141.53344,163.54131 c -1.32597,12.57783 -6.71497,24.74557 -13.85522,35.32243 -7.16269,10.6101 -25.76153,8.85954 -36.704523,8.85954 -11.606125,0 -26.404474,-1.60968 -36.842149,-8.70068 -5.641191,-3.83243 -8.940551,-8.8858 -11.707602,-16.77877 -3.07521,-8.77199 -2.722868,-18.93278 -1.351315,-28.26493 1.100849,-7.49026 4.171241,-14.648 7.566176,-21.41485 2.368494,-4.72093 7.771953,-10.52141 8.820825,-13.16304 1.134934,-2.85838 1.80688,-5.92685 3.009523,-8.37899 7.350598,-14.987579 20.743291,-20.614889 33.30694,-20.614891 14.365795,-2e-6 22.302385,6.941685 29.010165,23.980841 1.61352,4.09867 11.06005,13.58368 14.19678,21.6119 3.38627,8.6669 5.52593,18.28778 4.5504,27.54144 z"
       style="display:inline;opacity:1;fill:#000000;fill-opacity:1;stroke:none;stroke-width:0.7409718;stroke-opacity:1" />
    <a
       transform="matrix(2.31973,0,0,1.2523934,-125.79216,-35.328443)"
       id="a877-3"
       style="display:inline;opacity:1;fill:#ffffff;fill-opacity:1">
      <path
         sodipodi:nodetypes="sssassssss"
         inkscape:connector-curvature="0"
         id="path875-5"
         d="m 111.66332,157.68154 c 0,9.23558 -0.87117,24.43076 -4.5668,30.10769 -3.04957,4.6845 -8.65762,1.59346 -12.95182,1.59346 -5.806952,0 -9.541895,2.69516 -13.604889,-1.05252 -1.842755,-1.69974 -3.492941,-4.79974 -3.923824,-8.83352 -0.651142,-6.09578 -0.47097,-15.36633 -0.47097,-19.30851 0,-7.94167 1.797873,-16.76376 4.862425,-22.47027 3.440117,-6.40585 8.434693,-9.23088 13.457966,-9.23088 5.663442,0 10.871012,3.96388 13.958582,11.33336 2.09059,4.98986 3.23933,11.05563 3.23933,17.86119 z"
         style="fill:#ffffff;fill-opacity:1;stroke:none;stroke-width:0.26458332;stroke-opacity:1" />
    </a>
    <path
       style="display:inline;fill:#ffffff;fill-opacity:1;stroke:none;stroke-width:0.99999994;stroke-opacity:1"
       d="M 135.94727 129.9707 C 127.29994 129.9707 118.52147 138.49525 118.52148 147.14258 C 118.5215 155.78991 126.7941 164.0625 135.44141 164.0625 C 144.08872 164.0625 152.61522 156.04378 152.61523 147.39648 C 152.61523 138.74915 144.59459 129.9707 135.94727 129.9707 z M 139.28516 138.41016 A 7.5 7.8571431 0 0 1 146.78516 146.26758 A 7.5 7.8571431 0 0 1 139.28516 154.125 A 7.5 7.8571431 0 0 1 131.78516 146.26758 A 7.5 7.8571431 0 0 1 139.28516 138.41016 z "
       transform="matrix(0.26458333,0,0,0.26458333,39.734743,67.705674)"
       id="path4587-6" />
    <path
       sodipodi:nodetypes="sssss"
       inkscape:connector-curvature="0"
       id="path4590-2"
       d="m 113.65637,106.33659 c 0,2.454 -1.72308,4.51018 -4.34314,4.51018 -2.62006,0 -4.74403,-1.98936 -4.74403,-4.44336 0,-2.45399 2.12398,-4.44335 4.74403,-4.44335 2.62006,0 4.34313,1.92254 4.34314,4.37653 z"
       style="display:inline;fill:#ffffff;fill-opacity:1;stroke:none;stroke-width:0.26458332;stroke-opacity:1" />
    <path
       sodipodi:nodetypes="csscssc"
       inkscape:connector-curvature="0"
       id="path4608-9"
       d="m 68.980652,152.25874 c -0.377973,1.38614 -2.060276,0.44885 -5.126302,0.44885 -1.203443,0 -2.648311,1.4971 -3.672654,2.20467 -1.585386,1.09511 -2.540332,1.29669 -2.54033,0.51203 1e-5,-1.29164 2.863486,-6.30747 5.929502,-6.30747 1.844609,0 2.695937,0.46682 3.864827,0.88227 0,0 1.733941,0.75291 1.544957,2.25965 z"
       style="display:inline;fill:#000000;fill-opacity:1;stroke:none;stroke-width:0.26458332;stroke-opacity:1" />
    <path
       sodipodi:nodetypes="cscsc"
       inkscape:connector-curvature="0"
       id="path4611-1"
       d="m 87.690483,150.36886 c -1.32292,1.98058 -3.100412,-1.11031 -6.283854,-1.11031 -3.183443,0 -4.488466,3.04365 -6.094865,1.44104 -0.283483,-2.12233 3.525633,-5.2208 6.709076,-5.2208 3.183443,0 6.236605,3.24021 5.669643,4.89007 z"
       style="display:inline;fill:#000000;fill-opacity:1;stroke:none;stroke-width:0.26458332;stroke-opacity:1" />
    <path
       sodipodi:nodetypes="ascsssa"
       inkscape:connector-curvature="0"
       id="path4614-2"
       d="m 105.43022,149.11541 c -1.38339,1.35455 -2.23995,-1.2518 -5.671864,-1.2518 -3.431908,0 -6.347656,2.97599 -6.147199,0.33408 0,-1.24707 1.148561,-1.86552 2.074013,-2.60251 1.084699,-0.86381 2.288111,-1.80744 4.140004,-1.80744 1.959626,0 4.090896,1.23148 5.042906,2.4987 0.71525,0.95207 1.2491,2.15634 0.56214,2.82897 z"
       style="display:inline;fill:#000000;fill-opacity:0.97260275;stroke:none;stroke-width:0.26458332;stroke-opacity:1" />
    <path
       sodipodi:nodetypes="csascc"
       inkscape:connector-curvature="0"
       id="path4617-7"
       d="m 124.5904,153.27455 c -0.99219,1.90902 -2.07649,-1.74814 -5.50427,-2.69308 -3.03123,-0.83563 -5.49194,1.89373 -6.11849,-0.0472 -0.72867,-2.25726 2.5962,-4.20499 5.74051,-4.20499 3.14431,0 6.30749,5.0363 5.88225,6.94532 z"
       style="display:inline;fill:#000000;fill-opacity:0.99315072;stroke:none;stroke-width:0.26458332;stroke-opacity:1" />
    <circle
       r="1.8190104"
       cy="105.95666"
       cx="108.55003"
       id="path4625-0"
       style="display:inline;fill:#000000;fill-opacity:1;stroke:none;stroke-width:0.27718893;stroke-opacity:1" />
    <path
       sodipodi:nodetypes="cscsc"
       inkscape:connector-curvature="0"
       id="path4638-9"
       d="m 131.56146,104.16041 c -0.89769,0.87238 -4.10366,1.6011 -7.40497,3.16057 -4.2138,1.99049 -8.11287,3.13605 -8.96332,2.52354 -0.25986,-0.80151 3.85191,-1.7975 8.7001,-3.63512 4.58341,-1.73725 6.2744,-1.97642 7.66819,-2.04899 z"
       style="display:inline;fill:#000000;fill-opacity:1;stroke:none;stroke-width:0.26458332;stroke-opacity:1" />
    <path
       sodipodi:nodetypes="sssssss"
       inkscape:connector-curvature="0"
       id="path4599-3"
       d="m 76.644279,139.70714 c 0.778434,2.19065 -0.733152,1.65816 -4.201964,1.65816 -1.125791,0 -2.995861,-0.0139 -4.561737,0.78129 -3.258926,1.65507 -5.876838,4.37529 -5.876835,2.80497 4e-6,-2.32484 5.788591,-7.94201 9.257398,-7.94201 1.952191,0 2.939571,0.59053 3.842933,1.10817 0.701796,0.40214 1.16223,0.52572 1.540205,1.58942 z"
       style="display:inline;fill:#000000;fill-opacity:1;stroke:none;stroke-width:0.26458332;stroke-opacity:1" />
    <path
       sodipodi:nodetypes="cssscsc"
       inkscape:connector-curvature="0"
       id="path4602-6"
       d="m 98.084816,138.41536 c 3e-6,0.54242 -0.97105,0.42959 -2.237742,-0.0229 -1.14028,-0.40731 -2.475339,-1.13466 -4.329594,-1.13466 -1.860744,0 -4.48694,1.71844 -5.98669,2.17141 -1.654975,0.49984 -2.092556,-0.28416 -2.09255,-0.82487 -0.519703,-0.98346 3.928943,-5.55152 7.843004,-5.55152 3.91406,0 7.512261,4.47357 6.803572,5.36253 z"
       style="display:inline;fill:#000000;fill-opacity:1;stroke:none;stroke-width:0.26458332;stroke-opacity:1" />
    <path
       sodipodi:nodetypes="cscssc"
       inkscape:connector-curvature="0"
       id="path4605-0"
       d="m 118.08416,142.18059 c -0.13364,1.11887 -3.07058,-3.7123 -6.7759,-3.7123 -3.70531,-1e-5 -6.34155,2.45915 -6.27475,0.30461 -1e-5,-1.2525 2.90352,-4.40601 6.60884,-4.40601 2.36894,0 5.01004,2.64846 6.12503,4.91029 0.62899,1.27597 1.38586,3.15325 0.31678,2.90341 z"
       style="display:inline;fill:#000000;fill-opacity:1;stroke:none;stroke-width:0.26458332;stroke-opacity:1" />
    <a
       id="a4649-2"
       style="display:inline;opacity:1;fill:#000000;fill-opacity:1">
      <path
         style="fill:#000000;fill-opacity:1;stroke:none;stroke-width:0.26458332;stroke-opacity:1"
         d="m 137.91107,111.43142 c -1.13582,0.52335 -5.11109,0.69284 -10.50703,0.7517 -4.5248,0.7284 -9.80554,1.24163 -10.37341,0.7851 -2.53904,-1.59242 4.7231,-2.40945 10.23977,-1.85418 5.31069,0.53454 10.37338,-0.30619 10.64067,0.31738 z"
         id="path4643-6"
         inkscape:connector-curvature="0"
         sodipodi:nodetypes="cccsc" />
    </a>
    <path
       sodipodi:nodetypes="cscsc"
       inkscape:connector-curvature="0"
       id="path4646-1"
       d="m 137.34312,117.4951 c -3e-5,0.73804 -5.16497,-0.735 -10.28987,-1.36977 -5.21867,-0.64638 -9.35441,-0.36444 -9.35444,-1.10248 -10e-6,-0.73804 4.39654,-0.3675 9.42125,-0.0334 5.24699,0.34887 10.22307,1.76761 10.22306,2.50566 z"
       style="display:inline;opacity:1;fill:#000000;fill-opacity:1;stroke:none;stroke-width:0.26458332;stroke-opacity:1" />
    <path
       sodipodi:nodetypes="cscsc"
       inkscape:connector-curvature="0"
       id="path4630-8"
       d="m 65.815101,113.94141 c -0.25019,1.83849 -5.879868,0.41829 -12.922061,-0.35436 -7.320688,-0.8032 -12.118839,-0.75587 -13.158297,-1.15754 0,0 6.168306,-0.0709 13.252791,-0.0709 7.084484,0 12.827567,1.5828 12.827567,1.5828 z"
       style="display:inline;opacity:1;fill:#000000;fill-opacity:1;stroke:none;stroke-width:0.26458332;stroke-opacity:1" />
    <path
       sodipodi:nodetypes="sssasss"
       inkscape:connector-curvature="0"
       id="path4656-7"
       d="m 81.190647,81.424196 c 0.651174,3.072614 1.152958,7.654754 0.482597,10.888408 -0.778843,3.756968 -6.182471,4.676705 -7.388532,5.072265 -1.152451,0.377975 -3.821128,-4.116274 -4.706956,-6.697051 -1.07533,-3.132868 -0.908484,-6.483801 -0.483261,-9.92508 0.832678,-6.738758 3.379226,-12.24715 5.740968,-12.247151 2.361743,-10e-7 4.796031,5.551636 6.355184,12.908609 z"
       style="display:inline;fill:#050000;fill-opacity:1;stroke:none;stroke-width:1.29443073;stroke-opacity:1" />
  </g>
  <g
     inkscape:groupmode="layer"
     id="layer2"
     inkscape:label="1"
     style="display:none;opacity:0.98999999"
     transform="translate(-39.734743,-67.705674)" />
  <g
     inkscape:groupmode="layer"
     id="layer3"
     inkscape:label="2"
     style="display:none"
     transform="translate(-39.734743,-67.705674)" />
  <g
     inkscape:groupmode="layer"
     id="layer4"
     inkscape:label="3"
     transform="translate(-39.734743,-67.705674)"
     sodipodi:insensitive="true"
     style="display:none">
    <g
       id="g4805"
       style="display:none">
      <path
         sodipodi:nodetypes="ccccc"
         inkscape:connector-curvature="0"
         id="path4627"
         d="m 56.680708,108.84086 c -4.964215,-1.29131 -11.508236,-1.00145 -12.40592,-1.93434 0,0 6.371526,-0.0691 11.460979,0.56974 8.323822,0.99858 12.617994,2.11745 12.195507,3.24632 -3.85552,-0.20182 -5.154567,-0.34189 -11.250566,-1.88172 z"
         style="display:none;opacity:0.98999999;fill:#000000;fill-opacity:0.97260275;stroke:none;stroke-width:0.26458332;stroke-opacity:1" />
      <path
         sodipodi:nodetypes="aacssca"
         inkscape:connector-curvature="0"
         id="path4659"
         d="m 114.01894,84.264344 c -0.0972,2.633462 -0.89941,5.273976 -2.09191,7.623983 -0.99024,1.95143 -4.08378,5.140103 -4.08378,5.140103 -3.36932,-0.534546 -4.09175,-2.202184 -4.85054,-4.952624 -0.65129,-2.360821 -0.85799,-7.172513 -0.24378,-10.534186 1.32652,-7.260245 5.72899,-13.835932 8.01692,-13.835946 2.28794,-4e-6 3.46063,10.937435 3.25309,16.55867 z"
         style="display:none;fill:#050000;fill-opacity:1;stroke:none;stroke-width:0.26458332;stroke-opacity:1" />
      <path
         sodipodi:nodetypes="cscsc"
         inkscape:connector-curvature="0"
         id="path4633"
         d="m 61.13765,118.45349 c 10e-7,0.70453 -4.299042,0.8032 -9.35491,1.37017 -5.212187,0.58449 -8.504466,0.89352 -9.68564,0.56696 1.937127,-0.56279 4.713921,-1.2688 9.921875,-1.88988 5.150363,-0.61421 9.118676,-0.75178 9.118675,-0.0472 z"
         style="display:inline;opacity:0.98999999;fill:#000000;fill-opacity:1;stroke:none;stroke-width:0.26458332;stroke-opacity:1" />
      <path
         sodipodi:nodetypes="assasaassssaa"
         inkscape:connector-curvature="0"
         id="path846"
         d="m 141.53344,163.54131 c -1.32597,12.57783 -6.71497,24.74557 -13.85522,35.32243 -7.16269,10.6101 -25.76153,8.85954 -36.704524,8.85954 -11.606125,0 -26.404473,-1.60968 -36.842148,-8.70068 -5.641191,-3.83243 -8.940551,-8.8858 -11.707602,-16.77877 -3.07521,-8.77199 -2.722868,-18.93278 -1.351315,-28.26493 1.100849,-7.49026 4.171241,-14.648 7.566176,-21.41485 2.368494,-4.72093 7.771953,-10.52141 8.820825,-13.16304 1.134934,-2.85838 1.80688,-5.92685 3.009523,-8.37899 7.350597,-14.98758 20.74329,-20.61489 33.30694,-20.614892 14.365795,-2e-6 22.302385,6.941684 29.010165,23.980842 1.61352,4.09867 11.06005,13.58368 14.19678,21.6119 3.38627,8.6669 5.52593,18.28778 4.5504,27.54144 z"
         style="display:inline;opacity:1;fill:#000000;fill-opacity:1;stroke:none;stroke-width:0.7409718;stroke-opacity:1" />
      <a
         transform="matrix(2.31973,0,0,1.2523934,-125.79216,-35.328445)"
         id="a877"
         style="display:inline;opacity:1;fill:#ffffff;fill-opacity:1">
        <path
           sodipodi:nodetypes="sssassssss"
           inkscape:connector-curvature="0"
           id="path875"
           d="m 111.66332,157.68154 c 0,9.23558 -0.87117,24.43076 -4.5668,30.10769 -3.04957,4.6845 -8.65762,1.59346 -12.95182,1.59346 -5.806952,0 -9.541895,2.69516 -13.604889,-1.05252 -1.842755,-1.69974 -3.492941,-4.79974 -3.923824,-8.83352 -0.651142,-6.09578 -0.47097,-15.36633 -0.47097,-19.30851 0,-7.94167 1.797873,-16.76376 4.862425,-22.47027 3.440117,-6.40585 8.434693,-9.23088 13.457966,-9.23088 5.663442,0 10.871012,3.96388 13.958582,11.33336 2.09059,4.98986 3.23933,11.05563 3.23933,17.86119 z"
           style="fill:#ffffff;fill-opacity:1;stroke:none;stroke-width:0.26458332;stroke-opacity:1" />
      </a>
      <path
         sodipodi:nodetypes="cscsc"
         inkscape:connector-curvature="0"
         id="path4587"
         d="m 80.11404,106.70409 c -5e-6,2.28793 -2.255648,4.40994 -4.543583,4.40994 -2.287934,0 -4.476759,-2.18882 -4.476764,-4.47676 -10e-7,-2.28794 2.322461,-4.54358 4.610399,-4.54358 2.287939,0 4.409949,2.32246 4.409948,4.6104 z"
         style="display:inline;fill:#ffffff;fill-opacity:1;stroke:none;stroke-width:0.26458332;stroke-opacity:1" />
      <path
         sodipodi:nodetypes="sssss"
         inkscape:connector-curvature="0"
         id="path4590"
         d="m 113.65637,106.33659 c 0,2.454 -1.72308,4.51018 -4.34314,4.51018 -2.62006,0 -4.74403,-1.98936 -4.74403,-4.44336 0,-2.45399 2.12398,-4.44335 4.74403,-4.44335 2.62006,0 4.34313,1.92254 4.34314,4.37653 z"
         style="display:inline;fill:#ffffff;fill-opacity:1;stroke:none;stroke-width:0.26458332;stroke-opacity:1" />
      <path
         sodipodi:nodetypes="csscssc"
         inkscape:connector-curvature="0"
         id="path4608"
         d="m 68.980652,152.25874 c -0.377973,1.38614 -2.060277,0.44885 -5.126302,0.44885 -1.203443,0 -2.648311,1.4971 -3.672654,2.20467 -1.585386,1.09511 -2.540332,1.29669 -2.54033,0.51203 1e-5,-1.29164 2.863486,-6.30747 5.929502,-6.30747 1.844609,0 2.695936,0.46682 3.864827,0.88227 0,0 1.733941,0.75291 1.544957,2.25965 z"
         style="display:inline;fill:#000000;fill-opacity:1;stroke:none;stroke-width:0.26458332;stroke-opacity:1" />
      <path
         sodipodi:nodetypes="cscsc"
         inkscape:connector-curvature="0"
         id="path4611"
         d="m 87.690482,150.36886 c -1.322919,1.98058 -3.100411,-1.11031 -6.283854,-1.11031 -3.183443,0 -4.488465,3.04365 -6.094866,1.44104 -0.28348,-2.12233 3.525634,-5.2208 6.709077,-5.2208 3.183444,0 6.236605,3.24021 5.669643,4.89007 z"
         style="display:inline;fill:#000000;fill-opacity:1;stroke:none;stroke-width:0.26458332;stroke-opacity:1" />
      <path
         sodipodi:nodetypes="ascsssa"
         inkscape:connector-curvature="0"
         id="path4614"
         d="m 105.43022,149.11541 c -1.38339,1.35455 -2.23995,-1.2518 -5.671864,-1.2518 -3.431908,0 -6.347655,2.97599 -6.147199,0.33408 -1e-6,-1.24707 1.14856,-1.86552 2.074013,-2.60251 1.084698,-0.86381 2.288111,-1.80744 4.140003,-1.80744 1.959627,0 4.090897,1.23148 5.042907,2.4987 0.71525,0.95207 1.2491,2.15634 0.56214,2.82897 z"
         style="display:inline;fill:#000000;fill-opacity:0.97260275;stroke:none;stroke-width:0.26458332;stroke-opacity:1" />
      <path
         sodipodi:nodetypes="csascc"
         inkscape:connector-curvature="0"
         id="path4617"
         d="m 124.5904,153.27455 c -0.99219,1.90902 -2.07649,-1.74814 -5.50427,-2.69308 -3.03123,-0.83563 -5.49194,1.89373 -6.11849,-0.0472 -0.72867,-2.25726 2.5962,-4.20499 5.74051,-4.20499 3.14431,0 6.30749,5.0363 5.88225,6.94532 z"
         style="display:inline;fill:#000000;fill-opacity:0.99315072;stroke:none;stroke-width:0.26458332;stroke-opacity:1" />
      <circle
         r="1.8190104"
         cy="105.95666"
         cx="108.55003"
         id="path4625"
         style="display:inline;fill:#000000;fill-opacity:1;stroke:none;stroke-width:0.27718893;stroke-opacity:1" />
      <path
         sodipodi:nodetypes="cscsc"
         inkscape:connector-curvature="0"
         id="path4638"
         d="m 131.56146,104.16041 c -0.89769,0.87238 -4.10366,1.6011 -7.40497,3.16057 -4.2138,1.99049 -8.11287,3.13605 -8.96332,2.52354 -0.25986,-0.80151 3.85191,-1.7975 8.7001,-3.63512 4.58341,-1.73725 6.2744,-1.97642 7.66819,-2.04899 z"
         style="display:inline;fill:#000000;fill-opacity:1;stroke:none;stroke-width:0.26458332;stroke-opacity:1" />
      <path
         sodipodi:nodetypes="sssssss"
         inkscape:connector-curvature="0"
         id="path4599"
         d="m 76.64428,139.70714 c 0.778431,2.19065 -0.733153,1.65816 -4.201965,1.65816 -1.125792,0 -2.995862,-0.0139 -4.561737,0.78129 -3.258926,1.65507 -5.876838,4.37529 -5.876835,2.80497 4e-6,-2.32484 5.788591,-7.94201 9.257397,-7.94201 1.952193,0 2.939572,0.59053 3.842932,1.10817 0.701798,0.40214 1.16223,0.52572 1.540208,1.58942 z"
         style="fill:#000000;fill-opacity:1;stroke:none;stroke-width:0.26458332;stroke-opacity:1" />
      <path
         sodipodi:nodetypes="cssscsc"
         inkscape:connector-curvature="0"
         id="path4602"
         d="m 98.084815,138.41536 c 3e-6,0.54242 -0.97105,0.42959 -2.237743,-0.0229 -1.14028,-0.40731 -2.475337,-1.13466 -4.329593,-1.13466 -1.860743,0 -4.48694,1.71844 -5.986689,2.1714 -1.654976,0.49984 -2.092555,-0.28415 -2.092552,-0.82486 -0.519702,-0.98346 3.928945,-5.55152 7.843005,-5.55152 3.914061,0 7.512262,4.47357 6.803572,5.36253 z"
         style="fill:#000000;fill-opacity:1;stroke:none;stroke-width:0.26458332;stroke-opacity:1" />
      <path
         sodipodi:nodetypes="cscssc"
         inkscape:connector-curvature="0"
         id="path4605"
         d="m 118.08416,142.18059 c -0.13364,1.11887 -3.07058,-3.7123 -6.7759,-3.7123 -3.70531,-1e-5 -6.34155,2.45915 -6.27475,0.30461 -1e-5,-1.2525 2.90352,-4.40601 6.60884,-4.40601 2.36894,0 5.01004,2.64846 6.12503,4.91029 0.62899,1.27597 1.38586,3.15325 0.31678,2.90341 z"
         style="fill:#000000;fill-opacity:1;stroke:none;stroke-width:0.26458332;stroke-opacity:1" />
      <ellipse
         ry="2.0788691"
         rx="1.984375"
         cy="106.40551"
         cx="76.587425"
         id="path4620"
         style="fill:#000000;fill-opacity:1;stroke:none;stroke-width:0.31816182;stroke-opacity:1" />
      <a
         id="a4649"
         style="display:inline;opacity:1;fill:#000000;fill-opacity:1">
        <path
           style="fill:#000000;fill-opacity:1;stroke:none;stroke-width:0.26458332;stroke-opacity:1"
           d="m 137.91107,111.43142 c -1.13582,0.52335 -5.11109,0.69284 -10.50703,0.7517 -4.5248,0.7284 -9.80554,1.24163 -10.37341,0.7851 -2.53904,-1.59242 4.7231,-2.40945 10.23977,-1.85418 5.31069,0.53454 10.37338,-0.30619 10.64067,0.31738 z"
           id="path4643"
           inkscape:connector-curvature="0"
           sodipodi:nodetypes="cccsc" />
      </a>
      <path
         sodipodi:nodetypes="cscsc"
         inkscape:connector-curvature="0"
         id="path4646"
         d="m 137.34312,117.4951 c -3e-5,0.73804 -5.16497,-0.735 -10.28987,-1.36977 -5.21867,-0.64638 -9.35441,-0.36444 -9.35444,-1.10248 -10e-6,-0.73804 4.39654,-0.3675 9.42125,-0.0334 5.24699,0.34887 10.22307,1.76761 10.22306,2.50566 z"
         style="display:inline;opacity:1;fill:#000000;fill-opacity:1;stroke:none;stroke-width:0.26458332;stroke-opacity:1" />
      <path
         sodipodi:nodetypes="cscsc"
         inkscape:connector-curvature="0"
         id="path4630"
         d="m 65.815101,113.94141 c -0.25019,1.83849 -5.879868,0.41829 -12.922061,-0.35436 -7.320688,-0.8032 -12.118839,-0.75587 -13.158297,-1.15754 0,0 6.168306,-0.0709 13.252791,-0.0709 7.084484,0 12.827567,1.5828 12.827567,1.5828 z"
         style="display:inline;opacity:1;fill:#000000;fill-opacity:1;stroke:none;stroke-width:0.26458332;stroke-opacity:1" />
      <path
         sodipodi:nodetypes="sssasss"
         inkscape:connector-curvature="0"
         id="path4656"
         d="m 81.190646,81.424195 c 0.651174,3.072614 1.152958,7.654754 0.482598,10.888408 -0.778845,3.756967 -6.182472,4.676705 -7.388532,5.072264 -1.15245,0.377976 -3.821128,-4.116273 -4.706957,-6.69705 -1.07533,-3.132868 -0.908484,-6.483801 -0.483261,-9.92508 0.832678,-6.738758 3.379228,-12.24715 5.74097,-12.247151 2.361742,-10e-7 4.79603,5.551636 6.355182,12.908609 z"
         style="fill:#050000;fill-opacity:1;stroke:none;stroke-width:1.29443073;stroke-opacity:1" />
    </g>
  </g>
</svg>
