<?xml version="1.0" encoding="UTF-8" standalone="no"?>
<svg
   xmlns:dc="http://purl.org/dc/elements/1.1/"
   xmlns:cc="http://creativecommons.org/ns#"
   xmlns:rdf="http://www.w3.org/1999/02/22-rdf-syntax-ns#"
   xmlns:svg="http://www.w3.org/2000/svg"
   xmlns="http://www.w3.org/2000/svg"
   xmlns:sodipodi="http://sodipodi.sourceforge.net/DTD/sodipodi-0.dtd"
   xmlns:inkscape="http://www.inkscape.org/namespaces/inkscape"
   id="svg8"
   version="1.1"
   viewBox="0 0 102.03555 140.12536"
   height="140.12537mm"
   width="102.03555mm"
   sodipodi:docname="logo_trace_flat_invert.svg"
   inkscape:version="0.92.4 5da689c313, 2019-01-14">
  <sodipodi:namedview
     pagecolor="#ffffff"
     bordercolor="#666666"
     borderopacity="1"
     objecttolerance="10"
     gridtolerance="10"
     guidetolerance="10"
     inkscape:pageopacity="0"
     inkscape:pageshadow="2"
     inkscape:window-width="1280"
     inkscape:window-height="740"
     id="namedview33"
     showgrid="false"
     inkscape:zoom="2.520767"
     inkscape:cx="171.64223"
     inkscape:cy="281.43964"
     inkscape:window-x="0"
     inkscape:window-y="31"
     inkscape:window-maximized="1"
     inkscape:current-layer="layer4" />
  <defs
     id="defs2" />
  <metadata
     id="metadata5">
    <rdf:RDF>
      <cc:Work
         rdf:about="">
        <dc:format>image/svg+xml</dc:format>
        <dc:type
           rdf:resource="http://purl.org/dc/dcmitype/StillImage" />
        <dc:title />
      </cc:Work>
    </rdf:RDF>
  </metadata>
  <g
     transform="translate(-39.734743,-67.705674)"
     style="display:inline;opacity:1"
     id="layer1" />
  <g
     transform="translate(-39.734743,-67.705674)"
     style="display:inline;opacity:0.98999999"
     id="layer2" />
  <g
     transform="translate(-39.734743,-67.705674)"
     style="display:inline"
     id="layer3" />
  <g
     transform="translate(-39.734743,-67.705674)"
     id="layer4">
    <path
       style="display:inline;opacity:1;fill:none;fill-opacity:1;stroke:#000000;stroke-width:2.80052328;stroke-opacity:1"
       d="m 268.46484,0 c -8.64729,5.2913387e-5 -25.28716,24.852672 -30.30078,52.292969 -2.17346,11.895739 -1.62607,28.594506 0.47266,37.998047 -10.30256,-3.031057 -21.67123,-4.490236 -34.38672,-4.490235 -15.2002,3e-6 -30.7187,2.194176 -45.70898,7.015625 2.47768,-12.211157 0.59155,-29.411116 -1.85743,-40.966797 -5.89285,-27.805882 -15.09326,-48.7890659 -24.01953,-48.7890621 -8.92627,3.8e-6 -18.55013,20.8197401 -21.69726,46.2890621 -1.60715,13.006409 -2.23807,25.670958 1.82617,37.511719 2.30103,6.703822 7.78543,16.823192 12.4043,22.033202 -18.48485,12.4073 -34.800108,30.29166 -46.830082,54.82031 -4.545427,9.26793 -7.085486,20.8666 -11.375,31.66993 -3.964245,9.98411 -24.388056,31.90711 -33.339844,49.75 -12.831251,25.57549 -24.4350142,52.62785 -28.5957034,80.9375 -5.18382233,35.27111 -6.5154172,73.67414 5.1074214,106.82812 10.45815,29.8317 22.928963,48.93124 44.25,63.41602 39.449485,26.80063 95.378468,32.88476 139.244138,32.88476 41.35935,0 111.65498,6.61484 138.72657,-33.48633 26.98677,-39.97553 47.35564,-85.96369 52.36718,-133.50195 3.68705,-34.97446 -4.40071,-71.33696 -17.19922,-104.09375 -11.85535,-30.34288 -47.55986,-66.1906 -53.6582,-81.68164 -13.93898,-35.4079 -29.28329,-59.27466 -49.29687,-73.5918 3.16361,-3.734013 6.54081,-8.06748 8.25586,-11.447262 4.50708,-8.881917 7.53888,-18.861211 7.90625,-28.814454 C 281.54417,41.338371 277.11218,-1.511811e-5 268.46484,0 Z"
       transform="matrix(0.26458333,0,0,0.26458333,39.734743,67.705674)"
       id="path845" />
    <path
       id="path843"
       transform="matrix(0.26458333,0,0,0.26458333,39.734743,67.705674)"
       style="display:inline;opacity:1;fill:#000000;fill-opacity:1;stroke:#000000;stroke-width:2.80052328;stroke-opacity:1"
       d="m 262.97461,129.46484 c -9.90255,0 -17.93164,7.52 -17.93164,16.79493 0,7.52281 5.31809,13.81405 12.59765,15.95117 v -11.26172 c -2.57901,-0.99113 -4.42578,-3.45087 -4.42578,-6.37891 0,-3.79696 3.07804,-6.875 6.875,-6.875 3.79696,0 6.875,3.07804 6.875,6.875 0,3.79696 -3.07804,6.875 -6.875,6.875 -0.86892,0 -1.68386,-0.20196 -2.44922,-0.49609 v 11.26172 c 1.69549,0.49776 3.46328,0.84179 5.33399,0.84179 9.90259,0 16.41406,-7.77191 16.41406,-17.04687 -4e-5,-9.27492 -6.51147,-16.54102 -16.41406,-16.54102 z m -127.02734,0.50586 c -8.64733,0 -17.42579,8.52455 -17.42579,17.17188 2e-5,8.64733 8.27262,16.91992 16.91993,16.91992 1.17932,0 2.35039,-0.17553 3.5039,-0.45508 v -9.5 c -4.00246,-0.19019 -7.15544,-3.64248 -7.16015,-7.83984 -1.5e-4,-4.33949 3.35776,-7.85742 7.5,-7.85742 4.14224,0 7.50015,3.51793 7.5,7.85742 1.5e-4,4.33949 -3.35776,7.85742 -7.5,7.85742 -0.1134,-0.003 -0.22671,-0.009 -0.33985,-0.0176 v 9.5 c 7.30451,-1.7702 13.66992,-8.74296 13.66992,-16.21094 1e-5,-8.64733 -8.02064,-17.42578 -16.66796,-17.42578 z" />
    <path
       style="display:inline;opacity:1;fill:#000000;fill-opacity:1;stroke:#000000;stroke-width:2.80052328;stroke-opacity:1"
       d="M 198.55469 218.69531 C 156.6137 218.43303 113.83582 233.08666 84.617188 262.46094 C 67.743142 279.42484 55.264569 302.20744 48.304688 326.11914 L 71.482422 322.26367 C 75.640228 315.40635 82.69287 307.69531 90.089844 307.69531 C 97.061594 307.69531 100.27941 309.45909 104.69727 311.0293 C 104.69727 311.0293 108.40091 312.64392 109.93359 315.86719 L 134.64062 311.75586 C 135.73426 303.90905 148.70782 293.94531 159.82227 293.94531 C 167.61153 293.94531 175.13018 299.07706 178.92773 304.38867 L 205.15234 300.02734 C 206.71979 297.84899 209.21327 296.17937 211.4668 294.38477 C 215.56644 291.11997 220.114 287.55469 227.11328 287.55469 C 233.18215 287.55469 239.54655 290.70903 243.67773 294.47266 L 280.35547 303.39844 C 284.58847 299.66705 291.60428 297.16016 298.48242 297.16016 C 305.1274 297.16016 311.70554 303.13206 316.01172 309.64062 L 307.44531 270.16211 L 293.6543 268.50586 C 294.04325 269.17497 294.60188 269.8488 294.92578 270.50586 C 297.30307 275.32842 300.16366 282.42475 296.12305 281.48047 C 295.61795 285.70927 284.51803 267.44922 270.51367 267.44922 C 256.50935 267.44918 246.54636 276.74275 246.79883 268.59961 C 246.79882 267.24167 247.78575 265.27888 249.4043 263.18945 L 217.4707 259.35352 C 220.25208 262.82043 221.54018 265.98933 220.53516 267.25 C 220.53517 269.30009 216.86564 268.87232 212.07812 267.16211 C 207.76841 265.62267 202.72306 262.875 195.71484 262.875 C 188.68211 262.875 178.75623 269.3681 173.08789 271.08008 C 166.83286 272.96924 165.17772 270.00652 165.17773 267.96289 C 164.5515 266.77783 165.97478 264.17123 168.49219 261.23047 L 135.01953 266.94531 C 136.87287 267.97317 138.35542 268.90979 139.5 272.13086 C 142.4421 280.41048 136.72961 278.39844 123.61914 278.39844 C 119.36418 278.39844 112.29717 278.34614 106.37891 281.35156 C 94.061701 287.60695 84.166004 297.8882 84.166016 291.95312 C 84.166031 283.16633 106.04385 261.93555 119.1543 261.93555 C 126.53266 261.93555 130.26541 264.16857 133.67969 266.125 C 134.20698 266.42715 134.55968 266.69028 135.01953 266.94531 L 168.49219 261.23047 C 173.8708 254.94733 184.74536 246.98047 194.82227 246.98047 C 204.06487 246.98047 212.83936 253.58066 217.4707 259.35352 L 249.4043 263.18945 C 253.42809 257.99503 261.79024 251.94727 271.77734 251.94727 C 280.04265 251.94727 288.98279 260.46946 293.6543 268.50586 L 307.44531 270.16211 L 316.01172 309.64062 C 319.40679 314.7721 321.42338 320.22936 320.71484 323.41016 C 316.96483 330.62535 312.86555 316.8019 299.91016 313.23047 C 288.45354 310.07218 279.15322 320.38853 276.78516 313.05273 C 275.62508 309.45909 277.27472 306.11412 280.35547 303.39844 L 243.67773 294.47266 C 244.58826 295.30217 245.52401 296.13307 246.17383 296.99805 C 248.87714 300.59642 250.89521 305.14723 248.29883 307.68945 C 243.07027 312.80901 239.83234 302.95898 226.86133 302.95898 C 213.89034 302.95898 202.86932 314.20783 203.62695 304.22266 C 203.62695 302.546 204.2869 301.23009 205.15234 300.02734 L 178.92773 304.38867 C 180.99618 307.28179 182.0056 310.22893 181.25 312.42773 C 176.24999 319.91339 169.53191 308.23047 157.5 308.23047 C 145.46809 308.23047 140.53628 319.73484 134.46484 313.67773 C 134.38314 313.06608 134.55035 312.4036 134.64062 311.75586 L 109.93359 315.86719 C 110.43805 316.92807 110.71203 318.16012 110.53516 319.57031 C 109.1066 324.80927 102.74828 321.26758 91.160156 321.26758 C 86.61171 321.26758 81.15083 326.92533 77.279297 329.59961 C 71.287287 333.73861 67.677727 334.5008 67.677734 331.53516 C 67.677748 329.76954 69.126613 326.14902 71.482422 322.26367 L 48.304688 326.11914 C 44.182404 340.28186 41.986328 354.83917 41.986328 368.82227 C 41.986328 387.4824 40.406356 431.36466 46.115234 460.21875 C 49.892993 479.31247 64.361254 493.98558 80.517578 502.03125 C 116.13981 519.77073 148.88647 507.01367 199.79883 507.01367 C 237.44816 507.01367 286.61646 521.64455 313.35352 499.4707 C 345.75488 472.59921 353.39258 400.67519 353.39258 356.95898 C 353.39258 324.7452 343.32142 296.03335 324.99219 272.41406 C 297.92196 237.53095 245.83399 220.03187 202.61133 218.76758 C 201.26062 218.72808 199.90762 218.70381 198.55469 218.69531 z "
       id="path846"
       transform="matrix(0.26458333,0,0,0.26458333,39.734743,67.705674)" />
    <path
       inkscape:connector-curvature="0"
       id="path4627"
       d="m 56.680708,108.84086 c -4.964215,-1.29131 -11.508236,-1.00145 -12.40592,-1.93434 0,0 6.371526,-0.0691 11.460979,0.56974 8.323822,0.99858 12.617994,2.11745 12.195507,3.24632 -3.85552,-0.20182 -5.154567,-0.34189 -11.250566,-1.88172 z"
       style="display:inline;opacity:0.98999999;fill:#000000;fill-opacity:0.97260275;stroke:none;stroke-width:0.26458332;stroke-opacity:1" />
    <path
       inkscape:connector-curvature="0"
       id="path4633"
       d="m 61.13765,118.45349 c 10e-7,0.70453 -4.299042,0.8032 -9.35491,1.37017 -5.212187,0.58449 -8.504466,0.89352 -9.68564,0.56696 1.937127,-0.56279 4.713921,-1.2688 9.921875,-1.88988 5.150363,-0.61421 9.118676,-0.75178 9.118675,-0.0472 z"
       style="display:inline;opacity:0.98999999;fill:#000000;fill-opacity:1;stroke:none;stroke-width:0.26458332;stroke-opacity:1" />
    <path
       inkscape:connector-curvature="0"
       id="path4638"
       d="m 131.56146,104.16041 c -0.89769,0.87238 -4.10366,1.6011 -7.40497,3.16057 -4.2138,1.99049 -8.11287,3.13605 -8.96332,2.52354 -0.25986,-0.80151 3.85191,-1.7975 8.7001,-3.63512 4.58341,-1.73725 6.2744,-1.97642 7.66819,-2.04899 z"
       style="display:inline;fill:#000000;fill-opacity:1;stroke:none;stroke-width:0.26458332;stroke-opacity:1" />
    <path
       id="path4643"
       d="m 137.91107,111.43142 c -1.13582,0.52335 -5.11109,0.69284 -10.50703,0.7517 -4.5248,0.7284 -9.80554,1.24163 -10.37341,0.7851 -2.53904,-1.59242 4.7231,-2.40945 10.23977,-1.85418 5.31069,0.53454 10.37338,-0.30619 10.64067,0.31738 z"
       style="fill:#000000;fill-opacity:1;stroke:none;stroke-width:0.26458332;stroke-opacity:1"
       inkscape:connector-curvature="0" />
    <path
       inkscape:connector-curvature="0"
       id="path4646"
       d="m 137.34312,117.4951 c -3e-5,0.73804 -5.16497,-0.735 -10.28987,-1.36977 -5.21867,-0.64638 -9.35441,-0.36444 -9.35444,-1.10248 -10e-6,-0.73804 4.39654,-0.3675 9.42125,-0.0334 5.24699,0.34887 10.22307,1.76761 10.22306,2.50566 z"
       style="display:inline;opacity:1;fill:#000000;fill-opacity:1;stroke:none;stroke-width:0.26458332;stroke-opacity:1" />
    <path
       inkscape:connector-curvature="0"
       id="path4630"
       d="m 65.815101,113.94141 c -0.25019,1.83849 -5.879868,0.41829 -12.922061,-0.35436 -7.320688,-0.8032 -12.118839,-0.75587 -13.158297,-1.15754 0,0 6.168306,-0.0709 13.252791,-0.0709 7.084484,0 12.827567,1.5828 12.827567,1.5828 z"
       style="display:inline;opacity:1;fill:#000000;fill-opacity:1;stroke:none;stroke-width:0.26458332;stroke-opacity:1" />
  </g>
</svg>
