%FSLAX45Y45*%
G04 Gerber Fmt 4.5, Leading zero omitted, Abs format (unit mm)*
G04 Created by KiCad (PCBNEW 5.1.2) date 2019-08-08 06:06:38*
%MOMM*%
%LPD*%
G04 APERTURE LIST*
%ADD10C,0.050000*%
%ADD11C,0.200000*%
%ADD12C,0.300000*%
G04 APERTURE END LIST*
D10*
X13900000Y-10353840D02*
X14986879Y-10353840D01*
X13800000Y-10453840D02*
X13900000Y-10353840D01*
X18593124Y-10383130D02*
X18593124Y-11373079D01*
X18168860Y-11797343D02*
X16430382Y-11797343D01*
X12582716Y-8332520D02*
X12794848Y-8120388D01*
X16613225Y-8403231D02*
X16047539Y-8403231D01*
X16047539Y-8403231D02*
X15481854Y-8968916D01*
X15481854Y-8968916D02*
X14633326Y-8120388D01*
X14633326Y-8120388D02*
X12794848Y-8120388D01*
X12582716Y-8332520D02*
X12582716Y-10453840D01*
X12582716Y-10453840D02*
X13800000Y-10453840D01*
X16430382Y-11797343D02*
X14986879Y-10353840D01*
X18593124Y-11373079D02*
X18168860Y-11797343D01*
X16613225Y-8403231D02*
X18593124Y-10383130D01*
D11*
X16133140Y-8987059D02*
X16153140Y-9007059D01*
X16153140Y-8987059D02*
X16133140Y-9007059D01*
X16216579Y-8903620D02*
X16236579Y-8923620D01*
X16236579Y-8903620D02*
X16216579Y-8923620D01*
X16216579Y-9070498D02*
X16236579Y-9090498D01*
X16236579Y-9070498D02*
X16216579Y-9090498D01*
X16300017Y-8987059D02*
X16320017Y-9007059D01*
X16320017Y-8987059D02*
X16300017Y-9007059D01*
X12664006Y-8360634D02*
G75*
G03X12664006Y-8360634I-12700J0D01*
G01*
X12681966Y-10365028D02*
G75*
G03X12681966Y-10365028I-12700J0D01*
G01*
X12699927Y-10167462D02*
G75*
G03X12699927Y-10167462I-12700J0D01*
G01*
X12771769Y-8576161D02*
G75*
G03X12771769Y-8576161I-12700J0D01*
G01*
X12789729Y-9682528D02*
G75*
G03X12789729Y-9682528I-12700J0D01*
G01*
X12789729Y-9880094D02*
G75*
G03X12789729Y-9880094I-12700J0D01*
G01*
X12789729Y-10005818D02*
G75*
G03X12789729Y-10005818I-12700J0D01*
G01*
X12798709Y-10302166D02*
G75*
G03X12798709Y-10302166I-12700J0D01*
G01*
X12834630Y-8186418D02*
G75*
G03X12834630Y-8186418I-12700J0D01*
G01*
X12984423Y-10281057D02*
G75*
G03X12984423Y-10281057I-12700J0D01*
G01*
X13037584Y-9998633D02*
G75*
G03X13037584Y-9998633I-12700J0D01*
G01*
X13055545Y-8604898D02*
G75*
G03X13055545Y-8604898I-12700J0D01*
G01*
X13068117Y-9655588D02*
G75*
G03X13068117Y-9655588I-12700J0D01*
G01*
X13086078Y-8279812D02*
G75*
G03X13086078Y-8279812I-12700J0D01*
G01*
X13175880Y-8190010D02*
G75*
G03X13175880Y-8190010I-12700J0D01*
G01*
X13228984Y-9995635D02*
G75*
G03X13228984Y-9995635I-12700J0D01*
G01*
X13270674Y-8270080D02*
G75*
G03X13270674Y-8270080I-12700J0D01*
G01*
X13278255Y-10357844D02*
G75*
G03X13278255Y-10357844I-12700J0D01*
G01*
X13315958Y-9596120D02*
G75*
G03X13315958Y-9596120I-12700J0D01*
G01*
X13318786Y-9188826D02*
G75*
G03X13318786Y-9188826I-12700J0D01*
G01*
X13397275Y-9791988D02*
G75*
G03X13397275Y-9791988I-12700J0D01*
G01*
X13415660Y-9285700D02*
G75*
G03X13415660Y-9285700I-12700J0D01*
G01*
X13429802Y-9482276D02*
G75*
G03X13429802Y-9482276I-12700J0D01*
G01*
X13432715Y-8982068D02*
G75*
G03X13432715Y-8982068I-12700J0D01*
G01*
X13597981Y-9918342D02*
G75*
G03X13597981Y-9918342I-12700J0D01*
G01*
X13623097Y-8590529D02*
G75*
G03X13623097Y-8590529I-12700J0D01*
G01*
X13625466Y-9978392D02*
G75*
G03X13625466Y-9978392I-12700J0D01*
G01*
X13629206Y-9282872D02*
G75*
G03X13629206Y-9282872I-12700J0D01*
G01*
X13665025Y-9519755D02*
G75*
G03X13665025Y-9519755I-12700J0D01*
G01*
X13675719Y-9935543D02*
G75*
G03X13675719Y-9935543I-12700J0D01*
G01*
X13694261Y-9999777D02*
G75*
G03X13694261Y-9999777I-12700J0D01*
G01*
X13716211Y-9580730D02*
G75*
G03X13716211Y-9580730I-12700J0D01*
G01*
X13724666Y-9187412D02*
G75*
G03X13724666Y-9187412I-12700J0D01*
G01*
X13790130Y-8585141D02*
G75*
G03X13790130Y-8585141I-12700J0D01*
G01*
X13809886Y-8256464D02*
G75*
G03X13809886Y-8256464I-12700J0D01*
G01*
X13827700Y-10327500D02*
G75*
G03X13827700Y-10327500I-12700J0D01*
G01*
X13839217Y-9996342D02*
G75*
G03X13839217Y-9996342I-12700J0D01*
G01*
X13841338Y-9647739D02*
G75*
G03X13841338Y-9647739I-12700J0D01*
G01*
X13866794Y-9366310D02*
G75*
G03X13866794Y-9366310I-12700J0D01*
G01*
X13955366Y-8915614D02*
G75*
G03X13955366Y-8915614I-12700J0D01*
G01*
X13976919Y-8301365D02*
G75*
G03X13976919Y-8301365I-12700J0D01*
G01*
X14084583Y-8720015D02*
G75*
G03X14084583Y-8720015I-12700J0D01*
G01*
X14101554Y-8302821D02*
G75*
G03X14101554Y-8302821I-12700J0D01*
G01*
X14117110Y-9998464D02*
G75*
G03X14117110Y-9998464I-12700J0D01*
G01*
X14142156Y-9572969D02*
G75*
G03X14142156Y-9572969I-12700J0D01*
G01*
X14153880Y-8992958D02*
G75*
G03X14153880Y-8992958I-12700J0D01*
G01*
X14167300Y-8685720D02*
G75*
G03X14167300Y-8685720I-12700J0D01*
G01*
X14167970Y-8322917D02*
G75*
G03X14167970Y-8322917I-12700J0D01*
G01*
X14216812Y-8736278D02*
G75*
G03X14216812Y-8736278I-12700J0D01*
G01*
X14235648Y-8302384D02*
G75*
G03X14235648Y-8302384I-12700J0D01*
G01*
X14258899Y-8612082D02*
G75*
G03X14258899Y-8612082I-12700J0D01*
G01*
X14276860Y-8870713D02*
G75*
G03X14276860Y-8870713I-12700J0D01*
G01*
X14282523Y-9977452D02*
G75*
G03X14282523Y-9977452I-12700J0D01*
G01*
X14294820Y-9247884D02*
G75*
G03X14294820Y-9247884I-12700J0D01*
G01*
X14314577Y-9037746D02*
G75*
G03X14314577Y-9037746I-12700J0D01*
G01*
X14336382Y-9926904D02*
G75*
G03X14336382Y-9926904I-12700J0D01*
G01*
X14346920Y-9992100D02*
G75*
G03X14346920Y-9992100I-12700J0D01*
G01*
X14361769Y-9654810D02*
G75*
G03X14361769Y-9654810I-12700J0D01*
G01*
X14373846Y-9377200D02*
G75*
G03X14373846Y-9377200I-12700J0D01*
G01*
X14492700Y-10280000D02*
G75*
G03X14492700Y-10280000I-12700J0D01*
G01*
X14524715Y-8446845D02*
G75*
G03X14524715Y-8446845I-12700J0D01*
G01*
X14546267Y-10106396D02*
G75*
G03X14546267Y-10106396I-12700J0D01*
G01*
X14605537Y-8193602D02*
G75*
G03X14605537Y-8193602I-12700J0D01*
G01*
X14626944Y-9971483D02*
G75*
G03X14626944Y-9971483I-12700J0D01*
G01*
X14673984Y-10017836D02*
G75*
G03X14673984Y-10017836I-12700J0D01*
G01*
X14675583Y-9431081D02*
G75*
G03X14675583Y-9431081I-12700J0D01*
G01*
X14680971Y-9303561D02*
G75*
G03X14680971Y-9303561I-12700J0D01*
G01*
X14685624Y-10141299D02*
G75*
G03X14685624Y-10141299I-12700J0D01*
G01*
X14691281Y-8968916D02*
G75*
G03X14691281Y-8968916I-12700J0D01*
G01*
X14697136Y-9107792D02*
G75*
G03X14697136Y-9107792I-12700J0D01*
G01*
X14767182Y-8376799D02*
G75*
G03X14767182Y-8376799I-12700J0D01*
G01*
X14774012Y-9688044D02*
G75*
G03X14774012Y-9688044I-12700J0D01*
G01*
X14786033Y-8718600D02*
G75*
G03X14786033Y-8718600I-12700J0D01*
G01*
X14790983Y-10010484D02*
G75*
G03X14790983Y-10010484I-12700J0D01*
G01*
X14806084Y-8584024D02*
G75*
G03X14806084Y-8584024I-12700J0D01*
G01*
X14813610Y-9627233D02*
G75*
G03X14813610Y-9627233I-12700J0D01*
G01*
X14814742Y-8473517D02*
G75*
G03X14814742Y-8473517I-12700J0D01*
G01*
X14819267Y-9449042D02*
G75*
G03X14819267Y-9449042I-12700J0D01*
G01*
X14837228Y-9538844D02*
G75*
G03X14837228Y-9538844I-12700J0D01*
G01*
X14856984Y-10007044D02*
G75*
G03X14856984Y-10007044I-12700J0D01*
G01*
X14882200Y-9661881D02*
G75*
G03X14882200Y-9661881I-12700J0D01*
G01*
X14889978Y-8589200D02*
G75*
G03X14889978Y-8589200I-12700J0D01*
G01*
X14922781Y-10012715D02*
G75*
G03X14922781Y-10012715I-12700J0D01*
G01*
X14943195Y-8879693D02*
G75*
G03X14943195Y-8879693I-12700J0D01*
G01*
X14943195Y-10252660D02*
G75*
G03X14943195Y-10252660I-12700J0D01*
G01*
X15007357Y-8723550D02*
G75*
G03X15007357Y-8723550I-12700J0D01*
G01*
X15020425Y-9391568D02*
G75*
G03X15020425Y-9391568I-12700J0D01*
G01*
X15043773Y-9282009D02*
G75*
G03X15043773Y-9282009I-12700J0D01*
G01*
X15043773Y-9792087D02*
G75*
G03X15043773Y-9792087I-12700J0D01*
G01*
X15058976Y-10057861D02*
G75*
G03X15058976Y-10057861I-12700J0D01*
G01*
X15112023Y-10007044D02*
G75*
G03X15112023Y-10007044I-12700J0D01*
G01*
X15142556Y-9208371D02*
G75*
G03X15142556Y-9208371I-12700J0D01*
G01*
X15176681Y-9905442D02*
G75*
G03X15176681Y-9905442I-12700J0D01*
G01*
X15179891Y-10007044D02*
G75*
G03X15179891Y-10007044I-12700J0D01*
G01*
X15181306Y-8900327D02*
G75*
G03X15181306Y-8900327I-12700J0D01*
G01*
X15226561Y-10163219D02*
G75*
G03X15226561Y-10163219I-12700J0D01*
G01*
X15241339Y-9181430D02*
G75*
G03X15241339Y-9181430I-12700J0D01*
G01*
X15259300Y-9587338D02*
G75*
G03X15259300Y-9587338I-12700J0D01*
G01*
X15340122Y-10275225D02*
G75*
G03X15340122Y-10275225I-12700J0D01*
G01*
X15382124Y-9085589D02*
G75*
G03X15382124Y-9085589I-12700J0D01*
G01*
X15402984Y-9224535D02*
G75*
G03X15402984Y-9224535I-12700J0D01*
G01*
X15447885Y-10490751D02*
G75*
G03X15447885Y-10490751I-12700J0D01*
G01*
X15455452Y-10106013D02*
G75*
G03X15455452Y-10106013I-12700J0D01*
G01*
X15492786Y-10391969D02*
G75*
G03X15492786Y-10391969I-12700J0D01*
G01*
X15510747Y-9835193D02*
G75*
G03X15510747Y-9835193I-12700J0D01*
G01*
X15528707Y-10320126D02*
G75*
G03X15528707Y-10320126I-12700J0D01*
G01*
X15546668Y-10643416D02*
G75*
G03X15546668Y-10643416I-12700J0D01*
G01*
X15568220Y-9052114D02*
G75*
G03X15568220Y-9052114I-12700J0D01*
G01*
X15584878Y-9477326D02*
G75*
G03X15584878Y-9477326I-12700J0D01*
G01*
X15688556Y-10318330D02*
G75*
G03X15688556Y-10318330I-12700J0D01*
G01*
X15728069Y-9452634D02*
G75*
G03X15728069Y-9452634I-12700J0D01*
G01*
X15761700Y-10389000D02*
G75*
G03X15761700Y-10389000I-12700J0D01*
G01*
X15792727Y-10257265D02*
G75*
G03X15792727Y-10257265I-12700J0D01*
G01*
X15794367Y-10060689D02*
G75*
G03X15794367Y-10060689I-12700J0D01*
G01*
X15822652Y-10910631D02*
G75*
G03X15822652Y-10910631I-12700J0D01*
G01*
X15849522Y-9586927D02*
G75*
G03X15849522Y-9586927I-12700J0D01*
G01*
X15854471Y-8770219D02*
G75*
G03X15854471Y-8770219I-12700J0D01*
G01*
X15893306Y-10375804D02*
G75*
G03X15893306Y-10375804I-12700J0D01*
G01*
X15899726Y-10614354D02*
G75*
G03X15899726Y-10614354I-12700J0D01*
G01*
X15970437Y-9690872D02*
G75*
G03X15970437Y-9690872I-12700J0D01*
G01*
X15974128Y-10248284D02*
G75*
G03X15974128Y-10248284I-12700J0D01*
G01*
X15999428Y-8888306D02*
G75*
G03X15999428Y-8888306I-12700J0D01*
G01*
X16029806Y-8540240D02*
G75*
G03X16029806Y-8540240I-12700J0D01*
G01*
X16031955Y-9920682D02*
G75*
G03X16031955Y-9920682I-12700J0D01*
G01*
X16040582Y-11047527D02*
G75*
G03X16040582Y-11047527I-12700J0D01*
G01*
X16081700Y-11191000D02*
G75*
G03X16081700Y-11191000I-12700J0D01*
G01*
X16104634Y-8827616D02*
G75*
G03X16104634Y-8827616I-12700J0D01*
G01*
X16105240Y-10627251D02*
G75*
G03X16105240Y-10627251I-12700J0D01*
G01*
X16113272Y-8739106D02*
G75*
G03X16113272Y-8739106I-12700J0D01*
G01*
X16113980Y-8650718D02*
G75*
G03X16113980Y-8650718I-12700J0D01*
G01*
X16130030Y-10404895D02*
G75*
G03X16130030Y-10404895I-12700J0D01*
G01*
X16139365Y-10930784D02*
G75*
G03X16139365Y-10930784I-12700J0D01*
G01*
X16182470Y-9766943D02*
G75*
G03X16182470Y-9766943I-12700J0D01*
G01*
X16189654Y-11318731D02*
G75*
G03X16189654Y-11318731I-12700J0D01*
G01*
X16221460Y-8763855D02*
G75*
G03X16221460Y-8763855I-12700J0D01*
G01*
X16256108Y-10814041D02*
G75*
G03X16256108Y-10814041I-12700J0D01*
G01*
X16258936Y-10113722D02*
G75*
G03X16258936Y-10113722I-12700J0D01*
G01*
X16274069Y-9377200D02*
G75*
G03X16274069Y-9377200I-12700J0D01*
G01*
X16302805Y-8522279D02*
G75*
G03X16302805Y-8522279I-12700J0D01*
G01*
X16331815Y-10133600D02*
G75*
G03X16331815Y-10133600I-12700J0D01*
G01*
X16360053Y-9916439D02*
G75*
G03X16360053Y-9916439I-12700J0D01*
G01*
X16362075Y-10391969D02*
G75*
G03X16362075Y-10391969I-12700J0D01*
G01*
X16374902Y-10209889D02*
G75*
G03X16374902Y-10209889I-12700J0D01*
G01*
X16392580Y-9196605D02*
G75*
G03X16392580Y-9196605I-12700J0D01*
G01*
X16409053Y-9129247D02*
G75*
G03X16409053Y-9129247I-12700J0D01*
G01*
X16436420Y-11064781D02*
G75*
G03X16436420Y-11064781I-12700J0D01*
G01*
X16448842Y-10111073D02*
G75*
G03X16448842Y-10111073I-12700J0D01*
G01*
X16450562Y-10040890D02*
G75*
G03X16450562Y-10040890I-12700J0D01*
G01*
X16462654Y-11451639D02*
G75*
G03X16462654Y-11451639I-12700J0D01*
G01*
X16475226Y-8946147D02*
G75*
G03X16475226Y-8946147I-12700J0D01*
G01*
X16485700Y-11727000D02*
G75*
G03X16485700Y-11727000I-12700J0D01*
G01*
X16563699Y-8978816D02*
G75*
G03X16563699Y-8978816I-12700J0D01*
G01*
X16595562Y-8488154D02*
G75*
G03X16595562Y-8488154I-12700J0D01*
G01*
X16606337Y-10086641D02*
G75*
G03X16606337Y-10086641I-12700J0D01*
G01*
X16611726Y-9352055D02*
G75*
G03X16611726Y-9352055I-12700J0D01*
G01*
X16615318Y-8820424D02*
G75*
G03X16615318Y-8820424I-12700J0D01*
G01*
X16651240Y-9987856D02*
G75*
G03X16651240Y-9987856I-12700J0D01*
G01*
X16669200Y-11298974D02*
G75*
G03X16669200Y-11298974I-12700J0D01*
G01*
X16751819Y-10598514D02*
G75*
G03X16751819Y-10598514I-12700J0D01*
G01*
X16794923Y-10347067D02*
G75*
G03X16794923Y-10347067I-12700J0D01*
G01*
X16843417Y-10722442D02*
G75*
G03X16843417Y-10722442I-12700J0D01*
G01*
X16857785Y-10032758D02*
G75*
G03X16857785Y-10032758I-12700J0D01*
G01*
X16875746Y-9565785D02*
G75*
G03X16875746Y-9565785I-12700J0D01*
G01*
X16902687Y-10454830D02*
G75*
G03X16902687Y-10454830I-12700J0D01*
G01*
X16915259Y-9698693D02*
G75*
G03X16915259Y-9698693I-12700J0D01*
G01*
X16918556Y-10058610D02*
G75*
G03X16918556Y-10058610I-12700J0D01*
G01*
X16920647Y-10221344D02*
G75*
G03X16920647Y-10221344I-12700J0D01*
G01*
X16928417Y-10813456D02*
G75*
G03X16928417Y-10813456I-12700J0D01*
G01*
X16977837Y-10764036D02*
G75*
G03X16977837Y-10764036I-12700J0D01*
G01*
X16978121Y-11730027D02*
G75*
G03X16978121Y-11730027I-12700J0D01*
G01*
X17012712Y-10959422D02*
G75*
G03X17012712Y-10959422I-12700J0D01*
G01*
X17015541Y-8889013D02*
G75*
G03X17015541Y-8889013I-12700J0D01*
G01*
X17028410Y-10329107D02*
G75*
G03X17028410Y-10329107I-12700J0D01*
G01*
X17030068Y-10804451D02*
G75*
G03X17030068Y-10804451I-12700J0D01*
G01*
X17035594Y-9290989D02*
G75*
G03X17035594Y-9290989I-12700J0D01*
G01*
X17044575Y-9583745D02*
G75*
G03X17044575Y-9583745I-12700J0D01*
G01*
X17047027Y-10095671D02*
G75*
G03X17047027Y-10095671I-12700J0D01*
G01*
X17082292Y-10778120D02*
G75*
G03X17082292Y-10778120I-12700J0D01*
G01*
X17109232Y-9978877D02*
G75*
G03X17109232Y-9978877I-12700J0D01*
G01*
X17141406Y-11577433D02*
G75*
G03X17141406Y-11577433I-12700J0D01*
G01*
X17156962Y-11256406D02*
G75*
G03X17156962Y-11256406I-12700J0D01*
G01*
X17171271Y-10131184D02*
G75*
G03X17171271Y-10131184I-12700J0D01*
G01*
X17172094Y-9179634D02*
G75*
G03X17172094Y-9179634I-12700J0D01*
G01*
X17190055Y-10638028D02*
G75*
G03X17190055Y-10638028I-12700J0D01*
G01*
X17204423Y-10074067D02*
G75*
G03X17204423Y-10074067I-12700J0D01*
G01*
X17206218Y-10187220D02*
G75*
G03X17206218Y-10187220I-12700J0D01*
G01*
X17215652Y-11026597D02*
G75*
G03X17215652Y-11026597I-12700J0D01*
G01*
X17234956Y-10388376D02*
G75*
G03X17234956Y-10388376I-12700J0D01*
G01*
X17245732Y-9335890D02*
G75*
G03X17245732Y-9335890I-12700J0D01*
G01*
X17267907Y-9886104D02*
G75*
G03X17267907Y-9886104I-12700J0D01*
G01*
X17314314Y-9933090D02*
G75*
G03X17314314Y-9933090I-12700J0D01*
G01*
X17319370Y-10074067D02*
G75*
G03X17319370Y-10074067I-12700J0D01*
G01*
X17333739Y-9628647D02*
G75*
G03X17333739Y-9628647I-12700J0D01*
G01*
X17336567Y-11382271D02*
G75*
G03X17336567Y-11382271I-12700J0D01*
G01*
X17348107Y-10203383D02*
G75*
G03X17348107Y-10203383I-12700J0D01*
G01*
X17363173Y-10977395D02*
G75*
G03X17363173Y-10977395I-12700J0D01*
G01*
X17369094Y-9239738D02*
G75*
G03X17369094Y-9239738I-12700J0D01*
G01*
X17428930Y-10991850D02*
G75*
G03X17428930Y-10991850I-12700J0D01*
G01*
X17439805Y-10908510D02*
G75*
G03X17439805Y-10908510I-12700J0D01*
G01*
X17459462Y-11155290D02*
G75*
G03X17459462Y-11155290I-12700J0D01*
G01*
X17527712Y-10889475D02*
G75*
G03X17527712Y-10889475I-12700J0D01*
G01*
X17549265Y-11281014D02*
G75*
G03X17549265Y-11281014I-12700J0D01*
G01*
X17628602Y-10163927D02*
G75*
G03X17628602Y-10163927I-12700J0D01*
G01*
X17642660Y-9513699D02*
G75*
G03X17642660Y-9513699I-12700J0D01*
G01*
X17644456Y-10779916D02*
G75*
G03X17644456Y-10779916I-12700J0D01*
G01*
X17657028Y-11421106D02*
G75*
G03X17657028Y-11421106I-12700J0D01*
G01*
X17692949Y-11065488D02*
G75*
G03X17692949Y-11065488I-12700J0D01*
G01*
X17728870Y-11726434D02*
G75*
G03X17728870Y-11726434I-12700J0D01*
G01*
X17772145Y-11308732D02*
G75*
G03X17772145Y-11308732I-12700J0D01*
G01*
X17782752Y-11137330D02*
G75*
G03X17782752Y-11137330I-12700J0D01*
G01*
X17836633Y-10620067D02*
G75*
G03X17836633Y-10620067I-12700J0D01*
G01*
X17849206Y-11451639D02*
G75*
G03X17849206Y-11451639I-12700J0D01*
G01*
X17886838Y-11013728D02*
G75*
G03X17886838Y-11013728I-12700J0D01*
G01*
X17943406Y-11070296D02*
G75*
G03X17943406Y-11070296I-12700J0D01*
G01*
X17944396Y-11295382D02*
G75*
G03X17944396Y-11295382I-12700J0D01*
G01*
X17961084Y-10939481D02*
G75*
G03X17961084Y-10939481I-12700J0D01*
G01*
X17962357Y-9833397D02*
G75*
G03X17962357Y-9833397I-12700J0D01*
G01*
X17989298Y-10840981D02*
G75*
G03X17989298Y-10840981I-12700J0D01*
G01*
X18017653Y-10996050D02*
G75*
G03X18017653Y-10996050I-12700J0D01*
G01*
X18059230Y-10491317D02*
G75*
G03X18059230Y-10491317I-12700J0D01*
G01*
X18061140Y-10697297D02*
G75*
G03X18061140Y-10697297I-12700J0D01*
G01*
X18086700Y-11136925D02*
G75*
G03X18086700Y-11136925I-12700J0D01*
G01*
X18088080Y-11209172D02*
G75*
G03X18088080Y-11209172I-12700J0D01*
G01*
X18152738Y-11730027D02*
G75*
G03X18152738Y-11730027I-12700J0D01*
G01*
X18177883Y-10814041D02*
G75*
G03X18177883Y-10814041I-12700J0D01*
G01*
X18271278Y-11345672D02*
G75*
G03X18271278Y-11345672I-12700J0D01*
G01*
X18321567Y-11126553D02*
G75*
G03X18321567Y-11126553I-12700J0D01*
G01*
X18337731Y-10212363D02*
G75*
G03X18337731Y-10212363I-12700J0D01*
G01*
X18533501Y-11345672D02*
G75*
G03X18533501Y-11345672I-12700J0D01*
G01*
X18538889Y-10413521D02*
G75*
G03X18538889Y-10413521I-12700J0D01*
G01*
X12884792Y-9567326D02*
X12884792Y-9618126D01*
X12859392Y-9592726D02*
X12910192Y-9592726D01*
X12888740Y-9962457D02*
X12888740Y-10013257D01*
X12863340Y-9987857D02*
X12914140Y-9987857D01*
X15725806Y-8894726D02*
X15725806Y-8945526D01*
X15700406Y-8920126D02*
X15751206Y-8920126D01*
X15776010Y-8823308D02*
X15776010Y-8874108D01*
X15750610Y-8848708D02*
X15801410Y-8848708D01*
X15780960Y-8962608D02*
X15780960Y-9013408D01*
X15755560Y-8988008D02*
X15806360Y-8988008D01*
X16094011Y-10115817D02*
X16094011Y-10166617D01*
X16068611Y-10141217D02*
X16119411Y-10141217D01*
X16710098Y-8804216D02*
X16710098Y-8855016D01*
X16684698Y-8829616D02*
X16735498Y-8829616D01*
X16766667Y-9903060D02*
X16766667Y-9953860D01*
X16741267Y-9928460D02*
X16792067Y-9928460D01*
X17543749Y-10267786D02*
X17543749Y-10318586D01*
X17518349Y-10293186D02*
X17569149Y-10293186D01*
X17182093Y-9662942D02*
X17182093Y-9616979D01*
X17136130Y-9616979D01*
X17136130Y-9662942D01*
X17182093Y-9662942D01*
X17157344Y-9609909D02*
X17129059Y-9638193D01*
X17189163Y-9641728D02*
X17160879Y-9670013D01*
X17129059Y-9638193D02*
G75*
G03X17160879Y-9670013I15910J-15910D01*
G01*
X17189163Y-9641728D02*
G75*
G03X17157344Y-9609909I-15910J15910D01*
G01*
X17524332Y-10005181D02*
X17524332Y-9959219D01*
X17478370Y-9959219D01*
X17478370Y-10005181D01*
X17524332Y-10005181D01*
X17499583Y-9952148D02*
X17471299Y-9980432D01*
X17531403Y-9983968D02*
X17503119Y-10012252D01*
X17471299Y-9980432D02*
G75*
G03X17503119Y-10012252I15910J-15910D01*
G01*
X17531403Y-9983968D02*
G75*
G03X17499583Y-9952148I-15910J15910D01*
G01*
X17349323Y-9440908D02*
X17384323Y-9405908D01*
X17349323Y-9370908D01*
X17314323Y-9405908D01*
X17349323Y-9440908D01*
X17349323Y-9370553D02*
X17313968Y-9405908D01*
X17384678Y-9405908D02*
X17349323Y-9441263D01*
X17313968Y-9405908D02*
G75*
G03X17349323Y-9441264I17678J-17678D01*
G01*
X17384678Y-9405908D02*
G75*
G03X17349323Y-9370553I-17678J17678D01*
G01*
X17735403Y-9826988D02*
X17770403Y-9791988D01*
X17735403Y-9756988D01*
X17700403Y-9791988D01*
X17735403Y-9826988D01*
X17735403Y-9756633D02*
X17700048Y-9791988D01*
X17770759Y-9791988D02*
X17735403Y-9827344D01*
X17700048Y-9791988D02*
G75*
G03X17735403Y-9827344I17678J-17678D01*
G01*
X17770759Y-9791988D02*
G75*
G03X17735403Y-9756633I-17678J17678D01*
G01*
X16957113Y-11514876D02*
X17037113Y-11594876D01*
X17037113Y-11514876D02*
X16957113Y-11594876D01*
X17037113Y-11554876D02*
G75*
G03X17037113Y-11554876I-40000J0D01*
G01*
X17098535Y-11373455D02*
X17178535Y-11453455D01*
X17178535Y-11373455D02*
X17098535Y-11453455D01*
X17178535Y-11413455D02*
G75*
G03X17178535Y-11413455I-40000J0D01*
G01*
X15581932Y-10003082D02*
X15661932Y-10083082D01*
X15661932Y-10003082D02*
X15581932Y-10083082D01*
X15661932Y-10043082D02*
G75*
G03X15661932Y-10043082I-40000J0D01*
G01*
X15723353Y-9861661D02*
X15803353Y-9941661D01*
X15803353Y-9861661D02*
X15723353Y-9941661D01*
X15803353Y-9901661D02*
G75*
G03X15803353Y-9901661I-40000J0D01*
G01*
X17276398Y-10409906D02*
X17576398Y-10709906D01*
X17576398Y-10409906D02*
X17276398Y-10709906D01*
X17426398Y-10409906D02*
X17426398Y-10709906D01*
X17276398Y-10559906D02*
X17576398Y-10559906D01*
X16357159Y-9490668D02*
X16657159Y-9790668D01*
X16657159Y-9490668D02*
X16357159Y-9790668D01*
X16507159Y-9490668D02*
X16507159Y-9790668D01*
X16357159Y-9640668D02*
X16657159Y-9640668D01*
D12*
X12866645Y-12265557D02*
X12866645Y-11965557D01*
X12938073Y-11965557D01*
X12980930Y-11979843D01*
X13009502Y-12008415D01*
X13023788Y-12036986D01*
X13038073Y-12094129D01*
X13038073Y-12136986D01*
X13023788Y-12194129D01*
X13009502Y-12222700D01*
X12980930Y-12251272D01*
X12938073Y-12265557D01*
X12866645Y-12265557D01*
X13166645Y-12265557D02*
X13166645Y-12065557D01*
X13166645Y-12122700D02*
X13180930Y-12094129D01*
X13195216Y-12079843D01*
X13223788Y-12065557D01*
X13252359Y-12065557D01*
X13352359Y-12265557D02*
X13352359Y-12065557D01*
X13352359Y-11965557D02*
X13338073Y-11979843D01*
X13352359Y-11994129D01*
X13366645Y-11979843D01*
X13352359Y-11965557D01*
X13352359Y-11994129D01*
X13538073Y-12265557D02*
X13509502Y-12251272D01*
X13495216Y-12222700D01*
X13495216Y-11965557D01*
X13695216Y-12265557D02*
X13666645Y-12251272D01*
X13652359Y-12222700D01*
X13652359Y-11965557D01*
X14038073Y-12265557D02*
X14038073Y-11965557D01*
X14138073Y-12179843D01*
X14238073Y-11965557D01*
X14238073Y-12265557D01*
X14509502Y-12265557D02*
X14509502Y-12108415D01*
X14495216Y-12079843D01*
X14466645Y-12065557D01*
X14409502Y-12065557D01*
X14380930Y-12079843D01*
X14509502Y-12251272D02*
X14480930Y-12265557D01*
X14409502Y-12265557D01*
X14380930Y-12251272D01*
X14366645Y-12222700D01*
X14366645Y-12194129D01*
X14380930Y-12165557D01*
X14409502Y-12151272D01*
X14480930Y-12151272D01*
X14509502Y-12136986D01*
X14652359Y-12065557D02*
X14652359Y-12365557D01*
X14652359Y-12079843D02*
X14680930Y-12065557D01*
X14738073Y-12065557D01*
X14766645Y-12079843D01*
X14780930Y-12094129D01*
X14795216Y-12122700D01*
X14795216Y-12208415D01*
X14780930Y-12236986D01*
X14766645Y-12251272D01*
X14738073Y-12265557D01*
X14680930Y-12265557D01*
X14652359Y-12251272D01*
X14923788Y-12236986D02*
X14938073Y-12251272D01*
X14923788Y-12265557D01*
X14909502Y-12251272D01*
X14923788Y-12236986D01*
X14923788Y-12265557D01*
X14923788Y-12079843D02*
X14938073Y-12094129D01*
X14923788Y-12108415D01*
X14909502Y-12094129D01*
X14923788Y-12079843D01*
X14923788Y-12108415D01*
X12560216Y-12749843D02*
X12580216Y-12769843D01*
X12580216Y-12749843D02*
X12560216Y-12769843D01*
X12923788Y-12595557D02*
X12952359Y-12595557D01*
X12980930Y-12609843D01*
X12995216Y-12624129D01*
X13009502Y-12652700D01*
X13023788Y-12709843D01*
X13023788Y-12781272D01*
X13009502Y-12838415D01*
X12995216Y-12866986D01*
X12980930Y-12881272D01*
X12952359Y-12895557D01*
X12923788Y-12895557D01*
X12895216Y-12881272D01*
X12880930Y-12866986D01*
X12866645Y-12838415D01*
X12852359Y-12781272D01*
X12852359Y-12709843D01*
X12866645Y-12652700D01*
X12880930Y-12624129D01*
X12895216Y-12609843D01*
X12923788Y-12595557D01*
X13152359Y-12866986D02*
X13166645Y-12881272D01*
X13152359Y-12895557D01*
X13138073Y-12881272D01*
X13152359Y-12866986D01*
X13152359Y-12895557D01*
X13280930Y-12624129D02*
X13295216Y-12609843D01*
X13323788Y-12595557D01*
X13395216Y-12595557D01*
X13423788Y-12609843D01*
X13438073Y-12624129D01*
X13452359Y-12652700D01*
X13452359Y-12681272D01*
X13438073Y-12724129D01*
X13266645Y-12895557D01*
X13452359Y-12895557D01*
X13638073Y-12595557D02*
X13666645Y-12595557D01*
X13695216Y-12609843D01*
X13709502Y-12624129D01*
X13723788Y-12652700D01*
X13738073Y-12709843D01*
X13738073Y-12781272D01*
X13723788Y-12838415D01*
X13709502Y-12866986D01*
X13695216Y-12881272D01*
X13666645Y-12895557D01*
X13638073Y-12895557D01*
X13609502Y-12881272D01*
X13595216Y-12866986D01*
X13580930Y-12838415D01*
X13566645Y-12781272D01*
X13566645Y-12709843D01*
X13580930Y-12652700D01*
X13595216Y-12624129D01*
X13609502Y-12609843D01*
X13638073Y-12595557D01*
X13866645Y-12895557D02*
X13866645Y-12695557D01*
X13866645Y-12724129D02*
X13880930Y-12709843D01*
X13909502Y-12695557D01*
X13952359Y-12695557D01*
X13980930Y-12709843D01*
X13995216Y-12738415D01*
X13995216Y-12895557D01*
X13995216Y-12738415D02*
X14009502Y-12709843D01*
X14038073Y-12695557D01*
X14080930Y-12695557D01*
X14109502Y-12709843D01*
X14123788Y-12738415D01*
X14123788Y-12895557D01*
X14266645Y-12895557D02*
X14266645Y-12695557D01*
X14266645Y-12724129D02*
X14280930Y-12709843D01*
X14309502Y-12695557D01*
X14352359Y-12695557D01*
X14380930Y-12709843D01*
X14395216Y-12738415D01*
X14395216Y-12895557D01*
X14395216Y-12738415D02*
X14409502Y-12709843D01*
X14438073Y-12695557D01*
X14480930Y-12695557D01*
X14509502Y-12709843D01*
X14523788Y-12738415D01*
X14523788Y-12895557D01*
X15109502Y-12581272D02*
X14852359Y-12966986D01*
X15495216Y-12595557D02*
X15523788Y-12595557D01*
X15552359Y-12609843D01*
X15566645Y-12624129D01*
X15580930Y-12652700D01*
X15595216Y-12709843D01*
X15595216Y-12781272D01*
X15580930Y-12838415D01*
X15566645Y-12866986D01*
X15552359Y-12881272D01*
X15523788Y-12895557D01*
X15495216Y-12895557D01*
X15466645Y-12881272D01*
X15452359Y-12866986D01*
X15438073Y-12838415D01*
X15423788Y-12781272D01*
X15423788Y-12709843D01*
X15438073Y-12652700D01*
X15452359Y-12624129D01*
X15466645Y-12609843D01*
X15495216Y-12595557D01*
X15723788Y-12866986D02*
X15738073Y-12881272D01*
X15723788Y-12895557D01*
X15709502Y-12881272D01*
X15723788Y-12866986D01*
X15723788Y-12895557D01*
X15923788Y-12595557D02*
X15952359Y-12595557D01*
X15980930Y-12609843D01*
X15995216Y-12624129D01*
X16009502Y-12652700D01*
X16023788Y-12709843D01*
X16023788Y-12781272D01*
X16009502Y-12838415D01*
X15995216Y-12866986D01*
X15980930Y-12881272D01*
X15952359Y-12895557D01*
X15923788Y-12895557D01*
X15895216Y-12881272D01*
X15880930Y-12866986D01*
X15866645Y-12838415D01*
X15852359Y-12781272D01*
X15852359Y-12709843D01*
X15866645Y-12652700D01*
X15880930Y-12624129D01*
X15895216Y-12609843D01*
X15923788Y-12595557D01*
X16209502Y-12595557D02*
X16238073Y-12595557D01*
X16266645Y-12609843D01*
X16280930Y-12624129D01*
X16295216Y-12652700D01*
X16309502Y-12709843D01*
X16309502Y-12781272D01*
X16295216Y-12838415D01*
X16280930Y-12866986D01*
X16266645Y-12881272D01*
X16238073Y-12895557D01*
X16209502Y-12895557D01*
X16180930Y-12881272D01*
X16166645Y-12866986D01*
X16152359Y-12838415D01*
X16138073Y-12781272D01*
X16138073Y-12709843D01*
X16152359Y-12652700D01*
X16166645Y-12624129D01*
X16180930Y-12609843D01*
X16209502Y-12595557D01*
X16480930Y-12724129D02*
X16452359Y-12709843D01*
X16438073Y-12695557D01*
X16423788Y-12666986D01*
X16423788Y-12652700D01*
X16438073Y-12624129D01*
X16452359Y-12609843D01*
X16480930Y-12595557D01*
X16538073Y-12595557D01*
X16566645Y-12609843D01*
X16580930Y-12624129D01*
X16595216Y-12652700D01*
X16595216Y-12666986D01*
X16580930Y-12695557D01*
X16566645Y-12709843D01*
X16538073Y-12724129D01*
X16480930Y-12724129D01*
X16452359Y-12738415D01*
X16438073Y-12752700D01*
X16423788Y-12781272D01*
X16423788Y-12838415D01*
X16438073Y-12866986D01*
X16452359Y-12881272D01*
X16480930Y-12895557D01*
X16538073Y-12895557D01*
X16566645Y-12881272D01*
X16580930Y-12866986D01*
X16595216Y-12838415D01*
X16595216Y-12781272D01*
X16580930Y-12752700D01*
X16566645Y-12738415D01*
X16538073Y-12724129D01*
X16709502Y-12595557D02*
X16709502Y-12652700D01*
X16823788Y-12595557D02*
X16823788Y-12652700D01*
X17266645Y-13009843D02*
X17252359Y-12995557D01*
X17223788Y-12952700D01*
X17209502Y-12924129D01*
X17195216Y-12881272D01*
X17180930Y-12809843D01*
X17180930Y-12752700D01*
X17195216Y-12681272D01*
X17209502Y-12638415D01*
X17223788Y-12609843D01*
X17252359Y-12566986D01*
X17266645Y-12552700D01*
X17509502Y-12695557D02*
X17509502Y-12895557D01*
X17438073Y-12581272D02*
X17366645Y-12795557D01*
X17552359Y-12795557D01*
X17895216Y-12895557D02*
X17895216Y-12595557D01*
X18023788Y-12895557D02*
X18023788Y-12738415D01*
X18009502Y-12709843D01*
X17980930Y-12695557D01*
X17938073Y-12695557D01*
X17909502Y-12709843D01*
X17895216Y-12724129D01*
X18209502Y-12895557D02*
X18180930Y-12881272D01*
X18166645Y-12866986D01*
X18152359Y-12838415D01*
X18152359Y-12752700D01*
X18166645Y-12724129D01*
X18180930Y-12709843D01*
X18209502Y-12695557D01*
X18252359Y-12695557D01*
X18280930Y-12709843D01*
X18295216Y-12724129D01*
X18309502Y-12752700D01*
X18309502Y-12838415D01*
X18295216Y-12866986D01*
X18280930Y-12881272D01*
X18252359Y-12895557D01*
X18209502Y-12895557D01*
X18480930Y-12895557D02*
X18452359Y-12881272D01*
X18438073Y-12852700D01*
X18438073Y-12595557D01*
X18709502Y-12881272D02*
X18680930Y-12895557D01*
X18623788Y-12895557D01*
X18595216Y-12881272D01*
X18580930Y-12852700D01*
X18580930Y-12738415D01*
X18595216Y-12709843D01*
X18623788Y-12695557D01*
X18680930Y-12695557D01*
X18709502Y-12709843D01*
X18723788Y-12738415D01*
X18723788Y-12766986D01*
X18580930Y-12795557D01*
X18838073Y-12881272D02*
X18866645Y-12895557D01*
X18923788Y-12895557D01*
X18952359Y-12881272D01*
X18966645Y-12852700D01*
X18966645Y-12838415D01*
X18952359Y-12809843D01*
X18923788Y-12795557D01*
X18880930Y-12795557D01*
X18852359Y-12781272D01*
X18838073Y-12752700D01*
X18838073Y-12738415D01*
X18852359Y-12709843D01*
X18880930Y-12695557D01*
X18923788Y-12695557D01*
X18952359Y-12709843D01*
X19066645Y-13009843D02*
X19080930Y-12995557D01*
X19109502Y-12952700D01*
X19123788Y-12924129D01*
X19138073Y-12881272D01*
X19152359Y-12809843D01*
X19152359Y-12752700D01*
X19138073Y-12681272D01*
X19123788Y-12638415D01*
X19109502Y-12609843D01*
X19080930Y-12566986D01*
X19066645Y-12552700D01*
X12580216Y-13155843D02*
G75*
G03X12580216Y-13155843I-12700J0D01*
G01*
X12923788Y-12991557D02*
X12952359Y-12991557D01*
X12980930Y-13005843D01*
X12995216Y-13020129D01*
X13009502Y-13048700D01*
X13023788Y-13105843D01*
X13023788Y-13177272D01*
X13009502Y-13234415D01*
X12995216Y-13262986D01*
X12980930Y-13277272D01*
X12952359Y-13291557D01*
X12923788Y-13291557D01*
X12895216Y-13277272D01*
X12880930Y-13262986D01*
X12866645Y-13234415D01*
X12852359Y-13177272D01*
X12852359Y-13105843D01*
X12866645Y-13048700D01*
X12880930Y-13020129D01*
X12895216Y-13005843D01*
X12923788Y-12991557D01*
X13152359Y-13262986D02*
X13166645Y-13277272D01*
X13152359Y-13291557D01*
X13138073Y-13277272D01*
X13152359Y-13262986D01*
X13152359Y-13291557D01*
X13280930Y-13020129D02*
X13295216Y-13005843D01*
X13323788Y-12991557D01*
X13395216Y-12991557D01*
X13423788Y-13005843D01*
X13438073Y-13020129D01*
X13452359Y-13048700D01*
X13452359Y-13077272D01*
X13438073Y-13120129D01*
X13266645Y-13291557D01*
X13452359Y-13291557D01*
X13723788Y-12991557D02*
X13580930Y-12991557D01*
X13566645Y-13134415D01*
X13580930Y-13120129D01*
X13609502Y-13105843D01*
X13680930Y-13105843D01*
X13709502Y-13120129D01*
X13723788Y-13134415D01*
X13738073Y-13162986D01*
X13738073Y-13234415D01*
X13723788Y-13262986D01*
X13709502Y-13277272D01*
X13680930Y-13291557D01*
X13609502Y-13291557D01*
X13580930Y-13277272D01*
X13566645Y-13262986D01*
X13866645Y-13291557D02*
X13866645Y-13091557D01*
X13866645Y-13120129D02*
X13880930Y-13105843D01*
X13909502Y-13091557D01*
X13952359Y-13091557D01*
X13980930Y-13105843D01*
X13995216Y-13134415D01*
X13995216Y-13291557D01*
X13995216Y-13134415D02*
X14009502Y-13105843D01*
X14038073Y-13091557D01*
X14080930Y-13091557D01*
X14109502Y-13105843D01*
X14123788Y-13134415D01*
X14123788Y-13291557D01*
X14266645Y-13291557D02*
X14266645Y-13091557D01*
X14266645Y-13120129D02*
X14280930Y-13105843D01*
X14309502Y-13091557D01*
X14352359Y-13091557D01*
X14380930Y-13105843D01*
X14395216Y-13134415D01*
X14395216Y-13291557D01*
X14395216Y-13134415D02*
X14409502Y-13105843D01*
X14438073Y-13091557D01*
X14480930Y-13091557D01*
X14509502Y-13105843D01*
X14523788Y-13134415D01*
X14523788Y-13291557D01*
X15109502Y-12977272D02*
X14852359Y-13362986D01*
X15495216Y-12991557D02*
X15523788Y-12991557D01*
X15552359Y-13005843D01*
X15566645Y-13020129D01*
X15580930Y-13048700D01*
X15595216Y-13105843D01*
X15595216Y-13177272D01*
X15580930Y-13234415D01*
X15566645Y-13262986D01*
X15552359Y-13277272D01*
X15523788Y-13291557D01*
X15495216Y-13291557D01*
X15466645Y-13277272D01*
X15452359Y-13262986D01*
X15438073Y-13234415D01*
X15423788Y-13177272D01*
X15423788Y-13105843D01*
X15438073Y-13048700D01*
X15452359Y-13020129D01*
X15466645Y-13005843D01*
X15495216Y-12991557D01*
X15723788Y-13262986D02*
X15738073Y-13277272D01*
X15723788Y-13291557D01*
X15709502Y-13277272D01*
X15723788Y-13262986D01*
X15723788Y-13291557D01*
X15923788Y-12991557D02*
X15952359Y-12991557D01*
X15980930Y-13005843D01*
X15995216Y-13020129D01*
X16009502Y-13048700D01*
X16023788Y-13105843D01*
X16023788Y-13177272D01*
X16009502Y-13234415D01*
X15995216Y-13262986D01*
X15980930Y-13277272D01*
X15952359Y-13291557D01*
X15923788Y-13291557D01*
X15895216Y-13277272D01*
X15880930Y-13262986D01*
X15866645Y-13234415D01*
X15852359Y-13177272D01*
X15852359Y-13105843D01*
X15866645Y-13048700D01*
X15880930Y-13020129D01*
X15895216Y-13005843D01*
X15923788Y-12991557D01*
X16309502Y-13291557D02*
X16138073Y-13291557D01*
X16223788Y-13291557D02*
X16223788Y-12991557D01*
X16195216Y-13034415D01*
X16166645Y-13062986D01*
X16138073Y-13077272D01*
X16495216Y-12991557D02*
X16523788Y-12991557D01*
X16552359Y-13005843D01*
X16566645Y-13020129D01*
X16580930Y-13048700D01*
X16595216Y-13105843D01*
X16595216Y-13177272D01*
X16580930Y-13234415D01*
X16566645Y-13262986D01*
X16552359Y-13277272D01*
X16523788Y-13291557D01*
X16495216Y-13291557D01*
X16466645Y-13277272D01*
X16452359Y-13262986D01*
X16438073Y-13234415D01*
X16423788Y-13177272D01*
X16423788Y-13105843D01*
X16438073Y-13048700D01*
X16452359Y-13020129D01*
X16466645Y-13005843D01*
X16495216Y-12991557D01*
X16709502Y-12991557D02*
X16709502Y-13048700D01*
X16823788Y-12991557D02*
X16823788Y-13048700D01*
X17266645Y-13405843D02*
X17252359Y-13391557D01*
X17223788Y-13348700D01*
X17209502Y-13320129D01*
X17195216Y-13277272D01*
X17180930Y-13205843D01*
X17180930Y-13148700D01*
X17195216Y-13077272D01*
X17209502Y-13034415D01*
X17223788Y-13005843D01*
X17252359Y-12962986D01*
X17266645Y-12948700D01*
X17366645Y-13020129D02*
X17380930Y-13005843D01*
X17409502Y-12991557D01*
X17480930Y-12991557D01*
X17509502Y-13005843D01*
X17523788Y-13020129D01*
X17538073Y-13048700D01*
X17538073Y-13077272D01*
X17523788Y-13120129D01*
X17352359Y-13291557D01*
X17538073Y-13291557D01*
X17638073Y-12991557D02*
X17823788Y-12991557D01*
X17723788Y-13105843D01*
X17766645Y-13105843D01*
X17795216Y-13120129D01*
X17809502Y-13134415D01*
X17823788Y-13162986D01*
X17823788Y-13234415D01*
X17809502Y-13262986D01*
X17795216Y-13277272D01*
X17766645Y-13291557D01*
X17680930Y-13291557D01*
X17652359Y-13277272D01*
X17638073Y-13262986D01*
X18009502Y-12991557D02*
X18038073Y-12991557D01*
X18066645Y-13005843D01*
X18080930Y-13020129D01*
X18095216Y-13048700D01*
X18109502Y-13105843D01*
X18109502Y-13177272D01*
X18095216Y-13234415D01*
X18080930Y-13262986D01*
X18066645Y-13277272D01*
X18038073Y-13291557D01*
X18009502Y-13291557D01*
X17980930Y-13277272D01*
X17966645Y-13262986D01*
X17952359Y-13234415D01*
X17938073Y-13177272D01*
X17938073Y-13105843D01*
X17952359Y-13048700D01*
X17966645Y-13020129D01*
X17980930Y-13005843D01*
X18009502Y-12991557D01*
X18466645Y-13291557D02*
X18466645Y-12991557D01*
X18595216Y-13291557D02*
X18595216Y-13134415D01*
X18580930Y-13105843D01*
X18552359Y-13091557D01*
X18509502Y-13091557D01*
X18480930Y-13105843D01*
X18466645Y-13120129D01*
X18780930Y-13291557D02*
X18752359Y-13277272D01*
X18738073Y-13262986D01*
X18723788Y-13234415D01*
X18723788Y-13148700D01*
X18738073Y-13120129D01*
X18752359Y-13105843D01*
X18780930Y-13091557D01*
X18823788Y-13091557D01*
X18852359Y-13105843D01*
X18866645Y-13120129D01*
X18880930Y-13148700D01*
X18880930Y-13234415D01*
X18866645Y-13262986D01*
X18852359Y-13277272D01*
X18823788Y-13291557D01*
X18780930Y-13291557D01*
X19052359Y-13291557D02*
X19023788Y-13277272D01*
X19009502Y-13248700D01*
X19009502Y-12991557D01*
X19280930Y-13277272D02*
X19252359Y-13291557D01*
X19195216Y-13291557D01*
X19166645Y-13277272D01*
X19152359Y-13248700D01*
X19152359Y-13134415D01*
X19166645Y-13105843D01*
X19195216Y-13091557D01*
X19252359Y-13091557D01*
X19280930Y-13105843D01*
X19295216Y-13134415D01*
X19295216Y-13162986D01*
X19152359Y-13191557D01*
X19409502Y-13277272D02*
X19438073Y-13291557D01*
X19495216Y-13291557D01*
X19523788Y-13277272D01*
X19538073Y-13248700D01*
X19538073Y-13234415D01*
X19523788Y-13205843D01*
X19495216Y-13191557D01*
X19452359Y-13191557D01*
X19423788Y-13177272D01*
X19409502Y-13148700D01*
X19409502Y-13134415D01*
X19423788Y-13105843D01*
X19452359Y-13091557D01*
X19495216Y-13091557D01*
X19523788Y-13105843D01*
X19638073Y-13405843D02*
X19652359Y-13391557D01*
X19680930Y-13348700D01*
X19695216Y-13320129D01*
X19709502Y-13277272D01*
X19723788Y-13205843D01*
X19723788Y-13148700D01*
X19709502Y-13077272D01*
X19695216Y-13034415D01*
X19680930Y-13005843D01*
X19652359Y-12962986D01*
X19638073Y-12948700D01*
X12554816Y-13526443D02*
X12554816Y-13577243D01*
X12529416Y-13551843D02*
X12580216Y-13551843D01*
X12923788Y-13387557D02*
X12952359Y-13387557D01*
X12980930Y-13401843D01*
X12995216Y-13416129D01*
X13009502Y-13444700D01*
X13023788Y-13501843D01*
X13023788Y-13573272D01*
X13009502Y-13630415D01*
X12995216Y-13658986D01*
X12980930Y-13673272D01*
X12952359Y-13687557D01*
X12923788Y-13687557D01*
X12895216Y-13673272D01*
X12880930Y-13658986D01*
X12866645Y-13630415D01*
X12852359Y-13573272D01*
X12852359Y-13501843D01*
X12866645Y-13444700D01*
X12880930Y-13416129D01*
X12895216Y-13401843D01*
X12923788Y-13387557D01*
X13152359Y-13658986D02*
X13166645Y-13673272D01*
X13152359Y-13687557D01*
X13138073Y-13673272D01*
X13152359Y-13658986D01*
X13152359Y-13687557D01*
X13438073Y-13387557D02*
X13295216Y-13387557D01*
X13280930Y-13530415D01*
X13295216Y-13516129D01*
X13323788Y-13501843D01*
X13395216Y-13501843D01*
X13423788Y-13516129D01*
X13438073Y-13530415D01*
X13452359Y-13558986D01*
X13452359Y-13630415D01*
X13438073Y-13658986D01*
X13423788Y-13673272D01*
X13395216Y-13687557D01*
X13323788Y-13687557D01*
X13295216Y-13673272D01*
X13280930Y-13658986D01*
X13738073Y-13687557D02*
X13566645Y-13687557D01*
X13652359Y-13687557D02*
X13652359Y-13387557D01*
X13623788Y-13430415D01*
X13595216Y-13458986D01*
X13566645Y-13473272D01*
X13866645Y-13687557D02*
X13866645Y-13487557D01*
X13866645Y-13516129D02*
X13880930Y-13501843D01*
X13909502Y-13487557D01*
X13952359Y-13487557D01*
X13980930Y-13501843D01*
X13995216Y-13530415D01*
X13995216Y-13687557D01*
X13995216Y-13530415D02*
X14009502Y-13501843D01*
X14038073Y-13487557D01*
X14080930Y-13487557D01*
X14109502Y-13501843D01*
X14123788Y-13530415D01*
X14123788Y-13687557D01*
X14266645Y-13687557D02*
X14266645Y-13487557D01*
X14266645Y-13516129D02*
X14280930Y-13501843D01*
X14309502Y-13487557D01*
X14352359Y-13487557D01*
X14380930Y-13501843D01*
X14395216Y-13530415D01*
X14395216Y-13687557D01*
X14395216Y-13530415D02*
X14409502Y-13501843D01*
X14438073Y-13487557D01*
X14480930Y-13487557D01*
X14509502Y-13501843D01*
X14523788Y-13530415D01*
X14523788Y-13687557D01*
X15109502Y-13373272D02*
X14852359Y-13758986D01*
X15495216Y-13387557D02*
X15523788Y-13387557D01*
X15552359Y-13401843D01*
X15566645Y-13416129D01*
X15580930Y-13444700D01*
X15595216Y-13501843D01*
X15595216Y-13573272D01*
X15580930Y-13630415D01*
X15566645Y-13658986D01*
X15552359Y-13673272D01*
X15523788Y-13687557D01*
X15495216Y-13687557D01*
X15466645Y-13673272D01*
X15452359Y-13658986D01*
X15438073Y-13630415D01*
X15423788Y-13573272D01*
X15423788Y-13501843D01*
X15438073Y-13444700D01*
X15452359Y-13416129D01*
X15466645Y-13401843D01*
X15495216Y-13387557D01*
X15723788Y-13658986D02*
X15738073Y-13673272D01*
X15723788Y-13687557D01*
X15709502Y-13673272D01*
X15723788Y-13658986D01*
X15723788Y-13687557D01*
X15923788Y-13387557D02*
X15952359Y-13387557D01*
X15980930Y-13401843D01*
X15995216Y-13416129D01*
X16009502Y-13444700D01*
X16023788Y-13501843D01*
X16023788Y-13573272D01*
X16009502Y-13630415D01*
X15995216Y-13658986D01*
X15980930Y-13673272D01*
X15952359Y-13687557D01*
X15923788Y-13687557D01*
X15895216Y-13673272D01*
X15880930Y-13658986D01*
X15866645Y-13630415D01*
X15852359Y-13573272D01*
X15852359Y-13501843D01*
X15866645Y-13444700D01*
X15880930Y-13416129D01*
X15895216Y-13401843D01*
X15923788Y-13387557D01*
X16138073Y-13416129D02*
X16152359Y-13401843D01*
X16180930Y-13387557D01*
X16252359Y-13387557D01*
X16280930Y-13401843D01*
X16295216Y-13416129D01*
X16309502Y-13444700D01*
X16309502Y-13473272D01*
X16295216Y-13516129D01*
X16123788Y-13687557D01*
X16309502Y-13687557D01*
X16495216Y-13387557D02*
X16523788Y-13387557D01*
X16552359Y-13401843D01*
X16566645Y-13416129D01*
X16580930Y-13444700D01*
X16595216Y-13501843D01*
X16595216Y-13573272D01*
X16580930Y-13630415D01*
X16566645Y-13658986D01*
X16552359Y-13673272D01*
X16523788Y-13687557D01*
X16495216Y-13687557D01*
X16466645Y-13673272D01*
X16452359Y-13658986D01*
X16438073Y-13630415D01*
X16423788Y-13573272D01*
X16423788Y-13501843D01*
X16438073Y-13444700D01*
X16452359Y-13416129D01*
X16466645Y-13401843D01*
X16495216Y-13387557D01*
X16709502Y-13387557D02*
X16709502Y-13444700D01*
X16823788Y-13387557D02*
X16823788Y-13444700D01*
X17266645Y-13801843D02*
X17252359Y-13787557D01*
X17223788Y-13744700D01*
X17209502Y-13716129D01*
X17195216Y-13673272D01*
X17180930Y-13601843D01*
X17180930Y-13544700D01*
X17195216Y-13473272D01*
X17209502Y-13430415D01*
X17223788Y-13401843D01*
X17252359Y-13358986D01*
X17266645Y-13344700D01*
X17395216Y-13687557D02*
X17452359Y-13687557D01*
X17480930Y-13673272D01*
X17495216Y-13658986D01*
X17523788Y-13616129D01*
X17538073Y-13558986D01*
X17538073Y-13444700D01*
X17523788Y-13416129D01*
X17509502Y-13401843D01*
X17480930Y-13387557D01*
X17423788Y-13387557D01*
X17395216Y-13401843D01*
X17380930Y-13416129D01*
X17366645Y-13444700D01*
X17366645Y-13516129D01*
X17380930Y-13544700D01*
X17395216Y-13558986D01*
X17423788Y-13573272D01*
X17480930Y-13573272D01*
X17509502Y-13558986D01*
X17523788Y-13544700D01*
X17538073Y-13516129D01*
X17895216Y-13687557D02*
X17895216Y-13387557D01*
X18023788Y-13687557D02*
X18023788Y-13530415D01*
X18009502Y-13501843D01*
X17980930Y-13487557D01*
X17938073Y-13487557D01*
X17909502Y-13501843D01*
X17895216Y-13516129D01*
X18209502Y-13687557D02*
X18180930Y-13673272D01*
X18166645Y-13658986D01*
X18152359Y-13630415D01*
X18152359Y-13544700D01*
X18166645Y-13516129D01*
X18180930Y-13501843D01*
X18209502Y-13487557D01*
X18252359Y-13487557D01*
X18280930Y-13501843D01*
X18295216Y-13516129D01*
X18309502Y-13544700D01*
X18309502Y-13630415D01*
X18295216Y-13658986D01*
X18280930Y-13673272D01*
X18252359Y-13687557D01*
X18209502Y-13687557D01*
X18480930Y-13687557D02*
X18452359Y-13673272D01*
X18438073Y-13644700D01*
X18438073Y-13387557D01*
X18709502Y-13673272D02*
X18680930Y-13687557D01*
X18623788Y-13687557D01*
X18595216Y-13673272D01*
X18580930Y-13644700D01*
X18580930Y-13530415D01*
X18595216Y-13501843D01*
X18623788Y-13487557D01*
X18680930Y-13487557D01*
X18709502Y-13501843D01*
X18723788Y-13530415D01*
X18723788Y-13558986D01*
X18580930Y-13587557D01*
X18838073Y-13673272D02*
X18866645Y-13687557D01*
X18923788Y-13687557D01*
X18952359Y-13673272D01*
X18966645Y-13644700D01*
X18966645Y-13630415D01*
X18952359Y-13601843D01*
X18923788Y-13587557D01*
X18880930Y-13587557D01*
X18852359Y-13573272D01*
X18838073Y-13544700D01*
X18838073Y-13530415D01*
X18852359Y-13501843D01*
X18880930Y-13487557D01*
X18923788Y-13487557D01*
X18952359Y-13501843D01*
X19066645Y-13801843D02*
X19080930Y-13787557D01*
X19109502Y-13744700D01*
X19123788Y-13716129D01*
X19138073Y-13673272D01*
X19152359Y-13601843D01*
X19152359Y-13544700D01*
X19138073Y-13473272D01*
X19123788Y-13430415D01*
X19109502Y-13401843D01*
X19080930Y-13358986D01*
X19066645Y-13344700D01*
X12570697Y-13970824D02*
X12570697Y-13924862D01*
X12524735Y-13924862D01*
X12524735Y-13970824D01*
X12570697Y-13970824D01*
X12923788Y-13783557D02*
X12952359Y-13783557D01*
X12980930Y-13797843D01*
X12995216Y-13812129D01*
X13009502Y-13840700D01*
X13023788Y-13897843D01*
X13023788Y-13969272D01*
X13009502Y-14026415D01*
X12995216Y-14054986D01*
X12980930Y-14069272D01*
X12952359Y-14083557D01*
X12923788Y-14083557D01*
X12895216Y-14069272D01*
X12880930Y-14054986D01*
X12866645Y-14026415D01*
X12852359Y-13969272D01*
X12852359Y-13897843D01*
X12866645Y-13840700D01*
X12880930Y-13812129D01*
X12895216Y-13797843D01*
X12923788Y-13783557D01*
X13152359Y-14054986D02*
X13166645Y-14069272D01*
X13152359Y-14083557D01*
X13138073Y-14069272D01*
X13152359Y-14054986D01*
X13152359Y-14083557D01*
X13423788Y-13783557D02*
X13366645Y-13783557D01*
X13338073Y-13797843D01*
X13323788Y-13812129D01*
X13295216Y-13854986D01*
X13280930Y-13912129D01*
X13280930Y-14026415D01*
X13295216Y-14054986D01*
X13309502Y-14069272D01*
X13338073Y-14083557D01*
X13395216Y-14083557D01*
X13423788Y-14069272D01*
X13438073Y-14054986D01*
X13452359Y-14026415D01*
X13452359Y-13954986D01*
X13438073Y-13926415D01*
X13423788Y-13912129D01*
X13395216Y-13897843D01*
X13338073Y-13897843D01*
X13309502Y-13912129D01*
X13295216Y-13926415D01*
X13280930Y-13954986D01*
X13723788Y-13783557D02*
X13580930Y-13783557D01*
X13566645Y-13926415D01*
X13580930Y-13912129D01*
X13609502Y-13897843D01*
X13680930Y-13897843D01*
X13709502Y-13912129D01*
X13723788Y-13926415D01*
X13738073Y-13954986D01*
X13738073Y-14026415D01*
X13723788Y-14054986D01*
X13709502Y-14069272D01*
X13680930Y-14083557D01*
X13609502Y-14083557D01*
X13580930Y-14069272D01*
X13566645Y-14054986D01*
X13866645Y-14083557D02*
X13866645Y-13883557D01*
X13866645Y-13912129D02*
X13880930Y-13897843D01*
X13909502Y-13883557D01*
X13952359Y-13883557D01*
X13980930Y-13897843D01*
X13995216Y-13926415D01*
X13995216Y-14083557D01*
X13995216Y-13926415D02*
X14009502Y-13897843D01*
X14038073Y-13883557D01*
X14080930Y-13883557D01*
X14109502Y-13897843D01*
X14123788Y-13926415D01*
X14123788Y-14083557D01*
X14266645Y-14083557D02*
X14266645Y-13883557D01*
X14266645Y-13912129D02*
X14280930Y-13897843D01*
X14309502Y-13883557D01*
X14352359Y-13883557D01*
X14380930Y-13897843D01*
X14395216Y-13926415D01*
X14395216Y-14083557D01*
X14395216Y-13926415D02*
X14409502Y-13897843D01*
X14438073Y-13883557D01*
X14480930Y-13883557D01*
X14509502Y-13897843D01*
X14523788Y-13926415D01*
X14523788Y-14083557D01*
X15109502Y-13769272D02*
X14852359Y-14154986D01*
X15495216Y-13783557D02*
X15523788Y-13783557D01*
X15552359Y-13797843D01*
X15566645Y-13812129D01*
X15580930Y-13840700D01*
X15595216Y-13897843D01*
X15595216Y-13969272D01*
X15580930Y-14026415D01*
X15566645Y-14054986D01*
X15552359Y-14069272D01*
X15523788Y-14083557D01*
X15495216Y-14083557D01*
X15466645Y-14069272D01*
X15452359Y-14054986D01*
X15438073Y-14026415D01*
X15423788Y-13969272D01*
X15423788Y-13897843D01*
X15438073Y-13840700D01*
X15452359Y-13812129D01*
X15466645Y-13797843D01*
X15495216Y-13783557D01*
X15723788Y-14054986D02*
X15738073Y-14069272D01*
X15723788Y-14083557D01*
X15709502Y-14069272D01*
X15723788Y-14054986D01*
X15723788Y-14083557D01*
X15923788Y-13783557D02*
X15952359Y-13783557D01*
X15980930Y-13797843D01*
X15995216Y-13812129D01*
X16009502Y-13840700D01*
X16023788Y-13897843D01*
X16023788Y-13969272D01*
X16009502Y-14026415D01*
X15995216Y-14054986D01*
X15980930Y-14069272D01*
X15952359Y-14083557D01*
X15923788Y-14083557D01*
X15895216Y-14069272D01*
X15880930Y-14054986D01*
X15866645Y-14026415D01*
X15852359Y-13969272D01*
X15852359Y-13897843D01*
X15866645Y-13840700D01*
X15880930Y-13812129D01*
X15895216Y-13797843D01*
X15923788Y-13783557D01*
X16138073Y-13812129D02*
X16152359Y-13797843D01*
X16180930Y-13783557D01*
X16252359Y-13783557D01*
X16280930Y-13797843D01*
X16295216Y-13812129D01*
X16309502Y-13840700D01*
X16309502Y-13869272D01*
X16295216Y-13912129D01*
X16123788Y-14083557D01*
X16309502Y-14083557D01*
X16566645Y-13783557D02*
X16509502Y-13783557D01*
X16480930Y-13797843D01*
X16466645Y-13812129D01*
X16438073Y-13854986D01*
X16423788Y-13912129D01*
X16423788Y-14026415D01*
X16438073Y-14054986D01*
X16452359Y-14069272D01*
X16480930Y-14083557D01*
X16538073Y-14083557D01*
X16566645Y-14069272D01*
X16580930Y-14054986D01*
X16595216Y-14026415D01*
X16595216Y-13954986D01*
X16580930Y-13926415D01*
X16566645Y-13912129D01*
X16538073Y-13897843D01*
X16480930Y-13897843D01*
X16452359Y-13912129D01*
X16438073Y-13926415D01*
X16423788Y-13954986D01*
X16709502Y-13783557D02*
X16709502Y-13840700D01*
X16823788Y-13783557D02*
X16823788Y-13840700D01*
X17266645Y-14197843D02*
X17252359Y-14183557D01*
X17223788Y-14140700D01*
X17209502Y-14112129D01*
X17195216Y-14069272D01*
X17180930Y-13997843D01*
X17180930Y-13940700D01*
X17195216Y-13869272D01*
X17209502Y-13826415D01*
X17223788Y-13797843D01*
X17252359Y-13754986D01*
X17266645Y-13740700D01*
X17438073Y-13783557D02*
X17466645Y-13783557D01*
X17495216Y-13797843D01*
X17509502Y-13812129D01*
X17523788Y-13840700D01*
X17538073Y-13897843D01*
X17538073Y-13969272D01*
X17523788Y-14026415D01*
X17509502Y-14054986D01*
X17495216Y-14069272D01*
X17466645Y-14083557D01*
X17438073Y-14083557D01*
X17409502Y-14069272D01*
X17395216Y-14054986D01*
X17380930Y-14026415D01*
X17366645Y-13969272D01*
X17366645Y-13897843D01*
X17380930Y-13840700D01*
X17395216Y-13812129D01*
X17409502Y-13797843D01*
X17438073Y-13783557D01*
X17895216Y-14083557D02*
X17895216Y-13783557D01*
X18023788Y-14083557D02*
X18023788Y-13926415D01*
X18009502Y-13897843D01*
X17980930Y-13883557D01*
X17938073Y-13883557D01*
X17909502Y-13897843D01*
X17895216Y-13912129D01*
X18209502Y-14083557D02*
X18180930Y-14069272D01*
X18166645Y-14054986D01*
X18152359Y-14026415D01*
X18152359Y-13940700D01*
X18166645Y-13912129D01*
X18180930Y-13897843D01*
X18209502Y-13883557D01*
X18252359Y-13883557D01*
X18280930Y-13897843D01*
X18295216Y-13912129D01*
X18309502Y-13940700D01*
X18309502Y-14026415D01*
X18295216Y-14054986D01*
X18280930Y-14069272D01*
X18252359Y-14083557D01*
X18209502Y-14083557D01*
X18480930Y-14083557D02*
X18452359Y-14069272D01*
X18438073Y-14040700D01*
X18438073Y-13783557D01*
X18709502Y-14069272D02*
X18680930Y-14083557D01*
X18623788Y-14083557D01*
X18595216Y-14069272D01*
X18580930Y-14040700D01*
X18580930Y-13926415D01*
X18595216Y-13897843D01*
X18623788Y-13883557D01*
X18680930Y-13883557D01*
X18709502Y-13897843D01*
X18723788Y-13926415D01*
X18723788Y-13954986D01*
X18580930Y-13983557D01*
X18838073Y-14069272D02*
X18866645Y-14083557D01*
X18923788Y-14083557D01*
X18952359Y-14069272D01*
X18966645Y-14040700D01*
X18966645Y-14026415D01*
X18952359Y-13997843D01*
X18923788Y-13983557D01*
X18880930Y-13983557D01*
X18852359Y-13969272D01*
X18838073Y-13940700D01*
X18838073Y-13926415D01*
X18852359Y-13897843D01*
X18880930Y-13883557D01*
X18923788Y-13883557D01*
X18952359Y-13897843D01*
X19323788Y-13969272D02*
X19552359Y-13969272D01*
X19438073Y-14083557D02*
X19438073Y-13854986D01*
X19909502Y-13812129D02*
X19923788Y-13797843D01*
X19952359Y-13783557D01*
X20023788Y-13783557D01*
X20052359Y-13797843D01*
X20066645Y-13812129D01*
X20080930Y-13840700D01*
X20080930Y-13869272D01*
X20066645Y-13912129D01*
X19895216Y-14083557D01*
X20080930Y-14083557D01*
X20423788Y-14069272D02*
X20452359Y-14083557D01*
X20509502Y-14083557D01*
X20538073Y-14069272D01*
X20552359Y-14040700D01*
X20552359Y-14026415D01*
X20538073Y-13997843D01*
X20509502Y-13983557D01*
X20466645Y-13983557D01*
X20438073Y-13969272D01*
X20423788Y-13940700D01*
X20423788Y-13926415D01*
X20438073Y-13897843D01*
X20466645Y-13883557D01*
X20509502Y-13883557D01*
X20538073Y-13897843D01*
X20723788Y-14083557D02*
X20695216Y-14069272D01*
X20680930Y-14040700D01*
X20680930Y-13783557D01*
X20880930Y-14083557D02*
X20852359Y-14069272D01*
X20838073Y-14054986D01*
X20823788Y-14026415D01*
X20823788Y-13940700D01*
X20838073Y-13912129D01*
X20852359Y-13897843D01*
X20880930Y-13883557D01*
X20923788Y-13883557D01*
X20952359Y-13897843D01*
X20966645Y-13912129D01*
X20980930Y-13940700D01*
X20980930Y-14026415D01*
X20966645Y-14054986D01*
X20952359Y-14069272D01*
X20923788Y-14083557D01*
X20880930Y-14083557D01*
X21066645Y-13883557D02*
X21180930Y-13883557D01*
X21109502Y-13783557D02*
X21109502Y-14040700D01*
X21123788Y-14069272D01*
X21152359Y-14083557D01*
X21180930Y-14083557D01*
X21266645Y-14069272D02*
X21295216Y-14083557D01*
X21352359Y-14083557D01*
X21380930Y-14069272D01*
X21395216Y-14040700D01*
X21395216Y-14026415D01*
X21380930Y-13997843D01*
X21352359Y-13983557D01*
X21309502Y-13983557D01*
X21280930Y-13969272D01*
X21266645Y-13940700D01*
X21266645Y-13926415D01*
X21280930Y-13897843D01*
X21309502Y-13883557D01*
X21352359Y-13883557D01*
X21380930Y-13897843D01*
X21495216Y-14197843D02*
X21509502Y-14183557D01*
X21538073Y-14140700D01*
X21552359Y-14112129D01*
X21566645Y-14069272D01*
X21580930Y-13997843D01*
X21580930Y-13940700D01*
X21566645Y-13869272D01*
X21552359Y-13826415D01*
X21538073Y-13797843D01*
X21509502Y-13754986D01*
X21495216Y-13740700D01*
X12545216Y-14378843D02*
X12580216Y-14343843D01*
X12545216Y-14308843D01*
X12510216Y-14343843D01*
X12545216Y-14378843D01*
X12923788Y-14179557D02*
X12952359Y-14179557D01*
X12980930Y-14193843D01*
X12995216Y-14208129D01*
X13009502Y-14236700D01*
X13023788Y-14293843D01*
X13023788Y-14365272D01*
X13009502Y-14422415D01*
X12995216Y-14450986D01*
X12980930Y-14465272D01*
X12952359Y-14479557D01*
X12923788Y-14479557D01*
X12895216Y-14465272D01*
X12880930Y-14450986D01*
X12866645Y-14422415D01*
X12852359Y-14365272D01*
X12852359Y-14293843D01*
X12866645Y-14236700D01*
X12880930Y-14208129D01*
X12895216Y-14193843D01*
X12923788Y-14179557D01*
X13152359Y-14450986D02*
X13166645Y-14465272D01*
X13152359Y-14479557D01*
X13138073Y-14465272D01*
X13152359Y-14450986D01*
X13152359Y-14479557D01*
X13266645Y-14179557D02*
X13466645Y-14179557D01*
X13338073Y-14479557D01*
X13638073Y-14179557D02*
X13666645Y-14179557D01*
X13695216Y-14193843D01*
X13709502Y-14208129D01*
X13723788Y-14236700D01*
X13738073Y-14293843D01*
X13738073Y-14365272D01*
X13723788Y-14422415D01*
X13709502Y-14450986D01*
X13695216Y-14465272D01*
X13666645Y-14479557D01*
X13638073Y-14479557D01*
X13609502Y-14465272D01*
X13595216Y-14450986D01*
X13580930Y-14422415D01*
X13566645Y-14365272D01*
X13566645Y-14293843D01*
X13580930Y-14236700D01*
X13595216Y-14208129D01*
X13609502Y-14193843D01*
X13638073Y-14179557D01*
X13866645Y-14479557D02*
X13866645Y-14279557D01*
X13866645Y-14308129D02*
X13880930Y-14293843D01*
X13909502Y-14279557D01*
X13952359Y-14279557D01*
X13980930Y-14293843D01*
X13995216Y-14322415D01*
X13995216Y-14479557D01*
X13995216Y-14322415D02*
X14009502Y-14293843D01*
X14038073Y-14279557D01*
X14080930Y-14279557D01*
X14109502Y-14293843D01*
X14123788Y-14322415D01*
X14123788Y-14479557D01*
X14266645Y-14479557D02*
X14266645Y-14279557D01*
X14266645Y-14308129D02*
X14280930Y-14293843D01*
X14309502Y-14279557D01*
X14352359Y-14279557D01*
X14380930Y-14293843D01*
X14395216Y-14322415D01*
X14395216Y-14479557D01*
X14395216Y-14322415D02*
X14409502Y-14293843D01*
X14438073Y-14279557D01*
X14480930Y-14279557D01*
X14509502Y-14293843D01*
X14523788Y-14322415D01*
X14523788Y-14479557D01*
X15109502Y-14165272D02*
X14852359Y-14550986D01*
X15495216Y-14179557D02*
X15523788Y-14179557D01*
X15552359Y-14193843D01*
X15566645Y-14208129D01*
X15580930Y-14236700D01*
X15595216Y-14293843D01*
X15595216Y-14365272D01*
X15580930Y-14422415D01*
X15566645Y-14450986D01*
X15552359Y-14465272D01*
X15523788Y-14479557D01*
X15495216Y-14479557D01*
X15466645Y-14465272D01*
X15452359Y-14450986D01*
X15438073Y-14422415D01*
X15423788Y-14365272D01*
X15423788Y-14293843D01*
X15438073Y-14236700D01*
X15452359Y-14208129D01*
X15466645Y-14193843D01*
X15495216Y-14179557D01*
X15723788Y-14450986D02*
X15738073Y-14465272D01*
X15723788Y-14479557D01*
X15709502Y-14465272D01*
X15723788Y-14450986D01*
X15723788Y-14479557D01*
X15923788Y-14179557D02*
X15952359Y-14179557D01*
X15980930Y-14193843D01*
X15995216Y-14208129D01*
X16009502Y-14236700D01*
X16023788Y-14293843D01*
X16023788Y-14365272D01*
X16009502Y-14422415D01*
X15995216Y-14450986D01*
X15980930Y-14465272D01*
X15952359Y-14479557D01*
X15923788Y-14479557D01*
X15895216Y-14465272D01*
X15880930Y-14450986D01*
X15866645Y-14422415D01*
X15852359Y-14365272D01*
X15852359Y-14293843D01*
X15866645Y-14236700D01*
X15880930Y-14208129D01*
X15895216Y-14193843D01*
X15923788Y-14179557D01*
X16138073Y-14208129D02*
X16152359Y-14193843D01*
X16180930Y-14179557D01*
X16252359Y-14179557D01*
X16280930Y-14193843D01*
X16295216Y-14208129D01*
X16309502Y-14236700D01*
X16309502Y-14265272D01*
X16295216Y-14308129D01*
X16123788Y-14479557D01*
X16309502Y-14479557D01*
X16480930Y-14308129D02*
X16452359Y-14293843D01*
X16438073Y-14279557D01*
X16423788Y-14250986D01*
X16423788Y-14236700D01*
X16438073Y-14208129D01*
X16452359Y-14193843D01*
X16480930Y-14179557D01*
X16538073Y-14179557D01*
X16566645Y-14193843D01*
X16580930Y-14208129D01*
X16595216Y-14236700D01*
X16595216Y-14250986D01*
X16580930Y-14279557D01*
X16566645Y-14293843D01*
X16538073Y-14308129D01*
X16480930Y-14308129D01*
X16452359Y-14322415D01*
X16438073Y-14336700D01*
X16423788Y-14365272D01*
X16423788Y-14422415D01*
X16438073Y-14450986D01*
X16452359Y-14465272D01*
X16480930Y-14479557D01*
X16538073Y-14479557D01*
X16566645Y-14465272D01*
X16580930Y-14450986D01*
X16595216Y-14422415D01*
X16595216Y-14365272D01*
X16580930Y-14336700D01*
X16566645Y-14322415D01*
X16538073Y-14308129D01*
X16709502Y-14179557D02*
X16709502Y-14236700D01*
X16823788Y-14179557D02*
X16823788Y-14236700D01*
X17266645Y-14593843D02*
X17252359Y-14579557D01*
X17223788Y-14536700D01*
X17209502Y-14508129D01*
X17195216Y-14465272D01*
X17180930Y-14393843D01*
X17180930Y-14336700D01*
X17195216Y-14265272D01*
X17209502Y-14222415D01*
X17223788Y-14193843D01*
X17252359Y-14150986D01*
X17266645Y-14136700D01*
X17438073Y-14179557D02*
X17466645Y-14179557D01*
X17495216Y-14193843D01*
X17509502Y-14208129D01*
X17523788Y-14236700D01*
X17538073Y-14293843D01*
X17538073Y-14365272D01*
X17523788Y-14422415D01*
X17509502Y-14450986D01*
X17495216Y-14465272D01*
X17466645Y-14479557D01*
X17438073Y-14479557D01*
X17409502Y-14465272D01*
X17395216Y-14450986D01*
X17380930Y-14422415D01*
X17366645Y-14365272D01*
X17366645Y-14293843D01*
X17380930Y-14236700D01*
X17395216Y-14208129D01*
X17409502Y-14193843D01*
X17438073Y-14179557D01*
X17895216Y-14479557D02*
X17895216Y-14179557D01*
X18023788Y-14479557D02*
X18023788Y-14322415D01*
X18009502Y-14293843D01*
X17980930Y-14279557D01*
X17938073Y-14279557D01*
X17909502Y-14293843D01*
X17895216Y-14308129D01*
X18209502Y-14479557D02*
X18180930Y-14465272D01*
X18166645Y-14450986D01*
X18152359Y-14422415D01*
X18152359Y-14336700D01*
X18166645Y-14308129D01*
X18180930Y-14293843D01*
X18209502Y-14279557D01*
X18252359Y-14279557D01*
X18280930Y-14293843D01*
X18295216Y-14308129D01*
X18309502Y-14336700D01*
X18309502Y-14422415D01*
X18295216Y-14450986D01*
X18280930Y-14465272D01*
X18252359Y-14479557D01*
X18209502Y-14479557D01*
X18480930Y-14479557D02*
X18452359Y-14465272D01*
X18438073Y-14436700D01*
X18438073Y-14179557D01*
X18709502Y-14465272D02*
X18680930Y-14479557D01*
X18623788Y-14479557D01*
X18595216Y-14465272D01*
X18580930Y-14436700D01*
X18580930Y-14322415D01*
X18595216Y-14293843D01*
X18623788Y-14279557D01*
X18680930Y-14279557D01*
X18709502Y-14293843D01*
X18723788Y-14322415D01*
X18723788Y-14350986D01*
X18580930Y-14379557D01*
X18838073Y-14465272D02*
X18866645Y-14479557D01*
X18923788Y-14479557D01*
X18952359Y-14465272D01*
X18966645Y-14436700D01*
X18966645Y-14422415D01*
X18952359Y-14393843D01*
X18923788Y-14379557D01*
X18880930Y-14379557D01*
X18852359Y-14365272D01*
X18838073Y-14336700D01*
X18838073Y-14322415D01*
X18852359Y-14293843D01*
X18880930Y-14279557D01*
X18923788Y-14279557D01*
X18952359Y-14293843D01*
X19323788Y-14365272D02*
X19552359Y-14365272D01*
X19438073Y-14479557D02*
X19438073Y-14250986D01*
X19909502Y-14208129D02*
X19923788Y-14193843D01*
X19952359Y-14179557D01*
X20023788Y-14179557D01*
X20052359Y-14193843D01*
X20066645Y-14208129D01*
X20080930Y-14236700D01*
X20080930Y-14265272D01*
X20066645Y-14308129D01*
X19895216Y-14479557D01*
X20080930Y-14479557D01*
X20423788Y-14465272D02*
X20452359Y-14479557D01*
X20509502Y-14479557D01*
X20538073Y-14465272D01*
X20552359Y-14436700D01*
X20552359Y-14422415D01*
X20538073Y-14393843D01*
X20509502Y-14379557D01*
X20466645Y-14379557D01*
X20438073Y-14365272D01*
X20423788Y-14336700D01*
X20423788Y-14322415D01*
X20438073Y-14293843D01*
X20466645Y-14279557D01*
X20509502Y-14279557D01*
X20538073Y-14293843D01*
X20723788Y-14479557D02*
X20695216Y-14465272D01*
X20680930Y-14436700D01*
X20680930Y-14179557D01*
X20880930Y-14479557D02*
X20852359Y-14465272D01*
X20838073Y-14450986D01*
X20823788Y-14422415D01*
X20823788Y-14336700D01*
X20838073Y-14308129D01*
X20852359Y-14293843D01*
X20880930Y-14279557D01*
X20923788Y-14279557D01*
X20952359Y-14293843D01*
X20966645Y-14308129D01*
X20980930Y-14336700D01*
X20980930Y-14422415D01*
X20966645Y-14450986D01*
X20952359Y-14465272D01*
X20923788Y-14479557D01*
X20880930Y-14479557D01*
X21066645Y-14279557D02*
X21180930Y-14279557D01*
X21109502Y-14179557D02*
X21109502Y-14436700D01*
X21123788Y-14465272D01*
X21152359Y-14479557D01*
X21180930Y-14479557D01*
X21266645Y-14465272D02*
X21295216Y-14479557D01*
X21352359Y-14479557D01*
X21380930Y-14465272D01*
X21395216Y-14436700D01*
X21395216Y-14422415D01*
X21380930Y-14393843D01*
X21352359Y-14379557D01*
X21309502Y-14379557D01*
X21280930Y-14365272D01*
X21266645Y-14336700D01*
X21266645Y-14322415D01*
X21280930Y-14293843D01*
X21309502Y-14279557D01*
X21352359Y-14279557D01*
X21380930Y-14293843D01*
X21495216Y-14593843D02*
X21509502Y-14579557D01*
X21538073Y-14536700D01*
X21552359Y-14508129D01*
X21566645Y-14465272D01*
X21580930Y-14393843D01*
X21580930Y-14336700D01*
X21566645Y-14265272D01*
X21552359Y-14222415D01*
X21538073Y-14193843D01*
X21509502Y-14150986D01*
X21495216Y-14136700D01*
X12500216Y-14699843D02*
X12580216Y-14779843D01*
X12580216Y-14699843D02*
X12500216Y-14779843D01*
X12580216Y-14739843D02*
G75*
G03X12580216Y-14739843I-40000J0D01*
G01*
X12923788Y-14575557D02*
X12952359Y-14575557D01*
X12980930Y-14589843D01*
X12995216Y-14604129D01*
X13009502Y-14632700D01*
X13023788Y-14689843D01*
X13023788Y-14761272D01*
X13009502Y-14818415D01*
X12995216Y-14846986D01*
X12980930Y-14861272D01*
X12952359Y-14875557D01*
X12923788Y-14875557D01*
X12895216Y-14861272D01*
X12880930Y-14846986D01*
X12866645Y-14818415D01*
X12852359Y-14761272D01*
X12852359Y-14689843D01*
X12866645Y-14632700D01*
X12880930Y-14604129D01*
X12895216Y-14589843D01*
X12923788Y-14575557D01*
X13152359Y-14846986D02*
X13166645Y-14861272D01*
X13152359Y-14875557D01*
X13138073Y-14861272D01*
X13152359Y-14846986D01*
X13152359Y-14875557D01*
X13338073Y-14704129D02*
X13309502Y-14689843D01*
X13295216Y-14675557D01*
X13280930Y-14646986D01*
X13280930Y-14632700D01*
X13295216Y-14604129D01*
X13309502Y-14589843D01*
X13338073Y-14575557D01*
X13395216Y-14575557D01*
X13423788Y-14589843D01*
X13438073Y-14604129D01*
X13452359Y-14632700D01*
X13452359Y-14646986D01*
X13438073Y-14675557D01*
X13423788Y-14689843D01*
X13395216Y-14704129D01*
X13338073Y-14704129D01*
X13309502Y-14718415D01*
X13295216Y-14732700D01*
X13280930Y-14761272D01*
X13280930Y-14818415D01*
X13295216Y-14846986D01*
X13309502Y-14861272D01*
X13338073Y-14875557D01*
X13395216Y-14875557D01*
X13423788Y-14861272D01*
X13438073Y-14846986D01*
X13452359Y-14818415D01*
X13452359Y-14761272D01*
X13438073Y-14732700D01*
X13423788Y-14718415D01*
X13395216Y-14704129D01*
X13638073Y-14575557D02*
X13666645Y-14575557D01*
X13695216Y-14589843D01*
X13709502Y-14604129D01*
X13723788Y-14632700D01*
X13738073Y-14689843D01*
X13738073Y-14761272D01*
X13723788Y-14818415D01*
X13709502Y-14846986D01*
X13695216Y-14861272D01*
X13666645Y-14875557D01*
X13638073Y-14875557D01*
X13609502Y-14861272D01*
X13595216Y-14846986D01*
X13580930Y-14818415D01*
X13566645Y-14761272D01*
X13566645Y-14689843D01*
X13580930Y-14632700D01*
X13595216Y-14604129D01*
X13609502Y-14589843D01*
X13638073Y-14575557D01*
X13866645Y-14875557D02*
X13866645Y-14675557D01*
X13866645Y-14704129D02*
X13880930Y-14689843D01*
X13909502Y-14675557D01*
X13952359Y-14675557D01*
X13980930Y-14689843D01*
X13995216Y-14718415D01*
X13995216Y-14875557D01*
X13995216Y-14718415D02*
X14009502Y-14689843D01*
X14038073Y-14675557D01*
X14080930Y-14675557D01*
X14109502Y-14689843D01*
X14123788Y-14718415D01*
X14123788Y-14875557D01*
X14266645Y-14875557D02*
X14266645Y-14675557D01*
X14266645Y-14704129D02*
X14280930Y-14689843D01*
X14309502Y-14675557D01*
X14352359Y-14675557D01*
X14380930Y-14689843D01*
X14395216Y-14718415D01*
X14395216Y-14875557D01*
X14395216Y-14718415D02*
X14409502Y-14689843D01*
X14438073Y-14675557D01*
X14480930Y-14675557D01*
X14509502Y-14689843D01*
X14523788Y-14718415D01*
X14523788Y-14875557D01*
X15109502Y-14561272D02*
X14852359Y-14946986D01*
X15495216Y-14575557D02*
X15523788Y-14575557D01*
X15552359Y-14589843D01*
X15566645Y-14604129D01*
X15580930Y-14632700D01*
X15595216Y-14689843D01*
X15595216Y-14761272D01*
X15580930Y-14818415D01*
X15566645Y-14846986D01*
X15552359Y-14861272D01*
X15523788Y-14875557D01*
X15495216Y-14875557D01*
X15466645Y-14861272D01*
X15452359Y-14846986D01*
X15438073Y-14818415D01*
X15423788Y-14761272D01*
X15423788Y-14689843D01*
X15438073Y-14632700D01*
X15452359Y-14604129D01*
X15466645Y-14589843D01*
X15495216Y-14575557D01*
X15723788Y-14846986D02*
X15738073Y-14861272D01*
X15723788Y-14875557D01*
X15709502Y-14861272D01*
X15723788Y-14846986D01*
X15723788Y-14875557D01*
X15923788Y-14575557D02*
X15952359Y-14575557D01*
X15980930Y-14589843D01*
X15995216Y-14604129D01*
X16009502Y-14632700D01*
X16023788Y-14689843D01*
X16023788Y-14761272D01*
X16009502Y-14818415D01*
X15995216Y-14846986D01*
X15980930Y-14861272D01*
X15952359Y-14875557D01*
X15923788Y-14875557D01*
X15895216Y-14861272D01*
X15880930Y-14846986D01*
X15866645Y-14818415D01*
X15852359Y-14761272D01*
X15852359Y-14689843D01*
X15866645Y-14632700D01*
X15880930Y-14604129D01*
X15895216Y-14589843D01*
X15923788Y-14575557D01*
X16123788Y-14575557D02*
X16309502Y-14575557D01*
X16209502Y-14689843D01*
X16252359Y-14689843D01*
X16280930Y-14704129D01*
X16295216Y-14718415D01*
X16309502Y-14746986D01*
X16309502Y-14818415D01*
X16295216Y-14846986D01*
X16280930Y-14861272D01*
X16252359Y-14875557D01*
X16166645Y-14875557D01*
X16138073Y-14861272D01*
X16123788Y-14846986D01*
X16595216Y-14875557D02*
X16423788Y-14875557D01*
X16509502Y-14875557D02*
X16509502Y-14575557D01*
X16480930Y-14618415D01*
X16452359Y-14646986D01*
X16423788Y-14661272D01*
X16709502Y-14575557D02*
X16709502Y-14632700D01*
X16823788Y-14575557D02*
X16823788Y-14632700D01*
X17266645Y-14989843D02*
X17252359Y-14975557D01*
X17223788Y-14932700D01*
X17209502Y-14904129D01*
X17195216Y-14861272D01*
X17180930Y-14789843D01*
X17180930Y-14732700D01*
X17195216Y-14661272D01*
X17209502Y-14618415D01*
X17223788Y-14589843D01*
X17252359Y-14546986D01*
X17266645Y-14532700D01*
X17509502Y-14675557D02*
X17509502Y-14875557D01*
X17438073Y-14561272D02*
X17366645Y-14775557D01*
X17552359Y-14775557D01*
X17895216Y-14875557D02*
X17895216Y-14575557D01*
X18023788Y-14875557D02*
X18023788Y-14718415D01*
X18009502Y-14689843D01*
X17980930Y-14675557D01*
X17938073Y-14675557D01*
X17909502Y-14689843D01*
X17895216Y-14704129D01*
X18209502Y-14875557D02*
X18180930Y-14861272D01*
X18166645Y-14846986D01*
X18152359Y-14818415D01*
X18152359Y-14732700D01*
X18166645Y-14704129D01*
X18180930Y-14689843D01*
X18209502Y-14675557D01*
X18252359Y-14675557D01*
X18280930Y-14689843D01*
X18295216Y-14704129D01*
X18309502Y-14732700D01*
X18309502Y-14818415D01*
X18295216Y-14846986D01*
X18280930Y-14861272D01*
X18252359Y-14875557D01*
X18209502Y-14875557D01*
X18480930Y-14875557D02*
X18452359Y-14861272D01*
X18438073Y-14832700D01*
X18438073Y-14575557D01*
X18709502Y-14861272D02*
X18680930Y-14875557D01*
X18623788Y-14875557D01*
X18595216Y-14861272D01*
X18580930Y-14832700D01*
X18580930Y-14718415D01*
X18595216Y-14689843D01*
X18623788Y-14675557D01*
X18680930Y-14675557D01*
X18709502Y-14689843D01*
X18723788Y-14718415D01*
X18723788Y-14746986D01*
X18580930Y-14775557D01*
X18838073Y-14861272D02*
X18866645Y-14875557D01*
X18923788Y-14875557D01*
X18952359Y-14861272D01*
X18966645Y-14832700D01*
X18966645Y-14818415D01*
X18952359Y-14789843D01*
X18923788Y-14775557D01*
X18880930Y-14775557D01*
X18852359Y-14761272D01*
X18838073Y-14732700D01*
X18838073Y-14718415D01*
X18852359Y-14689843D01*
X18880930Y-14675557D01*
X18923788Y-14675557D01*
X18952359Y-14689843D01*
X19066645Y-14989843D02*
X19080930Y-14975557D01*
X19109502Y-14932700D01*
X19123788Y-14904129D01*
X19138073Y-14861272D01*
X19152359Y-14789843D01*
X19152359Y-14732700D01*
X19138073Y-14661272D01*
X19123788Y-14618415D01*
X19109502Y-14589843D01*
X19080930Y-14546986D01*
X19066645Y-14532700D01*
X12280216Y-14985843D02*
X12580216Y-15285843D01*
X12580216Y-14985843D02*
X12280216Y-15285843D01*
X12430216Y-14985843D02*
X12430216Y-15285843D01*
X12280216Y-15135843D02*
X12580216Y-15135843D01*
X12838073Y-14971557D02*
X13023788Y-14971557D01*
X12923788Y-15085843D01*
X12966645Y-15085843D01*
X12995216Y-15100129D01*
X13009502Y-15114415D01*
X13023788Y-15142986D01*
X13023788Y-15214415D01*
X13009502Y-15242986D01*
X12995216Y-15257272D01*
X12966645Y-15271557D01*
X12880930Y-15271557D01*
X12852359Y-15257272D01*
X12838073Y-15242986D01*
X13152359Y-15242986D02*
X13166645Y-15257272D01*
X13152359Y-15271557D01*
X13138073Y-15257272D01*
X13152359Y-15242986D01*
X13152359Y-15271557D01*
X13352359Y-14971557D02*
X13380930Y-14971557D01*
X13409502Y-14985843D01*
X13423788Y-15000129D01*
X13438073Y-15028700D01*
X13452359Y-15085843D01*
X13452359Y-15157272D01*
X13438073Y-15214415D01*
X13423788Y-15242986D01*
X13409502Y-15257272D01*
X13380930Y-15271557D01*
X13352359Y-15271557D01*
X13323788Y-15257272D01*
X13309502Y-15242986D01*
X13295216Y-15214415D01*
X13280930Y-15157272D01*
X13280930Y-15085843D01*
X13295216Y-15028700D01*
X13309502Y-15000129D01*
X13323788Y-14985843D01*
X13352359Y-14971557D01*
X13638073Y-14971557D02*
X13666645Y-14971557D01*
X13695216Y-14985843D01*
X13709502Y-15000129D01*
X13723788Y-15028700D01*
X13738073Y-15085843D01*
X13738073Y-15157272D01*
X13723788Y-15214415D01*
X13709502Y-15242986D01*
X13695216Y-15257272D01*
X13666645Y-15271557D01*
X13638073Y-15271557D01*
X13609502Y-15257272D01*
X13595216Y-15242986D01*
X13580930Y-15214415D01*
X13566645Y-15157272D01*
X13566645Y-15085843D01*
X13580930Y-15028700D01*
X13595216Y-15000129D01*
X13609502Y-14985843D01*
X13638073Y-14971557D01*
X13866645Y-15271557D02*
X13866645Y-15071557D01*
X13866645Y-15100129D02*
X13880930Y-15085843D01*
X13909502Y-15071557D01*
X13952359Y-15071557D01*
X13980930Y-15085843D01*
X13995216Y-15114415D01*
X13995216Y-15271557D01*
X13995216Y-15114415D02*
X14009502Y-15085843D01*
X14038073Y-15071557D01*
X14080930Y-15071557D01*
X14109502Y-15085843D01*
X14123788Y-15114415D01*
X14123788Y-15271557D01*
X14266645Y-15271557D02*
X14266645Y-15071557D01*
X14266645Y-15100129D02*
X14280930Y-15085843D01*
X14309502Y-15071557D01*
X14352359Y-15071557D01*
X14380930Y-15085843D01*
X14395216Y-15114415D01*
X14395216Y-15271557D01*
X14395216Y-15114415D02*
X14409502Y-15085843D01*
X14438073Y-15071557D01*
X14480930Y-15071557D01*
X14509502Y-15085843D01*
X14523788Y-15114415D01*
X14523788Y-15271557D01*
X15109502Y-14957272D02*
X14852359Y-15342986D01*
X15495216Y-14971557D02*
X15523788Y-14971557D01*
X15552359Y-14985843D01*
X15566645Y-15000129D01*
X15580930Y-15028700D01*
X15595216Y-15085843D01*
X15595216Y-15157272D01*
X15580930Y-15214415D01*
X15566645Y-15242986D01*
X15552359Y-15257272D01*
X15523788Y-15271557D01*
X15495216Y-15271557D01*
X15466645Y-15257272D01*
X15452359Y-15242986D01*
X15438073Y-15214415D01*
X15423788Y-15157272D01*
X15423788Y-15085843D01*
X15438073Y-15028700D01*
X15452359Y-15000129D01*
X15466645Y-14985843D01*
X15495216Y-14971557D01*
X15723788Y-15242986D02*
X15738073Y-15257272D01*
X15723788Y-15271557D01*
X15709502Y-15257272D01*
X15723788Y-15242986D01*
X15723788Y-15271557D01*
X16023788Y-15271557D02*
X15852359Y-15271557D01*
X15938073Y-15271557D02*
X15938073Y-14971557D01*
X15909502Y-15014415D01*
X15880930Y-15042986D01*
X15852359Y-15057272D01*
X16309502Y-15271557D02*
X16138073Y-15271557D01*
X16223788Y-15271557D02*
X16223788Y-14971557D01*
X16195216Y-15014415D01*
X16166645Y-15042986D01*
X16138073Y-15057272D01*
X16480930Y-15100129D02*
X16452359Y-15085843D01*
X16438073Y-15071557D01*
X16423788Y-15042986D01*
X16423788Y-15028700D01*
X16438073Y-15000129D01*
X16452359Y-14985843D01*
X16480930Y-14971557D01*
X16538073Y-14971557D01*
X16566645Y-14985843D01*
X16580930Y-15000129D01*
X16595216Y-15028700D01*
X16595216Y-15042986D01*
X16580930Y-15071557D01*
X16566645Y-15085843D01*
X16538073Y-15100129D01*
X16480930Y-15100129D01*
X16452359Y-15114415D01*
X16438073Y-15128700D01*
X16423788Y-15157272D01*
X16423788Y-15214415D01*
X16438073Y-15242986D01*
X16452359Y-15257272D01*
X16480930Y-15271557D01*
X16538073Y-15271557D01*
X16566645Y-15257272D01*
X16580930Y-15242986D01*
X16595216Y-15214415D01*
X16595216Y-15157272D01*
X16580930Y-15128700D01*
X16566645Y-15114415D01*
X16538073Y-15100129D01*
X16709502Y-14971557D02*
X16709502Y-15028700D01*
X16823788Y-14971557D02*
X16823788Y-15028700D01*
X17266645Y-15385843D02*
X17252359Y-15371557D01*
X17223788Y-15328700D01*
X17209502Y-15300129D01*
X17195216Y-15257272D01*
X17180930Y-15185843D01*
X17180930Y-15128700D01*
X17195216Y-15057272D01*
X17209502Y-15014415D01*
X17223788Y-14985843D01*
X17252359Y-14942986D01*
X17266645Y-14928700D01*
X17366645Y-15000129D02*
X17380930Y-14985843D01*
X17409502Y-14971557D01*
X17480930Y-14971557D01*
X17509502Y-14985843D01*
X17523788Y-15000129D01*
X17538073Y-15028700D01*
X17538073Y-15057272D01*
X17523788Y-15100129D01*
X17352359Y-15271557D01*
X17538073Y-15271557D01*
X17895216Y-15271557D02*
X17895216Y-14971557D01*
X18023788Y-15271557D02*
X18023788Y-15114415D01*
X18009502Y-15085843D01*
X17980930Y-15071557D01*
X17938073Y-15071557D01*
X17909502Y-15085843D01*
X17895216Y-15100129D01*
X18209502Y-15271557D02*
X18180930Y-15257272D01*
X18166645Y-15242986D01*
X18152359Y-15214415D01*
X18152359Y-15128700D01*
X18166645Y-15100129D01*
X18180930Y-15085843D01*
X18209502Y-15071557D01*
X18252359Y-15071557D01*
X18280930Y-15085843D01*
X18295216Y-15100129D01*
X18309502Y-15128700D01*
X18309502Y-15214415D01*
X18295216Y-15242986D01*
X18280930Y-15257272D01*
X18252359Y-15271557D01*
X18209502Y-15271557D01*
X18480930Y-15271557D02*
X18452359Y-15257272D01*
X18438073Y-15228700D01*
X18438073Y-14971557D01*
X18709502Y-15257272D02*
X18680930Y-15271557D01*
X18623788Y-15271557D01*
X18595216Y-15257272D01*
X18580930Y-15228700D01*
X18580930Y-15114415D01*
X18595216Y-15085843D01*
X18623788Y-15071557D01*
X18680930Y-15071557D01*
X18709502Y-15085843D01*
X18723788Y-15114415D01*
X18723788Y-15142986D01*
X18580930Y-15171557D01*
X18838073Y-15257272D02*
X18866645Y-15271557D01*
X18923788Y-15271557D01*
X18952359Y-15257272D01*
X18966645Y-15228700D01*
X18966645Y-15214415D01*
X18952359Y-15185843D01*
X18923788Y-15171557D01*
X18880930Y-15171557D01*
X18852359Y-15157272D01*
X18838073Y-15128700D01*
X18838073Y-15114415D01*
X18852359Y-15085843D01*
X18880930Y-15071557D01*
X18923788Y-15071557D01*
X18952359Y-15085843D01*
X19066645Y-15385843D02*
X19080930Y-15371557D01*
X19109502Y-15328700D01*
X19123788Y-15300129D01*
X19138073Y-15257272D01*
X19152359Y-15185843D01*
X19152359Y-15128700D01*
X19138073Y-15057272D01*
X19123788Y-15014415D01*
X19109502Y-14985843D01*
X19080930Y-14942986D01*
X19066645Y-14928700D01*
X19609502Y-15385843D02*
X19595216Y-15371557D01*
X19566645Y-15328700D01*
X19552359Y-15300129D01*
X19538073Y-15257272D01*
X19523788Y-15185843D01*
X19523788Y-15128700D01*
X19538073Y-15057272D01*
X19552359Y-15014415D01*
X19566645Y-14985843D01*
X19595216Y-14942986D01*
X19609502Y-14928700D01*
X19723788Y-15071557D02*
X19723788Y-15271557D01*
X19723788Y-15100129D02*
X19738073Y-15085843D01*
X19766645Y-15071557D01*
X19809502Y-15071557D01*
X19838073Y-15085843D01*
X19852359Y-15114415D01*
X19852359Y-15271557D01*
X20038073Y-15271557D02*
X20009502Y-15257272D01*
X19995216Y-15242986D01*
X19980930Y-15214415D01*
X19980930Y-15128700D01*
X19995216Y-15100129D01*
X20009502Y-15085843D01*
X20038073Y-15071557D01*
X20080930Y-15071557D01*
X20109502Y-15085843D01*
X20123788Y-15100129D01*
X20138073Y-15128700D01*
X20138073Y-15214415D01*
X20123788Y-15242986D01*
X20109502Y-15257272D01*
X20080930Y-15271557D01*
X20038073Y-15271557D01*
X20223788Y-15071557D02*
X20338073Y-15071557D01*
X20266645Y-14971557D02*
X20266645Y-15228700D01*
X20280930Y-15257272D01*
X20309502Y-15271557D01*
X20338073Y-15271557D01*
X20666645Y-15071557D02*
X20666645Y-15371557D01*
X20666645Y-15085843D02*
X20695216Y-15071557D01*
X20752359Y-15071557D01*
X20780930Y-15085843D01*
X20795216Y-15100129D01*
X20809502Y-15128700D01*
X20809502Y-15214415D01*
X20795216Y-15242986D01*
X20780930Y-15257272D01*
X20752359Y-15271557D01*
X20695216Y-15271557D01*
X20666645Y-15257272D01*
X20980930Y-15271557D02*
X20952359Y-15257272D01*
X20938073Y-15228700D01*
X20938073Y-14971557D01*
X21223788Y-15271557D02*
X21223788Y-15114415D01*
X21209502Y-15085843D01*
X21180930Y-15071557D01*
X21123788Y-15071557D01*
X21095216Y-15085843D01*
X21223788Y-15257272D02*
X21195216Y-15271557D01*
X21123788Y-15271557D01*
X21095216Y-15257272D01*
X21080930Y-15228700D01*
X21080930Y-15200129D01*
X21095216Y-15171557D01*
X21123788Y-15157272D01*
X21195216Y-15157272D01*
X21223788Y-15142986D01*
X21323788Y-15071557D02*
X21438073Y-15071557D01*
X21366645Y-14971557D02*
X21366645Y-15228700D01*
X21380930Y-15257272D01*
X21409502Y-15271557D01*
X21438073Y-15271557D01*
X21652359Y-15257272D02*
X21623788Y-15271557D01*
X21566645Y-15271557D01*
X21538073Y-15257272D01*
X21523788Y-15228700D01*
X21523788Y-15114415D01*
X21538073Y-15085843D01*
X21566645Y-15071557D01*
X21623788Y-15071557D01*
X21652359Y-15085843D01*
X21666645Y-15114415D01*
X21666645Y-15142986D01*
X21523788Y-15171557D01*
X21923788Y-15271557D02*
X21923788Y-14971557D01*
X21923788Y-15257272D02*
X21895216Y-15271557D01*
X21838073Y-15271557D01*
X21809502Y-15257272D01*
X21795216Y-15242986D01*
X21780930Y-15214415D01*
X21780930Y-15128700D01*
X21795216Y-15100129D01*
X21809502Y-15085843D01*
X21838073Y-15071557D01*
X21895216Y-15071557D01*
X21923788Y-15085843D01*
X22038073Y-15385843D02*
X22052359Y-15371557D01*
X22080930Y-15328700D01*
X22095216Y-15300129D01*
X22109502Y-15257272D01*
X22123788Y-15185843D01*
X22123788Y-15128700D01*
X22109502Y-15057272D01*
X22095216Y-15014415D01*
X22080930Y-14985843D01*
X22052359Y-14942986D01*
X22038073Y-14928700D01*
M02*
