G04 #@! TF.GenerationSoftware,KiCad,Pcbnew,5.1.2*
G04 #@! TF.CreationDate,2019-08-08T06:06:32-07:00*
G04 #@! TF.ProjectId,totoro,746f746f-726f-42e6-9b69-6361645f7063,rev?*
G04 #@! TF.SameCoordinates,Original*
G04 #@! TF.FileFunction,Legend,Bot*
G04 #@! TF.FilePolarity,Positive*
%FSLAX46Y46*%
G04 Gerber Fmt 4.6, Leading zero omitted, Abs format (unit mm)*
G04 Created by KiCad (PCBNEW 5.1.2) date 2019-08-08 06:06:32*
%MOMM*%
%LPD*%
G04 APERTURE LIST*
%ADD10C,0.120000*%
%ADD11C,0.150000*%
%ADD12C,3.101600*%
%ADD13C,0.100000*%
%ADD14C,0.976600*%
%ADD15C,1.076600*%
%ADD16C,1.051600*%
%ADD17C,1.451600*%
%ADD18C,1.451600*%
%ADD19C,1.101600*%
%ADD20C,1.201600*%
%ADD21C,1.201600*%
%ADD22R,1.001600X0.901600*%
%ADD23R,0.901600X1.001600*%
%ADD24C,0.901600*%
%ADD25C,0.751600*%
G04 APERTURE END LIST*
D10*
X143281069Y-101334505D02*
X143281069Y-101008947D01*
X144301069Y-101334505D02*
X144301069Y-101008947D01*
X137884216Y-99772359D02*
X137884216Y-100097917D01*
X136864216Y-99772359D02*
X136864216Y-100097917D01*
X142036544Y-98841088D02*
X142266749Y-98610883D01*
X142757793Y-99562337D02*
X142987998Y-99332132D01*
X161717937Y-85953672D02*
X161948142Y-86183877D01*
X160996688Y-86674921D02*
X161226893Y-86905126D01*
X146791996Y-96845226D02*
X146791996Y-96519668D01*
X147811996Y-96845226D02*
X147811996Y-96519668D01*
X140966463Y-88275830D02*
X140640905Y-88275830D01*
X140966463Y-87255830D02*
X140640905Y-87255830D01*
X141489433Y-81825250D02*
X141814991Y-81825250D01*
X141489433Y-82845250D02*
X141814991Y-82845250D01*
X128208475Y-97535282D02*
X127691319Y-97535282D01*
X128208475Y-96115282D02*
X127691319Y-96115282D01*
X162350203Y-110466065D02*
X162119998Y-110235860D01*
X163071452Y-109744816D02*
X162841247Y-109514611D01*
X145360699Y-90662440D02*
X145360699Y-90319906D01*
X146380699Y-90662440D02*
X146380699Y-90319906D01*
X173521750Y-101480260D02*
X173763959Y-101722469D01*
X172800501Y-102201509D02*
X173042710Y-102443718D01*
X166291348Y-101444811D02*
X166581262Y-101154897D01*
X166581262Y-101154897D02*
X171120888Y-105694523D01*
X171120888Y-105694523D02*
X170922898Y-105892513D01*
X169699603Y-107115808D02*
X168002547Y-108812864D01*
X166871176Y-109944235D02*
X166581262Y-110234149D01*
X166581262Y-110234149D02*
X162041636Y-105694523D01*
X162041636Y-105694523D02*
X162331550Y-105404609D01*
X163462921Y-104273238D02*
X165159977Y-102576182D01*
X128208475Y-98090939D02*
X127691319Y-98090939D01*
X128208475Y-99510939D02*
X127691319Y-99510939D01*
X128208475Y-100066595D02*
X127691319Y-100066595D01*
X128208475Y-101486595D02*
X127691319Y-101486595D01*
X128208475Y-103462252D02*
X127691319Y-103462252D01*
X128208475Y-102042252D02*
X127691319Y-102042252D01*
X168365135Y-99876181D02*
X167999451Y-100241865D01*
X169369227Y-100880273D02*
X169003543Y-101245957D01*
X167968307Y-99443432D02*
X167602623Y-99809116D01*
X166964215Y-98439340D02*
X166598531Y-98805024D01*
X170370239Y-103071456D02*
X170735923Y-103437140D01*
X171374331Y-102067364D02*
X171740015Y-102433048D01*
X144825673Y-101334505D02*
X144825673Y-101008947D01*
X145845673Y-101334505D02*
X145845673Y-101008947D01*
X139427799Y-86558975D02*
X139102241Y-86558975D01*
X139427799Y-85538975D02*
X139102241Y-85538975D01*
X175534804Y-114270158D02*
X175765009Y-114039953D01*
X174813555Y-113548909D02*
X175043760Y-113318704D01*
X135712699Y-100305951D02*
X135712699Y-99980393D01*
X134692699Y-100305951D02*
X134692699Y-99980393D01*
X131902699Y-102993173D02*
X131902699Y-102063173D01*
X131902699Y-99833173D02*
X131902699Y-100763173D01*
X131902699Y-99833173D02*
X134062699Y-99833173D01*
X131902699Y-102993173D02*
X133362699Y-102993173D01*
X144803371Y-86605226D02*
X146263371Y-86605226D01*
X144803371Y-83445226D02*
X146963371Y-83445226D01*
X144803371Y-83445226D02*
X144803371Y-84375226D01*
X144803371Y-86605226D02*
X144803371Y-85675226D01*
X144783699Y-91251173D02*
X143853699Y-91251173D01*
X141623699Y-91251173D02*
X142553699Y-91251173D01*
X141623699Y-91251173D02*
X141623699Y-89091173D01*
X144783699Y-91251173D02*
X144783699Y-89791173D01*
X167052195Y-111242482D02*
X166019819Y-110210107D01*
X164817737Y-113476940D02*
X163290387Y-111949589D01*
X164817737Y-113476940D02*
X165475347Y-112819331D01*
X167052195Y-111242482D02*
X166394586Y-111900092D01*
X173910424Y-113801502D02*
X174942799Y-112769126D01*
X171675966Y-111567044D02*
X173203317Y-110039694D01*
X171675966Y-111567044D02*
X172333575Y-112224654D01*
X173910424Y-113801502D02*
X173252814Y-113143893D01*
X145621907Y-88085619D02*
X145947465Y-88085619D01*
X145621907Y-87065619D02*
X145947465Y-87065619D01*
X129993699Y-97922894D02*
X129993699Y-98248452D01*
X131013699Y-97922894D02*
X131013699Y-98248452D01*
X132753920Y-98363173D02*
X133079478Y-98363173D01*
X132753920Y-99383173D02*
X133079478Y-99383173D01*
X142562648Y-85457413D02*
X142562648Y-85131855D01*
X143582648Y-85457413D02*
X143582648Y-85131855D01*
X148608122Y-93403428D02*
X148282564Y-93403428D01*
X148608122Y-94423428D02*
X148282564Y-94423428D01*
X163685391Y-113016911D02*
X163915596Y-113247116D01*
X162964142Y-113738160D02*
X163194347Y-113968365D01*
X161993822Y-110822447D02*
X161763617Y-110592242D01*
X161272573Y-111543696D02*
X161042368Y-111313491D01*
X163499676Y-109316592D02*
X163269471Y-109086387D01*
X164220925Y-108595343D02*
X163990720Y-108365138D01*
X142062699Y-85446952D02*
X142062699Y-85121394D01*
X141042699Y-85446952D02*
X141042699Y-85121394D01*
X173596312Y-116198750D02*
X173366107Y-116428955D01*
X172875063Y-115477501D02*
X172644858Y-115707706D01*
X153181433Y-102393904D02*
X152951228Y-102624109D01*
X152460184Y-101672655D02*
X152229979Y-101902860D01*
X168603743Y-112085793D02*
X168833948Y-112315998D01*
X169324992Y-111364544D02*
X169555197Y-111594749D01*
X136127478Y-102046173D02*
X135801920Y-102046173D01*
X136127478Y-103066173D02*
X135801920Y-103066173D01*
X156953140Y-96335102D02*
X156722935Y-96104897D01*
X156231891Y-97056351D02*
X156001686Y-96826146D01*
X154924055Y-97903776D02*
X155154260Y-98133981D01*
X155645304Y-97182527D02*
X155875509Y-97412732D01*
X156247447Y-105804987D02*
X156017242Y-106035192D01*
X156968696Y-106526236D02*
X156738491Y-106756441D01*
X157094873Y-107112823D02*
X157325078Y-106882618D01*
X157816122Y-107834072D02*
X158046327Y-107603867D01*
X155198964Y-102350615D02*
X156471756Y-103623407D01*
X154194872Y-105900291D02*
X152462461Y-104167879D01*
X155093605Y-91662696D02*
X156826016Y-93395108D01*
X154089513Y-95212372D02*
X152816721Y-93939580D01*
D11*
X142770687Y-100708473D02*
X142294497Y-100375140D01*
X142770687Y-100137045D02*
X141770687Y-100137045D01*
X141770687Y-100517997D01*
X141818307Y-100613235D01*
X141865926Y-100660854D01*
X141961164Y-100708473D01*
X142104021Y-100708473D01*
X142199259Y-100660854D01*
X142246878Y-100613235D01*
X142294497Y-100517997D01*
X142294497Y-100137045D01*
X142770687Y-101660854D02*
X142770687Y-101089426D01*
X142770687Y-101375140D02*
X141770687Y-101375140D01*
X141913545Y-101279902D01*
X142008783Y-101184664D01*
X142056402Y-101089426D01*
X141770687Y-101994188D02*
X141770687Y-102660854D01*
X142770687Y-102232283D01*
X137554581Y-96230508D02*
X137602200Y-96182889D01*
X137649819Y-96040032D01*
X137649819Y-95944794D01*
X137602200Y-95801937D01*
X137506962Y-95706699D01*
X137411724Y-95659080D01*
X137221248Y-95611461D01*
X137078391Y-95611461D01*
X136887915Y-95659080D01*
X136792677Y-95706699D01*
X136697439Y-95801937D01*
X136649819Y-95944794D01*
X136649819Y-96040032D01*
X136697439Y-96182889D01*
X136745058Y-96230508D01*
X136983153Y-97087651D02*
X137649819Y-97087651D01*
X136602200Y-96849556D02*
X137316486Y-96611461D01*
X137316486Y-97230508D01*
X137649819Y-98135270D02*
X137649819Y-97563842D01*
X137649819Y-97849556D02*
X136649819Y-97849556D01*
X136792677Y-97754318D01*
X136887915Y-97659080D01*
X136935534Y-97563842D01*
X145198635Y-96964501D02*
X145265979Y-96964501D01*
X145400666Y-96897157D01*
X145468009Y-96829814D01*
X145535353Y-96695127D01*
X145535353Y-96560440D01*
X145501681Y-96459425D01*
X145400666Y-96291066D01*
X145299651Y-96190051D01*
X145131292Y-96089035D01*
X145030277Y-96055364D01*
X144895590Y-96055364D01*
X144760903Y-96122707D01*
X144693559Y-96190051D01*
X144626216Y-96324738D01*
X144626216Y-96392081D01*
X144188483Y-97166532D02*
X144659887Y-97637936D01*
X144087467Y-96728799D02*
X144760903Y-97065516D01*
X144323170Y-97503249D01*
X143447704Y-97435906D02*
X143380361Y-97503249D01*
X143346689Y-97604264D01*
X143346689Y-97671608D01*
X143380361Y-97772623D01*
X143481376Y-97940982D01*
X143649735Y-98109341D01*
X143818093Y-98210356D01*
X143919109Y-98244028D01*
X143986452Y-98244028D01*
X144087467Y-98210356D01*
X144154811Y-98143012D01*
X144188483Y-98041997D01*
X144188483Y-97974654D01*
X144154811Y-97873638D01*
X144053796Y-97705280D01*
X143885437Y-97536921D01*
X143717078Y-97435906D01*
X143616063Y-97402234D01*
X143548719Y-97402234D01*
X143447704Y-97435906D01*
X160663282Y-88147668D02*
X160663282Y-88215012D01*
X160730626Y-88349699D01*
X160797969Y-88417042D01*
X160932656Y-88484386D01*
X161067343Y-88484386D01*
X161168358Y-88450714D01*
X161336717Y-88349699D01*
X161437732Y-88248684D01*
X161538748Y-88080325D01*
X161572419Y-87979310D01*
X161572419Y-87844623D01*
X161505076Y-87709936D01*
X161437732Y-87642592D01*
X161303045Y-87575249D01*
X161235702Y-87575249D01*
X161067343Y-87272203D02*
X160629610Y-86834470D01*
X160595939Y-87339546D01*
X160494923Y-87238531D01*
X160393908Y-87204859D01*
X160326564Y-87204859D01*
X160225549Y-87238531D01*
X160057190Y-87406890D01*
X160023519Y-87507905D01*
X160023519Y-87575249D01*
X160057190Y-87676264D01*
X160259221Y-87878294D01*
X160360236Y-87911966D01*
X160427580Y-87911966D01*
X160393908Y-86598768D02*
X159922503Y-86127363D01*
X159518442Y-87137516D01*
X149089138Y-96039589D02*
X149136757Y-95991970D01*
X149184376Y-95849113D01*
X149184376Y-95753875D01*
X149136757Y-95611018D01*
X149041519Y-95515780D01*
X148946281Y-95468161D01*
X148755805Y-95420542D01*
X148612948Y-95420542D01*
X148422472Y-95468161D01*
X148327234Y-95515780D01*
X148231996Y-95611018D01*
X148184376Y-95753875D01*
X148184376Y-95849113D01*
X148231996Y-95991970D01*
X148279615Y-96039589D01*
X148184376Y-96372923D02*
X148184376Y-96991970D01*
X148565329Y-96658637D01*
X148565329Y-96801494D01*
X148612948Y-96896732D01*
X148660567Y-96944351D01*
X148755805Y-96991970D01*
X148993900Y-96991970D01*
X149089138Y-96944351D01*
X149136757Y-96896732D01*
X149184376Y-96801494D01*
X149184376Y-96515780D01*
X149136757Y-96420542D01*
X149089138Y-96372923D01*
X148517710Y-97849113D02*
X149184376Y-97849113D01*
X148136757Y-97611018D02*
X148851043Y-97372923D01*
X148851043Y-97991970D01*
X138469621Y-88285607D02*
X138517240Y-88333226D01*
X138660097Y-88380845D01*
X138755335Y-88380845D01*
X138898192Y-88333226D01*
X138993430Y-88237988D01*
X139041049Y-88142750D01*
X139088668Y-87952274D01*
X139088668Y-87809417D01*
X139041049Y-87618941D01*
X138993430Y-87523703D01*
X138898192Y-87428465D01*
X138755335Y-87380845D01*
X138660097Y-87380845D01*
X138517240Y-87428465D01*
X138469621Y-87476084D01*
X138136287Y-87380845D02*
X137517240Y-87380845D01*
X137850573Y-87761798D01*
X137707716Y-87761798D01*
X137612478Y-87809417D01*
X137564859Y-87857036D01*
X137517240Y-87952274D01*
X137517240Y-88190369D01*
X137564859Y-88285607D01*
X137612478Y-88333226D01*
X137707716Y-88380845D01*
X137993430Y-88380845D01*
X138088668Y-88333226D01*
X138136287Y-88285607D01*
X136898192Y-87380845D02*
X136802954Y-87380845D01*
X136707716Y-87428465D01*
X136660097Y-87476084D01*
X136612478Y-87571322D01*
X136564859Y-87761798D01*
X136564859Y-87999893D01*
X136612478Y-88190369D01*
X136660097Y-88285607D01*
X136707716Y-88333226D01*
X136802954Y-88380845D01*
X136898192Y-88380845D01*
X136993430Y-88333226D01*
X137041049Y-88285607D01*
X137088668Y-88190369D01*
X137136287Y-87999893D01*
X137136287Y-87761798D01*
X137088668Y-87571322D01*
X137041049Y-87476084D01*
X136993430Y-87428465D01*
X136898192Y-87380845D01*
X139367647Y-82734818D02*
X139415266Y-82782437D01*
X139558123Y-82830056D01*
X139653361Y-82830056D01*
X139796218Y-82782437D01*
X139891456Y-82687199D01*
X139939075Y-82591961D01*
X139986694Y-82401485D01*
X139986694Y-82258628D01*
X139939075Y-82068152D01*
X139891456Y-81972914D01*
X139796218Y-81877676D01*
X139653361Y-81830056D01*
X139558123Y-81830056D01*
X139415266Y-81877676D01*
X139367647Y-81925295D01*
X138986694Y-81925295D02*
X138939075Y-81877676D01*
X138843837Y-81830056D01*
X138605742Y-81830056D01*
X138510504Y-81877676D01*
X138462885Y-81925295D01*
X138415266Y-82020533D01*
X138415266Y-82115771D01*
X138462885Y-82258628D01*
X139034313Y-82830056D01*
X138415266Y-82830056D01*
X138081932Y-81830056D02*
X137415266Y-81830056D01*
X137843837Y-82830056D01*
X128242287Y-92818020D02*
X128289906Y-92865639D01*
X128432763Y-92913258D01*
X128528001Y-92913258D01*
X128670859Y-92865639D01*
X128766097Y-92770401D01*
X128813716Y-92675163D01*
X128861335Y-92484687D01*
X128861335Y-92341830D01*
X128813716Y-92151354D01*
X128766097Y-92056116D01*
X128670859Y-91960878D01*
X128528001Y-91913258D01*
X128432763Y-91913258D01*
X128289906Y-91960878D01*
X128242287Y-92008497D01*
X127289906Y-92913258D02*
X127861335Y-92913258D01*
X127575621Y-92913258D02*
X127575621Y-91913258D01*
X127670859Y-92056116D01*
X127766097Y-92151354D01*
X127861335Y-92198973D01*
X160670354Y-108618409D02*
X160670354Y-108685753D01*
X160737698Y-108820440D01*
X160805041Y-108887783D01*
X160939728Y-108955127D01*
X161074415Y-108955127D01*
X161175430Y-108921455D01*
X161343789Y-108820440D01*
X161444804Y-108719425D01*
X161545820Y-108551066D01*
X161579491Y-108450051D01*
X161579491Y-108315364D01*
X161512148Y-108180677D01*
X161444804Y-108113333D01*
X161310117Y-108045990D01*
X161242774Y-108045990D01*
X159929575Y-108012318D02*
X160333636Y-108416379D01*
X160131606Y-108214348D02*
X160838713Y-107507241D01*
X160805041Y-107675600D01*
X160805041Y-107810287D01*
X160838713Y-107911302D01*
X159929575Y-107204196D02*
X160030591Y-107237867D01*
X160097934Y-107237867D01*
X160198949Y-107204196D01*
X160232621Y-107170524D01*
X160266293Y-107069509D01*
X160266293Y-107002165D01*
X160232621Y-106901150D01*
X160097934Y-106766463D01*
X159996919Y-106732791D01*
X159929575Y-106732791D01*
X159828560Y-106766463D01*
X159794888Y-106800135D01*
X159761217Y-106901150D01*
X159761217Y-106968493D01*
X159794888Y-107069509D01*
X159929575Y-107204196D01*
X159963247Y-107305211D01*
X159963247Y-107372554D01*
X159929575Y-107473570D01*
X159794888Y-107608257D01*
X159693873Y-107641928D01*
X159626530Y-107641928D01*
X159525514Y-107608257D01*
X159390827Y-107473570D01*
X159357156Y-107372554D01*
X159357156Y-107305211D01*
X159390827Y-107204196D01*
X159525514Y-107069509D01*
X159626530Y-107035837D01*
X159693873Y-107035837D01*
X159794888Y-107069509D01*
X147753079Y-89848315D02*
X147276889Y-89514982D01*
X147753079Y-89276887D02*
X146753079Y-89276887D01*
X146753079Y-89657839D01*
X146800699Y-89753077D01*
X146848318Y-89800696D01*
X146943556Y-89848315D01*
X147086413Y-89848315D01*
X147181651Y-89800696D01*
X147229270Y-89753077D01*
X147276889Y-89657839D01*
X147276889Y-89276887D01*
X147753079Y-90800696D02*
X147753079Y-90229268D01*
X147753079Y-90514982D02*
X146753079Y-90514982D01*
X146895937Y-90419744D01*
X146991175Y-90324506D01*
X147038794Y-90229268D01*
X146753079Y-91419744D02*
X146753079Y-91514982D01*
X146800699Y-91610220D01*
X146848318Y-91657839D01*
X146943556Y-91705458D01*
X147134032Y-91753077D01*
X147372127Y-91753077D01*
X147562603Y-91705458D01*
X147657841Y-91657839D01*
X147705460Y-91610220D01*
X147753079Y-91514982D01*
X147753079Y-91419744D01*
X147705460Y-91324506D01*
X147657841Y-91276887D01*
X147562603Y-91229268D01*
X147372127Y-91181649D01*
X147134032Y-91181649D01*
X146943556Y-91229268D01*
X146848318Y-91276887D01*
X146800699Y-91324506D01*
X146753079Y-91419744D01*
X174543930Y-101573504D02*
X174543930Y-101640848D01*
X174611274Y-101775535D01*
X174678617Y-101842878D01*
X174813304Y-101910222D01*
X174947991Y-101910222D01*
X175049006Y-101876550D01*
X175217365Y-101775535D01*
X175318380Y-101674520D01*
X175419396Y-101506161D01*
X175453067Y-101405146D01*
X175453067Y-101270459D01*
X175385724Y-101135772D01*
X175318380Y-101068428D01*
X175183693Y-101001085D01*
X175116350Y-101001085D01*
X174947991Y-100698039D02*
X174510258Y-100260306D01*
X174476587Y-100765382D01*
X174375571Y-100664367D01*
X174274556Y-100630695D01*
X174207212Y-100630695D01*
X174106197Y-100664367D01*
X173937838Y-100832726D01*
X173904167Y-100933741D01*
X173904167Y-101001085D01*
X173937838Y-101102100D01*
X174139869Y-101304130D01*
X174240884Y-101337802D01*
X174308228Y-101337802D01*
X173129716Y-100293978D02*
X173533777Y-100698039D01*
X173331747Y-100496008D02*
X174038854Y-99788901D01*
X174005182Y-99957260D01*
X174005182Y-100091947D01*
X174038854Y-100192962D01*
X162767391Y-102616271D02*
X162632704Y-102548928D01*
X162464345Y-102380569D01*
X162430673Y-102279554D01*
X162430673Y-102212210D01*
X162464345Y-102111195D01*
X162531688Y-102043852D01*
X162632704Y-102010180D01*
X162700047Y-102010180D01*
X162801062Y-102043852D01*
X162969421Y-102144867D01*
X163070436Y-102178539D01*
X163137780Y-102178539D01*
X163238795Y-102144867D01*
X163306139Y-102077523D01*
X163339810Y-101976508D01*
X163339810Y-101909165D01*
X163306139Y-101808149D01*
X163137780Y-101639791D01*
X163003093Y-101572447D01*
X162801062Y-101303073D02*
X161925597Y-101841821D01*
X162295986Y-101202058D01*
X161656223Y-101572447D01*
X162194971Y-100696982D01*
X161891925Y-100528623D02*
X161891925Y-100461279D01*
X161858253Y-100360264D01*
X161689895Y-100191905D01*
X161588879Y-100158234D01*
X161521536Y-100158234D01*
X161420521Y-100191905D01*
X161353177Y-100259249D01*
X161285834Y-100393936D01*
X161285834Y-101202058D01*
X160848101Y-100764325D01*
X128224326Y-94165059D02*
X128271945Y-94212678D01*
X128414802Y-94260297D01*
X128510040Y-94260297D01*
X128652898Y-94212678D01*
X128748136Y-94117440D01*
X128795755Y-94022202D01*
X128843374Y-93831726D01*
X128843374Y-93688869D01*
X128795755Y-93498393D01*
X128748136Y-93403155D01*
X128652898Y-93307917D01*
X128510040Y-93260297D01*
X128414802Y-93260297D01*
X128271945Y-93307917D01*
X128224326Y-93355536D01*
X127843374Y-93355536D02*
X127795755Y-93307917D01*
X127700517Y-93260297D01*
X127462421Y-93260297D01*
X127367183Y-93307917D01*
X127319564Y-93355536D01*
X127271945Y-93450774D01*
X127271945Y-93546012D01*
X127319564Y-93688869D01*
X127890993Y-94260297D01*
X127271945Y-94260297D01*
X128170445Y-95476176D02*
X128218064Y-95523795D01*
X128360921Y-95571414D01*
X128456159Y-95571414D01*
X128599017Y-95523795D01*
X128694255Y-95428557D01*
X128741874Y-95333319D01*
X128789493Y-95142843D01*
X128789493Y-94999986D01*
X128741874Y-94809510D01*
X128694255Y-94714272D01*
X128599017Y-94619034D01*
X128456159Y-94571414D01*
X128360921Y-94571414D01*
X128218064Y-94619034D01*
X128170445Y-94666653D01*
X127313302Y-94904748D02*
X127313302Y-95571414D01*
X127551398Y-94523795D02*
X127789493Y-95238081D01*
X127170445Y-95238081D01*
X130792679Y-103199197D02*
X130840298Y-103246816D01*
X130983155Y-103294435D01*
X131078393Y-103294435D01*
X131221251Y-103246816D01*
X131316489Y-103151578D01*
X131364108Y-103056340D01*
X131411727Y-102865864D01*
X131411727Y-102723007D01*
X131364108Y-102532531D01*
X131316489Y-102437293D01*
X131221251Y-102342055D01*
X131078393Y-102294435D01*
X130983155Y-102294435D01*
X130840298Y-102342055D01*
X130792679Y-102389674D01*
X129887917Y-102294435D02*
X130364108Y-102294435D01*
X130411727Y-102770626D01*
X130364108Y-102723007D01*
X130268870Y-102675388D01*
X130030774Y-102675388D01*
X129935536Y-102723007D01*
X129887917Y-102770626D01*
X129840298Y-102865864D01*
X129840298Y-103103959D01*
X129887917Y-103199197D01*
X129935536Y-103246816D01*
X130030774Y-103294435D01*
X130268870Y-103294435D01*
X130364108Y-103246816D01*
X130411727Y-103199197D01*
X171798154Y-98275619D02*
X171865498Y-98275619D01*
X172000185Y-98208275D01*
X172067528Y-98140932D01*
X172134872Y-98006245D01*
X172134872Y-97871558D01*
X172101200Y-97770543D01*
X172000185Y-97602184D01*
X171899170Y-97501169D01*
X171730811Y-97400153D01*
X171629796Y-97366482D01*
X171495109Y-97366482D01*
X171360422Y-97433825D01*
X171293078Y-97501169D01*
X171225735Y-97635856D01*
X171225735Y-97703199D01*
X171192063Y-99016398D02*
X171596124Y-98612337D01*
X171394093Y-98814367D02*
X170686986Y-98107260D01*
X170855345Y-98140932D01*
X170990032Y-98140932D01*
X171091048Y-98107260D01*
X170518628Y-99689833D02*
X170922689Y-99285772D01*
X170720658Y-99487802D02*
X170013551Y-98780695D01*
X170181910Y-98814367D01*
X170316597Y-98814367D01*
X170417612Y-98780695D01*
X170253550Y-96659172D02*
X170320894Y-96659172D01*
X170455581Y-96591828D01*
X170522924Y-96524485D01*
X170590268Y-96389798D01*
X170590268Y-96255111D01*
X170556596Y-96154096D01*
X170455581Y-95985737D01*
X170354566Y-95884722D01*
X170186207Y-95783706D01*
X170085192Y-95750035D01*
X169950505Y-95750035D01*
X169815818Y-95817378D01*
X169748474Y-95884722D01*
X169681131Y-96019409D01*
X169681131Y-96086752D01*
X169647459Y-97399951D02*
X170051520Y-96995890D01*
X169849489Y-97197920D02*
X169142382Y-96490813D01*
X169310741Y-96524485D01*
X169445428Y-96524485D01*
X169546444Y-96490813D01*
X168738321Y-97029561D02*
X168670978Y-97029561D01*
X168569963Y-97063233D01*
X168401604Y-97231592D01*
X168367932Y-97332607D01*
X168367932Y-97399951D01*
X168401604Y-97500966D01*
X168468947Y-97568309D01*
X168603634Y-97635653D01*
X169411756Y-97635653D01*
X168974024Y-98073386D01*
X169083935Y-101070610D02*
X169083935Y-101137954D01*
X169151279Y-101272641D01*
X169218622Y-101339984D01*
X169353309Y-101407328D01*
X169487996Y-101407328D01*
X169589011Y-101373656D01*
X169757370Y-101272641D01*
X169858385Y-101171626D01*
X169959401Y-101003267D01*
X169993072Y-100902252D01*
X169993072Y-100767565D01*
X169925729Y-100632878D01*
X169858385Y-100565534D01*
X169723698Y-100498191D01*
X169656355Y-100498191D01*
X168343156Y-100464519D02*
X168747217Y-100868580D01*
X168545187Y-100666549D02*
X169252294Y-99959442D01*
X169218622Y-100127801D01*
X169218622Y-100262488D01*
X169252294Y-100363503D01*
X168208469Y-99387023D02*
X167737065Y-99858427D01*
X168646202Y-99286007D02*
X168309485Y-99959442D01*
X167871752Y-99521710D01*
X147122815Y-100528868D02*
X147170434Y-100481249D01*
X147218053Y-100338392D01*
X147218053Y-100243154D01*
X147170434Y-100100297D01*
X147075196Y-100005059D01*
X146979958Y-99957440D01*
X146789482Y-99909821D01*
X146646625Y-99909821D01*
X146456149Y-99957440D01*
X146360911Y-100005059D01*
X146265673Y-100100297D01*
X146218053Y-100243154D01*
X146218053Y-100338392D01*
X146265673Y-100481249D01*
X146313292Y-100528868D01*
X147218053Y-101481249D02*
X147218053Y-100909821D01*
X147218053Y-101195535D02*
X146218053Y-101195535D01*
X146360911Y-101100297D01*
X146456149Y-101005059D01*
X146503768Y-100909821D01*
X147218053Y-101957440D02*
X147218053Y-102147916D01*
X147170434Y-102243154D01*
X147122815Y-102290773D01*
X146979958Y-102386011D01*
X146789482Y-102433630D01*
X146408530Y-102433630D01*
X146313292Y-102386011D01*
X146265673Y-102338392D01*
X146218053Y-102243154D01*
X146218053Y-102052678D01*
X146265673Y-101957440D01*
X146313292Y-101909821D01*
X146408530Y-101862202D01*
X146646625Y-101862202D01*
X146741863Y-101909821D01*
X146789482Y-101957440D01*
X146837101Y-102052678D01*
X146837101Y-102243154D01*
X146789482Y-102338392D01*
X146741863Y-102386011D01*
X146646625Y-102433630D01*
X135301783Y-86531982D02*
X135349402Y-86579601D01*
X135492259Y-86627220D01*
X135587497Y-86627220D01*
X135730354Y-86579601D01*
X135825592Y-86484363D01*
X135873211Y-86389125D01*
X135920830Y-86198649D01*
X135920830Y-86055792D01*
X135873211Y-85865316D01*
X135825592Y-85770078D01*
X135730354Y-85674840D01*
X135587497Y-85627220D01*
X135492259Y-85627220D01*
X135349402Y-85674840D01*
X135301783Y-85722459D01*
X134920830Y-85722459D02*
X134873211Y-85674840D01*
X134777973Y-85627220D01*
X134539878Y-85627220D01*
X134444640Y-85674840D01*
X134397021Y-85722459D01*
X134349402Y-85817697D01*
X134349402Y-85912935D01*
X134397021Y-86055792D01*
X134968449Y-86627220D01*
X134349402Y-86627220D01*
X133730354Y-85627220D02*
X133635116Y-85627220D01*
X133539878Y-85674840D01*
X133492259Y-85722459D01*
X133444640Y-85817697D01*
X133397021Y-86008173D01*
X133397021Y-86246268D01*
X133444640Y-86436744D01*
X133492259Y-86531982D01*
X133539878Y-86579601D01*
X133635116Y-86627220D01*
X133730354Y-86627220D01*
X133825592Y-86579601D01*
X133873211Y-86531982D01*
X133920830Y-86436744D01*
X133968449Y-86246268D01*
X133968449Y-86008173D01*
X133920830Y-85817697D01*
X133873211Y-85722459D01*
X133825592Y-85674840D01*
X133730354Y-85627220D01*
X178138214Y-111404753D02*
X178205558Y-111404753D01*
X178340245Y-111337409D01*
X178407588Y-111270066D01*
X178474932Y-111135379D01*
X178474932Y-111000692D01*
X178441260Y-110899677D01*
X178340245Y-110731318D01*
X178239230Y-110630303D01*
X178070871Y-110529287D01*
X177969856Y-110495616D01*
X177835169Y-110495616D01*
X177700482Y-110562959D01*
X177633138Y-110630303D01*
X177565795Y-110764990D01*
X177565795Y-110832333D01*
X177296420Y-111101707D02*
X177229077Y-111101707D01*
X177128062Y-111135379D01*
X176959703Y-111303738D01*
X176926031Y-111404753D01*
X176926031Y-111472096D01*
X176959703Y-111573112D01*
X177027046Y-111640455D01*
X177161733Y-111707799D01*
X177969856Y-111707799D01*
X177532123Y-112145532D01*
X176622985Y-111775142D02*
X176555642Y-111775142D01*
X176454627Y-111808814D01*
X176286268Y-111977173D01*
X176252596Y-112078188D01*
X176252596Y-112145532D01*
X176286268Y-112246547D01*
X176353611Y-112313890D01*
X176488298Y-112381234D01*
X177296420Y-112381234D01*
X176858688Y-112818967D01*
X135634928Y-96469792D02*
X135682547Y-96422173D01*
X135730166Y-96279316D01*
X135730166Y-96184078D01*
X135682547Y-96041221D01*
X135587309Y-95945983D01*
X135492071Y-95898364D01*
X135301595Y-95850745D01*
X135158738Y-95850745D01*
X134968262Y-95898364D01*
X134873024Y-95945983D01*
X134777786Y-96041221D01*
X134730166Y-96184078D01*
X134730166Y-96279316D01*
X134777786Y-96422173D01*
X134825405Y-96469792D01*
X134825405Y-96850745D02*
X134777786Y-96898364D01*
X134730166Y-96993602D01*
X134730166Y-97231697D01*
X134777786Y-97326935D01*
X134825405Y-97374554D01*
X134920643Y-97422173D01*
X135015881Y-97422173D01*
X135158738Y-97374554D01*
X135730166Y-96803126D01*
X135730166Y-97422173D01*
X135063500Y-98279316D02*
X135730166Y-98279316D01*
X134682547Y-98041221D02*
X135396833Y-97803126D01*
X135396833Y-98422173D01*
X130721251Y-100875201D02*
X130816489Y-100827582D01*
X130911727Y-100732343D01*
X131054584Y-100589486D01*
X131149822Y-100541867D01*
X131245060Y-100541867D01*
X131197441Y-100779962D02*
X131292679Y-100732343D01*
X131387917Y-100637105D01*
X131435536Y-100446629D01*
X131435536Y-100113296D01*
X131387917Y-99922820D01*
X131292679Y-99827582D01*
X131197441Y-99779962D01*
X131006965Y-99779962D01*
X130911727Y-99827582D01*
X130816489Y-99922820D01*
X130768870Y-100113296D01*
X130768870Y-100446629D01*
X130816489Y-100637105D01*
X130911727Y-100732343D01*
X131006965Y-100779962D01*
X131197441Y-100779962D01*
X129816489Y-100779962D02*
X130387917Y-100779962D01*
X130102203Y-100779962D02*
X130102203Y-99779962D01*
X130197441Y-99922820D01*
X130292679Y-100018058D01*
X130387917Y-100065677D01*
X148585005Y-84990657D02*
X148537386Y-84895419D01*
X148442147Y-84800181D01*
X148299290Y-84657324D01*
X148251671Y-84562086D01*
X148251671Y-84466848D01*
X148489766Y-84514467D02*
X148442147Y-84419229D01*
X148346909Y-84323991D01*
X148156433Y-84276372D01*
X147823100Y-84276372D01*
X147632624Y-84323991D01*
X147537386Y-84419229D01*
X147489766Y-84514467D01*
X147489766Y-84704943D01*
X147537386Y-84800181D01*
X147632624Y-84895419D01*
X147823100Y-84943038D01*
X148156433Y-84943038D01*
X148346909Y-84895419D01*
X148442147Y-84800181D01*
X148489766Y-84704943D01*
X148489766Y-84514467D01*
X147585005Y-85323991D02*
X147537386Y-85371610D01*
X147489766Y-85466848D01*
X147489766Y-85704943D01*
X147537386Y-85800181D01*
X147585005Y-85847800D01*
X147680243Y-85895419D01*
X147775481Y-85895419D01*
X147918338Y-85847800D01*
X148489766Y-85276372D01*
X148489766Y-85895419D01*
X141251318Y-90395934D02*
X141203699Y-90300696D01*
X141108460Y-90205458D01*
X140965603Y-90062601D01*
X140917984Y-89967363D01*
X140917984Y-89872125D01*
X141156079Y-89919744D02*
X141108460Y-89824506D01*
X141013222Y-89729268D01*
X140822746Y-89681649D01*
X140489413Y-89681649D01*
X140298937Y-89729268D01*
X140203699Y-89824506D01*
X140156079Y-89919744D01*
X140156079Y-90110220D01*
X140203699Y-90205458D01*
X140298937Y-90300696D01*
X140489413Y-90348315D01*
X140822746Y-90348315D01*
X141013222Y-90300696D01*
X141108460Y-90205458D01*
X141156079Y-90110220D01*
X141156079Y-89919744D01*
X140156079Y-90681649D02*
X140156079Y-91300696D01*
X140537032Y-90967363D01*
X140537032Y-91110220D01*
X140584651Y-91205458D01*
X140632270Y-91253077D01*
X140727508Y-91300696D01*
X140965603Y-91300696D01*
X141060841Y-91253077D01*
X141108460Y-91205458D01*
X141156079Y-91110220D01*
X141156079Y-90824506D01*
X141108460Y-90729268D01*
X141060841Y-90681649D01*
X167032294Y-114354728D02*
X167065966Y-114253713D01*
X167065966Y-114119026D01*
X167065966Y-113916995D01*
X167099638Y-113815980D01*
X167166981Y-113748637D01*
X167301668Y-113950667D02*
X167335340Y-113849652D01*
X167335340Y-113714965D01*
X167234325Y-113546606D01*
X166998622Y-113310904D01*
X166830264Y-113209889D01*
X166695577Y-113209889D01*
X166594561Y-113243560D01*
X166459874Y-113378247D01*
X166426203Y-113479263D01*
X166426203Y-113613950D01*
X166527218Y-113782308D01*
X166762920Y-114018011D01*
X166931279Y-114119026D01*
X167065966Y-114119026D01*
X167166981Y-114085354D01*
X167301668Y-113950667D01*
X165685424Y-114152698D02*
X165820111Y-114018011D01*
X165921126Y-113984339D01*
X165988470Y-113984339D01*
X166156829Y-114018011D01*
X166325187Y-114119026D01*
X166594561Y-114388400D01*
X166628233Y-114489415D01*
X166628233Y-114556759D01*
X166594561Y-114657774D01*
X166459874Y-114792461D01*
X166358859Y-114826133D01*
X166291516Y-114826133D01*
X166190500Y-114792461D01*
X166022142Y-114624102D01*
X165988470Y-114523087D01*
X165988470Y-114455743D01*
X166022142Y-114354728D01*
X166156829Y-114220041D01*
X166257844Y-114186369D01*
X166325187Y-114186369D01*
X166426203Y-114220041D01*
X171004652Y-110624511D02*
X171105667Y-110658183D01*
X171240354Y-110658183D01*
X171442385Y-110658183D01*
X171543400Y-110691855D01*
X171610743Y-110759198D01*
X171408713Y-110893885D02*
X171509728Y-110927557D01*
X171644415Y-110927557D01*
X171812774Y-110826542D01*
X172048476Y-110590839D01*
X172149491Y-110422481D01*
X172149491Y-110287794D01*
X172115820Y-110186778D01*
X171981133Y-110052091D01*
X171880117Y-110018420D01*
X171745430Y-110018420D01*
X171577072Y-110119435D01*
X171341369Y-110355137D01*
X171240354Y-110523496D01*
X171240354Y-110658183D01*
X171274026Y-110759198D01*
X171408713Y-110893885D01*
X171577072Y-109648030D02*
X171105667Y-109176626D01*
X170701606Y-110186778D01*
X148493967Y-88204069D02*
X148827301Y-87727879D01*
X149065396Y-88204069D02*
X149065396Y-87204069D01*
X148684443Y-87204069D01*
X148589205Y-87251689D01*
X148541586Y-87299308D01*
X148493967Y-87394546D01*
X148493967Y-87537403D01*
X148541586Y-87632641D01*
X148589205Y-87680260D01*
X148684443Y-87727879D01*
X149065396Y-87727879D01*
X148113015Y-87299308D02*
X148065396Y-87251689D01*
X147970158Y-87204069D01*
X147732062Y-87204069D01*
X147636824Y-87251689D01*
X147589205Y-87299308D01*
X147541586Y-87394546D01*
X147541586Y-87489784D01*
X147589205Y-87632641D01*
X148160634Y-88204069D01*
X147541586Y-88204069D01*
X130844907Y-95473222D02*
X130368717Y-95139889D01*
X130844907Y-94901793D02*
X129844907Y-94901793D01*
X129844907Y-95282746D01*
X129892527Y-95377984D01*
X129940146Y-95425603D01*
X130035384Y-95473222D01*
X130178241Y-95473222D01*
X130273479Y-95425603D01*
X130321098Y-95377984D01*
X130368717Y-95282746D01*
X130368717Y-94901793D01*
X129844907Y-95806555D02*
X129844907Y-96425603D01*
X130225860Y-96092269D01*
X130225860Y-96235127D01*
X130273479Y-96330365D01*
X130321098Y-96377984D01*
X130416336Y-96425603D01*
X130654431Y-96425603D01*
X130749669Y-96377984D01*
X130797288Y-96330365D01*
X130844907Y-96235127D01*
X130844907Y-95949412D01*
X130797288Y-95854174D01*
X130749669Y-95806555D01*
X133073664Y-98032004D02*
X133406998Y-97555814D01*
X133645093Y-98032004D02*
X133645093Y-97032004D01*
X133264140Y-97032004D01*
X133168902Y-97079624D01*
X133121283Y-97127243D01*
X133073664Y-97222481D01*
X133073664Y-97365338D01*
X133121283Y-97460576D01*
X133168902Y-97508195D01*
X133264140Y-97555814D01*
X133645093Y-97555814D01*
X132216521Y-97365338D02*
X132216521Y-98032004D01*
X132454617Y-96984385D02*
X132692712Y-97698671D01*
X132073664Y-97698671D01*
X143518805Y-87500169D02*
X143042615Y-87166836D01*
X143518805Y-86928740D02*
X142518805Y-86928740D01*
X142518805Y-87309693D01*
X142566425Y-87404931D01*
X142614044Y-87452550D01*
X142709282Y-87500169D01*
X142852139Y-87500169D01*
X142947377Y-87452550D01*
X142994996Y-87404931D01*
X143042615Y-87309693D01*
X143042615Y-86928740D01*
X142518805Y-88404931D02*
X142518805Y-87928740D01*
X142994996Y-87881121D01*
X142947377Y-87928740D01*
X142899758Y-88023978D01*
X142899758Y-88262074D01*
X142947377Y-88357312D01*
X142994996Y-88404931D01*
X143090234Y-88452550D01*
X143328329Y-88452550D01*
X143423567Y-88404931D01*
X143471186Y-88357312D01*
X143518805Y-88262074D01*
X143518805Y-88023978D01*
X143471186Y-87928740D01*
X143423567Y-87881121D01*
X149088200Y-92935808D02*
X149421533Y-92459618D01*
X149659628Y-92935808D02*
X149659628Y-91935808D01*
X149278676Y-91935808D01*
X149183438Y-91983428D01*
X149135819Y-92031047D01*
X149088200Y-92126285D01*
X149088200Y-92269142D01*
X149135819Y-92364380D01*
X149183438Y-92411999D01*
X149278676Y-92459618D01*
X149659628Y-92459618D01*
X148135819Y-92935808D02*
X148707247Y-92935808D01*
X148421533Y-92935808D02*
X148421533Y-91935808D01*
X148516771Y-92078666D01*
X148612009Y-92173904D01*
X148707247Y-92221523D01*
X147754866Y-92031047D02*
X147707247Y-91983428D01*
X147612009Y-91935808D01*
X147373914Y-91935808D01*
X147278676Y-91983428D01*
X147231057Y-92031047D01*
X147183438Y-92126285D01*
X147183438Y-92221523D01*
X147231057Y-92364380D01*
X147802485Y-92935808D01*
X147183438Y-92935808D01*
X162563393Y-115278251D02*
X163135812Y-115177236D01*
X162967454Y-115682312D02*
X163674560Y-114975205D01*
X163405186Y-114705831D01*
X163304171Y-114672159D01*
X163236828Y-114672159D01*
X163135812Y-114705831D01*
X163034797Y-114806846D01*
X163001125Y-114907862D01*
X163001125Y-114975205D01*
X163034797Y-115076220D01*
X163304171Y-115345594D01*
X161889957Y-114604816D02*
X162294018Y-115008877D01*
X162091988Y-114806846D02*
X162799095Y-114099739D01*
X162765423Y-114268098D01*
X162765423Y-114402785D01*
X162799095Y-114503800D01*
X162361362Y-113662007D02*
X161923629Y-113224274D01*
X161889957Y-113729350D01*
X161788942Y-113628335D01*
X161687927Y-113594663D01*
X161620583Y-113594663D01*
X161519568Y-113628335D01*
X161351209Y-113796694D01*
X161317538Y-113897709D01*
X161317538Y-113965052D01*
X161351209Y-114066068D01*
X161553240Y-114268098D01*
X161654255Y-114301770D01*
X161721599Y-114301770D01*
X159492854Y-109753484D02*
X160065273Y-109652469D01*
X159896915Y-110157545D02*
X160604021Y-109450438D01*
X160334647Y-109181064D01*
X160233632Y-109147392D01*
X160166289Y-109147392D01*
X160065273Y-109181064D01*
X159964258Y-109282079D01*
X159930586Y-109383095D01*
X159930586Y-109450438D01*
X159964258Y-109551453D01*
X160233632Y-109820827D01*
X158819418Y-109080049D02*
X159223479Y-109484110D01*
X159021449Y-109282079D02*
X159728556Y-108574972D01*
X159694884Y-108743331D01*
X159694884Y-108878018D01*
X159728556Y-108979033D01*
X158684731Y-108002553D02*
X158213327Y-108473957D01*
X159122464Y-107901537D02*
X158785747Y-108574972D01*
X158348014Y-108137240D01*
X161684884Y-107603879D02*
X162257303Y-107502864D01*
X162088945Y-108007940D02*
X162796051Y-107300833D01*
X162526677Y-107031459D01*
X162425662Y-106997787D01*
X162358319Y-106997787D01*
X162257303Y-107031459D01*
X162156288Y-107132474D01*
X162122616Y-107233490D01*
X162122616Y-107300833D01*
X162156288Y-107401848D01*
X162425662Y-107671222D01*
X161011448Y-106930444D02*
X161415509Y-107334505D01*
X161213479Y-107132474D02*
X161920586Y-106425367D01*
X161886914Y-106593726D01*
X161886914Y-106728413D01*
X161920586Y-106829428D01*
X161112464Y-105617245D02*
X161247151Y-105751932D01*
X161280822Y-105852948D01*
X161280822Y-105920291D01*
X161247151Y-106088650D01*
X161146135Y-106257009D01*
X160876761Y-106526383D01*
X160775746Y-106560054D01*
X160708403Y-106560054D01*
X160607387Y-106526383D01*
X160472700Y-106391696D01*
X160439029Y-106290680D01*
X160439029Y-106223337D01*
X160472700Y-106122322D01*
X160641059Y-105953963D01*
X160742074Y-105920291D01*
X160809418Y-105920291D01*
X160910433Y-105953963D01*
X161045120Y-106088650D01*
X161078792Y-106189665D01*
X161078792Y-106257009D01*
X161045120Y-106358024D01*
X137289195Y-84641027D02*
X136813005Y-84307694D01*
X137289195Y-84069599D02*
X136289195Y-84069599D01*
X136289195Y-84450551D01*
X136336815Y-84545789D01*
X136384434Y-84593408D01*
X136479672Y-84641027D01*
X136622529Y-84641027D01*
X136717767Y-84593408D01*
X136765386Y-84545789D01*
X136813005Y-84450551D01*
X136813005Y-84069599D01*
X137289195Y-85593408D02*
X137289195Y-85021980D01*
X137289195Y-85307694D02*
X136289195Y-85307694D01*
X136432053Y-85212456D01*
X136527291Y-85117218D01*
X136574910Y-85021980D01*
X136717767Y-86164837D02*
X136670148Y-86069599D01*
X136622529Y-86021980D01*
X136527291Y-85974361D01*
X136479672Y-85974361D01*
X136384434Y-86021980D01*
X136336815Y-86069599D01*
X136289195Y-86164837D01*
X136289195Y-86355313D01*
X136336815Y-86450551D01*
X136384434Y-86498170D01*
X136479672Y-86545789D01*
X136527291Y-86545789D01*
X136622529Y-86498170D01*
X136670148Y-86450551D01*
X136717767Y-86355313D01*
X136717767Y-86164837D01*
X136765386Y-86069599D01*
X136813005Y-86021980D01*
X136908243Y-85974361D01*
X137098719Y-85974361D01*
X137193957Y-86021980D01*
X137241576Y-86069599D01*
X137289195Y-86164837D01*
X137289195Y-86355313D01*
X137241576Y-86450551D01*
X137193957Y-86498170D01*
X137098719Y-86545789D01*
X136908243Y-86545789D01*
X136813005Y-86498170D01*
X136765386Y-86450551D01*
X136717767Y-86355313D01*
X175601284Y-116231632D02*
X175500269Y-115659213D01*
X176005345Y-115827571D02*
X175298238Y-115120465D01*
X175028864Y-115389839D01*
X174995192Y-115490854D01*
X174995192Y-115558197D01*
X175028864Y-115659213D01*
X175129879Y-115760228D01*
X175230895Y-115793900D01*
X175298238Y-115793900D01*
X175399253Y-115760228D01*
X175668627Y-115490854D01*
X174927849Y-116905068D02*
X175331910Y-116501007D01*
X175129879Y-116703037D02*
X174422772Y-115995930D01*
X174591131Y-116029602D01*
X174725818Y-116029602D01*
X174826834Y-115995930D01*
X174591131Y-117241785D02*
X174456444Y-117376472D01*
X174355429Y-117410144D01*
X174288085Y-117410144D01*
X174119727Y-117376472D01*
X173951368Y-117275457D01*
X173681994Y-117006083D01*
X173648322Y-116905068D01*
X173648322Y-116837724D01*
X173681994Y-116736709D01*
X173816681Y-116602022D01*
X173917696Y-116568350D01*
X173985040Y-116568350D01*
X174086055Y-116602022D01*
X174254414Y-116770381D01*
X174288085Y-116871396D01*
X174288085Y-116938739D01*
X174254414Y-117039755D01*
X174119727Y-117174442D01*
X174018711Y-117208113D01*
X173951368Y-117208113D01*
X173850353Y-117174442D01*
X152468993Y-101002531D02*
X152367978Y-100430112D01*
X152873054Y-100598470D02*
X152165947Y-99891364D01*
X151896573Y-100160738D01*
X151862901Y-100261753D01*
X151862901Y-100329096D01*
X151896573Y-100430112D01*
X151997588Y-100531127D01*
X152098604Y-100564799D01*
X152165947Y-100564799D01*
X152266962Y-100531127D01*
X152536336Y-100261753D01*
X151559855Y-100632142D02*
X151492512Y-100632142D01*
X151391497Y-100665814D01*
X151223138Y-100834173D01*
X151189466Y-100935188D01*
X151189466Y-101002531D01*
X151223138Y-101103547D01*
X151290481Y-101170890D01*
X151425168Y-101238234D01*
X152233291Y-101238234D01*
X151795558Y-101675967D01*
X150650718Y-101406593D02*
X150583375Y-101473936D01*
X150549703Y-101574951D01*
X150549703Y-101642295D01*
X150583375Y-101743310D01*
X150684390Y-101911669D01*
X150852749Y-102080028D01*
X151021107Y-102181043D01*
X151122123Y-102214715D01*
X151189466Y-102214715D01*
X151290481Y-102181043D01*
X151357825Y-102113699D01*
X151391497Y-102012684D01*
X151391497Y-101945341D01*
X151357825Y-101844325D01*
X151256810Y-101675967D01*
X151088451Y-101507608D01*
X150920092Y-101406593D01*
X150819077Y-101372921D01*
X150751733Y-101372921D01*
X150650718Y-101406593D01*
X168202994Y-113625884D02*
X168775413Y-113524869D01*
X168607055Y-114029945D02*
X169314161Y-113322838D01*
X169044787Y-113053464D01*
X168943772Y-113019792D01*
X168876429Y-113019792D01*
X168775413Y-113053464D01*
X168674398Y-113154479D01*
X168640726Y-113255495D01*
X168640726Y-113322838D01*
X168674398Y-113423853D01*
X168943772Y-113693227D01*
X168573383Y-112716746D02*
X168573383Y-112649403D01*
X168539711Y-112548388D01*
X168371352Y-112380029D01*
X168270337Y-112346357D01*
X168202994Y-112346357D01*
X168101978Y-112380029D01*
X168034635Y-112447372D01*
X167967291Y-112582059D01*
X167967291Y-113390182D01*
X167529558Y-112952449D01*
X167899948Y-112043311D02*
X167899948Y-111975968D01*
X167866276Y-111874953D01*
X167697917Y-111706594D01*
X167596902Y-111672922D01*
X167529558Y-111672922D01*
X167428543Y-111706594D01*
X167361200Y-111773937D01*
X167293856Y-111908624D01*
X167293856Y-112716746D01*
X166856123Y-112279014D01*
X139480785Y-103039169D02*
X139814118Y-102562979D01*
X140052213Y-103039169D02*
X140052213Y-102039169D01*
X139671261Y-102039169D01*
X139576023Y-102086789D01*
X139528404Y-102134408D01*
X139480785Y-102229646D01*
X139480785Y-102372503D01*
X139528404Y-102467741D01*
X139576023Y-102515360D01*
X139671261Y-102562979D01*
X140052213Y-102562979D01*
X139099832Y-102134408D02*
X139052213Y-102086789D01*
X138956975Y-102039169D01*
X138718880Y-102039169D01*
X138623642Y-102086789D01*
X138576023Y-102134408D01*
X138528404Y-102229646D01*
X138528404Y-102324884D01*
X138576023Y-102467741D01*
X139147451Y-103039169D01*
X138528404Y-103039169D01*
X138195070Y-102039169D02*
X137576023Y-102039169D01*
X137909356Y-102420122D01*
X137766499Y-102420122D01*
X137671261Y-102467741D01*
X137623642Y-102515360D01*
X137576023Y-102610598D01*
X137576023Y-102848693D01*
X137623642Y-102943931D01*
X137671261Y-102991550D01*
X137766499Y-103039169D01*
X138052213Y-103039169D01*
X138147451Y-102991550D01*
X138195070Y-102943931D01*
X157623263Y-96343911D02*
X158195682Y-96242896D01*
X158027324Y-96747972D02*
X158734430Y-96040865D01*
X158465056Y-95771491D01*
X158364041Y-95737819D01*
X158296698Y-95737819D01*
X158195682Y-95771491D01*
X158094667Y-95872506D01*
X158060995Y-95973522D01*
X158060995Y-96040865D01*
X158094667Y-96141880D01*
X158364041Y-96411254D01*
X157993652Y-95434773D02*
X157993652Y-95367430D01*
X157959980Y-95266415D01*
X157791621Y-95098056D01*
X157690606Y-95064384D01*
X157623263Y-95064384D01*
X157522247Y-95098056D01*
X157454904Y-95165399D01*
X157387560Y-95300086D01*
X157387560Y-96108209D01*
X156949827Y-95670476D01*
X157017171Y-94323606D02*
X157353888Y-94660323D01*
X157050843Y-95030712D01*
X157050843Y-94963369D01*
X157017171Y-94862354D01*
X156848812Y-94693995D01*
X156747797Y-94660323D01*
X156680453Y-94660323D01*
X156579438Y-94693995D01*
X156411079Y-94862354D01*
X156377408Y-94963369D01*
X156377408Y-95030712D01*
X156411079Y-95131728D01*
X156579438Y-95300086D01*
X156680453Y-95333758D01*
X156747797Y-95333758D01*
X154523306Y-99443867D02*
X155095725Y-99342852D01*
X154927367Y-99847928D02*
X155634473Y-99140821D01*
X155365099Y-98871447D01*
X155264084Y-98837775D01*
X155196741Y-98837775D01*
X155095725Y-98871447D01*
X154994710Y-98972462D01*
X154961038Y-99073478D01*
X154961038Y-99140821D01*
X154994710Y-99241836D01*
X155264084Y-99511210D01*
X154893695Y-98534729D02*
X154893695Y-98467386D01*
X154860023Y-98366371D01*
X154691664Y-98198012D01*
X154590649Y-98164340D01*
X154523306Y-98164340D01*
X154422290Y-98198012D01*
X154354947Y-98265355D01*
X154287603Y-98400042D01*
X154287603Y-99208165D01*
X153849870Y-98770432D01*
X153950886Y-97457233D02*
X154085573Y-97591920D01*
X154119244Y-97692936D01*
X154119244Y-97760279D01*
X154085573Y-97928638D01*
X153984557Y-98096997D01*
X153715183Y-98366371D01*
X153614168Y-98400042D01*
X153546825Y-98400042D01*
X153445809Y-98366371D01*
X153311122Y-98231684D01*
X153277451Y-98130668D01*
X153277451Y-98063325D01*
X153311122Y-97962310D01*
X153479481Y-97793951D01*
X153580496Y-97760279D01*
X153647840Y-97760279D01*
X153748855Y-97793951D01*
X153883542Y-97928638D01*
X153917214Y-98029653D01*
X153917214Y-98096997D01*
X153883542Y-98198012D01*
X159400902Y-104054404D02*
X159299887Y-103481985D01*
X159804963Y-103650343D02*
X159097856Y-102943237D01*
X158828482Y-103212611D01*
X158794810Y-103313626D01*
X158794810Y-103380969D01*
X158828482Y-103481985D01*
X158929497Y-103583000D01*
X159030513Y-103616672D01*
X159097856Y-103616672D01*
X159198871Y-103583000D01*
X159468245Y-103313626D01*
X158491764Y-103684015D02*
X158424421Y-103684015D01*
X158323406Y-103717687D01*
X158155047Y-103886046D01*
X158121375Y-103987061D01*
X158121375Y-104054404D01*
X158155047Y-104155420D01*
X158222390Y-104222763D01*
X158357077Y-104290107D01*
X159165200Y-104290107D01*
X158727467Y-104727840D01*
X157919345Y-104727840D02*
X157953016Y-104626824D01*
X157953016Y-104559481D01*
X157919345Y-104458466D01*
X157885673Y-104424794D01*
X157784658Y-104391122D01*
X157717314Y-104391122D01*
X157616299Y-104424794D01*
X157481612Y-104559481D01*
X157447940Y-104660496D01*
X157447940Y-104727840D01*
X157481612Y-104828855D01*
X157515284Y-104862527D01*
X157616299Y-104896198D01*
X157683642Y-104896198D01*
X157784658Y-104862527D01*
X157919345Y-104727840D01*
X158020360Y-104694168D01*
X158087703Y-104694168D01*
X158188719Y-104727840D01*
X158323406Y-104862527D01*
X158357077Y-104963542D01*
X158357077Y-105030885D01*
X158323406Y-105131901D01*
X158188719Y-105266588D01*
X158087703Y-105300259D01*
X158020360Y-105300259D01*
X157919345Y-105266588D01*
X157784658Y-105131901D01*
X157750986Y-105030885D01*
X157750986Y-104963542D01*
X157784658Y-104862527D01*
X160460572Y-105149996D02*
X160359557Y-104577577D01*
X160864633Y-104745935D02*
X160157526Y-104038829D01*
X159888152Y-104308203D01*
X159854480Y-104409218D01*
X159854480Y-104476561D01*
X159888152Y-104577577D01*
X159989167Y-104678592D01*
X160090183Y-104712264D01*
X160157526Y-104712264D01*
X160258541Y-104678592D01*
X160527915Y-104409218D01*
X159551434Y-104779607D02*
X159484091Y-104779607D01*
X159383076Y-104813279D01*
X159214717Y-104981638D01*
X159181045Y-105082653D01*
X159181045Y-105149996D01*
X159214717Y-105251012D01*
X159282060Y-105318355D01*
X159416747Y-105385699D01*
X160224870Y-105385699D01*
X159787137Y-105823432D01*
X159450419Y-106160149D02*
X159315732Y-106294836D01*
X159214717Y-106328508D01*
X159147373Y-106328508D01*
X158979015Y-106294836D01*
X158810656Y-106193821D01*
X158541282Y-105924447D01*
X158507610Y-105823432D01*
X158507610Y-105756088D01*
X158541282Y-105655073D01*
X158675969Y-105520386D01*
X158776984Y-105486714D01*
X158844328Y-105486714D01*
X158945343Y-105520386D01*
X159113702Y-105688745D01*
X159147373Y-105789760D01*
X159147373Y-105857103D01*
X159113702Y-105958119D01*
X158979015Y-106092806D01*
X158877999Y-106126477D01*
X158810656Y-106126477D01*
X158709641Y-106092806D01*
X157235973Y-102591522D02*
X156663553Y-103163942D01*
X156562538Y-103197614D01*
X156495194Y-103197614D01*
X156394179Y-103163942D01*
X156259492Y-103029255D01*
X156225820Y-102928240D01*
X156225820Y-102860896D01*
X156259492Y-102759881D01*
X156831912Y-102187461D01*
X156158477Y-101514026D02*
X156495194Y-101850744D01*
X156192148Y-102221133D01*
X156192148Y-102153790D01*
X156158477Y-102052774D01*
X155990118Y-101884416D01*
X155889103Y-101850744D01*
X155821759Y-101850744D01*
X155720744Y-101884416D01*
X155552385Y-102052774D01*
X155518713Y-102153790D01*
X155518713Y-102221133D01*
X155552385Y-102322148D01*
X155720744Y-102490507D01*
X155821759Y-102524179D01*
X155889103Y-102524179D01*
X157568142Y-91538446D02*
X156995722Y-92110866D01*
X156894707Y-92144538D01*
X156827363Y-92144538D01*
X156726348Y-92110866D01*
X156591661Y-91976179D01*
X156557989Y-91875164D01*
X156557989Y-91807820D01*
X156591661Y-91706805D01*
X157164081Y-91134385D01*
X156524317Y-90494622D02*
X156659004Y-90629309D01*
X156692676Y-90730324D01*
X156692676Y-90797668D01*
X156659004Y-90966027D01*
X156557989Y-91134385D01*
X156288615Y-91403759D01*
X156187600Y-91437431D01*
X156120256Y-91437431D01*
X156019241Y-91403759D01*
X155884554Y-91269072D01*
X155850882Y-91168057D01*
X155850882Y-91100714D01*
X155884554Y-90999698D01*
X156052913Y-90831340D01*
X156153928Y-90797668D01*
X156221272Y-90797668D01*
X156322287Y-90831340D01*
X156456974Y-90966027D01*
X156490646Y-91067042D01*
X156490646Y-91134385D01*
X156456974Y-91235401D01*
%LPC*%
D12*
X174263977Y-105599063D03*
X165071589Y-96406675D03*
D13*
G36*
X144096650Y-99897102D02*
G01*
X144120350Y-99900617D01*
X144143592Y-99906439D01*
X144166151Y-99914511D01*
X144187811Y-99924755D01*
X144208361Y-99937073D01*
X144227606Y-99951345D01*
X144245359Y-99967436D01*
X144261450Y-99985189D01*
X144275722Y-100004434D01*
X144288040Y-100024984D01*
X144298284Y-100046644D01*
X144306356Y-100069203D01*
X144312178Y-100092445D01*
X144315693Y-100116145D01*
X144316869Y-100140076D01*
X144316869Y-100628376D01*
X144315693Y-100652307D01*
X144312178Y-100676007D01*
X144306356Y-100699249D01*
X144298284Y-100721808D01*
X144288040Y-100743468D01*
X144275722Y-100764018D01*
X144261450Y-100783263D01*
X144245359Y-100801016D01*
X144227606Y-100817107D01*
X144208361Y-100831379D01*
X144187811Y-100843697D01*
X144166151Y-100853941D01*
X144143592Y-100862013D01*
X144120350Y-100867835D01*
X144096650Y-100871350D01*
X144072719Y-100872526D01*
X143509419Y-100872526D01*
X143485488Y-100871350D01*
X143461788Y-100867835D01*
X143438546Y-100862013D01*
X143415987Y-100853941D01*
X143394327Y-100843697D01*
X143373777Y-100831379D01*
X143354532Y-100817107D01*
X143336779Y-100801016D01*
X143320688Y-100783263D01*
X143306416Y-100764018D01*
X143294098Y-100743468D01*
X143283854Y-100721808D01*
X143275782Y-100699249D01*
X143269960Y-100676007D01*
X143266445Y-100652307D01*
X143265269Y-100628376D01*
X143265269Y-100140076D01*
X143266445Y-100116145D01*
X143269960Y-100092445D01*
X143275782Y-100069203D01*
X143283854Y-100046644D01*
X143294098Y-100024984D01*
X143306416Y-100004434D01*
X143320688Y-99985189D01*
X143336779Y-99967436D01*
X143354532Y-99951345D01*
X143373777Y-99937073D01*
X143394327Y-99924755D01*
X143415987Y-99914511D01*
X143438546Y-99906439D01*
X143461788Y-99900617D01*
X143485488Y-99897102D01*
X143509419Y-99895926D01*
X144072719Y-99895926D01*
X144096650Y-99897102D01*
X144096650Y-99897102D01*
G37*
D14*
X143791069Y-100384226D03*
D13*
G36*
X144096650Y-101472102D02*
G01*
X144120350Y-101475617D01*
X144143592Y-101481439D01*
X144166151Y-101489511D01*
X144187811Y-101499755D01*
X144208361Y-101512073D01*
X144227606Y-101526345D01*
X144245359Y-101542436D01*
X144261450Y-101560189D01*
X144275722Y-101579434D01*
X144288040Y-101599984D01*
X144298284Y-101621644D01*
X144306356Y-101644203D01*
X144312178Y-101667445D01*
X144315693Y-101691145D01*
X144316869Y-101715076D01*
X144316869Y-102203376D01*
X144315693Y-102227307D01*
X144312178Y-102251007D01*
X144306356Y-102274249D01*
X144298284Y-102296808D01*
X144288040Y-102318468D01*
X144275722Y-102339018D01*
X144261450Y-102358263D01*
X144245359Y-102376016D01*
X144227606Y-102392107D01*
X144208361Y-102406379D01*
X144187811Y-102418697D01*
X144166151Y-102428941D01*
X144143592Y-102437013D01*
X144120350Y-102442835D01*
X144096650Y-102446350D01*
X144072719Y-102447526D01*
X143509419Y-102447526D01*
X143485488Y-102446350D01*
X143461788Y-102442835D01*
X143438546Y-102437013D01*
X143415987Y-102428941D01*
X143394327Y-102418697D01*
X143373777Y-102406379D01*
X143354532Y-102392107D01*
X143336779Y-102376016D01*
X143320688Y-102358263D01*
X143306416Y-102339018D01*
X143294098Y-102318468D01*
X143283854Y-102296808D01*
X143275782Y-102274249D01*
X143269960Y-102251007D01*
X143266445Y-102227307D01*
X143265269Y-102203376D01*
X143265269Y-101715076D01*
X143266445Y-101691145D01*
X143269960Y-101667445D01*
X143275782Y-101644203D01*
X143283854Y-101621644D01*
X143294098Y-101599984D01*
X143306416Y-101579434D01*
X143320688Y-101560189D01*
X143336779Y-101542436D01*
X143354532Y-101526345D01*
X143373777Y-101512073D01*
X143394327Y-101499755D01*
X143415987Y-101489511D01*
X143438546Y-101481439D01*
X143461788Y-101475617D01*
X143485488Y-101472102D01*
X143509419Y-101470926D01*
X144072719Y-101470926D01*
X144096650Y-101472102D01*
X144096650Y-101472102D01*
G37*
D14*
X143791069Y-101959226D03*
D13*
G36*
X137679797Y-100235514D02*
G01*
X137703497Y-100239029D01*
X137726739Y-100244851D01*
X137749298Y-100252923D01*
X137770958Y-100263167D01*
X137791508Y-100275485D01*
X137810753Y-100289757D01*
X137828506Y-100305848D01*
X137844597Y-100323601D01*
X137858869Y-100342846D01*
X137871187Y-100363396D01*
X137881431Y-100385056D01*
X137889503Y-100407615D01*
X137895325Y-100430857D01*
X137898840Y-100454557D01*
X137900016Y-100478488D01*
X137900016Y-100966788D01*
X137898840Y-100990719D01*
X137895325Y-101014419D01*
X137889503Y-101037661D01*
X137881431Y-101060220D01*
X137871187Y-101081880D01*
X137858869Y-101102430D01*
X137844597Y-101121675D01*
X137828506Y-101139428D01*
X137810753Y-101155519D01*
X137791508Y-101169791D01*
X137770958Y-101182109D01*
X137749298Y-101192353D01*
X137726739Y-101200425D01*
X137703497Y-101206247D01*
X137679797Y-101209762D01*
X137655866Y-101210938D01*
X137092566Y-101210938D01*
X137068635Y-101209762D01*
X137044935Y-101206247D01*
X137021693Y-101200425D01*
X136999134Y-101192353D01*
X136977474Y-101182109D01*
X136956924Y-101169791D01*
X136937679Y-101155519D01*
X136919926Y-101139428D01*
X136903835Y-101121675D01*
X136889563Y-101102430D01*
X136877245Y-101081880D01*
X136867001Y-101060220D01*
X136858929Y-101037661D01*
X136853107Y-101014419D01*
X136849592Y-100990719D01*
X136848416Y-100966788D01*
X136848416Y-100478488D01*
X136849592Y-100454557D01*
X136853107Y-100430857D01*
X136858929Y-100407615D01*
X136867001Y-100385056D01*
X136877245Y-100363396D01*
X136889563Y-100342846D01*
X136903835Y-100323601D01*
X136919926Y-100305848D01*
X136937679Y-100289757D01*
X136956924Y-100275485D01*
X136977474Y-100263167D01*
X136999134Y-100252923D01*
X137021693Y-100244851D01*
X137044935Y-100239029D01*
X137068635Y-100235514D01*
X137092566Y-100234338D01*
X137655866Y-100234338D01*
X137679797Y-100235514D01*
X137679797Y-100235514D01*
G37*
D14*
X137374216Y-100722638D03*
D13*
G36*
X137679797Y-98660514D02*
G01*
X137703497Y-98664029D01*
X137726739Y-98669851D01*
X137749298Y-98677923D01*
X137770958Y-98688167D01*
X137791508Y-98700485D01*
X137810753Y-98714757D01*
X137828506Y-98730848D01*
X137844597Y-98748601D01*
X137858869Y-98767846D01*
X137871187Y-98788396D01*
X137881431Y-98810056D01*
X137889503Y-98832615D01*
X137895325Y-98855857D01*
X137898840Y-98879557D01*
X137900016Y-98903488D01*
X137900016Y-99391788D01*
X137898840Y-99415719D01*
X137895325Y-99439419D01*
X137889503Y-99462661D01*
X137881431Y-99485220D01*
X137871187Y-99506880D01*
X137858869Y-99527430D01*
X137844597Y-99546675D01*
X137828506Y-99564428D01*
X137810753Y-99580519D01*
X137791508Y-99594791D01*
X137770958Y-99607109D01*
X137749298Y-99617353D01*
X137726739Y-99625425D01*
X137703497Y-99631247D01*
X137679797Y-99634762D01*
X137655866Y-99635938D01*
X137092566Y-99635938D01*
X137068635Y-99634762D01*
X137044935Y-99631247D01*
X137021693Y-99625425D01*
X136999134Y-99617353D01*
X136977474Y-99607109D01*
X136956924Y-99594791D01*
X136937679Y-99580519D01*
X136919926Y-99564428D01*
X136903835Y-99546675D01*
X136889563Y-99527430D01*
X136877245Y-99506880D01*
X136867001Y-99485220D01*
X136858929Y-99462661D01*
X136853107Y-99439419D01*
X136849592Y-99415719D01*
X136848416Y-99391788D01*
X136848416Y-98903488D01*
X136849592Y-98879557D01*
X136853107Y-98855857D01*
X136858929Y-98832615D01*
X136867001Y-98810056D01*
X136877245Y-98788396D01*
X136889563Y-98767846D01*
X136903835Y-98748601D01*
X136919926Y-98730848D01*
X136937679Y-98714757D01*
X136956924Y-98700485D01*
X136977474Y-98688167D01*
X136999134Y-98677923D01*
X137021693Y-98669851D01*
X137044935Y-98664029D01*
X137068635Y-98660514D01*
X137092566Y-98659338D01*
X137655866Y-98659338D01*
X137679797Y-98660514D01*
X137679797Y-98660514D01*
G37*
D14*
X137374216Y-99147638D03*
D13*
G36*
X143066532Y-97914992D02*
G01*
X143090232Y-97918507D01*
X143113474Y-97924329D01*
X143136033Y-97932401D01*
X143157693Y-97942645D01*
X143178243Y-97954963D01*
X143197488Y-97969235D01*
X143215241Y-97985326D01*
X143613555Y-98383640D01*
X143629646Y-98401393D01*
X143643918Y-98420638D01*
X143656236Y-98441188D01*
X143666480Y-98462848D01*
X143674552Y-98485407D01*
X143680374Y-98508649D01*
X143683889Y-98532349D01*
X143685065Y-98556280D01*
X143683889Y-98580211D01*
X143680374Y-98603911D01*
X143674552Y-98627153D01*
X143666480Y-98649712D01*
X143656236Y-98671372D01*
X143643918Y-98691922D01*
X143629646Y-98711167D01*
X143613555Y-98728920D01*
X143268275Y-99074200D01*
X143250522Y-99090291D01*
X143231277Y-99104563D01*
X143210727Y-99116881D01*
X143189067Y-99127125D01*
X143166508Y-99135197D01*
X143143266Y-99141019D01*
X143119566Y-99144534D01*
X143095635Y-99145710D01*
X143071704Y-99144534D01*
X143048004Y-99141019D01*
X143024762Y-99135197D01*
X143002203Y-99127125D01*
X142980543Y-99116881D01*
X142959993Y-99104563D01*
X142940748Y-99090291D01*
X142922995Y-99074200D01*
X142524681Y-98675886D01*
X142508590Y-98658133D01*
X142494318Y-98638888D01*
X142482000Y-98618338D01*
X142471756Y-98596678D01*
X142463684Y-98574119D01*
X142457862Y-98550877D01*
X142454347Y-98527177D01*
X142453171Y-98503246D01*
X142454347Y-98479315D01*
X142457862Y-98455615D01*
X142463684Y-98432373D01*
X142471756Y-98409814D01*
X142482000Y-98388154D01*
X142494318Y-98367604D01*
X142508590Y-98348359D01*
X142524681Y-98330606D01*
X142869961Y-97985326D01*
X142887714Y-97969235D01*
X142906959Y-97954963D01*
X142927509Y-97942645D01*
X142949169Y-97932401D01*
X142971728Y-97924329D01*
X142994970Y-97918507D01*
X143018670Y-97914992D01*
X143042601Y-97913816D01*
X143066532Y-97914992D01*
X143066532Y-97914992D01*
G37*
D14*
X143069118Y-98529763D03*
D13*
G36*
X141952838Y-99028686D02*
G01*
X141976538Y-99032201D01*
X141999780Y-99038023D01*
X142022339Y-99046095D01*
X142043999Y-99056339D01*
X142064549Y-99068657D01*
X142083794Y-99082929D01*
X142101547Y-99099020D01*
X142499861Y-99497334D01*
X142515952Y-99515087D01*
X142530224Y-99534332D01*
X142542542Y-99554882D01*
X142552786Y-99576542D01*
X142560858Y-99599101D01*
X142566680Y-99622343D01*
X142570195Y-99646043D01*
X142571371Y-99669974D01*
X142570195Y-99693905D01*
X142566680Y-99717605D01*
X142560858Y-99740847D01*
X142552786Y-99763406D01*
X142542542Y-99785066D01*
X142530224Y-99805616D01*
X142515952Y-99824861D01*
X142499861Y-99842614D01*
X142154581Y-100187894D01*
X142136828Y-100203985D01*
X142117583Y-100218257D01*
X142097033Y-100230575D01*
X142075373Y-100240819D01*
X142052814Y-100248891D01*
X142029572Y-100254713D01*
X142005872Y-100258228D01*
X141981941Y-100259404D01*
X141958010Y-100258228D01*
X141934310Y-100254713D01*
X141911068Y-100248891D01*
X141888509Y-100240819D01*
X141866849Y-100230575D01*
X141846299Y-100218257D01*
X141827054Y-100203985D01*
X141809301Y-100187894D01*
X141410987Y-99789580D01*
X141394896Y-99771827D01*
X141380624Y-99752582D01*
X141368306Y-99732032D01*
X141358062Y-99710372D01*
X141349990Y-99687813D01*
X141344168Y-99664571D01*
X141340653Y-99640871D01*
X141339477Y-99616940D01*
X141340653Y-99593009D01*
X141344168Y-99569309D01*
X141349990Y-99546067D01*
X141358062Y-99523508D01*
X141368306Y-99501848D01*
X141380624Y-99481298D01*
X141394896Y-99462053D01*
X141410987Y-99444300D01*
X141756267Y-99099020D01*
X141774020Y-99082929D01*
X141793265Y-99068657D01*
X141813815Y-99056339D01*
X141835475Y-99046095D01*
X141858034Y-99038023D01*
X141881276Y-99032201D01*
X141904976Y-99028686D01*
X141928907Y-99027510D01*
X141952838Y-99028686D01*
X141952838Y-99028686D01*
G37*
D14*
X141955424Y-99643457D03*
D13*
G36*
X162079710Y-86371475D02*
G01*
X162103410Y-86374990D01*
X162126652Y-86380812D01*
X162149211Y-86388884D01*
X162170871Y-86399128D01*
X162191421Y-86411446D01*
X162210666Y-86425718D01*
X162228419Y-86441809D01*
X162573699Y-86787089D01*
X162589790Y-86804842D01*
X162604062Y-86824087D01*
X162616380Y-86844637D01*
X162626624Y-86866297D01*
X162634696Y-86888856D01*
X162640518Y-86912098D01*
X162644033Y-86935798D01*
X162645209Y-86959729D01*
X162644033Y-86983660D01*
X162640518Y-87007360D01*
X162634696Y-87030602D01*
X162626624Y-87053161D01*
X162616380Y-87074821D01*
X162604062Y-87095371D01*
X162589790Y-87114616D01*
X162573699Y-87132369D01*
X162175385Y-87530683D01*
X162157632Y-87546774D01*
X162138387Y-87561046D01*
X162117837Y-87573364D01*
X162096177Y-87583608D01*
X162073618Y-87591680D01*
X162050376Y-87597502D01*
X162026676Y-87601017D01*
X162002745Y-87602193D01*
X161978814Y-87601017D01*
X161955114Y-87597502D01*
X161931872Y-87591680D01*
X161909313Y-87583608D01*
X161887653Y-87573364D01*
X161867103Y-87561046D01*
X161847858Y-87546774D01*
X161830105Y-87530683D01*
X161484825Y-87185403D01*
X161468734Y-87167650D01*
X161454462Y-87148405D01*
X161442144Y-87127855D01*
X161431900Y-87106195D01*
X161423828Y-87083636D01*
X161418006Y-87060394D01*
X161414491Y-87036694D01*
X161413315Y-87012763D01*
X161414491Y-86988832D01*
X161418006Y-86965132D01*
X161423828Y-86941890D01*
X161431900Y-86919331D01*
X161442144Y-86897671D01*
X161454462Y-86877121D01*
X161468734Y-86857876D01*
X161484825Y-86840123D01*
X161883139Y-86441809D01*
X161900892Y-86425718D01*
X161920137Y-86411446D01*
X161940687Y-86399128D01*
X161962347Y-86388884D01*
X161984906Y-86380812D01*
X162008148Y-86374990D01*
X162031848Y-86371475D01*
X162055779Y-86370299D01*
X162079710Y-86371475D01*
X162079710Y-86371475D01*
G37*
D14*
X162029262Y-86986246D03*
D13*
G36*
X160966016Y-85257781D02*
G01*
X160989716Y-85261296D01*
X161012958Y-85267118D01*
X161035517Y-85275190D01*
X161057177Y-85285434D01*
X161077727Y-85297752D01*
X161096972Y-85312024D01*
X161114725Y-85328115D01*
X161460005Y-85673395D01*
X161476096Y-85691148D01*
X161490368Y-85710393D01*
X161502686Y-85730943D01*
X161512930Y-85752603D01*
X161521002Y-85775162D01*
X161526824Y-85798404D01*
X161530339Y-85822104D01*
X161531515Y-85846035D01*
X161530339Y-85869966D01*
X161526824Y-85893666D01*
X161521002Y-85916908D01*
X161512930Y-85939467D01*
X161502686Y-85961127D01*
X161490368Y-85981677D01*
X161476096Y-86000922D01*
X161460005Y-86018675D01*
X161061691Y-86416989D01*
X161043938Y-86433080D01*
X161024693Y-86447352D01*
X161004143Y-86459670D01*
X160982483Y-86469914D01*
X160959924Y-86477986D01*
X160936682Y-86483808D01*
X160912982Y-86487323D01*
X160889051Y-86488499D01*
X160865120Y-86487323D01*
X160841420Y-86483808D01*
X160818178Y-86477986D01*
X160795619Y-86469914D01*
X160773959Y-86459670D01*
X160753409Y-86447352D01*
X160734164Y-86433080D01*
X160716411Y-86416989D01*
X160371131Y-86071709D01*
X160355040Y-86053956D01*
X160340768Y-86034711D01*
X160328450Y-86014161D01*
X160318206Y-85992501D01*
X160310134Y-85969942D01*
X160304312Y-85946700D01*
X160300797Y-85923000D01*
X160299621Y-85899069D01*
X160300797Y-85875138D01*
X160304312Y-85851438D01*
X160310134Y-85828196D01*
X160318206Y-85805637D01*
X160328450Y-85783977D01*
X160340768Y-85763427D01*
X160355040Y-85744182D01*
X160371131Y-85726429D01*
X160769445Y-85328115D01*
X160787198Y-85312024D01*
X160806443Y-85297752D01*
X160826993Y-85285434D01*
X160848653Y-85275190D01*
X160871212Y-85267118D01*
X160894454Y-85261296D01*
X160918154Y-85257781D01*
X160942085Y-85256605D01*
X160966016Y-85257781D01*
X160966016Y-85257781D01*
G37*
D14*
X160915568Y-85872552D03*
D13*
G36*
X147607577Y-95407823D02*
G01*
X147631277Y-95411338D01*
X147654519Y-95417160D01*
X147677078Y-95425232D01*
X147698738Y-95435476D01*
X147719288Y-95447794D01*
X147738533Y-95462066D01*
X147756286Y-95478157D01*
X147772377Y-95495910D01*
X147786649Y-95515155D01*
X147798967Y-95535705D01*
X147809211Y-95557365D01*
X147817283Y-95579924D01*
X147823105Y-95603166D01*
X147826620Y-95626866D01*
X147827796Y-95650797D01*
X147827796Y-96139097D01*
X147826620Y-96163028D01*
X147823105Y-96186728D01*
X147817283Y-96209970D01*
X147809211Y-96232529D01*
X147798967Y-96254189D01*
X147786649Y-96274739D01*
X147772377Y-96293984D01*
X147756286Y-96311737D01*
X147738533Y-96327828D01*
X147719288Y-96342100D01*
X147698738Y-96354418D01*
X147677078Y-96364662D01*
X147654519Y-96372734D01*
X147631277Y-96378556D01*
X147607577Y-96382071D01*
X147583646Y-96383247D01*
X147020346Y-96383247D01*
X146996415Y-96382071D01*
X146972715Y-96378556D01*
X146949473Y-96372734D01*
X146926914Y-96364662D01*
X146905254Y-96354418D01*
X146884704Y-96342100D01*
X146865459Y-96327828D01*
X146847706Y-96311737D01*
X146831615Y-96293984D01*
X146817343Y-96274739D01*
X146805025Y-96254189D01*
X146794781Y-96232529D01*
X146786709Y-96209970D01*
X146780887Y-96186728D01*
X146777372Y-96163028D01*
X146776196Y-96139097D01*
X146776196Y-95650797D01*
X146777372Y-95626866D01*
X146780887Y-95603166D01*
X146786709Y-95579924D01*
X146794781Y-95557365D01*
X146805025Y-95535705D01*
X146817343Y-95515155D01*
X146831615Y-95495910D01*
X146847706Y-95478157D01*
X146865459Y-95462066D01*
X146884704Y-95447794D01*
X146905254Y-95435476D01*
X146926914Y-95425232D01*
X146949473Y-95417160D01*
X146972715Y-95411338D01*
X146996415Y-95407823D01*
X147020346Y-95406647D01*
X147583646Y-95406647D01*
X147607577Y-95407823D01*
X147607577Y-95407823D01*
G37*
D14*
X147301996Y-95894947D03*
D13*
G36*
X147607577Y-96982823D02*
G01*
X147631277Y-96986338D01*
X147654519Y-96992160D01*
X147677078Y-97000232D01*
X147698738Y-97010476D01*
X147719288Y-97022794D01*
X147738533Y-97037066D01*
X147756286Y-97053157D01*
X147772377Y-97070910D01*
X147786649Y-97090155D01*
X147798967Y-97110705D01*
X147809211Y-97132365D01*
X147817283Y-97154924D01*
X147823105Y-97178166D01*
X147826620Y-97201866D01*
X147827796Y-97225797D01*
X147827796Y-97714097D01*
X147826620Y-97738028D01*
X147823105Y-97761728D01*
X147817283Y-97784970D01*
X147809211Y-97807529D01*
X147798967Y-97829189D01*
X147786649Y-97849739D01*
X147772377Y-97868984D01*
X147756286Y-97886737D01*
X147738533Y-97902828D01*
X147719288Y-97917100D01*
X147698738Y-97929418D01*
X147677078Y-97939662D01*
X147654519Y-97947734D01*
X147631277Y-97953556D01*
X147607577Y-97957071D01*
X147583646Y-97958247D01*
X147020346Y-97958247D01*
X146996415Y-97957071D01*
X146972715Y-97953556D01*
X146949473Y-97947734D01*
X146926914Y-97939662D01*
X146905254Y-97929418D01*
X146884704Y-97917100D01*
X146865459Y-97902828D01*
X146847706Y-97886737D01*
X146831615Y-97868984D01*
X146817343Y-97849739D01*
X146805025Y-97829189D01*
X146794781Y-97807529D01*
X146786709Y-97784970D01*
X146780887Y-97761728D01*
X146777372Y-97738028D01*
X146776196Y-97714097D01*
X146776196Y-97225797D01*
X146777372Y-97201866D01*
X146780887Y-97178166D01*
X146786709Y-97154924D01*
X146794781Y-97132365D01*
X146805025Y-97110705D01*
X146817343Y-97090155D01*
X146831615Y-97070910D01*
X146847706Y-97053157D01*
X146865459Y-97037066D01*
X146884704Y-97022794D01*
X146905254Y-97010476D01*
X146926914Y-97000232D01*
X146949473Y-96992160D01*
X146972715Y-96986338D01*
X146996415Y-96982823D01*
X147020346Y-96981647D01*
X147583646Y-96981647D01*
X147607577Y-96982823D01*
X147607577Y-96982823D01*
G37*
D14*
X147301996Y-97469947D03*
D13*
G36*
X140284265Y-87241206D02*
G01*
X140307965Y-87244721D01*
X140331207Y-87250543D01*
X140353766Y-87258615D01*
X140375426Y-87268859D01*
X140395976Y-87281177D01*
X140415221Y-87295449D01*
X140432974Y-87311540D01*
X140449065Y-87329293D01*
X140463337Y-87348538D01*
X140475655Y-87369088D01*
X140485899Y-87390748D01*
X140493971Y-87413307D01*
X140499793Y-87436549D01*
X140503308Y-87460249D01*
X140504484Y-87484180D01*
X140504484Y-88047480D01*
X140503308Y-88071411D01*
X140499793Y-88095111D01*
X140493971Y-88118353D01*
X140485899Y-88140912D01*
X140475655Y-88162572D01*
X140463337Y-88183122D01*
X140449065Y-88202367D01*
X140432974Y-88220120D01*
X140415221Y-88236211D01*
X140395976Y-88250483D01*
X140375426Y-88262801D01*
X140353766Y-88273045D01*
X140331207Y-88281117D01*
X140307965Y-88286939D01*
X140284265Y-88290454D01*
X140260334Y-88291630D01*
X139772034Y-88291630D01*
X139748103Y-88290454D01*
X139724403Y-88286939D01*
X139701161Y-88281117D01*
X139678602Y-88273045D01*
X139656942Y-88262801D01*
X139636392Y-88250483D01*
X139617147Y-88236211D01*
X139599394Y-88220120D01*
X139583303Y-88202367D01*
X139569031Y-88183122D01*
X139556713Y-88162572D01*
X139546469Y-88140912D01*
X139538397Y-88118353D01*
X139532575Y-88095111D01*
X139529060Y-88071411D01*
X139527884Y-88047480D01*
X139527884Y-87484180D01*
X139529060Y-87460249D01*
X139532575Y-87436549D01*
X139538397Y-87413307D01*
X139546469Y-87390748D01*
X139556713Y-87369088D01*
X139569031Y-87348538D01*
X139583303Y-87329293D01*
X139599394Y-87311540D01*
X139617147Y-87295449D01*
X139636392Y-87281177D01*
X139656942Y-87268859D01*
X139678602Y-87258615D01*
X139701161Y-87250543D01*
X139724403Y-87244721D01*
X139748103Y-87241206D01*
X139772034Y-87240030D01*
X140260334Y-87240030D01*
X140284265Y-87241206D01*
X140284265Y-87241206D01*
G37*
D14*
X140016184Y-87765830D03*
D13*
G36*
X141859265Y-87241206D02*
G01*
X141882965Y-87244721D01*
X141906207Y-87250543D01*
X141928766Y-87258615D01*
X141950426Y-87268859D01*
X141970976Y-87281177D01*
X141990221Y-87295449D01*
X142007974Y-87311540D01*
X142024065Y-87329293D01*
X142038337Y-87348538D01*
X142050655Y-87369088D01*
X142060899Y-87390748D01*
X142068971Y-87413307D01*
X142074793Y-87436549D01*
X142078308Y-87460249D01*
X142079484Y-87484180D01*
X142079484Y-88047480D01*
X142078308Y-88071411D01*
X142074793Y-88095111D01*
X142068971Y-88118353D01*
X142060899Y-88140912D01*
X142050655Y-88162572D01*
X142038337Y-88183122D01*
X142024065Y-88202367D01*
X142007974Y-88220120D01*
X141990221Y-88236211D01*
X141970976Y-88250483D01*
X141950426Y-88262801D01*
X141928766Y-88273045D01*
X141906207Y-88281117D01*
X141882965Y-88286939D01*
X141859265Y-88290454D01*
X141835334Y-88291630D01*
X141347034Y-88291630D01*
X141323103Y-88290454D01*
X141299403Y-88286939D01*
X141276161Y-88281117D01*
X141253602Y-88273045D01*
X141231942Y-88262801D01*
X141211392Y-88250483D01*
X141192147Y-88236211D01*
X141174394Y-88220120D01*
X141158303Y-88202367D01*
X141144031Y-88183122D01*
X141131713Y-88162572D01*
X141121469Y-88140912D01*
X141113397Y-88118353D01*
X141107575Y-88095111D01*
X141104060Y-88071411D01*
X141102884Y-88047480D01*
X141102884Y-87484180D01*
X141104060Y-87460249D01*
X141107575Y-87436549D01*
X141113397Y-87413307D01*
X141121469Y-87390748D01*
X141131713Y-87369088D01*
X141144031Y-87348538D01*
X141158303Y-87329293D01*
X141174394Y-87311540D01*
X141192147Y-87295449D01*
X141211392Y-87281177D01*
X141231942Y-87268859D01*
X141253602Y-87258615D01*
X141276161Y-87250543D01*
X141299403Y-87244721D01*
X141323103Y-87241206D01*
X141347034Y-87240030D01*
X141835334Y-87240030D01*
X141859265Y-87241206D01*
X141859265Y-87241206D01*
G37*
D14*
X141591184Y-87765830D03*
D13*
G36*
X142707793Y-81810626D02*
G01*
X142731493Y-81814141D01*
X142754735Y-81819963D01*
X142777294Y-81828035D01*
X142798954Y-81838279D01*
X142819504Y-81850597D01*
X142838749Y-81864869D01*
X142856502Y-81880960D01*
X142872593Y-81898713D01*
X142886865Y-81917958D01*
X142899183Y-81938508D01*
X142909427Y-81960168D01*
X142917499Y-81982727D01*
X142923321Y-82005969D01*
X142926836Y-82029669D01*
X142928012Y-82053600D01*
X142928012Y-82616900D01*
X142926836Y-82640831D01*
X142923321Y-82664531D01*
X142917499Y-82687773D01*
X142909427Y-82710332D01*
X142899183Y-82731992D01*
X142886865Y-82752542D01*
X142872593Y-82771787D01*
X142856502Y-82789540D01*
X142838749Y-82805631D01*
X142819504Y-82819903D01*
X142798954Y-82832221D01*
X142777294Y-82842465D01*
X142754735Y-82850537D01*
X142731493Y-82856359D01*
X142707793Y-82859874D01*
X142683862Y-82861050D01*
X142195562Y-82861050D01*
X142171631Y-82859874D01*
X142147931Y-82856359D01*
X142124689Y-82850537D01*
X142102130Y-82842465D01*
X142080470Y-82832221D01*
X142059920Y-82819903D01*
X142040675Y-82805631D01*
X142022922Y-82789540D01*
X142006831Y-82771787D01*
X141992559Y-82752542D01*
X141980241Y-82731992D01*
X141969997Y-82710332D01*
X141961925Y-82687773D01*
X141956103Y-82664531D01*
X141952588Y-82640831D01*
X141951412Y-82616900D01*
X141951412Y-82053600D01*
X141952588Y-82029669D01*
X141956103Y-82005969D01*
X141961925Y-81982727D01*
X141969997Y-81960168D01*
X141980241Y-81938508D01*
X141992559Y-81917958D01*
X142006831Y-81898713D01*
X142022922Y-81880960D01*
X142040675Y-81864869D01*
X142059920Y-81850597D01*
X142080470Y-81838279D01*
X142102130Y-81828035D01*
X142124689Y-81819963D01*
X142147931Y-81814141D01*
X142171631Y-81810626D01*
X142195562Y-81809450D01*
X142683862Y-81809450D01*
X142707793Y-81810626D01*
X142707793Y-81810626D01*
G37*
D14*
X142439712Y-82335250D03*
D13*
G36*
X141132793Y-81810626D02*
G01*
X141156493Y-81814141D01*
X141179735Y-81819963D01*
X141202294Y-81828035D01*
X141223954Y-81838279D01*
X141244504Y-81850597D01*
X141263749Y-81864869D01*
X141281502Y-81880960D01*
X141297593Y-81898713D01*
X141311865Y-81917958D01*
X141324183Y-81938508D01*
X141334427Y-81960168D01*
X141342499Y-81982727D01*
X141348321Y-82005969D01*
X141351836Y-82029669D01*
X141353012Y-82053600D01*
X141353012Y-82616900D01*
X141351836Y-82640831D01*
X141348321Y-82664531D01*
X141342499Y-82687773D01*
X141334427Y-82710332D01*
X141324183Y-82731992D01*
X141311865Y-82752542D01*
X141297593Y-82771787D01*
X141281502Y-82789540D01*
X141263749Y-82805631D01*
X141244504Y-82819903D01*
X141223954Y-82832221D01*
X141202294Y-82842465D01*
X141179735Y-82850537D01*
X141156493Y-82856359D01*
X141132793Y-82859874D01*
X141108862Y-82861050D01*
X140620562Y-82861050D01*
X140596631Y-82859874D01*
X140572931Y-82856359D01*
X140549689Y-82850537D01*
X140527130Y-82842465D01*
X140505470Y-82832221D01*
X140484920Y-82819903D01*
X140465675Y-82805631D01*
X140447922Y-82789540D01*
X140431831Y-82771787D01*
X140417559Y-82752542D01*
X140405241Y-82731992D01*
X140394997Y-82710332D01*
X140386925Y-82687773D01*
X140381103Y-82664531D01*
X140377588Y-82640831D01*
X140376412Y-82616900D01*
X140376412Y-82053600D01*
X140377588Y-82029669D01*
X140381103Y-82005969D01*
X140386925Y-81982727D01*
X140394997Y-81960168D01*
X140405241Y-81938508D01*
X140417559Y-81917958D01*
X140431831Y-81898713D01*
X140447922Y-81880960D01*
X140465675Y-81864869D01*
X140484920Y-81850597D01*
X140505470Y-81838279D01*
X140527130Y-81828035D01*
X140549689Y-81819963D01*
X140572931Y-81814141D01*
X140596631Y-81810626D01*
X140620562Y-81809450D01*
X141108862Y-81809450D01*
X141132793Y-81810626D01*
X141132793Y-81810626D01*
G37*
D14*
X140864712Y-82335250D03*
D13*
G36*
X127307928Y-96075778D02*
G01*
X127334056Y-96079654D01*
X127359677Y-96086072D01*
X127384546Y-96094970D01*
X127408423Y-96106263D01*
X127431079Y-96119842D01*
X127452294Y-96135576D01*
X127471865Y-96153314D01*
X127489603Y-96172885D01*
X127505337Y-96194100D01*
X127518916Y-96216756D01*
X127530209Y-96240633D01*
X127539107Y-96265502D01*
X127545525Y-96291123D01*
X127549401Y-96317251D01*
X127550697Y-96343632D01*
X127550697Y-97306932D01*
X127549401Y-97333313D01*
X127545525Y-97359441D01*
X127539107Y-97385062D01*
X127530209Y-97409931D01*
X127518916Y-97433808D01*
X127505337Y-97456464D01*
X127489603Y-97477679D01*
X127471865Y-97497250D01*
X127452294Y-97514988D01*
X127431079Y-97530722D01*
X127408423Y-97544301D01*
X127384546Y-97555594D01*
X127359677Y-97564492D01*
X127334056Y-97570910D01*
X127307928Y-97574786D01*
X127281547Y-97576082D01*
X126743247Y-97576082D01*
X126716866Y-97574786D01*
X126690738Y-97570910D01*
X126665117Y-97564492D01*
X126640248Y-97555594D01*
X126616371Y-97544301D01*
X126593715Y-97530722D01*
X126572500Y-97514988D01*
X126552929Y-97497250D01*
X126535191Y-97477679D01*
X126519457Y-97456464D01*
X126505878Y-97433808D01*
X126494585Y-97409931D01*
X126485687Y-97385062D01*
X126479269Y-97359441D01*
X126475393Y-97333313D01*
X126474097Y-97306932D01*
X126474097Y-96343632D01*
X126475393Y-96317251D01*
X126479269Y-96291123D01*
X126485687Y-96265502D01*
X126494585Y-96240633D01*
X126505878Y-96216756D01*
X126519457Y-96194100D01*
X126535191Y-96172885D01*
X126552929Y-96153314D01*
X126572500Y-96135576D01*
X126593715Y-96119842D01*
X126616371Y-96106263D01*
X126640248Y-96094970D01*
X126665117Y-96086072D01*
X126690738Y-96079654D01*
X126716866Y-96075778D01*
X126743247Y-96074482D01*
X127281547Y-96074482D01*
X127307928Y-96075778D01*
X127307928Y-96075778D01*
G37*
D15*
X127012397Y-96825282D03*
D13*
G36*
X129182928Y-96075778D02*
G01*
X129209056Y-96079654D01*
X129234677Y-96086072D01*
X129259546Y-96094970D01*
X129283423Y-96106263D01*
X129306079Y-96119842D01*
X129327294Y-96135576D01*
X129346865Y-96153314D01*
X129364603Y-96172885D01*
X129380337Y-96194100D01*
X129393916Y-96216756D01*
X129405209Y-96240633D01*
X129414107Y-96265502D01*
X129420525Y-96291123D01*
X129424401Y-96317251D01*
X129425697Y-96343632D01*
X129425697Y-97306932D01*
X129424401Y-97333313D01*
X129420525Y-97359441D01*
X129414107Y-97385062D01*
X129405209Y-97409931D01*
X129393916Y-97433808D01*
X129380337Y-97456464D01*
X129364603Y-97477679D01*
X129346865Y-97497250D01*
X129327294Y-97514988D01*
X129306079Y-97530722D01*
X129283423Y-97544301D01*
X129259546Y-97555594D01*
X129234677Y-97564492D01*
X129209056Y-97570910D01*
X129182928Y-97574786D01*
X129156547Y-97576082D01*
X128618247Y-97576082D01*
X128591866Y-97574786D01*
X128565738Y-97570910D01*
X128540117Y-97564492D01*
X128515248Y-97555594D01*
X128491371Y-97544301D01*
X128468715Y-97530722D01*
X128447500Y-97514988D01*
X128427929Y-97497250D01*
X128410191Y-97477679D01*
X128394457Y-97456464D01*
X128380878Y-97433808D01*
X128369585Y-97409931D01*
X128360687Y-97385062D01*
X128354269Y-97359441D01*
X128350393Y-97333313D01*
X128349097Y-97306932D01*
X128349097Y-96343632D01*
X128350393Y-96317251D01*
X128354269Y-96291123D01*
X128360687Y-96265502D01*
X128369585Y-96240633D01*
X128380878Y-96216756D01*
X128394457Y-96194100D01*
X128410191Y-96172885D01*
X128427929Y-96153314D01*
X128447500Y-96135576D01*
X128468715Y-96119842D01*
X128491371Y-96106263D01*
X128515248Y-96094970D01*
X128540117Y-96086072D01*
X128565738Y-96079654D01*
X128591866Y-96075778D01*
X128618247Y-96074482D01*
X129156547Y-96074482D01*
X129182928Y-96075778D01*
X129182928Y-96075778D01*
G37*
D15*
X128887397Y-96825282D03*
D13*
G36*
X162089326Y-108818720D02*
G01*
X162113026Y-108822235D01*
X162136268Y-108828057D01*
X162158827Y-108836129D01*
X162180487Y-108846373D01*
X162201037Y-108858691D01*
X162220282Y-108872963D01*
X162238035Y-108889054D01*
X162583315Y-109234334D01*
X162599406Y-109252087D01*
X162613678Y-109271332D01*
X162625996Y-109291882D01*
X162636240Y-109313542D01*
X162644312Y-109336101D01*
X162650134Y-109359343D01*
X162653649Y-109383043D01*
X162654825Y-109406974D01*
X162653649Y-109430905D01*
X162650134Y-109454605D01*
X162644312Y-109477847D01*
X162636240Y-109500406D01*
X162625996Y-109522066D01*
X162613678Y-109542616D01*
X162599406Y-109561861D01*
X162583315Y-109579614D01*
X162185001Y-109977928D01*
X162167248Y-109994019D01*
X162148003Y-110008291D01*
X162127453Y-110020609D01*
X162105793Y-110030853D01*
X162083234Y-110038925D01*
X162059992Y-110044747D01*
X162036292Y-110048262D01*
X162012361Y-110049438D01*
X161988430Y-110048262D01*
X161964730Y-110044747D01*
X161941488Y-110038925D01*
X161918929Y-110030853D01*
X161897269Y-110020609D01*
X161876719Y-110008291D01*
X161857474Y-109994019D01*
X161839721Y-109977928D01*
X161494441Y-109632648D01*
X161478350Y-109614895D01*
X161464078Y-109595650D01*
X161451760Y-109575100D01*
X161441516Y-109553440D01*
X161433444Y-109530881D01*
X161427622Y-109507639D01*
X161424107Y-109483939D01*
X161422931Y-109460008D01*
X161424107Y-109436077D01*
X161427622Y-109412377D01*
X161433444Y-109389135D01*
X161441516Y-109366576D01*
X161451760Y-109344916D01*
X161464078Y-109324366D01*
X161478350Y-109305121D01*
X161494441Y-109287368D01*
X161892755Y-108889054D01*
X161910508Y-108872963D01*
X161929753Y-108858691D01*
X161950303Y-108846373D01*
X161971963Y-108836129D01*
X161994522Y-108828057D01*
X162017764Y-108822235D01*
X162041464Y-108818720D01*
X162065395Y-108817544D01*
X162089326Y-108818720D01*
X162089326Y-108818720D01*
G37*
D14*
X162038878Y-109433491D03*
D13*
G36*
X163203020Y-109932414D02*
G01*
X163226720Y-109935929D01*
X163249962Y-109941751D01*
X163272521Y-109949823D01*
X163294181Y-109960067D01*
X163314731Y-109972385D01*
X163333976Y-109986657D01*
X163351729Y-110002748D01*
X163697009Y-110348028D01*
X163713100Y-110365781D01*
X163727372Y-110385026D01*
X163739690Y-110405576D01*
X163749934Y-110427236D01*
X163758006Y-110449795D01*
X163763828Y-110473037D01*
X163767343Y-110496737D01*
X163768519Y-110520668D01*
X163767343Y-110544599D01*
X163763828Y-110568299D01*
X163758006Y-110591541D01*
X163749934Y-110614100D01*
X163739690Y-110635760D01*
X163727372Y-110656310D01*
X163713100Y-110675555D01*
X163697009Y-110693308D01*
X163298695Y-111091622D01*
X163280942Y-111107713D01*
X163261697Y-111121985D01*
X163241147Y-111134303D01*
X163219487Y-111144547D01*
X163196928Y-111152619D01*
X163173686Y-111158441D01*
X163149986Y-111161956D01*
X163126055Y-111163132D01*
X163102124Y-111161956D01*
X163078424Y-111158441D01*
X163055182Y-111152619D01*
X163032623Y-111144547D01*
X163010963Y-111134303D01*
X162990413Y-111121985D01*
X162971168Y-111107713D01*
X162953415Y-111091622D01*
X162608135Y-110746342D01*
X162592044Y-110728589D01*
X162577772Y-110709344D01*
X162565454Y-110688794D01*
X162555210Y-110667134D01*
X162547138Y-110644575D01*
X162541316Y-110621333D01*
X162537801Y-110597633D01*
X162536625Y-110573702D01*
X162537801Y-110549771D01*
X162541316Y-110526071D01*
X162547138Y-110502829D01*
X162555210Y-110480270D01*
X162565454Y-110458610D01*
X162577772Y-110438060D01*
X162592044Y-110418815D01*
X162608135Y-110401062D01*
X163006449Y-110002748D01*
X163024202Y-109986657D01*
X163043447Y-109972385D01*
X163063997Y-109960067D01*
X163085657Y-109949823D01*
X163108216Y-109941751D01*
X163131458Y-109935929D01*
X163155158Y-109932414D01*
X163179089Y-109931238D01*
X163203020Y-109932414D01*
X163203020Y-109932414D01*
G37*
D14*
X163152572Y-110547185D03*
D13*
G36*
X146159368Y-89041639D02*
G01*
X146184888Y-89045425D01*
X146209915Y-89051693D01*
X146234206Y-89060385D01*
X146257529Y-89071416D01*
X146279658Y-89084680D01*
X146300381Y-89100049D01*
X146319497Y-89117375D01*
X146336823Y-89136491D01*
X146352192Y-89157214D01*
X146365456Y-89179343D01*
X146376487Y-89202666D01*
X146385179Y-89226957D01*
X146391447Y-89251984D01*
X146395233Y-89277504D01*
X146396499Y-89303273D01*
X146396499Y-89929073D01*
X146395233Y-89954842D01*
X146391447Y-89980362D01*
X146385179Y-90005389D01*
X146376487Y-90029680D01*
X146365456Y-90053003D01*
X146352192Y-90075132D01*
X146336823Y-90095855D01*
X146319497Y-90114971D01*
X146300381Y-90132297D01*
X146279658Y-90147666D01*
X146257529Y-90160930D01*
X146234206Y-90171961D01*
X146209915Y-90180653D01*
X146184888Y-90186921D01*
X146159368Y-90190707D01*
X146133599Y-90191973D01*
X145607799Y-90191973D01*
X145582030Y-90190707D01*
X145556510Y-90186921D01*
X145531483Y-90180653D01*
X145507192Y-90171961D01*
X145483869Y-90160930D01*
X145461740Y-90147666D01*
X145441017Y-90132297D01*
X145421901Y-90114971D01*
X145404575Y-90095855D01*
X145389206Y-90075132D01*
X145375942Y-90053003D01*
X145364911Y-90029680D01*
X145356219Y-90005389D01*
X145349951Y-89980362D01*
X145346165Y-89954842D01*
X145344899Y-89929073D01*
X145344899Y-89303273D01*
X145346165Y-89277504D01*
X145349951Y-89251984D01*
X145356219Y-89226957D01*
X145364911Y-89202666D01*
X145375942Y-89179343D01*
X145389206Y-89157214D01*
X145404575Y-89136491D01*
X145421901Y-89117375D01*
X145441017Y-89100049D01*
X145461740Y-89084680D01*
X145483869Y-89071416D01*
X145507192Y-89060385D01*
X145531483Y-89051693D01*
X145556510Y-89045425D01*
X145582030Y-89041639D01*
X145607799Y-89040373D01*
X146133599Y-89040373D01*
X146159368Y-89041639D01*
X146159368Y-89041639D01*
G37*
D16*
X145870699Y-89616173D03*
D13*
G36*
X146159368Y-90791639D02*
G01*
X146184888Y-90795425D01*
X146209915Y-90801693D01*
X146234206Y-90810385D01*
X146257529Y-90821416D01*
X146279658Y-90834680D01*
X146300381Y-90850049D01*
X146319497Y-90867375D01*
X146336823Y-90886491D01*
X146352192Y-90907214D01*
X146365456Y-90929343D01*
X146376487Y-90952666D01*
X146385179Y-90976957D01*
X146391447Y-91001984D01*
X146395233Y-91027504D01*
X146396499Y-91053273D01*
X146396499Y-91679073D01*
X146395233Y-91704842D01*
X146391447Y-91730362D01*
X146385179Y-91755389D01*
X146376487Y-91779680D01*
X146365456Y-91803003D01*
X146352192Y-91825132D01*
X146336823Y-91845855D01*
X146319497Y-91864971D01*
X146300381Y-91882297D01*
X146279658Y-91897666D01*
X146257529Y-91910930D01*
X146234206Y-91921961D01*
X146209915Y-91930653D01*
X146184888Y-91936921D01*
X146159368Y-91940707D01*
X146133599Y-91941973D01*
X145607799Y-91941973D01*
X145582030Y-91940707D01*
X145556510Y-91936921D01*
X145531483Y-91930653D01*
X145507192Y-91921961D01*
X145483869Y-91910930D01*
X145461740Y-91897666D01*
X145441017Y-91882297D01*
X145421901Y-91864971D01*
X145404575Y-91845855D01*
X145389206Y-91825132D01*
X145375942Y-91803003D01*
X145364911Y-91779680D01*
X145356219Y-91755389D01*
X145349951Y-91730362D01*
X145346165Y-91704842D01*
X145344899Y-91679073D01*
X145344899Y-91053273D01*
X145346165Y-91027504D01*
X145349951Y-91001984D01*
X145356219Y-90976957D01*
X145364911Y-90952666D01*
X145375942Y-90929343D01*
X145389206Y-90907214D01*
X145404575Y-90886491D01*
X145421901Y-90867375D01*
X145441017Y-90850049D01*
X145461740Y-90834680D01*
X145483869Y-90821416D01*
X145507192Y-90810385D01*
X145531483Y-90801693D01*
X145556510Y-90795425D01*
X145582030Y-90791639D01*
X145607799Y-90790373D01*
X146133599Y-90790373D01*
X146159368Y-90791639D01*
X146159368Y-90791639D01*
G37*
D16*
X145870699Y-91366173D03*
D13*
G36*
X173891362Y-101911921D02*
G01*
X173916882Y-101915707D01*
X173941909Y-101921975D01*
X173966200Y-101930667D01*
X173989523Y-101941698D01*
X174011652Y-101954962D01*
X174032375Y-101970331D01*
X174051491Y-101987657D01*
X174493998Y-102430164D01*
X174511324Y-102449280D01*
X174526693Y-102470003D01*
X174539957Y-102492132D01*
X174550988Y-102515455D01*
X174559680Y-102539746D01*
X174565948Y-102564773D01*
X174569734Y-102590293D01*
X174571000Y-102616062D01*
X174569734Y-102641831D01*
X174565948Y-102667351D01*
X174559680Y-102692378D01*
X174550988Y-102716669D01*
X174539957Y-102739992D01*
X174526693Y-102762121D01*
X174511324Y-102782844D01*
X174493998Y-102801960D01*
X174122201Y-103173757D01*
X174103085Y-103191083D01*
X174082362Y-103206452D01*
X174060233Y-103219716D01*
X174036910Y-103230747D01*
X174012619Y-103239439D01*
X173987592Y-103245707D01*
X173962072Y-103249493D01*
X173936303Y-103250759D01*
X173910534Y-103249493D01*
X173885014Y-103245707D01*
X173859987Y-103239439D01*
X173835696Y-103230747D01*
X173812373Y-103219716D01*
X173790244Y-103206452D01*
X173769521Y-103191083D01*
X173750405Y-103173757D01*
X173307898Y-102731250D01*
X173290572Y-102712134D01*
X173275203Y-102691411D01*
X173261939Y-102669282D01*
X173250908Y-102645959D01*
X173242216Y-102621668D01*
X173235948Y-102596641D01*
X173232162Y-102571121D01*
X173230896Y-102545352D01*
X173232162Y-102519583D01*
X173235948Y-102494063D01*
X173242216Y-102469036D01*
X173250908Y-102444745D01*
X173261939Y-102421422D01*
X173275203Y-102399293D01*
X173290572Y-102378570D01*
X173307898Y-102359454D01*
X173679695Y-101987657D01*
X173698811Y-101970331D01*
X173719534Y-101954962D01*
X173741663Y-101941698D01*
X173764986Y-101930667D01*
X173789277Y-101921975D01*
X173814304Y-101915707D01*
X173839824Y-101911921D01*
X173865593Y-101910655D01*
X173891362Y-101911921D01*
X173891362Y-101911921D01*
G37*
D16*
X173900948Y-102580707D03*
D13*
G36*
X172653926Y-100674485D02*
G01*
X172679446Y-100678271D01*
X172704473Y-100684539D01*
X172728764Y-100693231D01*
X172752087Y-100704262D01*
X172774216Y-100717526D01*
X172794939Y-100732895D01*
X172814055Y-100750221D01*
X173256562Y-101192728D01*
X173273888Y-101211844D01*
X173289257Y-101232567D01*
X173302521Y-101254696D01*
X173313552Y-101278019D01*
X173322244Y-101302310D01*
X173328512Y-101327337D01*
X173332298Y-101352857D01*
X173333564Y-101378626D01*
X173332298Y-101404395D01*
X173328512Y-101429915D01*
X173322244Y-101454942D01*
X173313552Y-101479233D01*
X173302521Y-101502556D01*
X173289257Y-101524685D01*
X173273888Y-101545408D01*
X173256562Y-101564524D01*
X172884765Y-101936321D01*
X172865649Y-101953647D01*
X172844926Y-101969016D01*
X172822797Y-101982280D01*
X172799474Y-101993311D01*
X172775183Y-102002003D01*
X172750156Y-102008271D01*
X172724636Y-102012057D01*
X172698867Y-102013323D01*
X172673098Y-102012057D01*
X172647578Y-102008271D01*
X172622551Y-102002003D01*
X172598260Y-101993311D01*
X172574937Y-101982280D01*
X172552808Y-101969016D01*
X172532085Y-101953647D01*
X172512969Y-101936321D01*
X172070462Y-101493814D01*
X172053136Y-101474698D01*
X172037767Y-101453975D01*
X172024503Y-101431846D01*
X172013472Y-101408523D01*
X172004780Y-101384232D01*
X171998512Y-101359205D01*
X171994726Y-101333685D01*
X171993460Y-101307916D01*
X171994726Y-101282147D01*
X171998512Y-101256627D01*
X172004780Y-101231600D01*
X172013472Y-101207309D01*
X172024503Y-101183986D01*
X172037767Y-101161857D01*
X172053136Y-101141134D01*
X172070462Y-101122018D01*
X172442259Y-100750221D01*
X172461375Y-100732895D01*
X172482098Y-100717526D01*
X172504227Y-100704262D01*
X172527550Y-100693231D01*
X172551841Y-100684539D01*
X172576868Y-100678271D01*
X172602388Y-100674485D01*
X172628157Y-100673219D01*
X172653926Y-100674485D01*
X172653926Y-100674485D01*
G37*
D16*
X172663512Y-101343271D03*
D17*
X157633533Y-99016606D03*
D18*
X157633533Y-99016606D02*
X157633533Y-99016606D01*
D17*
X156219319Y-100430820D03*
D13*
G36*
X157245755Y-100430820D02*
G01*
X156219319Y-101457256D01*
X155192883Y-100430820D01*
X156219319Y-99404384D01*
X157245755Y-100430820D01*
X157245755Y-100430820D01*
G37*
D17*
X169971132Y-115548763D03*
D18*
X169971132Y-115548763D02*
X169971132Y-115548763D01*
D17*
X171385346Y-114134549D03*
D13*
G36*
X170358910Y-114134549D02*
G01*
X171385346Y-113108113D01*
X172411782Y-114134549D01*
X171385346Y-115160985D01*
X170358910Y-114134549D01*
X170358910Y-114134549D01*
G37*
D19*
X163116439Y-105058127D03*
D13*
G36*
X161701094Y-104421731D02*
G01*
X162480043Y-103642782D01*
X164531784Y-105694523D01*
X163752835Y-106473472D01*
X161701094Y-104421731D01*
X161701094Y-104421731D01*
G37*
D19*
X167217658Y-109159346D03*
D13*
G36*
X165802313Y-108522950D02*
G01*
X166581262Y-107744001D01*
X168633003Y-109795742D01*
X167854054Y-110574691D01*
X165802313Y-108522950D01*
X165802313Y-108522950D01*
G37*
D19*
X165944866Y-102229700D03*
D13*
G36*
X164529521Y-101593304D02*
G01*
X165308470Y-100814355D01*
X167360211Y-102866096D01*
X166581262Y-103645045D01*
X164529521Y-101593304D01*
X164529521Y-101593304D01*
G37*
D19*
X170046085Y-106330919D03*
D13*
G36*
X168630740Y-105694523D02*
G01*
X169409689Y-104915574D01*
X171461430Y-106967315D01*
X170682481Y-107746264D01*
X168630740Y-105694523D01*
X168630740Y-105694523D01*
G37*
G36*
X129182928Y-98051435D02*
G01*
X129209056Y-98055311D01*
X129234677Y-98061729D01*
X129259546Y-98070627D01*
X129283423Y-98081920D01*
X129306079Y-98095499D01*
X129327294Y-98111233D01*
X129346865Y-98128971D01*
X129364603Y-98148542D01*
X129380337Y-98169757D01*
X129393916Y-98192413D01*
X129405209Y-98216290D01*
X129414107Y-98241159D01*
X129420525Y-98266780D01*
X129424401Y-98292908D01*
X129425697Y-98319289D01*
X129425697Y-99282589D01*
X129424401Y-99308970D01*
X129420525Y-99335098D01*
X129414107Y-99360719D01*
X129405209Y-99385588D01*
X129393916Y-99409465D01*
X129380337Y-99432121D01*
X129364603Y-99453336D01*
X129346865Y-99472907D01*
X129327294Y-99490645D01*
X129306079Y-99506379D01*
X129283423Y-99519958D01*
X129259546Y-99531251D01*
X129234677Y-99540149D01*
X129209056Y-99546567D01*
X129182928Y-99550443D01*
X129156547Y-99551739D01*
X128618247Y-99551739D01*
X128591866Y-99550443D01*
X128565738Y-99546567D01*
X128540117Y-99540149D01*
X128515248Y-99531251D01*
X128491371Y-99519958D01*
X128468715Y-99506379D01*
X128447500Y-99490645D01*
X128427929Y-99472907D01*
X128410191Y-99453336D01*
X128394457Y-99432121D01*
X128380878Y-99409465D01*
X128369585Y-99385588D01*
X128360687Y-99360719D01*
X128354269Y-99335098D01*
X128350393Y-99308970D01*
X128349097Y-99282589D01*
X128349097Y-98319289D01*
X128350393Y-98292908D01*
X128354269Y-98266780D01*
X128360687Y-98241159D01*
X128369585Y-98216290D01*
X128380878Y-98192413D01*
X128394457Y-98169757D01*
X128410191Y-98148542D01*
X128427929Y-98128971D01*
X128447500Y-98111233D01*
X128468715Y-98095499D01*
X128491371Y-98081920D01*
X128515248Y-98070627D01*
X128540117Y-98061729D01*
X128565738Y-98055311D01*
X128591866Y-98051435D01*
X128618247Y-98050139D01*
X129156547Y-98050139D01*
X129182928Y-98051435D01*
X129182928Y-98051435D01*
G37*
D15*
X128887397Y-98800939D03*
D13*
G36*
X127307928Y-98051435D02*
G01*
X127334056Y-98055311D01*
X127359677Y-98061729D01*
X127384546Y-98070627D01*
X127408423Y-98081920D01*
X127431079Y-98095499D01*
X127452294Y-98111233D01*
X127471865Y-98128971D01*
X127489603Y-98148542D01*
X127505337Y-98169757D01*
X127518916Y-98192413D01*
X127530209Y-98216290D01*
X127539107Y-98241159D01*
X127545525Y-98266780D01*
X127549401Y-98292908D01*
X127550697Y-98319289D01*
X127550697Y-99282589D01*
X127549401Y-99308970D01*
X127545525Y-99335098D01*
X127539107Y-99360719D01*
X127530209Y-99385588D01*
X127518916Y-99409465D01*
X127505337Y-99432121D01*
X127489603Y-99453336D01*
X127471865Y-99472907D01*
X127452294Y-99490645D01*
X127431079Y-99506379D01*
X127408423Y-99519958D01*
X127384546Y-99531251D01*
X127359677Y-99540149D01*
X127334056Y-99546567D01*
X127307928Y-99550443D01*
X127281547Y-99551739D01*
X126743247Y-99551739D01*
X126716866Y-99550443D01*
X126690738Y-99546567D01*
X126665117Y-99540149D01*
X126640248Y-99531251D01*
X126616371Y-99519958D01*
X126593715Y-99506379D01*
X126572500Y-99490645D01*
X126552929Y-99472907D01*
X126535191Y-99453336D01*
X126519457Y-99432121D01*
X126505878Y-99409465D01*
X126494585Y-99385588D01*
X126485687Y-99360719D01*
X126479269Y-99335098D01*
X126475393Y-99308970D01*
X126474097Y-99282589D01*
X126474097Y-98319289D01*
X126475393Y-98292908D01*
X126479269Y-98266780D01*
X126485687Y-98241159D01*
X126494585Y-98216290D01*
X126505878Y-98192413D01*
X126519457Y-98169757D01*
X126535191Y-98148542D01*
X126552929Y-98128971D01*
X126572500Y-98111233D01*
X126593715Y-98095499D01*
X126616371Y-98081920D01*
X126640248Y-98070627D01*
X126665117Y-98061729D01*
X126690738Y-98055311D01*
X126716866Y-98051435D01*
X126743247Y-98050139D01*
X127281547Y-98050139D01*
X127307928Y-98051435D01*
X127307928Y-98051435D01*
G37*
D15*
X127012397Y-98800939D03*
D13*
G36*
X129182928Y-100027091D02*
G01*
X129209056Y-100030967D01*
X129234677Y-100037385D01*
X129259546Y-100046283D01*
X129283423Y-100057576D01*
X129306079Y-100071155D01*
X129327294Y-100086889D01*
X129346865Y-100104627D01*
X129364603Y-100124198D01*
X129380337Y-100145413D01*
X129393916Y-100168069D01*
X129405209Y-100191946D01*
X129414107Y-100216815D01*
X129420525Y-100242436D01*
X129424401Y-100268564D01*
X129425697Y-100294945D01*
X129425697Y-101258245D01*
X129424401Y-101284626D01*
X129420525Y-101310754D01*
X129414107Y-101336375D01*
X129405209Y-101361244D01*
X129393916Y-101385121D01*
X129380337Y-101407777D01*
X129364603Y-101428992D01*
X129346865Y-101448563D01*
X129327294Y-101466301D01*
X129306079Y-101482035D01*
X129283423Y-101495614D01*
X129259546Y-101506907D01*
X129234677Y-101515805D01*
X129209056Y-101522223D01*
X129182928Y-101526099D01*
X129156547Y-101527395D01*
X128618247Y-101527395D01*
X128591866Y-101526099D01*
X128565738Y-101522223D01*
X128540117Y-101515805D01*
X128515248Y-101506907D01*
X128491371Y-101495614D01*
X128468715Y-101482035D01*
X128447500Y-101466301D01*
X128427929Y-101448563D01*
X128410191Y-101428992D01*
X128394457Y-101407777D01*
X128380878Y-101385121D01*
X128369585Y-101361244D01*
X128360687Y-101336375D01*
X128354269Y-101310754D01*
X128350393Y-101284626D01*
X128349097Y-101258245D01*
X128349097Y-100294945D01*
X128350393Y-100268564D01*
X128354269Y-100242436D01*
X128360687Y-100216815D01*
X128369585Y-100191946D01*
X128380878Y-100168069D01*
X128394457Y-100145413D01*
X128410191Y-100124198D01*
X128427929Y-100104627D01*
X128447500Y-100086889D01*
X128468715Y-100071155D01*
X128491371Y-100057576D01*
X128515248Y-100046283D01*
X128540117Y-100037385D01*
X128565738Y-100030967D01*
X128591866Y-100027091D01*
X128618247Y-100025795D01*
X129156547Y-100025795D01*
X129182928Y-100027091D01*
X129182928Y-100027091D01*
G37*
D15*
X128887397Y-100776595D03*
D13*
G36*
X127307928Y-100027091D02*
G01*
X127334056Y-100030967D01*
X127359677Y-100037385D01*
X127384546Y-100046283D01*
X127408423Y-100057576D01*
X127431079Y-100071155D01*
X127452294Y-100086889D01*
X127471865Y-100104627D01*
X127489603Y-100124198D01*
X127505337Y-100145413D01*
X127518916Y-100168069D01*
X127530209Y-100191946D01*
X127539107Y-100216815D01*
X127545525Y-100242436D01*
X127549401Y-100268564D01*
X127550697Y-100294945D01*
X127550697Y-101258245D01*
X127549401Y-101284626D01*
X127545525Y-101310754D01*
X127539107Y-101336375D01*
X127530209Y-101361244D01*
X127518916Y-101385121D01*
X127505337Y-101407777D01*
X127489603Y-101428992D01*
X127471865Y-101448563D01*
X127452294Y-101466301D01*
X127431079Y-101482035D01*
X127408423Y-101495614D01*
X127384546Y-101506907D01*
X127359677Y-101515805D01*
X127334056Y-101522223D01*
X127307928Y-101526099D01*
X127281547Y-101527395D01*
X126743247Y-101527395D01*
X126716866Y-101526099D01*
X126690738Y-101522223D01*
X126665117Y-101515805D01*
X126640248Y-101506907D01*
X126616371Y-101495614D01*
X126593715Y-101482035D01*
X126572500Y-101466301D01*
X126552929Y-101448563D01*
X126535191Y-101428992D01*
X126519457Y-101407777D01*
X126505878Y-101385121D01*
X126494585Y-101361244D01*
X126485687Y-101336375D01*
X126479269Y-101310754D01*
X126475393Y-101284626D01*
X126474097Y-101258245D01*
X126474097Y-100294945D01*
X126475393Y-100268564D01*
X126479269Y-100242436D01*
X126485687Y-100216815D01*
X126494585Y-100191946D01*
X126505878Y-100168069D01*
X126519457Y-100145413D01*
X126535191Y-100124198D01*
X126552929Y-100104627D01*
X126572500Y-100086889D01*
X126593715Y-100071155D01*
X126616371Y-100057576D01*
X126640248Y-100046283D01*
X126665117Y-100037385D01*
X126690738Y-100030967D01*
X126716866Y-100027091D01*
X126743247Y-100025795D01*
X127281547Y-100025795D01*
X127307928Y-100027091D01*
X127307928Y-100027091D01*
G37*
D15*
X127012397Y-100776595D03*
D13*
G36*
X127307928Y-102002748D02*
G01*
X127334056Y-102006624D01*
X127359677Y-102013042D01*
X127384546Y-102021940D01*
X127408423Y-102033233D01*
X127431079Y-102046812D01*
X127452294Y-102062546D01*
X127471865Y-102080284D01*
X127489603Y-102099855D01*
X127505337Y-102121070D01*
X127518916Y-102143726D01*
X127530209Y-102167603D01*
X127539107Y-102192472D01*
X127545525Y-102218093D01*
X127549401Y-102244221D01*
X127550697Y-102270602D01*
X127550697Y-103233902D01*
X127549401Y-103260283D01*
X127545525Y-103286411D01*
X127539107Y-103312032D01*
X127530209Y-103336901D01*
X127518916Y-103360778D01*
X127505337Y-103383434D01*
X127489603Y-103404649D01*
X127471865Y-103424220D01*
X127452294Y-103441958D01*
X127431079Y-103457692D01*
X127408423Y-103471271D01*
X127384546Y-103482564D01*
X127359677Y-103491462D01*
X127334056Y-103497880D01*
X127307928Y-103501756D01*
X127281547Y-103503052D01*
X126743247Y-103503052D01*
X126716866Y-103501756D01*
X126690738Y-103497880D01*
X126665117Y-103491462D01*
X126640248Y-103482564D01*
X126616371Y-103471271D01*
X126593715Y-103457692D01*
X126572500Y-103441958D01*
X126552929Y-103424220D01*
X126535191Y-103404649D01*
X126519457Y-103383434D01*
X126505878Y-103360778D01*
X126494585Y-103336901D01*
X126485687Y-103312032D01*
X126479269Y-103286411D01*
X126475393Y-103260283D01*
X126474097Y-103233902D01*
X126474097Y-102270602D01*
X126475393Y-102244221D01*
X126479269Y-102218093D01*
X126485687Y-102192472D01*
X126494585Y-102167603D01*
X126505878Y-102143726D01*
X126519457Y-102121070D01*
X126535191Y-102099855D01*
X126552929Y-102080284D01*
X126572500Y-102062546D01*
X126593715Y-102046812D01*
X126616371Y-102033233D01*
X126640248Y-102021940D01*
X126665117Y-102013042D01*
X126690738Y-102006624D01*
X126716866Y-102002748D01*
X126743247Y-102001452D01*
X127281547Y-102001452D01*
X127307928Y-102002748D01*
X127307928Y-102002748D01*
G37*
D15*
X127012397Y-102752252D03*
D13*
G36*
X129182928Y-102002748D02*
G01*
X129209056Y-102006624D01*
X129234677Y-102013042D01*
X129259546Y-102021940D01*
X129283423Y-102033233D01*
X129306079Y-102046812D01*
X129327294Y-102062546D01*
X129346865Y-102080284D01*
X129364603Y-102099855D01*
X129380337Y-102121070D01*
X129393916Y-102143726D01*
X129405209Y-102167603D01*
X129414107Y-102192472D01*
X129420525Y-102218093D01*
X129424401Y-102244221D01*
X129425697Y-102270602D01*
X129425697Y-103233902D01*
X129424401Y-103260283D01*
X129420525Y-103286411D01*
X129414107Y-103312032D01*
X129405209Y-103336901D01*
X129393916Y-103360778D01*
X129380337Y-103383434D01*
X129364603Y-103404649D01*
X129346865Y-103424220D01*
X129327294Y-103441958D01*
X129306079Y-103457692D01*
X129283423Y-103471271D01*
X129259546Y-103482564D01*
X129234677Y-103491462D01*
X129209056Y-103497880D01*
X129182928Y-103501756D01*
X129156547Y-103503052D01*
X128618247Y-103503052D01*
X128591866Y-103501756D01*
X128565738Y-103497880D01*
X128540117Y-103491462D01*
X128515248Y-103482564D01*
X128491371Y-103471271D01*
X128468715Y-103457692D01*
X128447500Y-103441958D01*
X128427929Y-103424220D01*
X128410191Y-103404649D01*
X128394457Y-103383434D01*
X128380878Y-103360778D01*
X128369585Y-103336901D01*
X128360687Y-103312032D01*
X128354269Y-103286411D01*
X128350393Y-103260283D01*
X128349097Y-103233902D01*
X128349097Y-102270602D01*
X128350393Y-102244221D01*
X128354269Y-102218093D01*
X128360687Y-102192472D01*
X128369585Y-102167603D01*
X128380878Y-102143726D01*
X128394457Y-102121070D01*
X128410191Y-102099855D01*
X128427929Y-102080284D01*
X128447500Y-102062546D01*
X128468715Y-102046812D01*
X128491371Y-102033233D01*
X128515248Y-102021940D01*
X128540117Y-102013042D01*
X128565738Y-102006624D01*
X128591866Y-102002748D01*
X128618247Y-102001452D01*
X129156547Y-102001452D01*
X129182928Y-102002748D01*
X129182928Y-102002748D01*
G37*
D15*
X128887397Y-102752252D03*
D13*
G36*
X169223373Y-99099406D02*
G01*
X169249501Y-99103282D01*
X169275122Y-99109700D01*
X169299991Y-99118598D01*
X169323868Y-99129891D01*
X169346524Y-99143470D01*
X169367739Y-99159204D01*
X169387310Y-99176942D01*
X170068466Y-99858098D01*
X170086204Y-99877669D01*
X170101938Y-99898884D01*
X170115517Y-99921540D01*
X170126810Y-99945417D01*
X170135708Y-99970286D01*
X170142126Y-99995907D01*
X170146002Y-100022035D01*
X170147298Y-100048416D01*
X170146002Y-100074797D01*
X170142126Y-100100925D01*
X170135708Y-100126546D01*
X170126810Y-100151415D01*
X170115517Y-100175292D01*
X170101938Y-100197948D01*
X170086204Y-100219163D01*
X170068466Y-100238734D01*
X169687830Y-100619370D01*
X169668259Y-100637108D01*
X169647044Y-100652842D01*
X169624388Y-100666421D01*
X169600511Y-100677714D01*
X169575642Y-100686612D01*
X169550021Y-100693030D01*
X169523893Y-100696906D01*
X169497512Y-100698202D01*
X169471131Y-100696906D01*
X169445003Y-100693030D01*
X169419382Y-100686612D01*
X169394513Y-100677714D01*
X169370636Y-100666421D01*
X169347980Y-100652842D01*
X169326765Y-100637108D01*
X169307194Y-100619370D01*
X168626038Y-99938214D01*
X168608300Y-99918643D01*
X168592566Y-99897428D01*
X168578987Y-99874772D01*
X168567694Y-99850895D01*
X168558796Y-99826026D01*
X168552378Y-99800405D01*
X168548502Y-99774277D01*
X168547206Y-99747896D01*
X168548502Y-99721515D01*
X168552378Y-99695387D01*
X168558796Y-99669766D01*
X168567694Y-99644897D01*
X168578987Y-99621020D01*
X168592566Y-99598364D01*
X168608300Y-99577149D01*
X168626038Y-99557578D01*
X169006674Y-99176942D01*
X169026245Y-99159204D01*
X169047460Y-99143470D01*
X169070116Y-99129891D01*
X169093993Y-99118598D01*
X169118862Y-99109700D01*
X169144483Y-99103282D01*
X169170611Y-99099406D01*
X169196992Y-99098110D01*
X169223373Y-99099406D01*
X169223373Y-99099406D01*
G37*
D15*
X169347252Y-99898156D03*
D13*
G36*
X167897547Y-100425232D02*
G01*
X167923675Y-100429108D01*
X167949296Y-100435526D01*
X167974165Y-100444424D01*
X167998042Y-100455717D01*
X168020698Y-100469296D01*
X168041913Y-100485030D01*
X168061484Y-100502768D01*
X168742640Y-101183924D01*
X168760378Y-101203495D01*
X168776112Y-101224710D01*
X168789691Y-101247366D01*
X168800984Y-101271243D01*
X168809882Y-101296112D01*
X168816300Y-101321733D01*
X168820176Y-101347861D01*
X168821472Y-101374242D01*
X168820176Y-101400623D01*
X168816300Y-101426751D01*
X168809882Y-101452372D01*
X168800984Y-101477241D01*
X168789691Y-101501118D01*
X168776112Y-101523774D01*
X168760378Y-101544989D01*
X168742640Y-101564560D01*
X168362004Y-101945196D01*
X168342433Y-101962934D01*
X168321218Y-101978668D01*
X168298562Y-101992247D01*
X168274685Y-102003540D01*
X168249816Y-102012438D01*
X168224195Y-102018856D01*
X168198067Y-102022732D01*
X168171686Y-102024028D01*
X168145305Y-102022732D01*
X168119177Y-102018856D01*
X168093556Y-102012438D01*
X168068687Y-102003540D01*
X168044810Y-101992247D01*
X168022154Y-101978668D01*
X168000939Y-101962934D01*
X167981368Y-101945196D01*
X167300212Y-101264040D01*
X167282474Y-101244469D01*
X167266740Y-101223254D01*
X167253161Y-101200598D01*
X167241868Y-101176721D01*
X167232970Y-101151852D01*
X167226552Y-101126231D01*
X167222676Y-101100103D01*
X167221380Y-101073722D01*
X167222676Y-101047341D01*
X167226552Y-101021213D01*
X167232970Y-100995592D01*
X167241868Y-100970723D01*
X167253161Y-100946846D01*
X167266740Y-100924190D01*
X167282474Y-100902975D01*
X167300212Y-100883404D01*
X167680848Y-100502768D01*
X167700419Y-100485030D01*
X167721634Y-100469296D01*
X167744290Y-100455717D01*
X167768167Y-100444424D01*
X167793036Y-100435526D01*
X167818657Y-100429108D01*
X167844785Y-100425232D01*
X167871166Y-100423936D01*
X167897547Y-100425232D01*
X167897547Y-100425232D01*
G37*
D15*
X168021426Y-101223982D03*
D13*
G36*
X166496627Y-98988391D02*
G01*
X166522755Y-98992267D01*
X166548376Y-98998685D01*
X166573245Y-99007583D01*
X166597122Y-99018876D01*
X166619778Y-99032455D01*
X166640993Y-99048189D01*
X166660564Y-99065927D01*
X167341720Y-99747083D01*
X167359458Y-99766654D01*
X167375192Y-99787869D01*
X167388771Y-99810525D01*
X167400064Y-99834402D01*
X167408962Y-99859271D01*
X167415380Y-99884892D01*
X167419256Y-99911020D01*
X167420552Y-99937401D01*
X167419256Y-99963782D01*
X167415380Y-99989910D01*
X167408962Y-100015531D01*
X167400064Y-100040400D01*
X167388771Y-100064277D01*
X167375192Y-100086933D01*
X167359458Y-100108148D01*
X167341720Y-100127719D01*
X166961084Y-100508355D01*
X166941513Y-100526093D01*
X166920298Y-100541827D01*
X166897642Y-100555406D01*
X166873765Y-100566699D01*
X166848896Y-100575597D01*
X166823275Y-100582015D01*
X166797147Y-100585891D01*
X166770766Y-100587187D01*
X166744385Y-100585891D01*
X166718257Y-100582015D01*
X166692636Y-100575597D01*
X166667767Y-100566699D01*
X166643890Y-100555406D01*
X166621234Y-100541827D01*
X166600019Y-100526093D01*
X166580448Y-100508355D01*
X165899292Y-99827199D01*
X165881554Y-99807628D01*
X165865820Y-99786413D01*
X165852241Y-99763757D01*
X165840948Y-99739880D01*
X165832050Y-99715011D01*
X165825632Y-99689390D01*
X165821756Y-99663262D01*
X165820460Y-99636881D01*
X165821756Y-99610500D01*
X165825632Y-99584372D01*
X165832050Y-99558751D01*
X165840948Y-99533882D01*
X165852241Y-99510005D01*
X165865820Y-99487349D01*
X165881554Y-99466134D01*
X165899292Y-99446563D01*
X166279928Y-99065927D01*
X166299499Y-99048189D01*
X166320714Y-99032455D01*
X166343370Y-99018876D01*
X166367247Y-99007583D01*
X166392116Y-98998685D01*
X166417737Y-98992267D01*
X166443865Y-98988391D01*
X166470246Y-98987095D01*
X166496627Y-98988391D01*
X166496627Y-98988391D01*
G37*
D15*
X166620506Y-99787141D03*
D13*
G36*
X167822453Y-97662565D02*
G01*
X167848581Y-97666441D01*
X167874202Y-97672859D01*
X167899071Y-97681757D01*
X167922948Y-97693050D01*
X167945604Y-97706629D01*
X167966819Y-97722363D01*
X167986390Y-97740101D01*
X168667546Y-98421257D01*
X168685284Y-98440828D01*
X168701018Y-98462043D01*
X168714597Y-98484699D01*
X168725890Y-98508576D01*
X168734788Y-98533445D01*
X168741206Y-98559066D01*
X168745082Y-98585194D01*
X168746378Y-98611575D01*
X168745082Y-98637956D01*
X168741206Y-98664084D01*
X168734788Y-98689705D01*
X168725890Y-98714574D01*
X168714597Y-98738451D01*
X168701018Y-98761107D01*
X168685284Y-98782322D01*
X168667546Y-98801893D01*
X168286910Y-99182529D01*
X168267339Y-99200267D01*
X168246124Y-99216001D01*
X168223468Y-99229580D01*
X168199591Y-99240873D01*
X168174722Y-99249771D01*
X168149101Y-99256189D01*
X168122973Y-99260065D01*
X168096592Y-99261361D01*
X168070211Y-99260065D01*
X168044083Y-99256189D01*
X168018462Y-99249771D01*
X167993593Y-99240873D01*
X167969716Y-99229580D01*
X167947060Y-99216001D01*
X167925845Y-99200267D01*
X167906274Y-99182529D01*
X167225118Y-98501373D01*
X167207380Y-98481802D01*
X167191646Y-98460587D01*
X167178067Y-98437931D01*
X167166774Y-98414054D01*
X167157876Y-98389185D01*
X167151458Y-98363564D01*
X167147582Y-98337436D01*
X167146286Y-98311055D01*
X167147582Y-98284674D01*
X167151458Y-98258546D01*
X167157876Y-98232925D01*
X167166774Y-98208056D01*
X167178067Y-98184179D01*
X167191646Y-98161523D01*
X167207380Y-98140308D01*
X167225118Y-98120737D01*
X167605754Y-97740101D01*
X167625325Y-97722363D01*
X167646540Y-97706629D01*
X167669196Y-97693050D01*
X167693073Y-97681757D01*
X167717942Y-97672859D01*
X167743563Y-97666441D01*
X167769691Y-97662565D01*
X167796072Y-97661269D01*
X167822453Y-97662565D01*
X167822453Y-97662565D01*
G37*
D15*
X167946332Y-98461315D03*
D13*
G36*
X170568855Y-101290589D02*
G01*
X170594983Y-101294465D01*
X170620604Y-101300883D01*
X170645473Y-101309781D01*
X170669350Y-101321074D01*
X170692006Y-101334653D01*
X170713221Y-101350387D01*
X170732792Y-101368125D01*
X171113428Y-101748761D01*
X171131166Y-101768332D01*
X171146900Y-101789547D01*
X171160479Y-101812203D01*
X171171772Y-101836080D01*
X171180670Y-101860949D01*
X171187088Y-101886570D01*
X171190964Y-101912698D01*
X171192260Y-101939079D01*
X171190964Y-101965460D01*
X171187088Y-101991588D01*
X171180670Y-102017209D01*
X171171772Y-102042078D01*
X171160479Y-102065955D01*
X171146900Y-102088611D01*
X171131166Y-102109826D01*
X171113428Y-102129397D01*
X170432272Y-102810553D01*
X170412701Y-102828291D01*
X170391486Y-102844025D01*
X170368830Y-102857604D01*
X170344953Y-102868897D01*
X170320084Y-102877795D01*
X170294463Y-102884213D01*
X170268335Y-102888089D01*
X170241954Y-102889385D01*
X170215573Y-102888089D01*
X170189445Y-102884213D01*
X170163824Y-102877795D01*
X170138955Y-102868897D01*
X170115078Y-102857604D01*
X170092422Y-102844025D01*
X170071207Y-102828291D01*
X170051636Y-102810553D01*
X169671000Y-102429917D01*
X169653262Y-102410346D01*
X169637528Y-102389131D01*
X169623949Y-102366475D01*
X169612656Y-102342598D01*
X169603758Y-102317729D01*
X169597340Y-102292108D01*
X169593464Y-102265980D01*
X169592168Y-102239599D01*
X169593464Y-102213218D01*
X169597340Y-102187090D01*
X169603758Y-102161469D01*
X169612656Y-102136600D01*
X169623949Y-102112723D01*
X169637528Y-102090067D01*
X169653262Y-102068852D01*
X169671000Y-102049281D01*
X170352156Y-101368125D01*
X170371727Y-101350387D01*
X170392942Y-101334653D01*
X170415598Y-101321074D01*
X170439475Y-101309781D01*
X170464344Y-101300883D01*
X170489965Y-101294465D01*
X170516093Y-101290589D01*
X170542474Y-101289293D01*
X170568855Y-101290589D01*
X170568855Y-101290589D01*
G37*
D15*
X170392214Y-102089339D03*
D13*
G36*
X171894681Y-102616415D02*
G01*
X171920809Y-102620291D01*
X171946430Y-102626709D01*
X171971299Y-102635607D01*
X171995176Y-102646900D01*
X172017832Y-102660479D01*
X172039047Y-102676213D01*
X172058618Y-102693951D01*
X172439254Y-103074587D01*
X172456992Y-103094158D01*
X172472726Y-103115373D01*
X172486305Y-103138029D01*
X172497598Y-103161906D01*
X172506496Y-103186775D01*
X172512914Y-103212396D01*
X172516790Y-103238524D01*
X172518086Y-103264905D01*
X172516790Y-103291286D01*
X172512914Y-103317414D01*
X172506496Y-103343035D01*
X172497598Y-103367904D01*
X172486305Y-103391781D01*
X172472726Y-103414437D01*
X172456992Y-103435652D01*
X172439254Y-103455223D01*
X171758098Y-104136379D01*
X171738527Y-104154117D01*
X171717312Y-104169851D01*
X171694656Y-104183430D01*
X171670779Y-104194723D01*
X171645910Y-104203621D01*
X171620289Y-104210039D01*
X171594161Y-104213915D01*
X171567780Y-104215211D01*
X171541399Y-104213915D01*
X171515271Y-104210039D01*
X171489650Y-104203621D01*
X171464781Y-104194723D01*
X171440904Y-104183430D01*
X171418248Y-104169851D01*
X171397033Y-104154117D01*
X171377462Y-104136379D01*
X170996826Y-103755743D01*
X170979088Y-103736172D01*
X170963354Y-103714957D01*
X170949775Y-103692301D01*
X170938482Y-103668424D01*
X170929584Y-103643555D01*
X170923166Y-103617934D01*
X170919290Y-103591806D01*
X170917994Y-103565425D01*
X170919290Y-103539044D01*
X170923166Y-103512916D01*
X170929584Y-103487295D01*
X170938482Y-103462426D01*
X170949775Y-103438549D01*
X170963354Y-103415893D01*
X170979088Y-103394678D01*
X170996826Y-103375107D01*
X171677982Y-102693951D01*
X171697553Y-102676213D01*
X171718768Y-102660479D01*
X171741424Y-102646900D01*
X171765301Y-102635607D01*
X171790170Y-102626709D01*
X171815791Y-102620291D01*
X171841919Y-102616415D01*
X171868300Y-102615119D01*
X171894681Y-102616415D01*
X171894681Y-102616415D01*
G37*
D15*
X171718040Y-103415165D03*
D13*
G36*
X145641254Y-99897102D02*
G01*
X145664954Y-99900617D01*
X145688196Y-99906439D01*
X145710755Y-99914511D01*
X145732415Y-99924755D01*
X145752965Y-99937073D01*
X145772210Y-99951345D01*
X145789963Y-99967436D01*
X145806054Y-99985189D01*
X145820326Y-100004434D01*
X145832644Y-100024984D01*
X145842888Y-100046644D01*
X145850960Y-100069203D01*
X145856782Y-100092445D01*
X145860297Y-100116145D01*
X145861473Y-100140076D01*
X145861473Y-100628376D01*
X145860297Y-100652307D01*
X145856782Y-100676007D01*
X145850960Y-100699249D01*
X145842888Y-100721808D01*
X145832644Y-100743468D01*
X145820326Y-100764018D01*
X145806054Y-100783263D01*
X145789963Y-100801016D01*
X145772210Y-100817107D01*
X145752965Y-100831379D01*
X145732415Y-100843697D01*
X145710755Y-100853941D01*
X145688196Y-100862013D01*
X145664954Y-100867835D01*
X145641254Y-100871350D01*
X145617323Y-100872526D01*
X145054023Y-100872526D01*
X145030092Y-100871350D01*
X145006392Y-100867835D01*
X144983150Y-100862013D01*
X144960591Y-100853941D01*
X144938931Y-100843697D01*
X144918381Y-100831379D01*
X144899136Y-100817107D01*
X144881383Y-100801016D01*
X144865292Y-100783263D01*
X144851020Y-100764018D01*
X144838702Y-100743468D01*
X144828458Y-100721808D01*
X144820386Y-100699249D01*
X144814564Y-100676007D01*
X144811049Y-100652307D01*
X144809873Y-100628376D01*
X144809873Y-100140076D01*
X144811049Y-100116145D01*
X144814564Y-100092445D01*
X144820386Y-100069203D01*
X144828458Y-100046644D01*
X144838702Y-100024984D01*
X144851020Y-100004434D01*
X144865292Y-99985189D01*
X144881383Y-99967436D01*
X144899136Y-99951345D01*
X144918381Y-99937073D01*
X144938931Y-99924755D01*
X144960591Y-99914511D01*
X144983150Y-99906439D01*
X145006392Y-99900617D01*
X145030092Y-99897102D01*
X145054023Y-99895926D01*
X145617323Y-99895926D01*
X145641254Y-99897102D01*
X145641254Y-99897102D01*
G37*
D14*
X145335673Y-100384226D03*
D13*
G36*
X145641254Y-101472102D02*
G01*
X145664954Y-101475617D01*
X145688196Y-101481439D01*
X145710755Y-101489511D01*
X145732415Y-101499755D01*
X145752965Y-101512073D01*
X145772210Y-101526345D01*
X145789963Y-101542436D01*
X145806054Y-101560189D01*
X145820326Y-101579434D01*
X145832644Y-101599984D01*
X145842888Y-101621644D01*
X145850960Y-101644203D01*
X145856782Y-101667445D01*
X145860297Y-101691145D01*
X145861473Y-101715076D01*
X145861473Y-102203376D01*
X145860297Y-102227307D01*
X145856782Y-102251007D01*
X145850960Y-102274249D01*
X145842888Y-102296808D01*
X145832644Y-102318468D01*
X145820326Y-102339018D01*
X145806054Y-102358263D01*
X145789963Y-102376016D01*
X145772210Y-102392107D01*
X145752965Y-102406379D01*
X145732415Y-102418697D01*
X145710755Y-102428941D01*
X145688196Y-102437013D01*
X145664954Y-102442835D01*
X145641254Y-102446350D01*
X145617323Y-102447526D01*
X145054023Y-102447526D01*
X145030092Y-102446350D01*
X145006392Y-102442835D01*
X144983150Y-102437013D01*
X144960591Y-102428941D01*
X144938931Y-102418697D01*
X144918381Y-102406379D01*
X144899136Y-102392107D01*
X144881383Y-102376016D01*
X144865292Y-102358263D01*
X144851020Y-102339018D01*
X144838702Y-102318468D01*
X144828458Y-102296808D01*
X144820386Y-102274249D01*
X144814564Y-102251007D01*
X144811049Y-102227307D01*
X144809873Y-102203376D01*
X144809873Y-101715076D01*
X144811049Y-101691145D01*
X144814564Y-101667445D01*
X144820386Y-101644203D01*
X144828458Y-101621644D01*
X144838702Y-101599984D01*
X144851020Y-101579434D01*
X144865292Y-101560189D01*
X144881383Y-101542436D01*
X144899136Y-101526345D01*
X144918381Y-101512073D01*
X144938931Y-101499755D01*
X144960591Y-101489511D01*
X144983150Y-101481439D01*
X145006392Y-101475617D01*
X145030092Y-101472102D01*
X145054023Y-101470926D01*
X145617323Y-101470926D01*
X145641254Y-101472102D01*
X145641254Y-101472102D01*
G37*
D14*
X145335673Y-101959226D03*
D13*
G36*
X138745601Y-85524351D02*
G01*
X138769301Y-85527866D01*
X138792543Y-85533688D01*
X138815102Y-85541760D01*
X138836762Y-85552004D01*
X138857312Y-85564322D01*
X138876557Y-85578594D01*
X138894310Y-85594685D01*
X138910401Y-85612438D01*
X138924673Y-85631683D01*
X138936991Y-85652233D01*
X138947235Y-85673893D01*
X138955307Y-85696452D01*
X138961129Y-85719694D01*
X138964644Y-85743394D01*
X138965820Y-85767325D01*
X138965820Y-86330625D01*
X138964644Y-86354556D01*
X138961129Y-86378256D01*
X138955307Y-86401498D01*
X138947235Y-86424057D01*
X138936991Y-86445717D01*
X138924673Y-86466267D01*
X138910401Y-86485512D01*
X138894310Y-86503265D01*
X138876557Y-86519356D01*
X138857312Y-86533628D01*
X138836762Y-86545946D01*
X138815102Y-86556190D01*
X138792543Y-86564262D01*
X138769301Y-86570084D01*
X138745601Y-86573599D01*
X138721670Y-86574775D01*
X138233370Y-86574775D01*
X138209439Y-86573599D01*
X138185739Y-86570084D01*
X138162497Y-86564262D01*
X138139938Y-86556190D01*
X138118278Y-86545946D01*
X138097728Y-86533628D01*
X138078483Y-86519356D01*
X138060730Y-86503265D01*
X138044639Y-86485512D01*
X138030367Y-86466267D01*
X138018049Y-86445717D01*
X138007805Y-86424057D01*
X137999733Y-86401498D01*
X137993911Y-86378256D01*
X137990396Y-86354556D01*
X137989220Y-86330625D01*
X137989220Y-85767325D01*
X137990396Y-85743394D01*
X137993911Y-85719694D01*
X137999733Y-85696452D01*
X138007805Y-85673893D01*
X138018049Y-85652233D01*
X138030367Y-85631683D01*
X138044639Y-85612438D01*
X138060730Y-85594685D01*
X138078483Y-85578594D01*
X138097728Y-85564322D01*
X138118278Y-85552004D01*
X138139938Y-85541760D01*
X138162497Y-85533688D01*
X138185739Y-85527866D01*
X138209439Y-85524351D01*
X138233370Y-85523175D01*
X138721670Y-85523175D01*
X138745601Y-85524351D01*
X138745601Y-85524351D01*
G37*
D14*
X138477520Y-86048975D03*
D13*
G36*
X140320601Y-85524351D02*
G01*
X140344301Y-85527866D01*
X140367543Y-85533688D01*
X140390102Y-85541760D01*
X140411762Y-85552004D01*
X140432312Y-85564322D01*
X140451557Y-85578594D01*
X140469310Y-85594685D01*
X140485401Y-85612438D01*
X140499673Y-85631683D01*
X140511991Y-85652233D01*
X140522235Y-85673893D01*
X140530307Y-85696452D01*
X140536129Y-85719694D01*
X140539644Y-85743394D01*
X140540820Y-85767325D01*
X140540820Y-86330625D01*
X140539644Y-86354556D01*
X140536129Y-86378256D01*
X140530307Y-86401498D01*
X140522235Y-86424057D01*
X140511991Y-86445717D01*
X140499673Y-86466267D01*
X140485401Y-86485512D01*
X140469310Y-86503265D01*
X140451557Y-86519356D01*
X140432312Y-86533628D01*
X140411762Y-86545946D01*
X140390102Y-86556190D01*
X140367543Y-86564262D01*
X140344301Y-86570084D01*
X140320601Y-86573599D01*
X140296670Y-86574775D01*
X139808370Y-86574775D01*
X139784439Y-86573599D01*
X139760739Y-86570084D01*
X139737497Y-86564262D01*
X139714938Y-86556190D01*
X139693278Y-86545946D01*
X139672728Y-86533628D01*
X139653483Y-86519356D01*
X139635730Y-86503265D01*
X139619639Y-86485512D01*
X139605367Y-86466267D01*
X139593049Y-86445717D01*
X139582805Y-86424057D01*
X139574733Y-86401498D01*
X139568911Y-86378256D01*
X139565396Y-86354556D01*
X139564220Y-86330625D01*
X139564220Y-85767325D01*
X139565396Y-85743394D01*
X139568911Y-85719694D01*
X139574733Y-85696452D01*
X139582805Y-85673893D01*
X139593049Y-85652233D01*
X139605367Y-85631683D01*
X139619639Y-85612438D01*
X139635730Y-85594685D01*
X139653483Y-85578594D01*
X139672728Y-85564322D01*
X139693278Y-85552004D01*
X139714938Y-85541760D01*
X139737497Y-85533688D01*
X139760739Y-85527866D01*
X139784439Y-85524351D01*
X139808370Y-85523175D01*
X140296670Y-85523175D01*
X140320601Y-85524351D01*
X140320601Y-85524351D01*
G37*
D14*
X140052520Y-86048975D03*
D13*
G36*
X174729849Y-113736507D02*
G01*
X174753549Y-113740022D01*
X174776791Y-113745844D01*
X174799350Y-113753916D01*
X174821010Y-113764160D01*
X174841560Y-113776478D01*
X174860805Y-113790750D01*
X174878558Y-113806841D01*
X175276872Y-114205155D01*
X175292963Y-114222908D01*
X175307235Y-114242153D01*
X175319553Y-114262703D01*
X175329797Y-114284363D01*
X175337869Y-114306922D01*
X175343691Y-114330164D01*
X175347206Y-114353864D01*
X175348382Y-114377795D01*
X175347206Y-114401726D01*
X175343691Y-114425426D01*
X175337869Y-114448668D01*
X175329797Y-114471227D01*
X175319553Y-114492887D01*
X175307235Y-114513437D01*
X175292963Y-114532682D01*
X175276872Y-114550435D01*
X174931592Y-114895715D01*
X174913839Y-114911806D01*
X174894594Y-114926078D01*
X174874044Y-114938396D01*
X174852384Y-114948640D01*
X174829825Y-114956712D01*
X174806583Y-114962534D01*
X174782883Y-114966049D01*
X174758952Y-114967225D01*
X174735021Y-114966049D01*
X174711321Y-114962534D01*
X174688079Y-114956712D01*
X174665520Y-114948640D01*
X174643860Y-114938396D01*
X174623310Y-114926078D01*
X174604065Y-114911806D01*
X174586312Y-114895715D01*
X174187998Y-114497401D01*
X174171907Y-114479648D01*
X174157635Y-114460403D01*
X174145317Y-114439853D01*
X174135073Y-114418193D01*
X174127001Y-114395634D01*
X174121179Y-114372392D01*
X174117664Y-114348692D01*
X174116488Y-114324761D01*
X174117664Y-114300830D01*
X174121179Y-114277130D01*
X174127001Y-114253888D01*
X174135073Y-114231329D01*
X174145317Y-114209669D01*
X174157635Y-114189119D01*
X174171907Y-114169874D01*
X174187998Y-114152121D01*
X174533278Y-113806841D01*
X174551031Y-113790750D01*
X174570276Y-113776478D01*
X174590826Y-113764160D01*
X174612486Y-113753916D01*
X174635045Y-113745844D01*
X174658287Y-113740022D01*
X174681987Y-113736507D01*
X174705918Y-113735331D01*
X174729849Y-113736507D01*
X174729849Y-113736507D01*
G37*
D14*
X174732435Y-114351278D03*
D13*
G36*
X175843543Y-112622813D02*
G01*
X175867243Y-112626328D01*
X175890485Y-112632150D01*
X175913044Y-112640222D01*
X175934704Y-112650466D01*
X175955254Y-112662784D01*
X175974499Y-112677056D01*
X175992252Y-112693147D01*
X176390566Y-113091461D01*
X176406657Y-113109214D01*
X176420929Y-113128459D01*
X176433247Y-113149009D01*
X176443491Y-113170669D01*
X176451563Y-113193228D01*
X176457385Y-113216470D01*
X176460900Y-113240170D01*
X176462076Y-113264101D01*
X176460900Y-113288032D01*
X176457385Y-113311732D01*
X176451563Y-113334974D01*
X176443491Y-113357533D01*
X176433247Y-113379193D01*
X176420929Y-113399743D01*
X176406657Y-113418988D01*
X176390566Y-113436741D01*
X176045286Y-113782021D01*
X176027533Y-113798112D01*
X176008288Y-113812384D01*
X175987738Y-113824702D01*
X175966078Y-113834946D01*
X175943519Y-113843018D01*
X175920277Y-113848840D01*
X175896577Y-113852355D01*
X175872646Y-113853531D01*
X175848715Y-113852355D01*
X175825015Y-113848840D01*
X175801773Y-113843018D01*
X175779214Y-113834946D01*
X175757554Y-113824702D01*
X175737004Y-113812384D01*
X175717759Y-113798112D01*
X175700006Y-113782021D01*
X175301692Y-113383707D01*
X175285601Y-113365954D01*
X175271329Y-113346709D01*
X175259011Y-113326159D01*
X175248767Y-113304499D01*
X175240695Y-113281940D01*
X175234873Y-113258698D01*
X175231358Y-113234998D01*
X175230182Y-113211067D01*
X175231358Y-113187136D01*
X175234873Y-113163436D01*
X175240695Y-113140194D01*
X175248767Y-113117635D01*
X175259011Y-113095975D01*
X175271329Y-113075425D01*
X175285601Y-113056180D01*
X175301692Y-113038427D01*
X175646972Y-112693147D01*
X175664725Y-112677056D01*
X175683970Y-112662784D01*
X175704520Y-112650466D01*
X175726180Y-112640222D01*
X175748739Y-112632150D01*
X175771981Y-112626328D01*
X175795681Y-112622813D01*
X175819612Y-112621637D01*
X175843543Y-112622813D01*
X175843543Y-112622813D01*
G37*
D14*
X175846129Y-113237584D03*
D13*
G36*
X135508280Y-100443548D02*
G01*
X135531980Y-100447063D01*
X135555222Y-100452885D01*
X135577781Y-100460957D01*
X135599441Y-100471201D01*
X135619991Y-100483519D01*
X135639236Y-100497791D01*
X135656989Y-100513882D01*
X135673080Y-100531635D01*
X135687352Y-100550880D01*
X135699670Y-100571430D01*
X135709914Y-100593090D01*
X135717986Y-100615649D01*
X135723808Y-100638891D01*
X135727323Y-100662591D01*
X135728499Y-100686522D01*
X135728499Y-101174822D01*
X135727323Y-101198753D01*
X135723808Y-101222453D01*
X135717986Y-101245695D01*
X135709914Y-101268254D01*
X135699670Y-101289914D01*
X135687352Y-101310464D01*
X135673080Y-101329709D01*
X135656989Y-101347462D01*
X135639236Y-101363553D01*
X135619991Y-101377825D01*
X135599441Y-101390143D01*
X135577781Y-101400387D01*
X135555222Y-101408459D01*
X135531980Y-101414281D01*
X135508280Y-101417796D01*
X135484349Y-101418972D01*
X134921049Y-101418972D01*
X134897118Y-101417796D01*
X134873418Y-101414281D01*
X134850176Y-101408459D01*
X134827617Y-101400387D01*
X134805957Y-101390143D01*
X134785407Y-101377825D01*
X134766162Y-101363553D01*
X134748409Y-101347462D01*
X134732318Y-101329709D01*
X134718046Y-101310464D01*
X134705728Y-101289914D01*
X134695484Y-101268254D01*
X134687412Y-101245695D01*
X134681590Y-101222453D01*
X134678075Y-101198753D01*
X134676899Y-101174822D01*
X134676899Y-100686522D01*
X134678075Y-100662591D01*
X134681590Y-100638891D01*
X134687412Y-100615649D01*
X134695484Y-100593090D01*
X134705728Y-100571430D01*
X134718046Y-100550880D01*
X134732318Y-100531635D01*
X134748409Y-100513882D01*
X134766162Y-100497791D01*
X134785407Y-100483519D01*
X134805957Y-100471201D01*
X134827617Y-100460957D01*
X134850176Y-100452885D01*
X134873418Y-100447063D01*
X134897118Y-100443548D01*
X134921049Y-100442372D01*
X135484349Y-100442372D01*
X135508280Y-100443548D01*
X135508280Y-100443548D01*
G37*
D14*
X135202699Y-100930672D03*
D13*
G36*
X135508280Y-98868548D02*
G01*
X135531980Y-98872063D01*
X135555222Y-98877885D01*
X135577781Y-98885957D01*
X135599441Y-98896201D01*
X135619991Y-98908519D01*
X135639236Y-98922791D01*
X135656989Y-98938882D01*
X135673080Y-98956635D01*
X135687352Y-98975880D01*
X135699670Y-98996430D01*
X135709914Y-99018090D01*
X135717986Y-99040649D01*
X135723808Y-99063891D01*
X135727323Y-99087591D01*
X135728499Y-99111522D01*
X135728499Y-99599822D01*
X135727323Y-99623753D01*
X135723808Y-99647453D01*
X135717986Y-99670695D01*
X135709914Y-99693254D01*
X135699670Y-99714914D01*
X135687352Y-99735464D01*
X135673080Y-99754709D01*
X135656989Y-99772462D01*
X135639236Y-99788553D01*
X135619991Y-99802825D01*
X135599441Y-99815143D01*
X135577781Y-99825387D01*
X135555222Y-99833459D01*
X135531980Y-99839281D01*
X135508280Y-99842796D01*
X135484349Y-99843972D01*
X134921049Y-99843972D01*
X134897118Y-99842796D01*
X134873418Y-99839281D01*
X134850176Y-99833459D01*
X134827617Y-99825387D01*
X134805957Y-99815143D01*
X134785407Y-99802825D01*
X134766162Y-99788553D01*
X134748409Y-99772462D01*
X134732318Y-99754709D01*
X134718046Y-99735464D01*
X134705728Y-99714914D01*
X134695484Y-99693254D01*
X134687412Y-99670695D01*
X134681590Y-99647453D01*
X134678075Y-99623753D01*
X134676899Y-99599822D01*
X134676899Y-99111522D01*
X134678075Y-99087591D01*
X134681590Y-99063891D01*
X134687412Y-99040649D01*
X134695484Y-99018090D01*
X134705728Y-98996430D01*
X134718046Y-98975880D01*
X134732318Y-98956635D01*
X134748409Y-98938882D01*
X134766162Y-98922791D01*
X134785407Y-98908519D01*
X134805957Y-98896201D01*
X134827617Y-98885957D01*
X134850176Y-98877885D01*
X134873418Y-98872063D01*
X134897118Y-98868548D01*
X134921049Y-98867372D01*
X135484349Y-98867372D01*
X135508280Y-98868548D01*
X135508280Y-98868548D01*
G37*
D14*
X135202699Y-99355672D03*
D20*
X175013510Y-99822001D03*
D21*
X175154931Y-99680580D02*
X174872089Y-99963422D01*
D20*
X171591113Y-96399605D03*
D21*
X171732534Y-96258184D02*
X171449692Y-96541026D01*
D17*
X177354033Y-97919884D03*
D18*
X177477777Y-97796140D02*
X177230289Y-98043628D01*
D17*
X173493230Y-94059081D03*
D18*
X173616974Y-93935337D02*
X173369486Y-94182825D01*
D22*
X133662699Y-100463173D03*
X133662699Y-102363173D03*
X131662699Y-101413173D03*
X144563371Y-85025226D03*
X146563371Y-85975226D03*
X146563371Y-84075226D03*
D23*
X142253699Y-89491173D03*
X144153699Y-89491173D03*
X143203699Y-91491173D03*
D24*
X166104672Y-112529417D03*
D13*
G36*
X165431789Y-112494062D02*
G01*
X166069317Y-111856534D01*
X166777555Y-112564772D01*
X166140027Y-113202300D01*
X165431789Y-112494062D01*
X165431789Y-112494062D01*
G37*
D24*
X165362210Y-110443452D03*
D13*
G36*
X164689327Y-110408097D02*
G01*
X165326855Y-109770569D01*
X166035093Y-110478807D01*
X165397565Y-111116335D01*
X164689327Y-110408097D01*
X164689327Y-110408097D01*
G37*
D24*
X164018707Y-111786955D03*
D13*
G36*
X163345824Y-111751600D02*
G01*
X163983352Y-111114072D01*
X164691590Y-111822310D01*
X164054062Y-112459838D01*
X163345824Y-111751600D01*
X163345824Y-111751600D01*
G37*
D24*
X172623489Y-112853979D03*
D13*
G36*
X172658844Y-112181096D02*
G01*
X173296372Y-112818624D01*
X172588134Y-113526862D01*
X171950606Y-112889334D01*
X172658844Y-112181096D01*
X172658844Y-112181096D01*
G37*
D24*
X174709454Y-112111517D03*
D13*
G36*
X174744809Y-111438634D02*
G01*
X175382337Y-112076162D01*
X174674099Y-112784400D01*
X174036571Y-112146872D01*
X174744809Y-111438634D01*
X174744809Y-111438634D01*
G37*
D24*
X173365951Y-110768014D03*
D13*
G36*
X173401306Y-110095131D02*
G01*
X174038834Y-110732659D01*
X173330596Y-111440897D01*
X172693068Y-110803369D01*
X173401306Y-110095131D01*
X173401306Y-110095131D01*
G37*
G36*
X145265267Y-87050995D02*
G01*
X145288967Y-87054510D01*
X145312209Y-87060332D01*
X145334768Y-87068404D01*
X145356428Y-87078648D01*
X145376978Y-87090966D01*
X145396223Y-87105238D01*
X145413976Y-87121329D01*
X145430067Y-87139082D01*
X145444339Y-87158327D01*
X145456657Y-87178877D01*
X145466901Y-87200537D01*
X145474973Y-87223096D01*
X145480795Y-87246338D01*
X145484310Y-87270038D01*
X145485486Y-87293969D01*
X145485486Y-87857269D01*
X145484310Y-87881200D01*
X145480795Y-87904900D01*
X145474973Y-87928142D01*
X145466901Y-87950701D01*
X145456657Y-87972361D01*
X145444339Y-87992911D01*
X145430067Y-88012156D01*
X145413976Y-88029909D01*
X145396223Y-88046000D01*
X145376978Y-88060272D01*
X145356428Y-88072590D01*
X145334768Y-88082834D01*
X145312209Y-88090906D01*
X145288967Y-88096728D01*
X145265267Y-88100243D01*
X145241336Y-88101419D01*
X144753036Y-88101419D01*
X144729105Y-88100243D01*
X144705405Y-88096728D01*
X144682163Y-88090906D01*
X144659604Y-88082834D01*
X144637944Y-88072590D01*
X144617394Y-88060272D01*
X144598149Y-88046000D01*
X144580396Y-88029909D01*
X144564305Y-88012156D01*
X144550033Y-87992911D01*
X144537715Y-87972361D01*
X144527471Y-87950701D01*
X144519399Y-87928142D01*
X144513577Y-87904900D01*
X144510062Y-87881200D01*
X144508886Y-87857269D01*
X144508886Y-87293969D01*
X144510062Y-87270038D01*
X144513577Y-87246338D01*
X144519399Y-87223096D01*
X144527471Y-87200537D01*
X144537715Y-87178877D01*
X144550033Y-87158327D01*
X144564305Y-87139082D01*
X144580396Y-87121329D01*
X144598149Y-87105238D01*
X144617394Y-87090966D01*
X144637944Y-87078648D01*
X144659604Y-87068404D01*
X144682163Y-87060332D01*
X144705405Y-87054510D01*
X144729105Y-87050995D01*
X144753036Y-87049819D01*
X145241336Y-87049819D01*
X145265267Y-87050995D01*
X145265267Y-87050995D01*
G37*
D14*
X144997186Y-87575619D03*
D13*
G36*
X146840267Y-87050995D02*
G01*
X146863967Y-87054510D01*
X146887209Y-87060332D01*
X146909768Y-87068404D01*
X146931428Y-87078648D01*
X146951978Y-87090966D01*
X146971223Y-87105238D01*
X146988976Y-87121329D01*
X147005067Y-87139082D01*
X147019339Y-87158327D01*
X147031657Y-87178877D01*
X147041901Y-87200537D01*
X147049973Y-87223096D01*
X147055795Y-87246338D01*
X147059310Y-87270038D01*
X147060486Y-87293969D01*
X147060486Y-87857269D01*
X147059310Y-87881200D01*
X147055795Y-87904900D01*
X147049973Y-87928142D01*
X147041901Y-87950701D01*
X147031657Y-87972361D01*
X147019339Y-87992911D01*
X147005067Y-88012156D01*
X146988976Y-88029909D01*
X146971223Y-88046000D01*
X146951978Y-88060272D01*
X146931428Y-88072590D01*
X146909768Y-88082834D01*
X146887209Y-88090906D01*
X146863967Y-88096728D01*
X146840267Y-88100243D01*
X146816336Y-88101419D01*
X146328036Y-88101419D01*
X146304105Y-88100243D01*
X146280405Y-88096728D01*
X146257163Y-88090906D01*
X146234604Y-88082834D01*
X146212944Y-88072590D01*
X146192394Y-88060272D01*
X146173149Y-88046000D01*
X146155396Y-88029909D01*
X146139305Y-88012156D01*
X146125033Y-87992911D01*
X146112715Y-87972361D01*
X146102471Y-87950701D01*
X146094399Y-87928142D01*
X146088577Y-87904900D01*
X146085062Y-87881200D01*
X146083886Y-87857269D01*
X146083886Y-87293969D01*
X146085062Y-87270038D01*
X146088577Y-87246338D01*
X146094399Y-87223096D01*
X146102471Y-87200537D01*
X146112715Y-87178877D01*
X146125033Y-87158327D01*
X146139305Y-87139082D01*
X146155396Y-87121329D01*
X146173149Y-87105238D01*
X146192394Y-87090966D01*
X146212944Y-87078648D01*
X146234604Y-87068404D01*
X146257163Y-87060332D01*
X146280405Y-87054510D01*
X146304105Y-87050995D01*
X146328036Y-87049819D01*
X146816336Y-87049819D01*
X146840267Y-87050995D01*
X146840267Y-87050995D01*
G37*
D14*
X146572186Y-87575619D03*
D13*
G36*
X130809280Y-96811049D02*
G01*
X130832980Y-96814564D01*
X130856222Y-96820386D01*
X130878781Y-96828458D01*
X130900441Y-96838702D01*
X130920991Y-96851020D01*
X130940236Y-96865292D01*
X130957989Y-96881383D01*
X130974080Y-96899136D01*
X130988352Y-96918381D01*
X131000670Y-96938931D01*
X131010914Y-96960591D01*
X131018986Y-96983150D01*
X131024808Y-97006392D01*
X131028323Y-97030092D01*
X131029499Y-97054023D01*
X131029499Y-97542323D01*
X131028323Y-97566254D01*
X131024808Y-97589954D01*
X131018986Y-97613196D01*
X131010914Y-97635755D01*
X131000670Y-97657415D01*
X130988352Y-97677965D01*
X130974080Y-97697210D01*
X130957989Y-97714963D01*
X130940236Y-97731054D01*
X130920991Y-97745326D01*
X130900441Y-97757644D01*
X130878781Y-97767888D01*
X130856222Y-97775960D01*
X130832980Y-97781782D01*
X130809280Y-97785297D01*
X130785349Y-97786473D01*
X130222049Y-97786473D01*
X130198118Y-97785297D01*
X130174418Y-97781782D01*
X130151176Y-97775960D01*
X130128617Y-97767888D01*
X130106957Y-97757644D01*
X130086407Y-97745326D01*
X130067162Y-97731054D01*
X130049409Y-97714963D01*
X130033318Y-97697210D01*
X130019046Y-97677965D01*
X130006728Y-97657415D01*
X129996484Y-97635755D01*
X129988412Y-97613196D01*
X129982590Y-97589954D01*
X129979075Y-97566254D01*
X129977899Y-97542323D01*
X129977899Y-97054023D01*
X129979075Y-97030092D01*
X129982590Y-97006392D01*
X129988412Y-96983150D01*
X129996484Y-96960591D01*
X130006728Y-96938931D01*
X130019046Y-96918381D01*
X130033318Y-96899136D01*
X130049409Y-96881383D01*
X130067162Y-96865292D01*
X130086407Y-96851020D01*
X130106957Y-96838702D01*
X130128617Y-96828458D01*
X130151176Y-96820386D01*
X130174418Y-96814564D01*
X130198118Y-96811049D01*
X130222049Y-96809873D01*
X130785349Y-96809873D01*
X130809280Y-96811049D01*
X130809280Y-96811049D01*
G37*
D14*
X130503699Y-97298173D03*
D13*
G36*
X130809280Y-98386049D02*
G01*
X130832980Y-98389564D01*
X130856222Y-98395386D01*
X130878781Y-98403458D01*
X130900441Y-98413702D01*
X130920991Y-98426020D01*
X130940236Y-98440292D01*
X130957989Y-98456383D01*
X130974080Y-98474136D01*
X130988352Y-98493381D01*
X131000670Y-98513931D01*
X131010914Y-98535591D01*
X131018986Y-98558150D01*
X131024808Y-98581392D01*
X131028323Y-98605092D01*
X131029499Y-98629023D01*
X131029499Y-99117323D01*
X131028323Y-99141254D01*
X131024808Y-99164954D01*
X131018986Y-99188196D01*
X131010914Y-99210755D01*
X131000670Y-99232415D01*
X130988352Y-99252965D01*
X130974080Y-99272210D01*
X130957989Y-99289963D01*
X130940236Y-99306054D01*
X130920991Y-99320326D01*
X130900441Y-99332644D01*
X130878781Y-99342888D01*
X130856222Y-99350960D01*
X130832980Y-99356782D01*
X130809280Y-99360297D01*
X130785349Y-99361473D01*
X130222049Y-99361473D01*
X130198118Y-99360297D01*
X130174418Y-99356782D01*
X130151176Y-99350960D01*
X130128617Y-99342888D01*
X130106957Y-99332644D01*
X130086407Y-99320326D01*
X130067162Y-99306054D01*
X130049409Y-99289963D01*
X130033318Y-99272210D01*
X130019046Y-99252965D01*
X130006728Y-99232415D01*
X129996484Y-99210755D01*
X129988412Y-99188196D01*
X129982590Y-99164954D01*
X129979075Y-99141254D01*
X129977899Y-99117323D01*
X129977899Y-98629023D01*
X129979075Y-98605092D01*
X129982590Y-98581392D01*
X129988412Y-98558150D01*
X129996484Y-98535591D01*
X130006728Y-98513931D01*
X130019046Y-98493381D01*
X130033318Y-98474136D01*
X130049409Y-98456383D01*
X130067162Y-98440292D01*
X130086407Y-98426020D01*
X130106957Y-98413702D01*
X130128617Y-98403458D01*
X130151176Y-98395386D01*
X130174418Y-98389564D01*
X130198118Y-98386049D01*
X130222049Y-98384873D01*
X130785349Y-98384873D01*
X130809280Y-98386049D01*
X130809280Y-98386049D01*
G37*
D14*
X130503699Y-98873173D03*
D13*
G36*
X133972280Y-98348549D02*
G01*
X133995980Y-98352064D01*
X134019222Y-98357886D01*
X134041781Y-98365958D01*
X134063441Y-98376202D01*
X134083991Y-98388520D01*
X134103236Y-98402792D01*
X134120989Y-98418883D01*
X134137080Y-98436636D01*
X134151352Y-98455881D01*
X134163670Y-98476431D01*
X134173914Y-98498091D01*
X134181986Y-98520650D01*
X134187808Y-98543892D01*
X134191323Y-98567592D01*
X134192499Y-98591523D01*
X134192499Y-99154823D01*
X134191323Y-99178754D01*
X134187808Y-99202454D01*
X134181986Y-99225696D01*
X134173914Y-99248255D01*
X134163670Y-99269915D01*
X134151352Y-99290465D01*
X134137080Y-99309710D01*
X134120989Y-99327463D01*
X134103236Y-99343554D01*
X134083991Y-99357826D01*
X134063441Y-99370144D01*
X134041781Y-99380388D01*
X134019222Y-99388460D01*
X133995980Y-99394282D01*
X133972280Y-99397797D01*
X133948349Y-99398973D01*
X133460049Y-99398973D01*
X133436118Y-99397797D01*
X133412418Y-99394282D01*
X133389176Y-99388460D01*
X133366617Y-99380388D01*
X133344957Y-99370144D01*
X133324407Y-99357826D01*
X133305162Y-99343554D01*
X133287409Y-99327463D01*
X133271318Y-99309710D01*
X133257046Y-99290465D01*
X133244728Y-99269915D01*
X133234484Y-99248255D01*
X133226412Y-99225696D01*
X133220590Y-99202454D01*
X133217075Y-99178754D01*
X133215899Y-99154823D01*
X133215899Y-98591523D01*
X133217075Y-98567592D01*
X133220590Y-98543892D01*
X133226412Y-98520650D01*
X133234484Y-98498091D01*
X133244728Y-98476431D01*
X133257046Y-98455881D01*
X133271318Y-98436636D01*
X133287409Y-98418883D01*
X133305162Y-98402792D01*
X133324407Y-98388520D01*
X133344957Y-98376202D01*
X133366617Y-98365958D01*
X133389176Y-98357886D01*
X133412418Y-98352064D01*
X133436118Y-98348549D01*
X133460049Y-98347373D01*
X133948349Y-98347373D01*
X133972280Y-98348549D01*
X133972280Y-98348549D01*
G37*
D14*
X133704199Y-98873173D03*
D13*
G36*
X132397280Y-98348549D02*
G01*
X132420980Y-98352064D01*
X132444222Y-98357886D01*
X132466781Y-98365958D01*
X132488441Y-98376202D01*
X132508991Y-98388520D01*
X132528236Y-98402792D01*
X132545989Y-98418883D01*
X132562080Y-98436636D01*
X132576352Y-98455881D01*
X132588670Y-98476431D01*
X132598914Y-98498091D01*
X132606986Y-98520650D01*
X132612808Y-98543892D01*
X132616323Y-98567592D01*
X132617499Y-98591523D01*
X132617499Y-99154823D01*
X132616323Y-99178754D01*
X132612808Y-99202454D01*
X132606986Y-99225696D01*
X132598914Y-99248255D01*
X132588670Y-99269915D01*
X132576352Y-99290465D01*
X132562080Y-99309710D01*
X132545989Y-99327463D01*
X132528236Y-99343554D01*
X132508991Y-99357826D01*
X132488441Y-99370144D01*
X132466781Y-99380388D01*
X132444222Y-99388460D01*
X132420980Y-99394282D01*
X132397280Y-99397797D01*
X132373349Y-99398973D01*
X131885049Y-99398973D01*
X131861118Y-99397797D01*
X131837418Y-99394282D01*
X131814176Y-99388460D01*
X131791617Y-99380388D01*
X131769957Y-99370144D01*
X131749407Y-99357826D01*
X131730162Y-99343554D01*
X131712409Y-99327463D01*
X131696318Y-99309710D01*
X131682046Y-99290465D01*
X131669728Y-99269915D01*
X131659484Y-99248255D01*
X131651412Y-99225696D01*
X131645590Y-99202454D01*
X131642075Y-99178754D01*
X131640899Y-99154823D01*
X131640899Y-98591523D01*
X131642075Y-98567592D01*
X131645590Y-98543892D01*
X131651412Y-98520650D01*
X131659484Y-98498091D01*
X131669728Y-98476431D01*
X131682046Y-98455881D01*
X131696318Y-98436636D01*
X131712409Y-98418883D01*
X131730162Y-98402792D01*
X131749407Y-98388520D01*
X131769957Y-98376202D01*
X131791617Y-98365958D01*
X131814176Y-98357886D01*
X131837418Y-98352064D01*
X131861118Y-98348549D01*
X131885049Y-98347373D01*
X132373349Y-98347373D01*
X132397280Y-98348549D01*
X132397280Y-98348549D01*
G37*
D14*
X132129199Y-98873173D03*
D13*
G36*
X143378229Y-84020010D02*
G01*
X143401929Y-84023525D01*
X143425171Y-84029347D01*
X143447730Y-84037419D01*
X143469390Y-84047663D01*
X143489940Y-84059981D01*
X143509185Y-84074253D01*
X143526938Y-84090344D01*
X143543029Y-84108097D01*
X143557301Y-84127342D01*
X143569619Y-84147892D01*
X143579863Y-84169552D01*
X143587935Y-84192111D01*
X143593757Y-84215353D01*
X143597272Y-84239053D01*
X143598448Y-84262984D01*
X143598448Y-84751284D01*
X143597272Y-84775215D01*
X143593757Y-84798915D01*
X143587935Y-84822157D01*
X143579863Y-84844716D01*
X143569619Y-84866376D01*
X143557301Y-84886926D01*
X143543029Y-84906171D01*
X143526938Y-84923924D01*
X143509185Y-84940015D01*
X143489940Y-84954287D01*
X143469390Y-84966605D01*
X143447730Y-84976849D01*
X143425171Y-84984921D01*
X143401929Y-84990743D01*
X143378229Y-84994258D01*
X143354298Y-84995434D01*
X142790998Y-84995434D01*
X142767067Y-84994258D01*
X142743367Y-84990743D01*
X142720125Y-84984921D01*
X142697566Y-84976849D01*
X142675906Y-84966605D01*
X142655356Y-84954287D01*
X142636111Y-84940015D01*
X142618358Y-84923924D01*
X142602267Y-84906171D01*
X142587995Y-84886926D01*
X142575677Y-84866376D01*
X142565433Y-84844716D01*
X142557361Y-84822157D01*
X142551539Y-84798915D01*
X142548024Y-84775215D01*
X142546848Y-84751284D01*
X142546848Y-84262984D01*
X142548024Y-84239053D01*
X142551539Y-84215353D01*
X142557361Y-84192111D01*
X142565433Y-84169552D01*
X142575677Y-84147892D01*
X142587995Y-84127342D01*
X142602267Y-84108097D01*
X142618358Y-84090344D01*
X142636111Y-84074253D01*
X142655356Y-84059981D01*
X142675906Y-84047663D01*
X142697566Y-84037419D01*
X142720125Y-84029347D01*
X142743367Y-84023525D01*
X142767067Y-84020010D01*
X142790998Y-84018834D01*
X143354298Y-84018834D01*
X143378229Y-84020010D01*
X143378229Y-84020010D01*
G37*
D14*
X143072648Y-84507134D03*
D13*
G36*
X143378229Y-85595010D02*
G01*
X143401929Y-85598525D01*
X143425171Y-85604347D01*
X143447730Y-85612419D01*
X143469390Y-85622663D01*
X143489940Y-85634981D01*
X143509185Y-85649253D01*
X143526938Y-85665344D01*
X143543029Y-85683097D01*
X143557301Y-85702342D01*
X143569619Y-85722892D01*
X143579863Y-85744552D01*
X143587935Y-85767111D01*
X143593757Y-85790353D01*
X143597272Y-85814053D01*
X143598448Y-85837984D01*
X143598448Y-86326284D01*
X143597272Y-86350215D01*
X143593757Y-86373915D01*
X143587935Y-86397157D01*
X143579863Y-86419716D01*
X143569619Y-86441376D01*
X143557301Y-86461926D01*
X143543029Y-86481171D01*
X143526938Y-86498924D01*
X143509185Y-86515015D01*
X143489940Y-86529287D01*
X143469390Y-86541605D01*
X143447730Y-86551849D01*
X143425171Y-86559921D01*
X143401929Y-86565743D01*
X143378229Y-86569258D01*
X143354298Y-86570434D01*
X142790998Y-86570434D01*
X142767067Y-86569258D01*
X142743367Y-86565743D01*
X142720125Y-86559921D01*
X142697566Y-86551849D01*
X142675906Y-86541605D01*
X142655356Y-86529287D01*
X142636111Y-86515015D01*
X142618358Y-86498924D01*
X142602267Y-86481171D01*
X142587995Y-86461926D01*
X142575677Y-86441376D01*
X142565433Y-86419716D01*
X142557361Y-86397157D01*
X142551539Y-86373915D01*
X142548024Y-86350215D01*
X142546848Y-86326284D01*
X142546848Y-85837984D01*
X142548024Y-85814053D01*
X142551539Y-85790353D01*
X142557361Y-85767111D01*
X142565433Y-85744552D01*
X142575677Y-85722892D01*
X142587995Y-85702342D01*
X142602267Y-85683097D01*
X142618358Y-85665344D01*
X142636111Y-85649253D01*
X142655356Y-85634981D01*
X142675906Y-85622663D01*
X142697566Y-85612419D01*
X142720125Y-85604347D01*
X142743367Y-85598525D01*
X142767067Y-85595010D01*
X142790998Y-85593834D01*
X143354298Y-85593834D01*
X143378229Y-85595010D01*
X143378229Y-85595010D01*
G37*
D14*
X143072648Y-86082134D03*
D13*
G36*
X149500924Y-93388804D02*
G01*
X149524624Y-93392319D01*
X149547866Y-93398141D01*
X149570425Y-93406213D01*
X149592085Y-93416457D01*
X149612635Y-93428775D01*
X149631880Y-93443047D01*
X149649633Y-93459138D01*
X149665724Y-93476891D01*
X149679996Y-93496136D01*
X149692314Y-93516686D01*
X149702558Y-93538346D01*
X149710630Y-93560905D01*
X149716452Y-93584147D01*
X149719967Y-93607847D01*
X149721143Y-93631778D01*
X149721143Y-94195078D01*
X149719967Y-94219009D01*
X149716452Y-94242709D01*
X149710630Y-94265951D01*
X149702558Y-94288510D01*
X149692314Y-94310170D01*
X149679996Y-94330720D01*
X149665724Y-94349965D01*
X149649633Y-94367718D01*
X149631880Y-94383809D01*
X149612635Y-94398081D01*
X149592085Y-94410399D01*
X149570425Y-94420643D01*
X149547866Y-94428715D01*
X149524624Y-94434537D01*
X149500924Y-94438052D01*
X149476993Y-94439228D01*
X148988693Y-94439228D01*
X148964762Y-94438052D01*
X148941062Y-94434537D01*
X148917820Y-94428715D01*
X148895261Y-94420643D01*
X148873601Y-94410399D01*
X148853051Y-94398081D01*
X148833806Y-94383809D01*
X148816053Y-94367718D01*
X148799962Y-94349965D01*
X148785690Y-94330720D01*
X148773372Y-94310170D01*
X148763128Y-94288510D01*
X148755056Y-94265951D01*
X148749234Y-94242709D01*
X148745719Y-94219009D01*
X148744543Y-94195078D01*
X148744543Y-93631778D01*
X148745719Y-93607847D01*
X148749234Y-93584147D01*
X148755056Y-93560905D01*
X148763128Y-93538346D01*
X148773372Y-93516686D01*
X148785690Y-93496136D01*
X148799962Y-93476891D01*
X148816053Y-93459138D01*
X148833806Y-93443047D01*
X148853051Y-93428775D01*
X148873601Y-93416457D01*
X148895261Y-93406213D01*
X148917820Y-93398141D01*
X148941062Y-93392319D01*
X148964762Y-93388804D01*
X148988693Y-93387628D01*
X149476993Y-93387628D01*
X149500924Y-93388804D01*
X149500924Y-93388804D01*
G37*
D14*
X149232843Y-93913428D03*
D13*
G36*
X147925924Y-93388804D02*
G01*
X147949624Y-93392319D01*
X147972866Y-93398141D01*
X147995425Y-93406213D01*
X148017085Y-93416457D01*
X148037635Y-93428775D01*
X148056880Y-93443047D01*
X148074633Y-93459138D01*
X148090724Y-93476891D01*
X148104996Y-93496136D01*
X148117314Y-93516686D01*
X148127558Y-93538346D01*
X148135630Y-93560905D01*
X148141452Y-93584147D01*
X148144967Y-93607847D01*
X148146143Y-93631778D01*
X148146143Y-94195078D01*
X148144967Y-94219009D01*
X148141452Y-94242709D01*
X148135630Y-94265951D01*
X148127558Y-94288510D01*
X148117314Y-94310170D01*
X148104996Y-94330720D01*
X148090724Y-94349965D01*
X148074633Y-94367718D01*
X148056880Y-94383809D01*
X148037635Y-94398081D01*
X148017085Y-94410399D01*
X147995425Y-94420643D01*
X147972866Y-94428715D01*
X147949624Y-94434537D01*
X147925924Y-94438052D01*
X147901993Y-94439228D01*
X147413693Y-94439228D01*
X147389762Y-94438052D01*
X147366062Y-94434537D01*
X147342820Y-94428715D01*
X147320261Y-94420643D01*
X147298601Y-94410399D01*
X147278051Y-94398081D01*
X147258806Y-94383809D01*
X147241053Y-94367718D01*
X147224962Y-94349965D01*
X147210690Y-94330720D01*
X147198372Y-94310170D01*
X147188128Y-94288510D01*
X147180056Y-94265951D01*
X147174234Y-94242709D01*
X147170719Y-94219009D01*
X147169543Y-94195078D01*
X147169543Y-93631778D01*
X147170719Y-93607847D01*
X147174234Y-93584147D01*
X147180056Y-93560905D01*
X147188128Y-93538346D01*
X147198372Y-93516686D01*
X147210690Y-93496136D01*
X147224962Y-93476891D01*
X147241053Y-93459138D01*
X147258806Y-93443047D01*
X147278051Y-93428775D01*
X147298601Y-93416457D01*
X147320261Y-93406213D01*
X147342820Y-93398141D01*
X147366062Y-93392319D01*
X147389762Y-93388804D01*
X147413693Y-93387628D01*
X147901993Y-93387628D01*
X147925924Y-93388804D01*
X147925924Y-93388804D01*
G37*
D14*
X147657843Y-93913428D03*
D13*
G36*
X164047164Y-113434714D02*
G01*
X164070864Y-113438229D01*
X164094106Y-113444051D01*
X164116665Y-113452123D01*
X164138325Y-113462367D01*
X164158875Y-113474685D01*
X164178120Y-113488957D01*
X164195873Y-113505048D01*
X164541153Y-113850328D01*
X164557244Y-113868081D01*
X164571516Y-113887326D01*
X164583834Y-113907876D01*
X164594078Y-113929536D01*
X164602150Y-113952095D01*
X164607972Y-113975337D01*
X164611487Y-113999037D01*
X164612663Y-114022968D01*
X164611487Y-114046899D01*
X164607972Y-114070599D01*
X164602150Y-114093841D01*
X164594078Y-114116400D01*
X164583834Y-114138060D01*
X164571516Y-114158610D01*
X164557244Y-114177855D01*
X164541153Y-114195608D01*
X164142839Y-114593922D01*
X164125086Y-114610013D01*
X164105841Y-114624285D01*
X164085291Y-114636603D01*
X164063631Y-114646847D01*
X164041072Y-114654919D01*
X164017830Y-114660741D01*
X163994130Y-114664256D01*
X163970199Y-114665432D01*
X163946268Y-114664256D01*
X163922568Y-114660741D01*
X163899326Y-114654919D01*
X163876767Y-114646847D01*
X163855107Y-114636603D01*
X163834557Y-114624285D01*
X163815312Y-114610013D01*
X163797559Y-114593922D01*
X163452279Y-114248642D01*
X163436188Y-114230889D01*
X163421916Y-114211644D01*
X163409598Y-114191094D01*
X163399354Y-114169434D01*
X163391282Y-114146875D01*
X163385460Y-114123633D01*
X163381945Y-114099933D01*
X163380769Y-114076002D01*
X163381945Y-114052071D01*
X163385460Y-114028371D01*
X163391282Y-114005129D01*
X163399354Y-113982570D01*
X163409598Y-113960910D01*
X163421916Y-113940360D01*
X163436188Y-113921115D01*
X163452279Y-113903362D01*
X163850593Y-113505048D01*
X163868346Y-113488957D01*
X163887591Y-113474685D01*
X163908141Y-113462367D01*
X163929801Y-113452123D01*
X163952360Y-113444051D01*
X163975602Y-113438229D01*
X163999302Y-113434714D01*
X164023233Y-113433538D01*
X164047164Y-113434714D01*
X164047164Y-113434714D01*
G37*
D14*
X163996716Y-114049485D03*
D13*
G36*
X162933470Y-112321020D02*
G01*
X162957170Y-112324535D01*
X162980412Y-112330357D01*
X163002971Y-112338429D01*
X163024631Y-112348673D01*
X163045181Y-112360991D01*
X163064426Y-112375263D01*
X163082179Y-112391354D01*
X163427459Y-112736634D01*
X163443550Y-112754387D01*
X163457822Y-112773632D01*
X163470140Y-112794182D01*
X163480384Y-112815842D01*
X163488456Y-112838401D01*
X163494278Y-112861643D01*
X163497793Y-112885343D01*
X163498969Y-112909274D01*
X163497793Y-112933205D01*
X163494278Y-112956905D01*
X163488456Y-112980147D01*
X163480384Y-113002706D01*
X163470140Y-113024366D01*
X163457822Y-113044916D01*
X163443550Y-113064161D01*
X163427459Y-113081914D01*
X163029145Y-113480228D01*
X163011392Y-113496319D01*
X162992147Y-113510591D01*
X162971597Y-113522909D01*
X162949937Y-113533153D01*
X162927378Y-113541225D01*
X162904136Y-113547047D01*
X162880436Y-113550562D01*
X162856505Y-113551738D01*
X162832574Y-113550562D01*
X162808874Y-113547047D01*
X162785632Y-113541225D01*
X162763073Y-113533153D01*
X162741413Y-113522909D01*
X162720863Y-113510591D01*
X162701618Y-113496319D01*
X162683865Y-113480228D01*
X162338585Y-113134948D01*
X162322494Y-113117195D01*
X162308222Y-113097950D01*
X162295904Y-113077400D01*
X162285660Y-113055740D01*
X162277588Y-113033181D01*
X162271766Y-113009939D01*
X162268251Y-112986239D01*
X162267075Y-112962308D01*
X162268251Y-112938377D01*
X162271766Y-112914677D01*
X162277588Y-112891435D01*
X162285660Y-112868876D01*
X162295904Y-112847216D01*
X162308222Y-112826666D01*
X162322494Y-112807421D01*
X162338585Y-112789668D01*
X162736899Y-112391354D01*
X162754652Y-112375263D01*
X162773897Y-112360991D01*
X162794447Y-112348673D01*
X162816107Y-112338429D01*
X162838666Y-112330357D01*
X162861908Y-112324535D01*
X162885608Y-112321020D01*
X162909539Y-112319844D01*
X162933470Y-112321020D01*
X162933470Y-112321020D01*
G37*
D14*
X162883022Y-112935791D03*
D13*
G36*
X162125390Y-111010045D02*
G01*
X162149090Y-111013560D01*
X162172332Y-111019382D01*
X162194891Y-111027454D01*
X162216551Y-111037698D01*
X162237101Y-111050016D01*
X162256346Y-111064288D01*
X162274099Y-111080379D01*
X162619379Y-111425659D01*
X162635470Y-111443412D01*
X162649742Y-111462657D01*
X162662060Y-111483207D01*
X162672304Y-111504867D01*
X162680376Y-111527426D01*
X162686198Y-111550668D01*
X162689713Y-111574368D01*
X162690889Y-111598299D01*
X162689713Y-111622230D01*
X162686198Y-111645930D01*
X162680376Y-111669172D01*
X162672304Y-111691731D01*
X162662060Y-111713391D01*
X162649742Y-111733941D01*
X162635470Y-111753186D01*
X162619379Y-111770939D01*
X162221065Y-112169253D01*
X162203312Y-112185344D01*
X162184067Y-112199616D01*
X162163517Y-112211934D01*
X162141857Y-112222178D01*
X162119298Y-112230250D01*
X162096056Y-112236072D01*
X162072356Y-112239587D01*
X162048425Y-112240763D01*
X162024494Y-112239587D01*
X162000794Y-112236072D01*
X161977552Y-112230250D01*
X161954993Y-112222178D01*
X161933333Y-112211934D01*
X161912783Y-112199616D01*
X161893538Y-112185344D01*
X161875785Y-112169253D01*
X161530505Y-111823973D01*
X161514414Y-111806220D01*
X161500142Y-111786975D01*
X161487824Y-111766425D01*
X161477580Y-111744765D01*
X161469508Y-111722206D01*
X161463686Y-111698964D01*
X161460171Y-111675264D01*
X161458995Y-111651333D01*
X161460171Y-111627402D01*
X161463686Y-111603702D01*
X161469508Y-111580460D01*
X161477580Y-111557901D01*
X161487824Y-111536241D01*
X161500142Y-111515691D01*
X161514414Y-111496446D01*
X161530505Y-111478693D01*
X161928819Y-111080379D01*
X161946572Y-111064288D01*
X161965817Y-111050016D01*
X161986367Y-111037698D01*
X162008027Y-111027454D01*
X162030586Y-111019382D01*
X162053828Y-111013560D01*
X162077528Y-111010045D01*
X162101459Y-111008869D01*
X162125390Y-111010045D01*
X162125390Y-111010045D01*
G37*
D14*
X162074942Y-111624816D03*
D13*
G36*
X161011696Y-109896351D02*
G01*
X161035396Y-109899866D01*
X161058638Y-109905688D01*
X161081197Y-109913760D01*
X161102857Y-109924004D01*
X161123407Y-109936322D01*
X161142652Y-109950594D01*
X161160405Y-109966685D01*
X161505685Y-110311965D01*
X161521776Y-110329718D01*
X161536048Y-110348963D01*
X161548366Y-110369513D01*
X161558610Y-110391173D01*
X161566682Y-110413732D01*
X161572504Y-110436974D01*
X161576019Y-110460674D01*
X161577195Y-110484605D01*
X161576019Y-110508536D01*
X161572504Y-110532236D01*
X161566682Y-110555478D01*
X161558610Y-110578037D01*
X161548366Y-110599697D01*
X161536048Y-110620247D01*
X161521776Y-110639492D01*
X161505685Y-110657245D01*
X161107371Y-111055559D01*
X161089618Y-111071650D01*
X161070373Y-111085922D01*
X161049823Y-111098240D01*
X161028163Y-111108484D01*
X161005604Y-111116556D01*
X160982362Y-111122378D01*
X160958662Y-111125893D01*
X160934731Y-111127069D01*
X160910800Y-111125893D01*
X160887100Y-111122378D01*
X160863858Y-111116556D01*
X160841299Y-111108484D01*
X160819639Y-111098240D01*
X160799089Y-111085922D01*
X160779844Y-111071650D01*
X160762091Y-111055559D01*
X160416811Y-110710279D01*
X160400720Y-110692526D01*
X160386448Y-110673281D01*
X160374130Y-110652731D01*
X160363886Y-110631071D01*
X160355814Y-110608512D01*
X160349992Y-110585270D01*
X160346477Y-110561570D01*
X160345301Y-110537639D01*
X160346477Y-110513708D01*
X160349992Y-110490008D01*
X160355814Y-110466766D01*
X160363886Y-110444207D01*
X160374130Y-110422547D01*
X160386448Y-110401997D01*
X160400720Y-110382752D01*
X160416811Y-110364999D01*
X160815125Y-109966685D01*
X160832878Y-109950594D01*
X160852123Y-109936322D01*
X160872673Y-109924004D01*
X160894333Y-109913760D01*
X160916892Y-109905688D01*
X160940134Y-109899866D01*
X160963834Y-109896351D01*
X160987765Y-109895175D01*
X161011696Y-109896351D01*
X161011696Y-109896351D01*
G37*
D14*
X160961248Y-110511122D03*
D13*
G36*
X163238799Y-107669247D02*
G01*
X163262499Y-107672762D01*
X163285741Y-107678584D01*
X163308300Y-107686656D01*
X163329960Y-107696900D01*
X163350510Y-107709218D01*
X163369755Y-107723490D01*
X163387508Y-107739581D01*
X163732788Y-108084861D01*
X163748879Y-108102614D01*
X163763151Y-108121859D01*
X163775469Y-108142409D01*
X163785713Y-108164069D01*
X163793785Y-108186628D01*
X163799607Y-108209870D01*
X163803122Y-108233570D01*
X163804298Y-108257501D01*
X163803122Y-108281432D01*
X163799607Y-108305132D01*
X163793785Y-108328374D01*
X163785713Y-108350933D01*
X163775469Y-108372593D01*
X163763151Y-108393143D01*
X163748879Y-108412388D01*
X163732788Y-108430141D01*
X163334474Y-108828455D01*
X163316721Y-108844546D01*
X163297476Y-108858818D01*
X163276926Y-108871136D01*
X163255266Y-108881380D01*
X163232707Y-108889452D01*
X163209465Y-108895274D01*
X163185765Y-108898789D01*
X163161834Y-108899965D01*
X163137903Y-108898789D01*
X163114203Y-108895274D01*
X163090961Y-108889452D01*
X163068402Y-108881380D01*
X163046742Y-108871136D01*
X163026192Y-108858818D01*
X163006947Y-108844546D01*
X162989194Y-108828455D01*
X162643914Y-108483175D01*
X162627823Y-108465422D01*
X162613551Y-108446177D01*
X162601233Y-108425627D01*
X162590989Y-108403967D01*
X162582917Y-108381408D01*
X162577095Y-108358166D01*
X162573580Y-108334466D01*
X162572404Y-108310535D01*
X162573580Y-108286604D01*
X162577095Y-108262904D01*
X162582917Y-108239662D01*
X162590989Y-108217103D01*
X162601233Y-108195443D01*
X162613551Y-108174893D01*
X162627823Y-108155648D01*
X162643914Y-108137895D01*
X163042228Y-107739581D01*
X163059981Y-107723490D01*
X163079226Y-107709218D01*
X163099776Y-107696900D01*
X163121436Y-107686656D01*
X163143995Y-107678584D01*
X163167237Y-107672762D01*
X163190937Y-107669247D01*
X163214868Y-107668071D01*
X163238799Y-107669247D01*
X163238799Y-107669247D01*
G37*
D14*
X163188351Y-108284018D03*
D13*
G36*
X164352493Y-108782941D02*
G01*
X164376193Y-108786456D01*
X164399435Y-108792278D01*
X164421994Y-108800350D01*
X164443654Y-108810594D01*
X164464204Y-108822912D01*
X164483449Y-108837184D01*
X164501202Y-108853275D01*
X164846482Y-109198555D01*
X164862573Y-109216308D01*
X164876845Y-109235553D01*
X164889163Y-109256103D01*
X164899407Y-109277763D01*
X164907479Y-109300322D01*
X164913301Y-109323564D01*
X164916816Y-109347264D01*
X164917992Y-109371195D01*
X164916816Y-109395126D01*
X164913301Y-109418826D01*
X164907479Y-109442068D01*
X164899407Y-109464627D01*
X164889163Y-109486287D01*
X164876845Y-109506837D01*
X164862573Y-109526082D01*
X164846482Y-109543835D01*
X164448168Y-109942149D01*
X164430415Y-109958240D01*
X164411170Y-109972512D01*
X164390620Y-109984830D01*
X164368960Y-109995074D01*
X164346401Y-110003146D01*
X164323159Y-110008968D01*
X164299459Y-110012483D01*
X164275528Y-110013659D01*
X164251597Y-110012483D01*
X164227897Y-110008968D01*
X164204655Y-110003146D01*
X164182096Y-109995074D01*
X164160436Y-109984830D01*
X164139886Y-109972512D01*
X164120641Y-109958240D01*
X164102888Y-109942149D01*
X163757608Y-109596869D01*
X163741517Y-109579116D01*
X163727245Y-109559871D01*
X163714927Y-109539321D01*
X163704683Y-109517661D01*
X163696611Y-109495102D01*
X163690789Y-109471860D01*
X163687274Y-109448160D01*
X163686098Y-109424229D01*
X163687274Y-109400298D01*
X163690789Y-109376598D01*
X163696611Y-109353356D01*
X163704683Y-109330797D01*
X163714927Y-109309137D01*
X163727245Y-109288587D01*
X163741517Y-109269342D01*
X163757608Y-109251589D01*
X164155922Y-108853275D01*
X164173675Y-108837184D01*
X164192920Y-108822912D01*
X164213470Y-108810594D01*
X164235130Y-108800350D01*
X164257689Y-108792278D01*
X164280931Y-108786456D01*
X164304631Y-108782941D01*
X164328562Y-108781765D01*
X164352493Y-108782941D01*
X164352493Y-108782941D01*
G37*
D14*
X164302045Y-109397712D03*
D13*
G36*
X141858280Y-85584549D02*
G01*
X141881980Y-85588064D01*
X141905222Y-85593886D01*
X141927781Y-85601958D01*
X141949441Y-85612202D01*
X141969991Y-85624520D01*
X141989236Y-85638792D01*
X142006989Y-85654883D01*
X142023080Y-85672636D01*
X142037352Y-85691881D01*
X142049670Y-85712431D01*
X142059914Y-85734091D01*
X142067986Y-85756650D01*
X142073808Y-85779892D01*
X142077323Y-85803592D01*
X142078499Y-85827523D01*
X142078499Y-86315823D01*
X142077323Y-86339754D01*
X142073808Y-86363454D01*
X142067986Y-86386696D01*
X142059914Y-86409255D01*
X142049670Y-86430915D01*
X142037352Y-86451465D01*
X142023080Y-86470710D01*
X142006989Y-86488463D01*
X141989236Y-86504554D01*
X141969991Y-86518826D01*
X141949441Y-86531144D01*
X141927781Y-86541388D01*
X141905222Y-86549460D01*
X141881980Y-86555282D01*
X141858280Y-86558797D01*
X141834349Y-86559973D01*
X141271049Y-86559973D01*
X141247118Y-86558797D01*
X141223418Y-86555282D01*
X141200176Y-86549460D01*
X141177617Y-86541388D01*
X141155957Y-86531144D01*
X141135407Y-86518826D01*
X141116162Y-86504554D01*
X141098409Y-86488463D01*
X141082318Y-86470710D01*
X141068046Y-86451465D01*
X141055728Y-86430915D01*
X141045484Y-86409255D01*
X141037412Y-86386696D01*
X141031590Y-86363454D01*
X141028075Y-86339754D01*
X141026899Y-86315823D01*
X141026899Y-85827523D01*
X141028075Y-85803592D01*
X141031590Y-85779892D01*
X141037412Y-85756650D01*
X141045484Y-85734091D01*
X141055728Y-85712431D01*
X141068046Y-85691881D01*
X141082318Y-85672636D01*
X141098409Y-85654883D01*
X141116162Y-85638792D01*
X141135407Y-85624520D01*
X141155957Y-85612202D01*
X141177617Y-85601958D01*
X141200176Y-85593886D01*
X141223418Y-85588064D01*
X141247118Y-85584549D01*
X141271049Y-85583373D01*
X141834349Y-85583373D01*
X141858280Y-85584549D01*
X141858280Y-85584549D01*
G37*
D14*
X141552699Y-86071673D03*
D13*
G36*
X141858280Y-84009549D02*
G01*
X141881980Y-84013064D01*
X141905222Y-84018886D01*
X141927781Y-84026958D01*
X141949441Y-84037202D01*
X141969991Y-84049520D01*
X141989236Y-84063792D01*
X142006989Y-84079883D01*
X142023080Y-84097636D01*
X142037352Y-84116881D01*
X142049670Y-84137431D01*
X142059914Y-84159091D01*
X142067986Y-84181650D01*
X142073808Y-84204892D01*
X142077323Y-84228592D01*
X142078499Y-84252523D01*
X142078499Y-84740823D01*
X142077323Y-84764754D01*
X142073808Y-84788454D01*
X142067986Y-84811696D01*
X142059914Y-84834255D01*
X142049670Y-84855915D01*
X142037352Y-84876465D01*
X142023080Y-84895710D01*
X142006989Y-84913463D01*
X141989236Y-84929554D01*
X141969991Y-84943826D01*
X141949441Y-84956144D01*
X141927781Y-84966388D01*
X141905222Y-84974460D01*
X141881980Y-84980282D01*
X141858280Y-84983797D01*
X141834349Y-84984973D01*
X141271049Y-84984973D01*
X141247118Y-84983797D01*
X141223418Y-84980282D01*
X141200176Y-84974460D01*
X141177617Y-84966388D01*
X141155957Y-84956144D01*
X141135407Y-84943826D01*
X141116162Y-84929554D01*
X141098409Y-84913463D01*
X141082318Y-84895710D01*
X141068046Y-84876465D01*
X141055728Y-84855915D01*
X141045484Y-84834255D01*
X141037412Y-84811696D01*
X141031590Y-84788454D01*
X141028075Y-84764754D01*
X141026899Y-84740823D01*
X141026899Y-84252523D01*
X141028075Y-84228592D01*
X141031590Y-84204892D01*
X141037412Y-84181650D01*
X141045484Y-84159091D01*
X141055728Y-84137431D01*
X141068046Y-84116881D01*
X141082318Y-84097636D01*
X141098409Y-84079883D01*
X141116162Y-84063792D01*
X141135407Y-84049520D01*
X141155957Y-84037202D01*
X141177617Y-84026958D01*
X141200176Y-84018886D01*
X141223418Y-84013064D01*
X141247118Y-84009549D01*
X141271049Y-84008373D01*
X141834349Y-84008373D01*
X141858280Y-84009549D01*
X141858280Y-84009549D01*
G37*
D14*
X141552699Y-84496673D03*
D13*
G36*
X172561152Y-115895304D02*
G01*
X172584852Y-115898819D01*
X172608094Y-115904641D01*
X172630653Y-115912713D01*
X172652313Y-115922957D01*
X172672863Y-115935275D01*
X172692108Y-115949547D01*
X172709861Y-115965638D01*
X173108175Y-116363952D01*
X173124266Y-116381705D01*
X173138538Y-116400950D01*
X173150856Y-116421500D01*
X173161100Y-116443160D01*
X173169172Y-116465719D01*
X173174994Y-116488961D01*
X173178509Y-116512661D01*
X173179685Y-116536592D01*
X173178509Y-116560523D01*
X173174994Y-116584223D01*
X173169172Y-116607465D01*
X173161100Y-116630024D01*
X173150856Y-116651684D01*
X173138538Y-116672234D01*
X173124266Y-116691479D01*
X173108175Y-116709232D01*
X172762895Y-117054512D01*
X172745142Y-117070603D01*
X172725897Y-117084875D01*
X172705347Y-117097193D01*
X172683687Y-117107437D01*
X172661128Y-117115509D01*
X172637886Y-117121331D01*
X172614186Y-117124846D01*
X172590255Y-117126022D01*
X172566324Y-117124846D01*
X172542624Y-117121331D01*
X172519382Y-117115509D01*
X172496823Y-117107437D01*
X172475163Y-117097193D01*
X172454613Y-117084875D01*
X172435368Y-117070603D01*
X172417615Y-117054512D01*
X172019301Y-116656198D01*
X172003210Y-116638445D01*
X171988938Y-116619200D01*
X171976620Y-116598650D01*
X171966376Y-116576990D01*
X171958304Y-116554431D01*
X171952482Y-116531189D01*
X171948967Y-116507489D01*
X171947791Y-116483558D01*
X171948967Y-116459627D01*
X171952482Y-116435927D01*
X171958304Y-116412685D01*
X171966376Y-116390126D01*
X171976620Y-116368466D01*
X171988938Y-116347916D01*
X172003210Y-116328671D01*
X172019301Y-116310918D01*
X172364581Y-115965638D01*
X172382334Y-115949547D01*
X172401579Y-115935275D01*
X172422129Y-115922957D01*
X172443789Y-115912713D01*
X172466348Y-115904641D01*
X172489590Y-115898819D01*
X172513290Y-115895304D01*
X172537221Y-115894128D01*
X172561152Y-115895304D01*
X172561152Y-115895304D01*
G37*
D14*
X172563738Y-116510075D03*
D13*
G36*
X173674846Y-114781610D02*
G01*
X173698546Y-114785125D01*
X173721788Y-114790947D01*
X173744347Y-114799019D01*
X173766007Y-114809263D01*
X173786557Y-114821581D01*
X173805802Y-114835853D01*
X173823555Y-114851944D01*
X174221869Y-115250258D01*
X174237960Y-115268011D01*
X174252232Y-115287256D01*
X174264550Y-115307806D01*
X174274794Y-115329466D01*
X174282866Y-115352025D01*
X174288688Y-115375267D01*
X174292203Y-115398967D01*
X174293379Y-115422898D01*
X174292203Y-115446829D01*
X174288688Y-115470529D01*
X174282866Y-115493771D01*
X174274794Y-115516330D01*
X174264550Y-115537990D01*
X174252232Y-115558540D01*
X174237960Y-115577785D01*
X174221869Y-115595538D01*
X173876589Y-115940818D01*
X173858836Y-115956909D01*
X173839591Y-115971181D01*
X173819041Y-115983499D01*
X173797381Y-115993743D01*
X173774822Y-116001815D01*
X173751580Y-116007637D01*
X173727880Y-116011152D01*
X173703949Y-116012328D01*
X173680018Y-116011152D01*
X173656318Y-116007637D01*
X173633076Y-116001815D01*
X173610517Y-115993743D01*
X173588857Y-115983499D01*
X173568307Y-115971181D01*
X173549062Y-115956909D01*
X173531309Y-115940818D01*
X173132995Y-115542504D01*
X173116904Y-115524751D01*
X173102632Y-115505506D01*
X173090314Y-115484956D01*
X173080070Y-115463296D01*
X173071998Y-115440737D01*
X173066176Y-115417495D01*
X173062661Y-115393795D01*
X173061485Y-115369864D01*
X173062661Y-115345933D01*
X173066176Y-115322233D01*
X173071998Y-115298991D01*
X173080070Y-115276432D01*
X173090314Y-115254772D01*
X173102632Y-115234222D01*
X173116904Y-115214977D01*
X173132995Y-115197224D01*
X173478275Y-114851944D01*
X173496028Y-114835853D01*
X173515273Y-114821581D01*
X173535823Y-114809263D01*
X173557483Y-114799019D01*
X173580042Y-114790947D01*
X173603284Y-114785125D01*
X173626984Y-114781610D01*
X173650915Y-114780434D01*
X173674846Y-114781610D01*
X173674846Y-114781610D01*
G37*
D14*
X173677432Y-115396381D03*
D13*
G36*
X152146273Y-102090458D02*
G01*
X152169973Y-102093973D01*
X152193215Y-102099795D01*
X152215774Y-102107867D01*
X152237434Y-102118111D01*
X152257984Y-102130429D01*
X152277229Y-102144701D01*
X152294982Y-102160792D01*
X152693296Y-102559106D01*
X152709387Y-102576859D01*
X152723659Y-102596104D01*
X152735977Y-102616654D01*
X152746221Y-102638314D01*
X152754293Y-102660873D01*
X152760115Y-102684115D01*
X152763630Y-102707815D01*
X152764806Y-102731746D01*
X152763630Y-102755677D01*
X152760115Y-102779377D01*
X152754293Y-102802619D01*
X152746221Y-102825178D01*
X152735977Y-102846838D01*
X152723659Y-102867388D01*
X152709387Y-102886633D01*
X152693296Y-102904386D01*
X152348016Y-103249666D01*
X152330263Y-103265757D01*
X152311018Y-103280029D01*
X152290468Y-103292347D01*
X152268808Y-103302591D01*
X152246249Y-103310663D01*
X152223007Y-103316485D01*
X152199307Y-103320000D01*
X152175376Y-103321176D01*
X152151445Y-103320000D01*
X152127745Y-103316485D01*
X152104503Y-103310663D01*
X152081944Y-103302591D01*
X152060284Y-103292347D01*
X152039734Y-103280029D01*
X152020489Y-103265757D01*
X152002736Y-103249666D01*
X151604422Y-102851352D01*
X151588331Y-102833599D01*
X151574059Y-102814354D01*
X151561741Y-102793804D01*
X151551497Y-102772144D01*
X151543425Y-102749585D01*
X151537603Y-102726343D01*
X151534088Y-102702643D01*
X151532912Y-102678712D01*
X151534088Y-102654781D01*
X151537603Y-102631081D01*
X151543425Y-102607839D01*
X151551497Y-102585280D01*
X151561741Y-102563620D01*
X151574059Y-102543070D01*
X151588331Y-102523825D01*
X151604422Y-102506072D01*
X151949702Y-102160792D01*
X151967455Y-102144701D01*
X151986700Y-102130429D01*
X152007250Y-102118111D01*
X152028910Y-102107867D01*
X152051469Y-102099795D01*
X152074711Y-102093973D01*
X152098411Y-102090458D01*
X152122342Y-102089282D01*
X152146273Y-102090458D01*
X152146273Y-102090458D01*
G37*
D14*
X152148859Y-102705229D03*
D13*
G36*
X153259967Y-100976764D02*
G01*
X153283667Y-100980279D01*
X153306909Y-100986101D01*
X153329468Y-100994173D01*
X153351128Y-101004417D01*
X153371678Y-101016735D01*
X153390923Y-101031007D01*
X153408676Y-101047098D01*
X153806990Y-101445412D01*
X153823081Y-101463165D01*
X153837353Y-101482410D01*
X153849671Y-101502960D01*
X153859915Y-101524620D01*
X153867987Y-101547179D01*
X153873809Y-101570421D01*
X153877324Y-101594121D01*
X153878500Y-101618052D01*
X153877324Y-101641983D01*
X153873809Y-101665683D01*
X153867987Y-101688925D01*
X153859915Y-101711484D01*
X153849671Y-101733144D01*
X153837353Y-101753694D01*
X153823081Y-101772939D01*
X153806990Y-101790692D01*
X153461710Y-102135972D01*
X153443957Y-102152063D01*
X153424712Y-102166335D01*
X153404162Y-102178653D01*
X153382502Y-102188897D01*
X153359943Y-102196969D01*
X153336701Y-102202791D01*
X153313001Y-102206306D01*
X153289070Y-102207482D01*
X153265139Y-102206306D01*
X153241439Y-102202791D01*
X153218197Y-102196969D01*
X153195638Y-102188897D01*
X153173978Y-102178653D01*
X153153428Y-102166335D01*
X153134183Y-102152063D01*
X153116430Y-102135972D01*
X152718116Y-101737658D01*
X152702025Y-101719905D01*
X152687753Y-101700660D01*
X152675435Y-101680110D01*
X152665191Y-101658450D01*
X152657119Y-101635891D01*
X152651297Y-101612649D01*
X152647782Y-101588949D01*
X152646606Y-101565018D01*
X152647782Y-101541087D01*
X152651297Y-101517387D01*
X152657119Y-101494145D01*
X152665191Y-101471586D01*
X152675435Y-101449926D01*
X152687753Y-101429376D01*
X152702025Y-101410131D01*
X152718116Y-101392378D01*
X153063396Y-101047098D01*
X153081149Y-101031007D01*
X153100394Y-101016735D01*
X153120944Y-101004417D01*
X153142604Y-100994173D01*
X153165163Y-100986101D01*
X153188405Y-100980279D01*
X153212105Y-100976764D01*
X153236036Y-100975588D01*
X153259967Y-100976764D01*
X153259967Y-100976764D01*
G37*
D14*
X153262553Y-101591535D03*
D13*
G36*
X168573071Y-110668653D02*
G01*
X168596771Y-110672168D01*
X168620013Y-110677990D01*
X168642572Y-110686062D01*
X168664232Y-110696306D01*
X168684782Y-110708624D01*
X168704027Y-110722896D01*
X168721780Y-110738987D01*
X169067060Y-111084267D01*
X169083151Y-111102020D01*
X169097423Y-111121265D01*
X169109741Y-111141815D01*
X169119985Y-111163475D01*
X169128057Y-111186034D01*
X169133879Y-111209276D01*
X169137394Y-111232976D01*
X169138570Y-111256907D01*
X169137394Y-111280838D01*
X169133879Y-111304538D01*
X169128057Y-111327780D01*
X169119985Y-111350339D01*
X169109741Y-111371999D01*
X169097423Y-111392549D01*
X169083151Y-111411794D01*
X169067060Y-111429547D01*
X168668746Y-111827861D01*
X168650993Y-111843952D01*
X168631748Y-111858224D01*
X168611198Y-111870542D01*
X168589538Y-111880786D01*
X168566979Y-111888858D01*
X168543737Y-111894680D01*
X168520037Y-111898195D01*
X168496106Y-111899371D01*
X168472175Y-111898195D01*
X168448475Y-111894680D01*
X168425233Y-111888858D01*
X168402674Y-111880786D01*
X168381014Y-111870542D01*
X168360464Y-111858224D01*
X168341219Y-111843952D01*
X168323466Y-111827861D01*
X167978186Y-111482581D01*
X167962095Y-111464828D01*
X167947823Y-111445583D01*
X167935505Y-111425033D01*
X167925261Y-111403373D01*
X167917189Y-111380814D01*
X167911367Y-111357572D01*
X167907852Y-111333872D01*
X167906676Y-111309941D01*
X167907852Y-111286010D01*
X167911367Y-111262310D01*
X167917189Y-111239068D01*
X167925261Y-111216509D01*
X167935505Y-111194849D01*
X167947823Y-111174299D01*
X167962095Y-111155054D01*
X167978186Y-111137301D01*
X168376500Y-110738987D01*
X168394253Y-110722896D01*
X168413498Y-110708624D01*
X168434048Y-110696306D01*
X168455708Y-110686062D01*
X168478267Y-110677990D01*
X168501509Y-110672168D01*
X168525209Y-110668653D01*
X168549140Y-110667477D01*
X168573071Y-110668653D01*
X168573071Y-110668653D01*
G37*
D14*
X168522623Y-111283424D03*
D13*
G36*
X169686765Y-111782347D02*
G01*
X169710465Y-111785862D01*
X169733707Y-111791684D01*
X169756266Y-111799756D01*
X169777926Y-111810000D01*
X169798476Y-111822318D01*
X169817721Y-111836590D01*
X169835474Y-111852681D01*
X170180754Y-112197961D01*
X170196845Y-112215714D01*
X170211117Y-112234959D01*
X170223435Y-112255509D01*
X170233679Y-112277169D01*
X170241751Y-112299728D01*
X170247573Y-112322970D01*
X170251088Y-112346670D01*
X170252264Y-112370601D01*
X170251088Y-112394532D01*
X170247573Y-112418232D01*
X170241751Y-112441474D01*
X170233679Y-112464033D01*
X170223435Y-112485693D01*
X170211117Y-112506243D01*
X170196845Y-112525488D01*
X170180754Y-112543241D01*
X169782440Y-112941555D01*
X169764687Y-112957646D01*
X169745442Y-112971918D01*
X169724892Y-112984236D01*
X169703232Y-112994480D01*
X169680673Y-113002552D01*
X169657431Y-113008374D01*
X169633731Y-113011889D01*
X169609800Y-113013065D01*
X169585869Y-113011889D01*
X169562169Y-113008374D01*
X169538927Y-113002552D01*
X169516368Y-112994480D01*
X169494708Y-112984236D01*
X169474158Y-112971918D01*
X169454913Y-112957646D01*
X169437160Y-112941555D01*
X169091880Y-112596275D01*
X169075789Y-112578522D01*
X169061517Y-112559277D01*
X169049199Y-112538727D01*
X169038955Y-112517067D01*
X169030883Y-112494508D01*
X169025061Y-112471266D01*
X169021546Y-112447566D01*
X169020370Y-112423635D01*
X169021546Y-112399704D01*
X169025061Y-112376004D01*
X169030883Y-112352762D01*
X169038955Y-112330203D01*
X169049199Y-112308543D01*
X169061517Y-112287993D01*
X169075789Y-112268748D01*
X169091880Y-112250995D01*
X169490194Y-111852681D01*
X169507947Y-111836590D01*
X169527192Y-111822318D01*
X169547742Y-111810000D01*
X169569402Y-111799756D01*
X169591961Y-111791684D01*
X169615203Y-111785862D01*
X169638903Y-111782347D01*
X169662834Y-111781171D01*
X169686765Y-111782347D01*
X169686765Y-111782347D01*
G37*
D14*
X169636317Y-112397118D03*
D13*
G36*
X137020280Y-102031549D02*
G01*
X137043980Y-102035064D01*
X137067222Y-102040886D01*
X137089781Y-102048958D01*
X137111441Y-102059202D01*
X137131991Y-102071520D01*
X137151236Y-102085792D01*
X137168989Y-102101883D01*
X137185080Y-102119636D01*
X137199352Y-102138881D01*
X137211670Y-102159431D01*
X137221914Y-102181091D01*
X137229986Y-102203650D01*
X137235808Y-102226892D01*
X137239323Y-102250592D01*
X137240499Y-102274523D01*
X137240499Y-102837823D01*
X137239323Y-102861754D01*
X137235808Y-102885454D01*
X137229986Y-102908696D01*
X137221914Y-102931255D01*
X137211670Y-102952915D01*
X137199352Y-102973465D01*
X137185080Y-102992710D01*
X137168989Y-103010463D01*
X137151236Y-103026554D01*
X137131991Y-103040826D01*
X137111441Y-103053144D01*
X137089781Y-103063388D01*
X137067222Y-103071460D01*
X137043980Y-103077282D01*
X137020280Y-103080797D01*
X136996349Y-103081973D01*
X136508049Y-103081973D01*
X136484118Y-103080797D01*
X136460418Y-103077282D01*
X136437176Y-103071460D01*
X136414617Y-103063388D01*
X136392957Y-103053144D01*
X136372407Y-103040826D01*
X136353162Y-103026554D01*
X136335409Y-103010463D01*
X136319318Y-102992710D01*
X136305046Y-102973465D01*
X136292728Y-102952915D01*
X136282484Y-102931255D01*
X136274412Y-102908696D01*
X136268590Y-102885454D01*
X136265075Y-102861754D01*
X136263899Y-102837823D01*
X136263899Y-102274523D01*
X136265075Y-102250592D01*
X136268590Y-102226892D01*
X136274412Y-102203650D01*
X136282484Y-102181091D01*
X136292728Y-102159431D01*
X136305046Y-102138881D01*
X136319318Y-102119636D01*
X136335409Y-102101883D01*
X136353162Y-102085792D01*
X136372407Y-102071520D01*
X136392957Y-102059202D01*
X136414617Y-102048958D01*
X136437176Y-102040886D01*
X136460418Y-102035064D01*
X136484118Y-102031549D01*
X136508049Y-102030373D01*
X136996349Y-102030373D01*
X137020280Y-102031549D01*
X137020280Y-102031549D01*
G37*
D14*
X136752199Y-102556173D03*
D13*
G36*
X135445280Y-102031549D02*
G01*
X135468980Y-102035064D01*
X135492222Y-102040886D01*
X135514781Y-102048958D01*
X135536441Y-102059202D01*
X135556991Y-102071520D01*
X135576236Y-102085792D01*
X135593989Y-102101883D01*
X135610080Y-102119636D01*
X135624352Y-102138881D01*
X135636670Y-102159431D01*
X135646914Y-102181091D01*
X135654986Y-102203650D01*
X135660808Y-102226892D01*
X135664323Y-102250592D01*
X135665499Y-102274523D01*
X135665499Y-102837823D01*
X135664323Y-102861754D01*
X135660808Y-102885454D01*
X135654986Y-102908696D01*
X135646914Y-102931255D01*
X135636670Y-102952915D01*
X135624352Y-102973465D01*
X135610080Y-102992710D01*
X135593989Y-103010463D01*
X135576236Y-103026554D01*
X135556991Y-103040826D01*
X135536441Y-103053144D01*
X135514781Y-103063388D01*
X135492222Y-103071460D01*
X135468980Y-103077282D01*
X135445280Y-103080797D01*
X135421349Y-103081973D01*
X134933049Y-103081973D01*
X134909118Y-103080797D01*
X134885418Y-103077282D01*
X134862176Y-103071460D01*
X134839617Y-103063388D01*
X134817957Y-103053144D01*
X134797407Y-103040826D01*
X134778162Y-103026554D01*
X134760409Y-103010463D01*
X134744318Y-102992710D01*
X134730046Y-102973465D01*
X134717728Y-102952915D01*
X134707484Y-102931255D01*
X134699412Y-102908696D01*
X134693590Y-102885454D01*
X134690075Y-102861754D01*
X134688899Y-102837823D01*
X134688899Y-102274523D01*
X134690075Y-102250592D01*
X134693590Y-102226892D01*
X134699412Y-102203650D01*
X134707484Y-102181091D01*
X134717728Y-102159431D01*
X134730046Y-102138881D01*
X134744318Y-102119636D01*
X134760409Y-102101883D01*
X134778162Y-102085792D01*
X134797407Y-102071520D01*
X134817957Y-102059202D01*
X134839617Y-102048958D01*
X134862176Y-102040886D01*
X134885418Y-102035064D01*
X134909118Y-102031549D01*
X134933049Y-102030373D01*
X135421349Y-102030373D01*
X135445280Y-102031549D01*
X135445280Y-102031549D01*
G37*
D14*
X135177199Y-102556173D03*
D13*
G36*
X157084708Y-96522700D02*
G01*
X157108408Y-96526215D01*
X157131650Y-96532037D01*
X157154209Y-96540109D01*
X157175869Y-96550353D01*
X157196419Y-96562671D01*
X157215664Y-96576943D01*
X157233417Y-96593034D01*
X157578697Y-96938314D01*
X157594788Y-96956067D01*
X157609060Y-96975312D01*
X157621378Y-96995862D01*
X157631622Y-97017522D01*
X157639694Y-97040081D01*
X157645516Y-97063323D01*
X157649031Y-97087023D01*
X157650207Y-97110954D01*
X157649031Y-97134885D01*
X157645516Y-97158585D01*
X157639694Y-97181827D01*
X157631622Y-97204386D01*
X157621378Y-97226046D01*
X157609060Y-97246596D01*
X157594788Y-97265841D01*
X157578697Y-97283594D01*
X157180383Y-97681908D01*
X157162630Y-97697999D01*
X157143385Y-97712271D01*
X157122835Y-97724589D01*
X157101175Y-97734833D01*
X157078616Y-97742905D01*
X157055374Y-97748727D01*
X157031674Y-97752242D01*
X157007743Y-97753418D01*
X156983812Y-97752242D01*
X156960112Y-97748727D01*
X156936870Y-97742905D01*
X156914311Y-97734833D01*
X156892651Y-97724589D01*
X156872101Y-97712271D01*
X156852856Y-97697999D01*
X156835103Y-97681908D01*
X156489823Y-97336628D01*
X156473732Y-97318875D01*
X156459460Y-97299630D01*
X156447142Y-97279080D01*
X156436898Y-97257420D01*
X156428826Y-97234861D01*
X156423004Y-97211619D01*
X156419489Y-97187919D01*
X156418313Y-97163988D01*
X156419489Y-97140057D01*
X156423004Y-97116357D01*
X156428826Y-97093115D01*
X156436898Y-97070556D01*
X156447142Y-97048896D01*
X156459460Y-97028346D01*
X156473732Y-97009101D01*
X156489823Y-96991348D01*
X156888137Y-96593034D01*
X156905890Y-96576943D01*
X156925135Y-96562671D01*
X156945685Y-96550353D01*
X156967345Y-96540109D01*
X156989904Y-96532037D01*
X157013146Y-96526215D01*
X157036846Y-96522700D01*
X157060777Y-96521524D01*
X157084708Y-96522700D01*
X157084708Y-96522700D01*
G37*
D14*
X157034260Y-97137471D03*
D13*
G36*
X155971014Y-95409006D02*
G01*
X155994714Y-95412521D01*
X156017956Y-95418343D01*
X156040515Y-95426415D01*
X156062175Y-95436659D01*
X156082725Y-95448977D01*
X156101970Y-95463249D01*
X156119723Y-95479340D01*
X156465003Y-95824620D01*
X156481094Y-95842373D01*
X156495366Y-95861618D01*
X156507684Y-95882168D01*
X156517928Y-95903828D01*
X156526000Y-95926387D01*
X156531822Y-95949629D01*
X156535337Y-95973329D01*
X156536513Y-95997260D01*
X156535337Y-96021191D01*
X156531822Y-96044891D01*
X156526000Y-96068133D01*
X156517928Y-96090692D01*
X156507684Y-96112352D01*
X156495366Y-96132902D01*
X156481094Y-96152147D01*
X156465003Y-96169900D01*
X156066689Y-96568214D01*
X156048936Y-96584305D01*
X156029691Y-96598577D01*
X156009141Y-96610895D01*
X155987481Y-96621139D01*
X155964922Y-96629211D01*
X155941680Y-96635033D01*
X155917980Y-96638548D01*
X155894049Y-96639724D01*
X155870118Y-96638548D01*
X155846418Y-96635033D01*
X155823176Y-96629211D01*
X155800617Y-96621139D01*
X155778957Y-96610895D01*
X155758407Y-96598577D01*
X155739162Y-96584305D01*
X155721409Y-96568214D01*
X155376129Y-96222934D01*
X155360038Y-96205181D01*
X155345766Y-96185936D01*
X155333448Y-96165386D01*
X155323204Y-96143726D01*
X155315132Y-96121167D01*
X155309310Y-96097925D01*
X155305795Y-96074225D01*
X155304619Y-96050294D01*
X155305795Y-96026363D01*
X155309310Y-96002663D01*
X155315132Y-95979421D01*
X155323204Y-95956862D01*
X155333448Y-95935202D01*
X155345766Y-95914652D01*
X155360038Y-95895407D01*
X155376129Y-95877654D01*
X155774443Y-95479340D01*
X155792196Y-95463249D01*
X155811441Y-95448977D01*
X155831991Y-95436659D01*
X155853651Y-95426415D01*
X155876210Y-95418343D01*
X155899452Y-95412521D01*
X155923152Y-95409006D01*
X155947083Y-95407830D01*
X155971014Y-95409006D01*
X155971014Y-95409006D01*
G37*
D14*
X155920566Y-96023777D03*
D13*
G36*
X154893383Y-96486636D02*
G01*
X154917083Y-96490151D01*
X154940325Y-96495973D01*
X154962884Y-96504045D01*
X154984544Y-96514289D01*
X155005094Y-96526607D01*
X155024339Y-96540879D01*
X155042092Y-96556970D01*
X155387372Y-96902250D01*
X155403463Y-96920003D01*
X155417735Y-96939248D01*
X155430053Y-96959798D01*
X155440297Y-96981458D01*
X155448369Y-97004017D01*
X155454191Y-97027259D01*
X155457706Y-97050959D01*
X155458882Y-97074890D01*
X155457706Y-97098821D01*
X155454191Y-97122521D01*
X155448369Y-97145763D01*
X155440297Y-97168322D01*
X155430053Y-97189982D01*
X155417735Y-97210532D01*
X155403463Y-97229777D01*
X155387372Y-97247530D01*
X154989058Y-97645844D01*
X154971305Y-97661935D01*
X154952060Y-97676207D01*
X154931510Y-97688525D01*
X154909850Y-97698769D01*
X154887291Y-97706841D01*
X154864049Y-97712663D01*
X154840349Y-97716178D01*
X154816418Y-97717354D01*
X154792487Y-97716178D01*
X154768787Y-97712663D01*
X154745545Y-97706841D01*
X154722986Y-97698769D01*
X154701326Y-97688525D01*
X154680776Y-97676207D01*
X154661531Y-97661935D01*
X154643778Y-97645844D01*
X154298498Y-97300564D01*
X154282407Y-97282811D01*
X154268135Y-97263566D01*
X154255817Y-97243016D01*
X154245573Y-97221356D01*
X154237501Y-97198797D01*
X154231679Y-97175555D01*
X154228164Y-97151855D01*
X154226988Y-97127924D01*
X154228164Y-97103993D01*
X154231679Y-97080293D01*
X154237501Y-97057051D01*
X154245573Y-97034492D01*
X154255817Y-97012832D01*
X154268135Y-96992282D01*
X154282407Y-96973037D01*
X154298498Y-96955284D01*
X154696812Y-96556970D01*
X154714565Y-96540879D01*
X154733810Y-96526607D01*
X154754360Y-96514289D01*
X154776020Y-96504045D01*
X154798579Y-96495973D01*
X154821821Y-96490151D01*
X154845521Y-96486636D01*
X154869452Y-96485460D01*
X154893383Y-96486636D01*
X154893383Y-96486636D01*
G37*
D14*
X154842935Y-97101407D03*
D13*
G36*
X156007077Y-97600330D02*
G01*
X156030777Y-97603845D01*
X156054019Y-97609667D01*
X156076578Y-97617739D01*
X156098238Y-97627983D01*
X156118788Y-97640301D01*
X156138033Y-97654573D01*
X156155786Y-97670664D01*
X156501066Y-98015944D01*
X156517157Y-98033697D01*
X156531429Y-98052942D01*
X156543747Y-98073492D01*
X156553991Y-98095152D01*
X156562063Y-98117711D01*
X156567885Y-98140953D01*
X156571400Y-98164653D01*
X156572576Y-98188584D01*
X156571400Y-98212515D01*
X156567885Y-98236215D01*
X156562063Y-98259457D01*
X156553991Y-98282016D01*
X156543747Y-98303676D01*
X156531429Y-98324226D01*
X156517157Y-98343471D01*
X156501066Y-98361224D01*
X156102752Y-98759538D01*
X156084999Y-98775629D01*
X156065754Y-98789901D01*
X156045204Y-98802219D01*
X156023544Y-98812463D01*
X156000985Y-98820535D01*
X155977743Y-98826357D01*
X155954043Y-98829872D01*
X155930112Y-98831048D01*
X155906181Y-98829872D01*
X155882481Y-98826357D01*
X155859239Y-98820535D01*
X155836680Y-98812463D01*
X155815020Y-98802219D01*
X155794470Y-98789901D01*
X155775225Y-98775629D01*
X155757472Y-98759538D01*
X155412192Y-98414258D01*
X155396101Y-98396505D01*
X155381829Y-98377260D01*
X155369511Y-98356710D01*
X155359267Y-98335050D01*
X155351195Y-98312491D01*
X155345373Y-98289249D01*
X155341858Y-98265549D01*
X155340682Y-98241618D01*
X155341858Y-98217687D01*
X155345373Y-98193987D01*
X155351195Y-98170745D01*
X155359267Y-98148186D01*
X155369511Y-98126526D01*
X155381829Y-98105976D01*
X155396101Y-98086731D01*
X155412192Y-98068978D01*
X155810506Y-97670664D01*
X155828259Y-97654573D01*
X155847504Y-97640301D01*
X155868054Y-97627983D01*
X155889714Y-97617739D01*
X155912273Y-97609667D01*
X155935515Y-97603845D01*
X155959215Y-97600330D01*
X155983146Y-97599154D01*
X156007077Y-97600330D01*
X156007077Y-97600330D01*
G37*
D14*
X155956629Y-98215101D03*
D13*
G36*
X157047230Y-105109096D02*
G01*
X157070930Y-105112611D01*
X157094172Y-105118433D01*
X157116731Y-105126505D01*
X157138391Y-105136749D01*
X157158941Y-105149067D01*
X157178186Y-105163339D01*
X157195939Y-105179430D01*
X157594253Y-105577744D01*
X157610344Y-105595497D01*
X157624616Y-105614742D01*
X157636934Y-105635292D01*
X157647178Y-105656952D01*
X157655250Y-105679511D01*
X157661072Y-105702753D01*
X157664587Y-105726453D01*
X157665763Y-105750384D01*
X157664587Y-105774315D01*
X157661072Y-105798015D01*
X157655250Y-105821257D01*
X157647178Y-105843816D01*
X157636934Y-105865476D01*
X157624616Y-105886026D01*
X157610344Y-105905271D01*
X157594253Y-105923024D01*
X157248973Y-106268304D01*
X157231220Y-106284395D01*
X157211975Y-106298667D01*
X157191425Y-106310985D01*
X157169765Y-106321229D01*
X157147206Y-106329301D01*
X157123964Y-106335123D01*
X157100264Y-106338638D01*
X157076333Y-106339814D01*
X157052402Y-106338638D01*
X157028702Y-106335123D01*
X157005460Y-106329301D01*
X156982901Y-106321229D01*
X156961241Y-106310985D01*
X156940691Y-106298667D01*
X156921446Y-106284395D01*
X156903693Y-106268304D01*
X156505379Y-105869990D01*
X156489288Y-105852237D01*
X156475016Y-105832992D01*
X156462698Y-105812442D01*
X156452454Y-105790782D01*
X156444382Y-105768223D01*
X156438560Y-105744981D01*
X156435045Y-105721281D01*
X156433869Y-105697350D01*
X156435045Y-105673419D01*
X156438560Y-105649719D01*
X156444382Y-105626477D01*
X156452454Y-105603918D01*
X156462698Y-105582258D01*
X156475016Y-105561708D01*
X156489288Y-105542463D01*
X156505379Y-105524710D01*
X156850659Y-105179430D01*
X156868412Y-105163339D01*
X156887657Y-105149067D01*
X156908207Y-105136749D01*
X156929867Y-105126505D01*
X156952426Y-105118433D01*
X156975668Y-105112611D01*
X156999368Y-105109096D01*
X157023299Y-105107920D01*
X157047230Y-105109096D01*
X157047230Y-105109096D01*
G37*
D14*
X157049816Y-105723867D03*
D13*
G36*
X155933536Y-106222790D02*
G01*
X155957236Y-106226305D01*
X155980478Y-106232127D01*
X156003037Y-106240199D01*
X156024697Y-106250443D01*
X156045247Y-106262761D01*
X156064492Y-106277033D01*
X156082245Y-106293124D01*
X156480559Y-106691438D01*
X156496650Y-106709191D01*
X156510922Y-106728436D01*
X156523240Y-106748986D01*
X156533484Y-106770646D01*
X156541556Y-106793205D01*
X156547378Y-106816447D01*
X156550893Y-106840147D01*
X156552069Y-106864078D01*
X156550893Y-106888009D01*
X156547378Y-106911709D01*
X156541556Y-106934951D01*
X156533484Y-106957510D01*
X156523240Y-106979170D01*
X156510922Y-106999720D01*
X156496650Y-107018965D01*
X156480559Y-107036718D01*
X156135279Y-107381998D01*
X156117526Y-107398089D01*
X156098281Y-107412361D01*
X156077731Y-107424679D01*
X156056071Y-107434923D01*
X156033512Y-107442995D01*
X156010270Y-107448817D01*
X155986570Y-107452332D01*
X155962639Y-107453508D01*
X155938708Y-107452332D01*
X155915008Y-107448817D01*
X155891766Y-107442995D01*
X155869207Y-107434923D01*
X155847547Y-107424679D01*
X155826997Y-107412361D01*
X155807752Y-107398089D01*
X155789999Y-107381998D01*
X155391685Y-106983684D01*
X155375594Y-106965931D01*
X155361322Y-106946686D01*
X155349004Y-106926136D01*
X155338760Y-106904476D01*
X155330688Y-106881917D01*
X155324866Y-106858675D01*
X155321351Y-106834975D01*
X155320175Y-106811044D01*
X155321351Y-106787113D01*
X155324866Y-106763413D01*
X155330688Y-106740171D01*
X155338760Y-106717612D01*
X155349004Y-106695952D01*
X155361322Y-106675402D01*
X155375594Y-106656157D01*
X155391685Y-106638404D01*
X155736965Y-106293124D01*
X155754718Y-106277033D01*
X155773963Y-106262761D01*
X155794513Y-106250443D01*
X155816173Y-106240199D01*
X155838732Y-106232127D01*
X155861974Y-106226305D01*
X155885674Y-106222790D01*
X155909605Y-106221614D01*
X155933536Y-106222790D01*
X155933536Y-106222790D01*
G37*
D14*
X155936122Y-106837561D03*
D13*
G36*
X158124861Y-106186727D02*
G01*
X158148561Y-106190242D01*
X158171803Y-106196064D01*
X158194362Y-106204136D01*
X158216022Y-106214380D01*
X158236572Y-106226698D01*
X158255817Y-106240970D01*
X158273570Y-106257061D01*
X158671884Y-106655375D01*
X158687975Y-106673128D01*
X158702247Y-106692373D01*
X158714565Y-106712923D01*
X158724809Y-106734583D01*
X158732881Y-106757142D01*
X158738703Y-106780384D01*
X158742218Y-106804084D01*
X158743394Y-106828015D01*
X158742218Y-106851946D01*
X158738703Y-106875646D01*
X158732881Y-106898888D01*
X158724809Y-106921447D01*
X158714565Y-106943107D01*
X158702247Y-106963657D01*
X158687975Y-106982902D01*
X158671884Y-107000655D01*
X158326604Y-107345935D01*
X158308851Y-107362026D01*
X158289606Y-107376298D01*
X158269056Y-107388616D01*
X158247396Y-107398860D01*
X158224837Y-107406932D01*
X158201595Y-107412754D01*
X158177895Y-107416269D01*
X158153964Y-107417445D01*
X158130033Y-107416269D01*
X158106333Y-107412754D01*
X158083091Y-107406932D01*
X158060532Y-107398860D01*
X158038872Y-107388616D01*
X158018322Y-107376298D01*
X157999077Y-107362026D01*
X157981324Y-107345935D01*
X157583010Y-106947621D01*
X157566919Y-106929868D01*
X157552647Y-106910623D01*
X157540329Y-106890073D01*
X157530085Y-106868413D01*
X157522013Y-106845854D01*
X157516191Y-106822612D01*
X157512676Y-106798912D01*
X157511500Y-106774981D01*
X157512676Y-106751050D01*
X157516191Y-106727350D01*
X157522013Y-106704108D01*
X157530085Y-106681549D01*
X157540329Y-106659889D01*
X157552647Y-106639339D01*
X157566919Y-106620094D01*
X157583010Y-106602341D01*
X157928290Y-106257061D01*
X157946043Y-106240970D01*
X157965288Y-106226698D01*
X157985838Y-106214380D01*
X158007498Y-106204136D01*
X158030057Y-106196064D01*
X158053299Y-106190242D01*
X158076999Y-106186727D01*
X158100930Y-106185551D01*
X158124861Y-106186727D01*
X158124861Y-106186727D01*
G37*
D14*
X158127447Y-106801498D03*
D13*
G36*
X157011167Y-107300421D02*
G01*
X157034867Y-107303936D01*
X157058109Y-107309758D01*
X157080668Y-107317830D01*
X157102328Y-107328074D01*
X157122878Y-107340392D01*
X157142123Y-107354664D01*
X157159876Y-107370755D01*
X157558190Y-107769069D01*
X157574281Y-107786822D01*
X157588553Y-107806067D01*
X157600871Y-107826617D01*
X157611115Y-107848277D01*
X157619187Y-107870836D01*
X157625009Y-107894078D01*
X157628524Y-107917778D01*
X157629700Y-107941709D01*
X157628524Y-107965640D01*
X157625009Y-107989340D01*
X157619187Y-108012582D01*
X157611115Y-108035141D01*
X157600871Y-108056801D01*
X157588553Y-108077351D01*
X157574281Y-108096596D01*
X157558190Y-108114349D01*
X157212910Y-108459629D01*
X157195157Y-108475720D01*
X157175912Y-108489992D01*
X157155362Y-108502310D01*
X157133702Y-108512554D01*
X157111143Y-108520626D01*
X157087901Y-108526448D01*
X157064201Y-108529963D01*
X157040270Y-108531139D01*
X157016339Y-108529963D01*
X156992639Y-108526448D01*
X156969397Y-108520626D01*
X156946838Y-108512554D01*
X156925178Y-108502310D01*
X156904628Y-108489992D01*
X156885383Y-108475720D01*
X156867630Y-108459629D01*
X156469316Y-108061315D01*
X156453225Y-108043562D01*
X156438953Y-108024317D01*
X156426635Y-108003767D01*
X156416391Y-107982107D01*
X156408319Y-107959548D01*
X156402497Y-107936306D01*
X156398982Y-107912606D01*
X156397806Y-107888675D01*
X156398982Y-107864744D01*
X156402497Y-107841044D01*
X156408319Y-107817802D01*
X156416391Y-107795243D01*
X156426635Y-107773583D01*
X156438953Y-107753033D01*
X156453225Y-107733788D01*
X156469316Y-107716035D01*
X156814596Y-107370755D01*
X156832349Y-107354664D01*
X156851594Y-107340392D01*
X156872144Y-107328074D01*
X156893804Y-107317830D01*
X156916363Y-107309758D01*
X156939605Y-107303936D01*
X156963305Y-107300421D01*
X156987236Y-107299245D01*
X157011167Y-107300421D01*
X157011167Y-107300421D01*
G37*
D14*
X157013753Y-107915192D03*
D25*
X153247349Y-104019387D03*
D13*
G36*
X152570931Y-103874430D02*
G01*
X153102392Y-103342969D01*
X153923767Y-104164344D01*
X153392306Y-104695805D01*
X152570931Y-103874430D01*
X152570931Y-103874430D01*
G37*
D25*
X153919101Y-103347636D03*
D13*
G36*
X153242683Y-103202679D02*
G01*
X153774144Y-102671218D01*
X154595519Y-103492593D01*
X154064058Y-104024054D01*
X153242683Y-103202679D01*
X153242683Y-103202679D01*
G37*
D25*
X154590852Y-102675884D03*
D13*
G36*
X153914434Y-102530927D02*
G01*
X154445895Y-101999466D01*
X155267270Y-102820841D01*
X154735809Y-103352302D01*
X153914434Y-102530927D01*
X153914434Y-102530927D01*
G37*
D25*
X156146487Y-104231519D03*
D13*
G36*
X155470069Y-104086562D02*
G01*
X156001530Y-103555101D01*
X156822905Y-104376476D01*
X156291444Y-104907937D01*
X155470069Y-104086562D01*
X155470069Y-104086562D01*
G37*
D25*
X154802984Y-105575022D03*
D13*
G36*
X154126566Y-105430065D02*
G01*
X154658027Y-104898604D01*
X155479402Y-105719979D01*
X154947941Y-106251440D01*
X154126566Y-105430065D01*
X154126566Y-105430065D01*
G37*
D25*
X154485493Y-91987965D03*
D13*
G36*
X155161911Y-92132922D02*
G01*
X154630450Y-92664383D01*
X153809075Y-91843008D01*
X154340536Y-91311547D01*
X155161911Y-92132922D01*
X155161911Y-92132922D01*
G37*
D25*
X153141990Y-93331468D03*
D13*
G36*
X153818408Y-93476425D02*
G01*
X153286947Y-94007886D01*
X152465572Y-93186511D01*
X152997033Y-92655050D01*
X153818408Y-93476425D01*
X153818408Y-93476425D01*
G37*
D25*
X154697625Y-94887103D03*
D13*
G36*
X155374043Y-95032060D02*
G01*
X154842582Y-95563521D01*
X154021207Y-94742146D01*
X154552668Y-94210685D01*
X155374043Y-95032060D01*
X155374043Y-95032060D01*
G37*
D25*
X155369376Y-94215351D03*
D13*
G36*
X156045794Y-94360308D02*
G01*
X155514333Y-94891769D01*
X154692958Y-94070394D01*
X155224419Y-93538933D01*
X156045794Y-94360308D01*
X156045794Y-94360308D01*
G37*
D25*
X156041128Y-93543600D03*
D13*
G36*
X156717546Y-93688557D02*
G01*
X156186085Y-94220018D01*
X155364710Y-93398643D01*
X155896171Y-92867182D01*
X156717546Y-93688557D01*
X156717546Y-93688557D01*
G37*
M02*
