M48
; DRILL file {KiCad 5.1.2} date Tue 30 Jul 2019 09:53:51 PM PDT
; FORMAT={-:-/ absolute / inch / decimal}
; #@! TF.CreationDate,2019-07-30T21:53:51-07:00
; #@! TF.GenerationSoftware,Kicad,Pcbnew,5.1.2
FMAT,2
INCH
T1C0.0079
T2C0.0100
T3C0.0200
T4C0.0256
T5C0.0276
T6C0.0315
%
G90
G05
T1
X6.3556Y-3.5421
X6.3884Y-3.5093
X6.3884Y-3.575
X6.4213Y-3.5421
T2
X4.9808Y-3.2916
X4.9879Y-4.0807
X4.995Y-4.0029
X5.0233Y-3.3764
X5.0303Y-3.812
X5.0303Y-3.8898
X5.0303Y-3.9393
X5.0339Y-4.056
X5.048Y-3.223
X5.107Y-4.0477
X5.1279Y-3.9365
X5.135Y-3.3878
X5.1399Y-3.8014
X5.147Y-3.2598
X5.1824Y-3.2244
X5.2033Y-3.9353
X5.2197Y-3.2559
X5.2227Y-4.0779
X5.2375Y-3.778
X5.2386Y-3.6176
X5.2695Y-3.8551
X5.2768Y-3.6558
X5.2823Y-3.7332
X5.2835Y-3.5362
X5.3485Y-3.9049
X5.3584Y-3.3821
X5.3594Y-3.9285
X5.3608Y-3.6547
X5.3749Y-3.7479
X5.3791Y-3.9116
X5.3864Y-3.9369
X5.3951Y-3.7719
X5.3984Y-3.6171
X5.4242Y-3.38
X5.432Y-3.2506
X5.4435Y-3.9356
X5.4443Y-3.7983
X5.4544Y-3.6875
X5.4673Y-4.0906
X5.4892Y-3.5101
X5.4977Y-3.2683
X5.5401Y-3.4331
X5.5468Y-3.2688
X5.5529Y-3.9364
X5.5628Y-3.7689
X5.5674Y-3.5405
X5.5727Y-3.4196
X5.5729Y-3.2767
X5.5922Y-3.4395
X5.5996Y-3.2687
X5.6087Y-3.3906
X5.6158Y-3.4924
X5.618Y-3.9281
X5.6229Y-3.6409
X5.6307Y-3.5582
X5.6392Y-3.9082
X5.6434Y-3.9339
X5.6492Y-3.8011
X5.654Y-3.6918
X5.6844Y-4.0899
X5.7134Y-3.3255
X5.7219Y-3.9789
X5.7452Y-3.2258
X5.7536Y-3.9258
X5.7722Y-3.944
X5.7728Y-3.713
X5.7749Y-3.6628
X5.7767Y-3.9926
X5.779Y-3.5311
X5.7813Y-3.5857
X5.8089Y-3.298
X5.8115Y-3.8142
X5.8163Y-3.4325
X5.8182Y-3.9411
X5.8242Y-3.3795
X5.8271Y-3.7902
X5.8276Y-3.336
X5.8294Y-3.7201
X5.8364Y-3.7555
X5.8442Y-3.9398
X5.8541Y-3.8039
X5.8572Y-3.3816
X5.8701Y-3.942
X5.8781Y-3.4959
X5.8781Y-4.0885
X5.9034Y-3.4345
X5.9086Y-3.6975
X5.9177Y-3.6543
X5.9177Y-3.8552
X5.9237Y-3.9598
X5.9446Y-3.9398
X5.9566Y-3.6253
X5.9701Y-3.8998
X5.9713Y-3.9398
X5.9719Y-3.5041
X5.9897Y-4.0013
X5.9955Y-3.6147
X6.0026Y-3.7745
X6.0344Y-4.0454
X6.051Y-3.577
X6.0592Y-3.6317
X6.0627Y-4.2405
X6.0768Y-4.1302
X6.0798Y-3.9787
X6.0945Y-4.0913
X6.1016Y-3.8721
X6.1087Y-4.063
X6.1157Y-4.1903
X6.1242Y-3.5638
X6.1308Y-3.7312
X6.1716Y-4.0623
X6.1872Y-3.7215
X6.2126Y-4.0383
X6.2133Y-3.9609
X6.2244Y-4.2955
X6.235Y-3.7744
X6.2369Y-3.4528
X6.2522Y-4.085
X6.2547Y-4.1789
X6.2809Y-4.4589
X6.2826Y-3.8153
X6.284Y-4.0348
X6.294Y-3.4993
X6.3059Y-3.3623
X6.3068Y-3.9058
X6.3102Y-4.3494
X6.3354Y-3.4754
X6.3356Y-4.184
X6.3388Y-3.4406
X6.3391Y-3.4058
X6.3454Y-4.0964
X6.3491Y-4.3035
X6.3661Y-3.8453
X6.3689Y-4.4562
X6.3814Y-3.4503
X6.395Y-4.2575
X6.3962Y-3.9818
X6.4021Y-3.6918
X6.4134Y-3.3552
X6.4248Y-3.9896
X6.436Y-3.9041
X6.4368Y-4.0913
X6.4389Y-4.6181
X6.4418Y-4.0196
X6.4488Y-3.6207
X6.4553Y-3.5942
X6.466Y-4.3562
X6.4709Y-3.9807
X6.4716Y-3.9531
X6.4764Y-4.5085
X6.4813Y-3.5221
X6.5161Y-3.535
X6.5287Y-3.3418
X6.5329Y-3.9711
X6.535Y-3.6819
X6.5365Y-3.4726
X6.5506Y-3.9322
X6.5577Y-4.4484
X6.5902Y-4.1726
X6.6072Y-4.0736
X6.6263Y-4.2214
X6.6319Y-3.9499
X6.639Y-3.7661
X6.6496Y-4.1161
X6.6546Y-3.8184
X6.6558Y-3.9601
X6.6567Y-4.0242
X6.6597Y-4.2573
X6.6792Y-4.2378
X6.6793Y-4.6181
X6.6929Y-4.3147
X6.694Y-3.4996
X6.6991Y-4.0666
X6.6998Y-4.2537
X6.7019Y-3.6579
X6.7055Y-3.7731
X6.7064Y-3.9747
X6.7203Y-4.2434
X6.7309Y-3.9287
X6.7436Y-4.558
X6.7497Y-4.4317
X6.7553Y-3.9887
X6.7557Y-3.614
X6.7627Y-4.1882
X6.7684Y-3.9662
X6.7691Y-4.0107
X6.7728Y-4.3412
X6.7804Y-4.0899
X6.7847Y-3.6755
X6.7934Y-3.8922
X6.8117Y-3.9107
X6.8136Y-3.9662
X6.8193Y-3.7908
X6.8204Y-4.4812
X6.825Y-4.0171
X6.8309Y-4.3218
X6.8332Y-3.6377
X6.8568Y-4.3275
X6.8611Y-4.2947
X6.8688Y-4.3918
X6.8957Y-4.2872
X6.9042Y-4.4413
X6.9354Y-4.0015
X6.9409Y-3.7456
X6.9416Y-4.2441
X6.9466Y-4.4965
X6.9607Y-4.3565
X6.9749Y-4.6167
X6.9919Y-4.4523
X6.9961Y-4.3848
X7.0173Y-4.1811
X7.0222Y-4.5085
X7.0371Y-4.3361
X7.0593Y-4.3584
X7.0597Y-4.447
X7.0663Y-4.3069
X7.0668Y-3.8714
X7.0774Y-4.2681
X7.0886Y-4.3292
X7.1049Y-4.1304
X7.1057Y-4.2115
X7.1157Y-4.3846
X7.1163Y-4.4131
X7.1417Y-4.6181
X7.1516Y-4.2575
X7.1884Y-4.4668
X7.2082Y-4.3805
X7.2146Y-4.0206
X7.2917Y-4.4668
X7.2938Y-4.0998
T3
X5.0728Y-3.7767
X5.0743Y-3.9322
X6.1913Y-3.5119
X6.211Y-3.4837
X6.213Y-3.5386
X6.3362Y-3.9926
X6.5788Y-3.4762
X6.6011Y-3.9088
X6.907Y-4.0524
T6
X6.6918Y-4.5492
X6.7475Y-4.4935
X6.1504Y-3.954
X6.206Y-3.8983
T4
G00X6.7611Y-3.7897
M15
G01X6.75Y-3.8008
M16
G05
G00X6.8959Y-3.9244
M15
G01X6.8847Y-3.9356
M16
G05
T5
G00X6.8374Y-3.6962
M15
G01X6.8235Y-3.7101
M16
G05
G00X6.9894Y-3.8482
M15
G01X6.9755Y-3.8621
M16
G05
T0
M30
