G04 #@! TF.GenerationSoftware,KiCad,Pcbnew,5.1.2*
G04 #@! TF.CreationDate,2019-07-30T21:51:59-07:00*
G04 #@! TF.ProjectId,totoro,746f746f-726f-42e6-9b69-6361645f7063,rev?*
G04 #@! TF.SameCoordinates,Original*
G04 #@! TF.FileFunction,Copper,L2,Inr*
G04 #@! TF.FilePolarity,Positive*
%FSLAX46Y46*%
G04 Gerber Fmt 4.6, Leading zero omitted, Abs format (unit mm)*
G04 Created by KiCad (PCBNEW 5.1.2) date 2019-07-30 21:51:59*
%MOMM*%
%LPD*%
G04 APERTURE LIST*
%ADD10C,0.500000*%
%ADD11C,1.350000*%
%ADD12C,1.350000*%
%ADD13C,0.100000*%
%ADD14C,1.100000*%
%ADD15C,1.100000*%
%ADD16C,0.508000*%
%ADD17C,0.762000*%
%ADD18C,0.254000*%
G04 APERTURE END LIST*
D10*
X161431403Y-89970589D03*
X162265789Y-89136203D03*
X162265789Y-90804975D03*
X163100175Y-89970589D03*
D11*
X157633533Y-99016606D03*
D12*
X157633533Y-99016606D02*
X157633533Y-99016606D01*
D11*
X156219319Y-100430820D03*
D13*
G36*
X157173913Y-100430820D02*
G01*
X156219319Y-101385414D01*
X155264725Y-100430820D01*
X156219319Y-99476226D01*
X157173913Y-100430820D01*
X157173913Y-100430820D01*
G37*
D11*
X169971132Y-115548763D03*
D12*
X169971132Y-115548763D02*
X169971132Y-115548763D01*
D11*
X171385346Y-114134549D03*
D13*
G36*
X170430752Y-114134549D02*
G01*
X171385346Y-113179955D01*
X172339940Y-114134549D01*
X171385346Y-115089143D01*
X170430752Y-114134549D01*
X170430752Y-114134549D01*
G37*
D14*
X175013510Y-99822001D03*
D15*
X175154931Y-99680580D02*
X174872089Y-99963422D01*
D14*
X171591113Y-96399605D03*
D15*
X171732534Y-96258184D02*
X171449692Y-96541026D01*
D11*
X177354033Y-97919884D03*
D12*
X177477777Y-97796140D02*
X177230289Y-98043628D01*
D11*
X173493230Y-94059081D03*
D12*
X173616974Y-93935337D02*
X173369486Y-94182825D01*
D16*
X170318746Y-95837454D03*
X162901054Y-85222792D03*
X127590687Y-85761607D03*
X137774297Y-85851409D03*
X145335673Y-101063963D03*
X132655551Y-103578435D03*
X127770292Y-96825282D03*
X127770292Y-98800939D03*
X127770292Y-100058175D03*
X126872266Y-101674621D03*
X126692661Y-103650277D03*
X127860095Y-103021659D03*
X148245276Y-95388441D03*
X148065671Y-94490416D03*
X146628830Y-94310811D03*
X153902837Y-92245352D03*
X154980468Y-98351926D03*
X154351850Y-104907513D03*
X154800863Y-103919685D03*
X155339678Y-106434157D03*
X160278819Y-110475272D03*
X161266647Y-109307838D03*
X162434081Y-108140405D03*
X170695916Y-107781195D03*
X171935182Y-101872196D03*
X170965324Y-99788767D03*
X169079470Y-102213436D03*
X170157101Y-103291067D03*
X168899865Y-104548303D03*
X167822234Y-103470672D03*
X173210388Y-96286467D03*
X168450852Y-100327582D03*
X165936373Y-100866405D03*
X166385400Y-99878562D03*
X174467624Y-111552903D03*
X175365649Y-112810138D03*
X176802490Y-110654877D03*
X177700516Y-111373297D03*
X179483839Y-109394813D03*
X180049525Y-109960498D03*
X179307063Y-110702960D03*
X178741377Y-110137275D03*
X179765975Y-108409813D03*
X180740003Y-111369251D03*
X180484395Y-106972972D03*
X181651829Y-108140405D03*
X180753803Y-112091718D03*
X159867283Y-88883059D03*
X163798797Y-91966045D03*
X165509995Y-89788156D03*
X137119658Y-91874121D03*
X133032581Y-95961198D03*
X133060865Y-91888263D03*
X134029601Y-92856999D03*
X134171023Y-94822756D03*
X136165064Y-92828715D03*
X136523255Y-95197552D03*
X137035110Y-95807295D03*
X149946575Y-87235500D03*
X151686058Y-89003267D03*
X163622020Y-102098885D03*
X163473528Y-99164392D03*
X162087598Y-87638551D03*
X174271048Y-109085100D03*
X148009102Y-96272325D03*
X142229477Y-83023844D03*
X140718831Y-87200145D03*
X146142437Y-99714829D03*
X149100814Y-100127154D03*
X151671915Y-100070439D03*
X143236825Y-99269044D03*
X136815607Y-99997771D03*
X135852809Y-99183418D03*
X137971863Y-82564636D03*
X147544816Y-83767990D03*
X145928370Y-81936018D03*
X131631802Y-81900097D03*
X128219305Y-81864176D03*
X130733777Y-82798122D03*
X126513056Y-83606345D03*
X130428448Y-86048975D03*
X134200155Y-89820683D03*
X139642191Y-83013649D03*
X136103970Y-85905291D03*
X139426664Y-89156144D03*
X143490690Y-96548097D03*
X143611464Y-93771995D03*
X142821201Y-92478839D03*
X143018767Y-90377459D03*
X141294558Y-95729691D03*
X138869889Y-103901724D03*
X144383766Y-103883764D03*
X149304946Y-103847843D03*
X153992640Y-107709353D03*
X159534943Y-113257030D03*
X163547632Y-117300266D03*
X169654207Y-117300266D03*
X177161701Y-117264345D03*
X181400382Y-117300266D03*
X185208010Y-113456717D03*
X185261892Y-104135211D03*
X179496567Y-98333965D03*
X176159023Y-101639265D03*
X183088670Y-111265534D03*
X182585775Y-113456717D03*
X179316962Y-112953822D03*
X178365055Y-114516387D03*
X177594450Y-113087324D03*
X176443280Y-114211058D03*
X183250314Y-102123634D03*
X180465304Y-104913170D03*
X178239331Y-106200670D03*
X176317557Y-107799155D03*
X175150123Y-108894747D03*
X173354072Y-102033831D03*
X172222560Y-103883764D03*
X171773547Y-106380275D03*
X169025589Y-96986927D03*
X173563941Y-92397380D03*
X176299596Y-95136994D03*
X170228943Y-92909891D03*
X172330323Y-93358904D03*
X170028407Y-88890130D03*
X147733331Y-87186003D03*
X149304946Y-88796933D03*
X152286391Y-91814300D03*
X151298563Y-92083707D03*
X152465996Y-95873375D03*
X146682711Y-93035614D03*
X150310735Y-92820088D03*
X150310735Y-97920874D03*
X156758559Y-103183304D03*
X158806057Y-103758040D03*
X160925398Y-106272512D03*
X158099516Y-109106313D03*
X161769542Y-113187309D03*
X163493751Y-103919685D03*
X132579745Y-82700803D03*
X154427525Y-101060131D03*
X170173680Y-108044507D03*
X151639813Y-99054418D03*
X168307168Y-107224419D03*
X159614280Y-102482844D03*
X157816673Y-100606890D03*
X157800268Y-102572646D03*
X155555204Y-90521143D03*
X160171056Y-85402397D03*
X158417714Y-87702191D03*
X165828617Y-84881542D03*
X166026183Y-88204237D03*
X164625263Y-89461472D03*
X157153690Y-94526337D03*
X159577369Y-96908721D03*
X162613686Y-93771995D03*
X161697700Y-97669427D03*
X165990262Y-93520548D03*
X141411796Y-89929577D03*
X138540942Y-93663101D03*
X133845753Y-97919884D03*
X132162839Y-99956351D03*
X138265171Y-99963422D03*
X138286384Y-96477386D03*
X141044100Y-99984636D03*
X148772778Y-85891997D03*
X146785808Y-89689161D03*
X146729239Y-101412991D03*
X152138606Y-101632194D03*
X158870262Y-106143536D03*
X164237203Y-110647806D03*
X170000123Y-109594217D03*
X171442621Y-112564065D03*
X172029520Y-110265968D03*
X171287058Y-115774330D03*
X173238672Y-113822715D03*
X160192552Y-99206818D03*
X153694241Y-90855887D03*
X142461991Y-86120817D03*
D17*
X128847923Y-95927257D03*
D16*
X130554171Y-96555875D03*
D17*
X128887398Y-99878570D03*
D16*
X129717231Y-102810574D03*
X166564998Y-112989743D03*
X164499540Y-114516387D03*
X173066704Y-100740674D03*
X168630457Y-95657849D03*
X171593942Y-91796339D03*
X160919341Y-88276156D03*
D17*
X157809602Y-89880080D03*
X157760105Y-88487079D03*
X157258059Y-89201257D03*
D16*
X163963532Y-91292471D03*
X158368217Y-95869274D03*
X155721782Y-94773259D03*
X162462365Y-101137220D03*
X164378624Y-100408900D03*
X161012796Y-86507180D03*
X173504734Y-109773952D03*
X147613122Y-96880437D03*
X147782828Y-100104844D03*
X150462763Y-100578605D03*
X140888537Y-83028215D03*
X142041121Y-87362780D03*
X142698234Y-99774522D03*
X136630190Y-99355426D03*
X169157168Y-108134562D03*
X170343266Y-100956712D03*
D17*
X167666671Y-99284600D03*
X175437491Y-102931857D03*
D16*
X130248843Y-99986333D03*
X153274219Y-102752252D03*
X169058562Y-100586103D03*
D17*
X167100985Y-88296160D03*
X160940111Y-101412165D03*
D16*
X146844356Y-91077919D03*
X141546005Y-86857198D03*
X150993234Y-100070439D03*
X155160073Y-103201264D03*
X136127658Y-99783918D03*
X142641596Y-88707131D03*
X148020417Y-84735170D03*
X164361423Y-101110727D03*
X171917231Y-100740674D03*
X173016141Y-99330904D03*
X172552072Y-98861043D03*
X171585714Y-101311837D03*
X167391189Y-105985137D03*
X145120147Y-84468450D03*
X147933839Y-85840236D03*
X163191146Y-101335999D03*
X169651369Y-107640361D03*
X148694996Y-96618807D03*
X161005725Y-87391064D03*
X148442842Y-100070439D03*
X161173302Y-104048951D03*
X143342198Y-99920996D03*
X141552698Y-83229175D03*
X174162295Y-109918496D03*
X146612845Y-100178359D03*
X150077248Y-93915679D03*
D18*
G36*
X154438725Y-90033423D02*
G01*
X154454751Y-90052951D01*
X154474279Y-90068977D01*
X154474284Y-90068982D01*
X154532712Y-90116932D01*
X154621659Y-90164476D01*
X154715712Y-90193006D01*
X154715194Y-90194715D01*
X154712754Y-90219491D01*
X154715194Y-90244267D01*
X154722421Y-90268092D01*
X154734157Y-90290048D01*
X154749951Y-90309294D01*
X154769197Y-90325088D01*
X154791153Y-90336824D01*
X154814978Y-90344051D01*
X154839754Y-90346491D01*
X154864530Y-90344051D01*
X154888355Y-90336824D01*
X154910311Y-90325088D01*
X154929557Y-90309294D01*
X156569596Y-88669255D01*
X156488847Y-88790105D01*
X156423416Y-88948071D01*
X156390059Y-89115766D01*
X156390059Y-89286748D01*
X156423416Y-89454443D01*
X156488847Y-89612409D01*
X156583839Y-89754575D01*
X156704741Y-89875477D01*
X156846907Y-89970469D01*
X156951166Y-90013654D01*
X156974959Y-90133266D01*
X157040390Y-90291232D01*
X157135382Y-90433398D01*
X157256284Y-90554300D01*
X157398450Y-90649292D01*
X157556416Y-90714723D01*
X157724111Y-90748080D01*
X157895093Y-90748080D01*
X158062788Y-90714723D01*
X158220754Y-90649292D01*
X158362920Y-90554300D01*
X158483822Y-90433398D01*
X158578814Y-90291232D01*
X158644245Y-90133266D01*
X158677602Y-89965571D01*
X158677602Y-89794589D01*
X158644245Y-89626894D01*
X158578814Y-89468928D01*
X158483822Y-89326762D01*
X158362920Y-89205860D01*
X158304826Y-89167043D01*
X158313423Y-89161299D01*
X158434325Y-89040397D01*
X158529317Y-88898231D01*
X158594748Y-88740265D01*
X158628105Y-88572570D01*
X158628105Y-88401588D01*
X158594748Y-88233893D01*
X158582024Y-88203174D01*
X160178341Y-88203174D01*
X160178341Y-88349138D01*
X160206818Y-88492298D01*
X160262676Y-88627151D01*
X160343769Y-88748516D01*
X160446981Y-88851728D01*
X160568346Y-88932821D01*
X160703199Y-88988679D01*
X160846359Y-89017156D01*
X160992323Y-89017156D01*
X161135483Y-88988679D01*
X161270336Y-88932821D01*
X161391701Y-88851728D01*
X161494913Y-88748516D01*
X161576006Y-88627151D01*
X161631864Y-88492298D01*
X161660341Y-88349138D01*
X161660341Y-88210669D01*
X166232985Y-88210669D01*
X166232985Y-88381651D01*
X166266342Y-88549346D01*
X166331773Y-88707312D01*
X166426765Y-88849478D01*
X166547667Y-88970380D01*
X166689833Y-89065372D01*
X166847799Y-89130803D01*
X167015494Y-89164160D01*
X167186476Y-89164160D01*
X167354171Y-89130803D01*
X167512137Y-89065372D01*
X167654303Y-88970380D01*
X167775205Y-88849478D01*
X167870197Y-88707312D01*
X167935628Y-88549346D01*
X167968985Y-88381651D01*
X167968985Y-88210669D01*
X167935628Y-88042974D01*
X167870197Y-87885008D01*
X167775205Y-87742842D01*
X167654303Y-87621940D01*
X167512137Y-87526948D01*
X167354171Y-87461517D01*
X167186476Y-87428160D01*
X167015494Y-87428160D01*
X166847799Y-87461517D01*
X166689833Y-87526948D01*
X166547667Y-87621940D01*
X166426765Y-87742842D01*
X166331773Y-87885008D01*
X166266342Y-88042974D01*
X166232985Y-88210669D01*
X161660341Y-88210669D01*
X161660341Y-88203174D01*
X161631864Y-88060014D01*
X161576006Y-87925161D01*
X161553397Y-87891324D01*
X161581297Y-87863424D01*
X161662390Y-87742059D01*
X161718248Y-87607206D01*
X161746725Y-87464046D01*
X161746725Y-87318082D01*
X161718248Y-87174922D01*
X161662390Y-87040069D01*
X161605157Y-86954413D01*
X161669461Y-86858175D01*
X161725319Y-86723322D01*
X161753796Y-86580162D01*
X161753796Y-86434198D01*
X161725319Y-86291038D01*
X161669461Y-86156185D01*
X161588368Y-86034820D01*
X161485156Y-85931608D01*
X161363791Y-85850515D01*
X161228938Y-85794657D01*
X161085778Y-85766180D01*
X160939814Y-85766180D01*
X160796654Y-85794657D01*
X160661801Y-85850515D01*
X160540436Y-85931608D01*
X160437224Y-86034820D01*
X160356131Y-86156185D01*
X160300273Y-86291038D01*
X160271796Y-86434198D01*
X160271796Y-86580162D01*
X160300273Y-86723322D01*
X160356131Y-86858175D01*
X160413364Y-86943831D01*
X160349060Y-87040069D01*
X160293202Y-87174922D01*
X160264725Y-87318082D01*
X160264725Y-87464046D01*
X160293202Y-87607206D01*
X160349060Y-87742059D01*
X160371669Y-87775896D01*
X160343769Y-87803796D01*
X160262676Y-87925161D01*
X160206818Y-88060014D01*
X160178341Y-88203174D01*
X158582024Y-88203174D01*
X158529317Y-88075927D01*
X158434325Y-87933761D01*
X158313423Y-87812859D01*
X158171257Y-87717867D01*
X158013291Y-87652436D01*
X157845596Y-87619079D01*
X157674614Y-87619079D01*
X157606154Y-87632697D01*
X160694544Y-84544307D01*
X165913100Y-84544307D01*
X185419239Y-104050446D01*
X185419240Y-113511641D01*
X181478587Y-117452294D01*
X181474296Y-117457523D01*
X163519063Y-117457523D01*
X161610303Y-115548763D01*
X168803510Y-115548763D01*
X168825946Y-115776555D01*
X168892390Y-115995593D01*
X169000290Y-116197459D01*
X169145499Y-116374396D01*
X169322436Y-116519605D01*
X169524302Y-116627505D01*
X169743340Y-116693949D01*
X169914052Y-116710763D01*
X170028212Y-116710763D01*
X170198924Y-116693949D01*
X170417962Y-116627505D01*
X170619828Y-116519605D01*
X170796765Y-116374396D01*
X170941974Y-116197459D01*
X171049874Y-115995593D01*
X171116318Y-115776555D01*
X171138754Y-115548763D01*
X171134676Y-115507361D01*
X171198078Y-115541249D01*
X171289877Y-115569096D01*
X171385346Y-115578499D01*
X171480815Y-115569096D01*
X171572614Y-115541249D01*
X171657218Y-115496028D01*
X171731373Y-115435170D01*
X172685967Y-114480576D01*
X172746825Y-114406421D01*
X172792046Y-114321817D01*
X172819893Y-114230018D01*
X172829296Y-114134549D01*
X172819893Y-114039080D01*
X172792046Y-113947281D01*
X172746825Y-113862677D01*
X172685967Y-113788522D01*
X171731373Y-112833928D01*
X171657218Y-112773070D01*
X171572614Y-112727849D01*
X171480815Y-112700002D01*
X171385346Y-112690599D01*
X171289877Y-112700002D01*
X171198078Y-112727849D01*
X171113474Y-112773070D01*
X171039319Y-112833928D01*
X170084725Y-113788522D01*
X170023867Y-113862677D01*
X169978646Y-113947281D01*
X169950799Y-114039080D01*
X169941396Y-114134549D01*
X169950799Y-114230018D01*
X169978646Y-114321817D01*
X170013360Y-114386763D01*
X169914052Y-114386763D01*
X169743340Y-114403577D01*
X169524302Y-114470021D01*
X169322436Y-114577921D01*
X169145499Y-114723130D01*
X169000290Y-114900067D01*
X168892390Y-115101933D01*
X168825946Y-115320971D01*
X168803510Y-115548763D01*
X161610303Y-115548763D01*
X160504945Y-114443405D01*
X163758540Y-114443405D01*
X163758540Y-114589369D01*
X163787017Y-114732529D01*
X163842875Y-114867382D01*
X163923968Y-114988747D01*
X164027180Y-115091959D01*
X164148545Y-115173052D01*
X164283398Y-115228910D01*
X164426558Y-115257387D01*
X164572522Y-115257387D01*
X164715682Y-115228910D01*
X164850535Y-115173052D01*
X164971900Y-115091959D01*
X165075112Y-114988747D01*
X165156205Y-114867382D01*
X165212063Y-114732529D01*
X165240540Y-114589369D01*
X165240540Y-114443405D01*
X165212063Y-114300245D01*
X165156205Y-114165392D01*
X165075112Y-114044027D01*
X164971900Y-113940815D01*
X164850535Y-113859722D01*
X164715682Y-113803864D01*
X164572522Y-113775387D01*
X164426558Y-113775387D01*
X164283398Y-113803864D01*
X164148545Y-113859722D01*
X164027180Y-113940815D01*
X163923968Y-114044027D01*
X163842875Y-114165392D01*
X163787017Y-114300245D01*
X163758540Y-114443405D01*
X160504945Y-114443405D01*
X158978301Y-112916761D01*
X165823998Y-112916761D01*
X165823998Y-113062725D01*
X165852475Y-113205885D01*
X165908333Y-113340738D01*
X165989426Y-113462103D01*
X166092638Y-113565315D01*
X166214003Y-113646408D01*
X166348856Y-113702266D01*
X166492016Y-113730743D01*
X166637980Y-113730743D01*
X166781140Y-113702266D01*
X166915993Y-113646408D01*
X167037358Y-113565315D01*
X167140570Y-113462103D01*
X167221663Y-113340738D01*
X167277521Y-113205885D01*
X167305998Y-113062725D01*
X167305998Y-112916761D01*
X167277521Y-112773601D01*
X167221663Y-112638748D01*
X167140570Y-112517383D01*
X167037358Y-112414171D01*
X166915993Y-112333078D01*
X166781140Y-112277220D01*
X166637980Y-112248743D01*
X166492016Y-112248743D01*
X166348856Y-112277220D01*
X166214003Y-112333078D01*
X166092638Y-112414171D01*
X165989426Y-112517383D01*
X165908333Y-112638748D01*
X165852475Y-112773601D01*
X165823998Y-112916761D01*
X158978301Y-112916761D01*
X155762510Y-109700970D01*
X172763734Y-109700970D01*
X172763734Y-109846934D01*
X172792211Y-109990094D01*
X172848069Y-110124947D01*
X172929162Y-110246312D01*
X173032374Y-110349524D01*
X173153739Y-110430617D01*
X173288592Y-110486475D01*
X173431752Y-110514952D01*
X173577716Y-110514952D01*
X173688735Y-110492868D01*
X173689935Y-110494068D01*
X173811300Y-110575161D01*
X173946153Y-110631019D01*
X174089313Y-110659496D01*
X174235277Y-110659496D01*
X174378437Y-110631019D01*
X174513290Y-110575161D01*
X174634655Y-110494068D01*
X174737867Y-110390856D01*
X174818960Y-110269491D01*
X174874818Y-110134638D01*
X174903295Y-109991478D01*
X174903295Y-109845514D01*
X174874818Y-109702354D01*
X174818960Y-109567501D01*
X174737867Y-109446136D01*
X174634655Y-109342924D01*
X174513290Y-109261831D01*
X174378437Y-109205973D01*
X174235277Y-109177496D01*
X174089313Y-109177496D01*
X173978294Y-109199580D01*
X173977094Y-109198380D01*
X173855729Y-109117287D01*
X173720876Y-109061429D01*
X173577716Y-109032952D01*
X173431752Y-109032952D01*
X173288592Y-109061429D01*
X173153739Y-109117287D01*
X173032374Y-109198380D01*
X172929162Y-109301592D01*
X172848069Y-109422957D01*
X172792211Y-109557810D01*
X172763734Y-109700970D01*
X155762510Y-109700970D01*
X154123120Y-108061580D01*
X168416168Y-108061580D01*
X168416168Y-108207544D01*
X168444645Y-108350704D01*
X168500503Y-108485557D01*
X168581596Y-108606922D01*
X168684808Y-108710134D01*
X168806173Y-108791227D01*
X168941026Y-108847085D01*
X169084186Y-108875562D01*
X169230150Y-108875562D01*
X169373310Y-108847085D01*
X169508163Y-108791227D01*
X169629528Y-108710134D01*
X169732740Y-108606922D01*
X169813833Y-108485557D01*
X169869052Y-108352245D01*
X170002364Y-108297026D01*
X170123729Y-108215933D01*
X170226941Y-108112721D01*
X170308034Y-107991356D01*
X170363892Y-107856503D01*
X170392369Y-107713343D01*
X170392369Y-107567379D01*
X170363892Y-107424219D01*
X170308034Y-107289366D01*
X170226941Y-107168001D01*
X170123729Y-107064789D01*
X170002364Y-106983696D01*
X169867511Y-106927838D01*
X169724351Y-106899361D01*
X169578387Y-106899361D01*
X169435227Y-106927838D01*
X169300374Y-106983696D01*
X169179009Y-107064789D01*
X169075797Y-107168001D01*
X168994704Y-107289366D01*
X168939485Y-107422678D01*
X168806173Y-107477897D01*
X168684808Y-107558990D01*
X168581596Y-107662202D01*
X168500503Y-107783567D01*
X168444645Y-107918420D01*
X168416168Y-108061580D01*
X154123120Y-108061580D01*
X151973695Y-105912155D01*
X166650189Y-105912155D01*
X166650189Y-106058119D01*
X166678666Y-106201279D01*
X166734524Y-106336132D01*
X166815617Y-106457497D01*
X166918829Y-106560709D01*
X167040194Y-106641802D01*
X167175047Y-106697660D01*
X167318207Y-106726137D01*
X167464171Y-106726137D01*
X167607331Y-106697660D01*
X167742184Y-106641802D01*
X167863549Y-106560709D01*
X167966761Y-106457497D01*
X168047854Y-106336132D01*
X168103712Y-106201279D01*
X168132189Y-106058119D01*
X168132189Y-105912155D01*
X168103712Y-105768995D01*
X168047854Y-105634142D01*
X168043372Y-105627434D01*
X172232175Y-105627434D01*
X172276381Y-106021540D01*
X172396294Y-106399553D01*
X172587346Y-106747076D01*
X172842261Y-107050871D01*
X173151329Y-107299368D01*
X173502776Y-107483101D01*
X173883218Y-107595071D01*
X174278163Y-107631013D01*
X174672567Y-107589560D01*
X175051409Y-107472289D01*
X175400257Y-107283667D01*
X175705825Y-107030880D01*
X175956473Y-106723555D01*
X176142655Y-106373398D01*
X176257278Y-105993747D01*
X176295977Y-105599063D01*
X176295185Y-105542326D01*
X176245480Y-105148876D01*
X176120301Y-104772574D01*
X175924415Y-104427753D01*
X175665284Y-104127546D01*
X175352777Y-103883389D01*
X174998798Y-103704581D01*
X174616830Y-103597934D01*
X174221422Y-103567509D01*
X173827635Y-103614465D01*
X173450468Y-103737014D01*
X173104287Y-103930488D01*
X172802279Y-104187517D01*
X172555946Y-104498312D01*
X172374671Y-104851034D01*
X172265360Y-105232248D01*
X172232175Y-105627434D01*
X168043372Y-105627434D01*
X167966761Y-105512777D01*
X167863549Y-105409565D01*
X167742184Y-105328472D01*
X167607331Y-105272614D01*
X167464171Y-105244137D01*
X167318207Y-105244137D01*
X167175047Y-105272614D01*
X167040194Y-105328472D01*
X166918829Y-105409565D01*
X166815617Y-105512777D01*
X166734524Y-105634142D01*
X166678666Y-105768995D01*
X166650189Y-105912155D01*
X151973695Y-105912155D01*
X150128302Y-104066763D01*
X150109056Y-104050969D01*
X150087100Y-104039233D01*
X150063275Y-104032006D01*
X150038499Y-104029566D01*
X149926054Y-104029566D01*
X149893941Y-104026403D01*
X149893933Y-104026403D01*
X149868793Y-104023927D01*
X149843653Y-104026403D01*
X126368942Y-104026403D01*
X126364410Y-104022684D01*
X126342454Y-104010948D01*
X126339163Y-104009950D01*
X126339163Y-103975969D01*
X160432302Y-103975969D01*
X160432302Y-104121933D01*
X160460779Y-104265093D01*
X160516637Y-104399946D01*
X160597730Y-104521311D01*
X160700942Y-104624523D01*
X160822307Y-104705616D01*
X160957160Y-104761474D01*
X161100320Y-104789951D01*
X161246284Y-104789951D01*
X161389444Y-104761474D01*
X161524297Y-104705616D01*
X161645662Y-104624523D01*
X161748874Y-104521311D01*
X161829967Y-104399946D01*
X161885825Y-104265093D01*
X161914302Y-104121933D01*
X161914302Y-103975969D01*
X161885825Y-103832809D01*
X161829967Y-103697956D01*
X161748874Y-103576591D01*
X161645662Y-103473379D01*
X161524297Y-103392286D01*
X161389444Y-103336428D01*
X161246284Y-103307951D01*
X161100320Y-103307951D01*
X160957160Y-103336428D01*
X160822307Y-103392286D01*
X160700942Y-103473379D01*
X160597730Y-103576591D01*
X160516637Y-103697956D01*
X160460779Y-103832809D01*
X160432302Y-103975969D01*
X126339163Y-103975969D01*
X126339163Y-102737592D01*
X128976231Y-102737592D01*
X128976231Y-102883556D01*
X129004708Y-103026716D01*
X129060566Y-103161569D01*
X129141659Y-103282934D01*
X129244871Y-103386146D01*
X129366236Y-103467239D01*
X129501089Y-103523097D01*
X129644249Y-103551574D01*
X129790213Y-103551574D01*
X129933373Y-103523097D01*
X130068226Y-103467239D01*
X130189591Y-103386146D01*
X130292803Y-103282934D01*
X130373896Y-103161569D01*
X130429754Y-103026716D01*
X130458231Y-102883556D01*
X130458231Y-102737592D01*
X130446630Y-102679270D01*
X152533219Y-102679270D01*
X152533219Y-102825234D01*
X152561696Y-102968394D01*
X152617554Y-103103247D01*
X152698647Y-103224612D01*
X152801859Y-103327824D01*
X152923224Y-103408917D01*
X153058077Y-103464775D01*
X153201237Y-103493252D01*
X153347201Y-103493252D01*
X153490361Y-103464775D01*
X153625214Y-103408917D01*
X153746579Y-103327824D01*
X153849791Y-103224612D01*
X153914156Y-103128282D01*
X154419073Y-103128282D01*
X154419073Y-103274246D01*
X154447550Y-103417406D01*
X154503408Y-103552259D01*
X154584501Y-103673624D01*
X154687713Y-103776836D01*
X154809078Y-103857929D01*
X154943931Y-103913787D01*
X155087091Y-103942264D01*
X155233055Y-103942264D01*
X155376215Y-103913787D01*
X155511068Y-103857929D01*
X155632433Y-103776836D01*
X155735645Y-103673624D01*
X155816738Y-103552259D01*
X155872596Y-103417406D01*
X155901073Y-103274246D01*
X155901073Y-103128282D01*
X155872596Y-102985122D01*
X155816738Y-102850269D01*
X155814131Y-102846366D01*
X174569491Y-102846366D01*
X174569491Y-103017348D01*
X174602848Y-103185043D01*
X174668279Y-103343009D01*
X174763271Y-103485175D01*
X174884173Y-103606077D01*
X175026339Y-103701069D01*
X175184305Y-103766500D01*
X175352000Y-103799857D01*
X175522982Y-103799857D01*
X175690677Y-103766500D01*
X175848643Y-103701069D01*
X175990809Y-103606077D01*
X176111711Y-103485175D01*
X176206703Y-103343009D01*
X176272134Y-103185043D01*
X176305491Y-103017348D01*
X176305491Y-102846366D01*
X176272134Y-102678671D01*
X176206703Y-102520705D01*
X176111711Y-102378539D01*
X175990809Y-102257637D01*
X175848643Y-102162645D01*
X175690677Y-102097214D01*
X175522982Y-102063857D01*
X175352000Y-102063857D01*
X175184305Y-102097214D01*
X175026339Y-102162645D01*
X174884173Y-102257637D01*
X174763271Y-102378539D01*
X174668279Y-102520705D01*
X174602848Y-102678671D01*
X174569491Y-102846366D01*
X155814131Y-102846366D01*
X155735645Y-102728904D01*
X155632433Y-102625692D01*
X155511068Y-102544599D01*
X155376215Y-102488741D01*
X155233055Y-102460264D01*
X155087091Y-102460264D01*
X154943931Y-102488741D01*
X154809078Y-102544599D01*
X154687713Y-102625692D01*
X154584501Y-102728904D01*
X154503408Y-102850269D01*
X154447550Y-102985122D01*
X154419073Y-103128282D01*
X153914156Y-103128282D01*
X153930884Y-103103247D01*
X153986742Y-102968394D01*
X154015219Y-102825234D01*
X154015219Y-102679270D01*
X153986742Y-102536110D01*
X153930884Y-102401257D01*
X153849791Y-102279892D01*
X153746579Y-102176680D01*
X153625214Y-102095587D01*
X153490361Y-102039729D01*
X153347201Y-102011252D01*
X153201237Y-102011252D01*
X153058077Y-102039729D01*
X152923224Y-102095587D01*
X152801859Y-102176680D01*
X152698647Y-102279892D01*
X152617554Y-102401257D01*
X152561696Y-102536110D01*
X152533219Y-102679270D01*
X130446630Y-102679270D01*
X130429754Y-102594432D01*
X130373896Y-102459579D01*
X130292803Y-102338214D01*
X130189591Y-102235002D01*
X130068226Y-102153909D01*
X129933373Y-102098051D01*
X129790213Y-102069574D01*
X129644249Y-102069574D01*
X129501089Y-102098051D01*
X129366236Y-102153909D01*
X129244871Y-102235002D01*
X129141659Y-102338214D01*
X129060566Y-102459579D01*
X129004708Y-102594432D01*
X128976231Y-102737592D01*
X126339163Y-102737592D01*
X126339163Y-101326674D01*
X160072111Y-101326674D01*
X160072111Y-101497656D01*
X160105468Y-101665351D01*
X160170899Y-101823317D01*
X160265891Y-101965483D01*
X160386793Y-102086385D01*
X160528959Y-102181377D01*
X160686925Y-102246808D01*
X160854620Y-102280165D01*
X161025602Y-102280165D01*
X161193297Y-102246808D01*
X161351263Y-102181377D01*
X161493429Y-102086385D01*
X161614331Y-101965483D01*
X161709323Y-101823317D01*
X161774754Y-101665351D01*
X161808111Y-101497656D01*
X161808111Y-101491823D01*
X161886793Y-101609580D01*
X161990005Y-101712792D01*
X162111370Y-101793885D01*
X162246223Y-101849743D01*
X162389383Y-101878220D01*
X162535347Y-101878220D01*
X162660533Y-101853318D01*
X162718786Y-101911571D01*
X162840151Y-101992664D01*
X162975004Y-102048522D01*
X163118164Y-102076999D01*
X163264128Y-102076999D01*
X163407288Y-102048522D01*
X163542141Y-101992664D01*
X163663506Y-101911571D01*
X163766718Y-101808359D01*
X163847811Y-101686994D01*
X163860097Y-101657333D01*
X163889063Y-101686299D01*
X164010428Y-101767392D01*
X164145281Y-101823250D01*
X164288441Y-101851727D01*
X164434405Y-101851727D01*
X164577565Y-101823250D01*
X164712418Y-101767392D01*
X164833783Y-101686299D01*
X164936995Y-101583087D01*
X165018088Y-101461722D01*
X165073946Y-101326869D01*
X165102423Y-101183709D01*
X165102423Y-101037745D01*
X165073946Y-100894585D01*
X165024712Y-100775724D01*
X165035289Y-100759895D01*
X165091147Y-100625042D01*
X165113410Y-100513121D01*
X168317562Y-100513121D01*
X168317562Y-100659085D01*
X168346039Y-100802245D01*
X168401897Y-100937098D01*
X168482990Y-101058463D01*
X168586202Y-101161675D01*
X168707567Y-101242768D01*
X168842420Y-101298626D01*
X168985580Y-101327103D01*
X169131544Y-101327103D01*
X169274704Y-101298626D01*
X169409557Y-101242768D01*
X169530922Y-101161675D01*
X169612327Y-101080270D01*
X169630743Y-101172854D01*
X169686601Y-101307707D01*
X169767694Y-101429072D01*
X169870906Y-101532284D01*
X169992271Y-101613377D01*
X170127124Y-101669235D01*
X170270284Y-101697712D01*
X170416248Y-101697712D01*
X170559408Y-101669235D01*
X170694261Y-101613377D01*
X170815626Y-101532284D01*
X170864354Y-101483556D01*
X170873191Y-101527979D01*
X170929049Y-101662832D01*
X171010142Y-101784197D01*
X171113354Y-101887409D01*
X171234719Y-101968502D01*
X171369572Y-102024360D01*
X171512732Y-102052837D01*
X171658696Y-102052837D01*
X171801856Y-102024360D01*
X171936709Y-101968502D01*
X172058074Y-101887409D01*
X172161286Y-101784197D01*
X172242379Y-101662832D01*
X172298237Y-101527979D01*
X172326714Y-101384819D01*
X172326714Y-101358259D01*
X172389591Y-101316246D01*
X172491968Y-101213870D01*
X172594344Y-101316246D01*
X172715709Y-101397339D01*
X172850562Y-101453197D01*
X172993722Y-101481674D01*
X173139686Y-101481674D01*
X173282846Y-101453197D01*
X173417699Y-101397339D01*
X173539064Y-101316246D01*
X173642276Y-101213034D01*
X173723369Y-101091669D01*
X173779227Y-100956816D01*
X173807704Y-100813656D01*
X173807704Y-100667692D01*
X173779227Y-100524532D01*
X173723369Y-100389679D01*
X173642276Y-100268314D01*
X173539064Y-100165102D01*
X173417699Y-100084009D01*
X173282846Y-100028151D01*
X173273602Y-100026312D01*
X173367136Y-99987569D01*
X173488501Y-99906476D01*
X173591713Y-99803264D01*
X173672806Y-99681899D01*
X173728664Y-99547046D01*
X173757141Y-99403886D01*
X173757141Y-99257922D01*
X173728664Y-99114762D01*
X173672806Y-98979909D01*
X173591713Y-98858544D01*
X173488501Y-98755332D01*
X173367136Y-98674239D01*
X173258027Y-98629045D01*
X173208737Y-98510048D01*
X173127644Y-98388683D01*
X173024432Y-98285471D01*
X172903067Y-98204378D01*
X172768214Y-98148520D01*
X172625054Y-98120043D01*
X172479090Y-98120043D01*
X172335930Y-98148520D01*
X172201077Y-98204378D01*
X172079712Y-98285471D01*
X171976500Y-98388683D01*
X171895407Y-98510048D01*
X171839549Y-98644901D01*
X171811072Y-98788061D01*
X171811072Y-98934025D01*
X171839549Y-99077185D01*
X171895407Y-99212038D01*
X171976500Y-99333403D01*
X172079712Y-99436615D01*
X172201077Y-99517708D01*
X172310186Y-99562902D01*
X172359476Y-99681899D01*
X172440569Y-99803264D01*
X172543781Y-99906476D01*
X172665146Y-99987569D01*
X172799999Y-100043427D01*
X172809243Y-100045266D01*
X172715709Y-100084009D01*
X172594344Y-100165102D01*
X172491968Y-100267479D01*
X172389591Y-100165102D01*
X172268226Y-100084009D01*
X172133373Y-100028151D01*
X171990213Y-99999674D01*
X171844249Y-99999674D01*
X171701089Y-100028151D01*
X171566236Y-100084009D01*
X171444871Y-100165102D01*
X171341659Y-100268314D01*
X171260566Y-100389679D01*
X171204708Y-100524532D01*
X171176231Y-100667692D01*
X171176231Y-100694252D01*
X171113354Y-100736265D01*
X171064626Y-100784993D01*
X171055789Y-100740570D01*
X170999931Y-100605717D01*
X170918838Y-100484352D01*
X170815626Y-100381140D01*
X170694261Y-100300047D01*
X170559408Y-100244189D01*
X170416248Y-100215712D01*
X170270284Y-100215712D01*
X170127124Y-100244189D01*
X169992271Y-100300047D01*
X169870906Y-100381140D01*
X169789501Y-100462545D01*
X169771085Y-100369961D01*
X169715227Y-100235108D01*
X169634134Y-100113743D01*
X169530922Y-100010531D01*
X169409557Y-99929438D01*
X169274704Y-99873580D01*
X169131544Y-99845103D01*
X168985580Y-99845103D01*
X168842420Y-99873580D01*
X168707567Y-99929438D01*
X168586202Y-100010531D01*
X168482990Y-100113743D01*
X168401897Y-100235108D01*
X168346039Y-100369961D01*
X168317562Y-100513121D01*
X165113410Y-100513121D01*
X165119624Y-100481882D01*
X165119624Y-100335918D01*
X165091147Y-100192758D01*
X165035289Y-100057905D01*
X164954196Y-99936540D01*
X164850984Y-99833328D01*
X164729619Y-99752235D01*
X164594766Y-99696377D01*
X164451606Y-99667900D01*
X164305642Y-99667900D01*
X164162482Y-99696377D01*
X164027629Y-99752235D01*
X163906264Y-99833328D01*
X163803052Y-99936540D01*
X163721959Y-100057905D01*
X163666101Y-100192758D01*
X163637624Y-100335918D01*
X163637624Y-100481882D01*
X163666101Y-100625042D01*
X163715335Y-100743903D01*
X163704758Y-100759732D01*
X163692472Y-100789393D01*
X163663506Y-100760427D01*
X163542141Y-100679334D01*
X163407288Y-100623476D01*
X163264128Y-100594999D01*
X163118164Y-100594999D01*
X162992978Y-100619901D01*
X162934725Y-100561648D01*
X162813360Y-100480555D01*
X162678507Y-100424697D01*
X162535347Y-100396220D01*
X162389383Y-100396220D01*
X162246223Y-100424697D01*
X162111370Y-100480555D01*
X161990005Y-100561648D01*
X161886793Y-100664860D01*
X161805700Y-100786225D01*
X161749842Y-100921078D01*
X161725955Y-101041165D01*
X161709323Y-101001013D01*
X161614331Y-100858847D01*
X161493429Y-100737945D01*
X161351263Y-100642953D01*
X161193297Y-100577522D01*
X161025602Y-100544165D01*
X160854620Y-100544165D01*
X160686925Y-100577522D01*
X160528959Y-100642953D01*
X160386793Y-100737945D01*
X160265891Y-100858847D01*
X160170899Y-101001013D01*
X160105468Y-101158979D01*
X160072111Y-101326674D01*
X126339163Y-101326674D01*
X126339163Y-99793079D01*
X128019398Y-99793079D01*
X128019398Y-99964061D01*
X128052755Y-100131756D01*
X128118186Y-100289722D01*
X128213178Y-100431888D01*
X128334080Y-100552790D01*
X128476246Y-100647782D01*
X128634212Y-100713213D01*
X128801907Y-100746570D01*
X128972889Y-100746570D01*
X129140584Y-100713213D01*
X129298550Y-100647782D01*
X129440716Y-100552790D01*
X129561618Y-100431888D01*
X129608489Y-100361740D01*
X129673271Y-100458693D01*
X129776483Y-100561905D01*
X129897848Y-100642998D01*
X130032701Y-100698856D01*
X130175861Y-100727333D01*
X130321825Y-100727333D01*
X130464985Y-100698856D01*
X130599838Y-100642998D01*
X130721203Y-100561905D01*
X130824415Y-100458693D01*
X130905508Y-100337328D01*
X130961366Y-100202475D01*
X130989843Y-100059315D01*
X130989843Y-99913351D01*
X130961366Y-99770191D01*
X130936822Y-99710936D01*
X135386658Y-99710936D01*
X135386658Y-99856900D01*
X135415135Y-100000060D01*
X135470993Y-100134913D01*
X135552086Y-100256278D01*
X135655298Y-100359490D01*
X135776663Y-100440583D01*
X135911516Y-100496441D01*
X136054676Y-100524918D01*
X136200640Y-100524918D01*
X136343800Y-100496441D01*
X136478653Y-100440583D01*
X136600018Y-100359490D01*
X136703230Y-100256278D01*
X136784323Y-100134913D01*
X136808983Y-100075378D01*
X136846332Y-100067949D01*
X136981185Y-100012091D01*
X137102550Y-99930998D01*
X137205762Y-99827786D01*
X137286855Y-99706421D01*
X137288876Y-99701540D01*
X141957234Y-99701540D01*
X141957234Y-99847504D01*
X141985711Y-99990664D01*
X142041569Y-100125517D01*
X142122662Y-100246882D01*
X142225874Y-100350094D01*
X142347239Y-100431187D01*
X142482092Y-100487045D01*
X142625252Y-100515522D01*
X142771216Y-100515522D01*
X142869284Y-100496014D01*
X142869838Y-100496568D01*
X142991203Y-100577661D01*
X143126056Y-100633519D01*
X143269216Y-100661996D01*
X143415180Y-100661996D01*
X143558340Y-100633519D01*
X143693193Y-100577661D01*
X143814558Y-100496568D01*
X143917770Y-100393356D01*
X143998863Y-100271991D01*
X144054721Y-100137138D01*
X144061038Y-100105377D01*
X145871845Y-100105377D01*
X145871845Y-100251341D01*
X145900322Y-100394501D01*
X145956180Y-100529354D01*
X146037273Y-100650719D01*
X146140485Y-100753931D01*
X146261850Y-100835024D01*
X146396703Y-100890882D01*
X146539863Y-100919359D01*
X146685827Y-100919359D01*
X146828987Y-100890882D01*
X146963840Y-100835024D01*
X147085205Y-100753931D01*
X147188417Y-100650719D01*
X147225409Y-100595357D01*
X147310468Y-100680416D01*
X147431833Y-100761509D01*
X147566686Y-100817367D01*
X147709846Y-100845844D01*
X147855810Y-100845844D01*
X147998970Y-100817367D01*
X148133823Y-100761509D01*
X148149546Y-100751004D01*
X148226700Y-100782962D01*
X148369860Y-100811439D01*
X148515824Y-100811439D01*
X148658984Y-100782962D01*
X148793837Y-100727104D01*
X148915202Y-100646011D01*
X149018414Y-100542799D01*
X149043254Y-100505623D01*
X149721763Y-100505623D01*
X149721763Y-100651587D01*
X149750240Y-100794747D01*
X149806098Y-100929600D01*
X149887191Y-101050965D01*
X149990403Y-101154177D01*
X150111768Y-101235270D01*
X150246621Y-101291128D01*
X150389781Y-101319605D01*
X150535745Y-101319605D01*
X150678905Y-101291128D01*
X150813758Y-101235270D01*
X150935123Y-101154177D01*
X151038335Y-101050965D01*
X151119428Y-100929600D01*
X151175286Y-100794747D01*
X151176322Y-100789537D01*
X151209376Y-100782962D01*
X151344229Y-100727104D01*
X151465594Y-100646011D01*
X151568806Y-100542799D01*
X151649899Y-100421434D01*
X151705757Y-100286581D01*
X151734234Y-100143421D01*
X151734234Y-99997457D01*
X151705757Y-99854297D01*
X151649899Y-99719444D01*
X151568806Y-99598079D01*
X151465594Y-99494867D01*
X151344229Y-99413774D01*
X151209376Y-99357916D01*
X151066216Y-99329439D01*
X150920252Y-99329439D01*
X150777092Y-99357916D01*
X150642239Y-99413774D01*
X150520874Y-99494867D01*
X150417662Y-99598079D01*
X150336569Y-99719444D01*
X150280711Y-99854297D01*
X150279675Y-99859507D01*
X150246621Y-99866082D01*
X150111768Y-99921940D01*
X149990403Y-100003033D01*
X149887191Y-100106245D01*
X149806098Y-100227610D01*
X149750240Y-100362463D01*
X149721763Y-100505623D01*
X149043254Y-100505623D01*
X149099507Y-100421434D01*
X149155365Y-100286581D01*
X149183842Y-100143421D01*
X149183842Y-99997457D01*
X149155365Y-99854297D01*
X149099507Y-99719444D01*
X149018414Y-99598079D01*
X148915202Y-99494867D01*
X148793837Y-99413774D01*
X148658984Y-99357916D01*
X148515824Y-99329439D01*
X148369860Y-99329439D01*
X148226700Y-99357916D01*
X148091847Y-99413774D01*
X148076124Y-99424279D01*
X147998970Y-99392321D01*
X147855810Y-99363844D01*
X147709846Y-99363844D01*
X147566686Y-99392321D01*
X147431833Y-99448179D01*
X147310468Y-99529272D01*
X147207256Y-99632484D01*
X147170264Y-99687846D01*
X147085205Y-99602787D01*
X146963840Y-99521694D01*
X146828987Y-99465836D01*
X146685827Y-99437359D01*
X146539863Y-99437359D01*
X146396703Y-99465836D01*
X146261850Y-99521694D01*
X146140485Y-99602787D01*
X146037273Y-99705999D01*
X145956180Y-99827364D01*
X145900322Y-99962217D01*
X145871845Y-100105377D01*
X144061038Y-100105377D01*
X144083198Y-99993978D01*
X144083198Y-99848014D01*
X144054721Y-99704854D01*
X143998863Y-99570001D01*
X143917770Y-99448636D01*
X143814558Y-99345424D01*
X143693193Y-99264331D01*
X143558340Y-99208473D01*
X143415180Y-99179996D01*
X143269216Y-99179996D01*
X143171148Y-99199504D01*
X143170594Y-99198950D01*
X143049229Y-99117857D01*
X142914376Y-99061999D01*
X142771216Y-99033522D01*
X142625252Y-99033522D01*
X142482092Y-99061999D01*
X142347239Y-99117857D01*
X142225874Y-99198950D01*
X142122662Y-99302162D01*
X142041569Y-99423527D01*
X141985711Y-99558380D01*
X141957234Y-99701540D01*
X137288876Y-99701540D01*
X137342713Y-99571568D01*
X137371190Y-99428408D01*
X137371190Y-99282444D01*
X137342713Y-99139284D01*
X137291899Y-99016606D01*
X156465911Y-99016606D01*
X156488347Y-99244398D01*
X156554791Y-99463436D01*
X156662691Y-99665302D01*
X156807900Y-99842239D01*
X156984837Y-99987448D01*
X157186703Y-100095348D01*
X157405741Y-100161792D01*
X157576453Y-100178606D01*
X157690613Y-100178606D01*
X157861325Y-100161792D01*
X158080363Y-100095348D01*
X158282229Y-99987448D01*
X158459166Y-99842239D01*
X158604375Y-99665302D01*
X158712275Y-99463436D01*
X158778719Y-99244398D01*
X158783179Y-99199109D01*
X166798671Y-99199109D01*
X166798671Y-99370091D01*
X166832028Y-99537786D01*
X166897459Y-99695752D01*
X166992451Y-99837918D01*
X167113353Y-99958820D01*
X167255519Y-100053812D01*
X167413485Y-100119243D01*
X167581180Y-100152600D01*
X167752162Y-100152600D01*
X167919857Y-100119243D01*
X168077823Y-100053812D01*
X168219989Y-99958820D01*
X168340891Y-99837918D01*
X168435883Y-99695752D01*
X168501314Y-99537786D01*
X168534671Y-99370091D01*
X168534671Y-99199109D01*
X168501314Y-99031414D01*
X168435883Y-98873448D01*
X168340891Y-98731282D01*
X168219989Y-98610380D01*
X168077823Y-98515388D01*
X167919857Y-98449957D01*
X167752162Y-98416600D01*
X167581180Y-98416600D01*
X167413485Y-98449957D01*
X167255519Y-98515388D01*
X167113353Y-98610380D01*
X166992451Y-98731282D01*
X166897459Y-98873448D01*
X166832028Y-99031414D01*
X166798671Y-99199109D01*
X158783179Y-99199109D01*
X158801155Y-99016606D01*
X158778719Y-98788814D01*
X158712275Y-98569776D01*
X158604375Y-98367910D01*
X158459166Y-98190973D01*
X158282229Y-98045764D01*
X158080363Y-97937864D01*
X157861325Y-97871420D01*
X157690613Y-97854606D01*
X157576453Y-97854606D01*
X157405741Y-97871420D01*
X157186703Y-97937864D01*
X156984837Y-98045764D01*
X156807900Y-98190973D01*
X156662691Y-98367910D01*
X156554791Y-98569776D01*
X156488347Y-98788814D01*
X156465911Y-99016606D01*
X137291899Y-99016606D01*
X137286855Y-99004431D01*
X137205762Y-98883066D01*
X137102550Y-98779854D01*
X136981185Y-98698761D01*
X136846332Y-98642903D01*
X136703172Y-98614426D01*
X136557208Y-98614426D01*
X136414048Y-98642903D01*
X136279195Y-98698761D01*
X136157830Y-98779854D01*
X136054618Y-98883066D01*
X135973525Y-99004431D01*
X135948865Y-99063966D01*
X135911516Y-99071395D01*
X135776663Y-99127253D01*
X135655298Y-99208346D01*
X135552086Y-99311558D01*
X135470993Y-99432923D01*
X135415135Y-99567776D01*
X135386658Y-99710936D01*
X130936822Y-99710936D01*
X130905508Y-99635338D01*
X130824415Y-99513973D01*
X130721203Y-99410761D01*
X130599838Y-99329668D01*
X130464985Y-99273810D01*
X130321825Y-99245333D01*
X130175861Y-99245333D01*
X130032701Y-99273810D01*
X129897848Y-99329668D01*
X129776483Y-99410761D01*
X129675125Y-99512119D01*
X129656610Y-99467418D01*
X129561618Y-99325252D01*
X129440716Y-99204350D01*
X129298550Y-99109358D01*
X129140584Y-99043927D01*
X128972889Y-99010570D01*
X128801907Y-99010570D01*
X128634212Y-99043927D01*
X128476246Y-99109358D01*
X128334080Y-99204350D01*
X128213178Y-99325252D01*
X128118186Y-99467418D01*
X128052755Y-99625384D01*
X128019398Y-99793079D01*
X126339163Y-99793079D01*
X126339163Y-95841766D01*
X127979923Y-95841766D01*
X127979923Y-96012748D01*
X128013280Y-96180443D01*
X128078711Y-96338409D01*
X128173703Y-96480575D01*
X128294605Y-96601477D01*
X128436771Y-96696469D01*
X128594737Y-96761900D01*
X128762432Y-96795257D01*
X128933414Y-96795257D01*
X129101109Y-96761900D01*
X129259075Y-96696469D01*
X129401241Y-96601477D01*
X129519825Y-96482893D01*
X129813171Y-96482893D01*
X129813171Y-96628857D01*
X129841648Y-96772017D01*
X129897506Y-96906870D01*
X129978599Y-97028235D01*
X130081811Y-97131447D01*
X130203176Y-97212540D01*
X130338029Y-97268398D01*
X130481189Y-97296875D01*
X130627153Y-97296875D01*
X130770313Y-97268398D01*
X130905166Y-97212540D01*
X131026531Y-97131447D01*
X131129743Y-97028235D01*
X131210836Y-96906870D01*
X131252015Y-96807455D01*
X146872122Y-96807455D01*
X146872122Y-96953419D01*
X146900599Y-97096579D01*
X146956457Y-97231432D01*
X147037550Y-97352797D01*
X147140762Y-97456009D01*
X147262127Y-97537102D01*
X147396980Y-97592960D01*
X147540140Y-97621437D01*
X147686104Y-97621437D01*
X147829264Y-97592960D01*
X147964117Y-97537102D01*
X148085482Y-97456009D01*
X148188694Y-97352797D01*
X148269787Y-97231432D01*
X148271587Y-97227087D01*
X148344001Y-97275472D01*
X148478854Y-97331330D01*
X148622014Y-97359807D01*
X148767978Y-97359807D01*
X148911138Y-97331330D01*
X149045991Y-97275472D01*
X149167356Y-97194379D01*
X149270568Y-97091167D01*
X149351661Y-96969802D01*
X149407519Y-96834949D01*
X149435996Y-96691789D01*
X149435996Y-96545825D01*
X149407519Y-96402665D01*
X149351661Y-96267812D01*
X149270568Y-96146447D01*
X149167356Y-96043235D01*
X149045991Y-95962142D01*
X148911138Y-95906284D01*
X148767978Y-95877807D01*
X148622014Y-95877807D01*
X148478854Y-95906284D01*
X148344001Y-95962142D01*
X148222636Y-96043235D01*
X148119424Y-96146447D01*
X148038331Y-96267812D01*
X148036531Y-96272157D01*
X147964117Y-96223772D01*
X147829264Y-96167914D01*
X147686104Y-96139437D01*
X147540140Y-96139437D01*
X147396980Y-96167914D01*
X147262127Y-96223772D01*
X147140762Y-96304865D01*
X147037550Y-96408077D01*
X146956457Y-96529442D01*
X146900599Y-96664295D01*
X146872122Y-96807455D01*
X131252015Y-96807455D01*
X131266694Y-96772017D01*
X131295171Y-96628857D01*
X131295171Y-96482893D01*
X131266694Y-96339733D01*
X131210836Y-96204880D01*
X131129743Y-96083515D01*
X131026531Y-95980303D01*
X130905166Y-95899210D01*
X130770313Y-95843352D01*
X130627153Y-95814875D01*
X130481189Y-95814875D01*
X130338029Y-95843352D01*
X130203176Y-95899210D01*
X130081811Y-95980303D01*
X129978599Y-96083515D01*
X129897506Y-96204880D01*
X129841648Y-96339733D01*
X129813171Y-96482893D01*
X129519825Y-96482893D01*
X129522143Y-96480575D01*
X129617135Y-96338409D01*
X129682566Y-96180443D01*
X129715923Y-96012748D01*
X129715923Y-95841766D01*
X129706878Y-95796292D01*
X157627217Y-95796292D01*
X157627217Y-95942256D01*
X157655694Y-96085416D01*
X157711552Y-96220269D01*
X157792645Y-96341634D01*
X157895857Y-96444846D01*
X158017222Y-96525939D01*
X158152075Y-96581797D01*
X158295235Y-96610274D01*
X158441199Y-96610274D01*
X158584359Y-96581797D01*
X158719212Y-96525939D01*
X158840577Y-96444846D01*
X158850377Y-96435046D01*
X163039787Y-96435046D01*
X163083993Y-96829152D01*
X163203906Y-97207165D01*
X163394958Y-97554688D01*
X163649873Y-97858483D01*
X163958941Y-98106980D01*
X164310388Y-98290713D01*
X164690830Y-98402683D01*
X165085775Y-98438625D01*
X165480179Y-98397172D01*
X165859021Y-98279901D01*
X166207869Y-98091279D01*
X166513437Y-97838492D01*
X166764085Y-97531167D01*
X166950267Y-97181010D01*
X167064890Y-96801359D01*
X167103589Y-96406675D01*
X167102797Y-96349938D01*
X167053092Y-95956488D01*
X166929471Y-95584867D01*
X167889457Y-95584867D01*
X167889457Y-95730831D01*
X167917934Y-95873991D01*
X167973792Y-96008844D01*
X168054885Y-96130209D01*
X168158097Y-96233421D01*
X168279462Y-96314514D01*
X168414315Y-96370372D01*
X168557475Y-96398849D01*
X168703439Y-96398849D01*
X168846599Y-96370372D01*
X168981452Y-96314514D01*
X169102817Y-96233421D01*
X169206029Y-96130209D01*
X169287122Y-96008844D01*
X169342980Y-95873991D01*
X169371457Y-95730831D01*
X169371457Y-95584867D01*
X169342980Y-95441707D01*
X169287122Y-95306854D01*
X169206029Y-95185489D01*
X169102817Y-95082277D01*
X168981452Y-95001184D01*
X168846599Y-94945326D01*
X168703439Y-94916849D01*
X168557475Y-94916849D01*
X168414315Y-94945326D01*
X168279462Y-95001184D01*
X168158097Y-95082277D01*
X168054885Y-95185489D01*
X167973792Y-95306854D01*
X167917934Y-95441707D01*
X167889457Y-95584867D01*
X166929471Y-95584867D01*
X166927913Y-95580186D01*
X166732027Y-95235365D01*
X166472896Y-94935158D01*
X166160389Y-94691001D01*
X165806410Y-94512193D01*
X165424442Y-94405546D01*
X165029034Y-94375121D01*
X164635247Y-94422077D01*
X164258080Y-94544626D01*
X163911899Y-94738100D01*
X163609891Y-94995129D01*
X163363558Y-95305924D01*
X163182283Y-95658646D01*
X163072972Y-96039860D01*
X163039787Y-96435046D01*
X158850377Y-96435046D01*
X158943789Y-96341634D01*
X159024882Y-96220269D01*
X159080740Y-96085416D01*
X159109217Y-95942256D01*
X159109217Y-95796292D01*
X159080740Y-95653132D01*
X159024882Y-95518279D01*
X158943789Y-95396914D01*
X158840577Y-95293702D01*
X158719212Y-95212609D01*
X158584359Y-95156751D01*
X158441199Y-95128274D01*
X158295235Y-95128274D01*
X158152075Y-95156751D01*
X158017222Y-95212609D01*
X157895857Y-95293702D01*
X157792645Y-95396914D01*
X157711552Y-95518279D01*
X157655694Y-95653132D01*
X157627217Y-95796292D01*
X129706878Y-95796292D01*
X129682566Y-95674071D01*
X129617135Y-95516105D01*
X129522143Y-95373939D01*
X129401241Y-95253037D01*
X129259075Y-95158045D01*
X129101109Y-95092614D01*
X128933414Y-95059257D01*
X128762432Y-95059257D01*
X128594737Y-95092614D01*
X128436771Y-95158045D01*
X128294605Y-95253037D01*
X128173703Y-95373939D01*
X128078711Y-95516105D01*
X128013280Y-95674071D01*
X127979923Y-95841766D01*
X126339163Y-95841766D01*
X126339163Y-94700277D01*
X154980782Y-94700277D01*
X154980782Y-94846241D01*
X155009259Y-94989401D01*
X155065117Y-95124254D01*
X155146210Y-95245619D01*
X155249422Y-95348831D01*
X155370787Y-95429924D01*
X155505640Y-95485782D01*
X155648800Y-95514259D01*
X155794764Y-95514259D01*
X155937924Y-95485782D01*
X156072777Y-95429924D01*
X156194142Y-95348831D01*
X156297354Y-95245619D01*
X156378447Y-95124254D01*
X156434305Y-94989401D01*
X156462782Y-94846241D01*
X156462782Y-94700277D01*
X156434305Y-94557117D01*
X156378447Y-94422264D01*
X156297354Y-94300899D01*
X156194142Y-94197687D01*
X156072777Y-94116594D01*
X155937924Y-94060736D01*
X155794764Y-94032259D01*
X155648800Y-94032259D01*
X155505640Y-94060736D01*
X155370787Y-94116594D01*
X155249422Y-94197687D01*
X155146210Y-94300899D01*
X155065117Y-94422264D01*
X155009259Y-94557117D01*
X154980782Y-94700277D01*
X126339163Y-94700277D01*
X126339163Y-93842697D01*
X149336248Y-93842697D01*
X149336248Y-93988661D01*
X149364725Y-94131821D01*
X149420583Y-94266674D01*
X149501676Y-94388039D01*
X149604888Y-94491251D01*
X149726253Y-94572344D01*
X149861106Y-94628202D01*
X150004266Y-94656679D01*
X150150230Y-94656679D01*
X150293390Y-94628202D01*
X150428243Y-94572344D01*
X150549608Y-94491251D01*
X150652820Y-94388039D01*
X150733913Y-94266674D01*
X150789771Y-94131821D01*
X150818248Y-93988661D01*
X150818248Y-93842697D01*
X150789771Y-93699537D01*
X150733913Y-93564684D01*
X150652820Y-93443319D01*
X150549608Y-93340107D01*
X150428243Y-93259014D01*
X150293390Y-93203156D01*
X150150230Y-93174679D01*
X150004266Y-93174679D01*
X149861106Y-93203156D01*
X149726253Y-93259014D01*
X149604888Y-93340107D01*
X149501676Y-93443319D01*
X149420583Y-93564684D01*
X149364725Y-93699537D01*
X149336248Y-93842697D01*
X126339163Y-93842697D01*
X126339163Y-91004937D01*
X146103356Y-91004937D01*
X146103356Y-91150901D01*
X146131833Y-91294061D01*
X146187691Y-91428914D01*
X146268784Y-91550279D01*
X146371996Y-91653491D01*
X146493361Y-91734584D01*
X146628214Y-91790442D01*
X146771374Y-91818919D01*
X146917338Y-91818919D01*
X147060498Y-91790442D01*
X147195351Y-91734584D01*
X147316716Y-91653491D01*
X147419928Y-91550279D01*
X147501021Y-91428914D01*
X147556879Y-91294061D01*
X147571712Y-91219489D01*
X163222532Y-91219489D01*
X163222532Y-91365453D01*
X163251009Y-91508613D01*
X163306867Y-91643466D01*
X163387960Y-91764831D01*
X163491172Y-91868043D01*
X163612537Y-91949136D01*
X163747390Y-92004994D01*
X163890550Y-92033471D01*
X164036514Y-92033471D01*
X164179674Y-92004994D01*
X164314527Y-91949136D01*
X164435892Y-91868043D01*
X164539104Y-91764831D01*
X164566815Y-91723357D01*
X170852942Y-91723357D01*
X170852942Y-91869321D01*
X170881419Y-92012481D01*
X170937277Y-92147334D01*
X171018370Y-92268699D01*
X171121582Y-92371911D01*
X171242947Y-92453004D01*
X171377800Y-92508862D01*
X171520960Y-92537339D01*
X171666924Y-92537339D01*
X171810084Y-92508862D01*
X171944937Y-92453004D01*
X172066302Y-92371911D01*
X172169514Y-92268699D01*
X172250607Y-92147334D01*
X172306465Y-92012481D01*
X172334942Y-91869321D01*
X172334942Y-91723357D01*
X172306465Y-91580197D01*
X172250607Y-91445344D01*
X172169514Y-91323979D01*
X172066302Y-91220767D01*
X171944937Y-91139674D01*
X171810084Y-91083816D01*
X171666924Y-91055339D01*
X171520960Y-91055339D01*
X171377800Y-91083816D01*
X171242947Y-91139674D01*
X171121582Y-91220767D01*
X171018370Y-91323979D01*
X170937277Y-91445344D01*
X170881419Y-91580197D01*
X170852942Y-91723357D01*
X164566815Y-91723357D01*
X164620197Y-91643466D01*
X164676055Y-91508613D01*
X164704532Y-91365453D01*
X164704532Y-91219489D01*
X164676055Y-91076329D01*
X164620197Y-90941476D01*
X164539104Y-90820111D01*
X164435892Y-90716899D01*
X164314527Y-90635806D01*
X164179674Y-90579948D01*
X164036514Y-90551471D01*
X163890550Y-90551471D01*
X163747390Y-90579948D01*
X163612537Y-90635806D01*
X163491172Y-90716899D01*
X163387960Y-90820111D01*
X163306867Y-90941476D01*
X163251009Y-91076329D01*
X163222532Y-91219489D01*
X147571712Y-91219489D01*
X147585356Y-91150901D01*
X147585356Y-91004937D01*
X147556879Y-90861777D01*
X147501021Y-90726924D01*
X147419928Y-90605559D01*
X147316716Y-90502347D01*
X147195351Y-90421254D01*
X147060498Y-90365396D01*
X146917338Y-90336919D01*
X146771374Y-90336919D01*
X146628214Y-90365396D01*
X146493361Y-90421254D01*
X146371996Y-90502347D01*
X146268784Y-90605559D01*
X146187691Y-90726924D01*
X146131833Y-90861777D01*
X146103356Y-91004937D01*
X126339163Y-91004937D01*
X126339163Y-86784216D01*
X140805005Y-86784216D01*
X140805005Y-86930180D01*
X140833482Y-87073340D01*
X140889340Y-87208193D01*
X140970433Y-87329558D01*
X141073645Y-87432770D01*
X141195010Y-87513863D01*
X141326490Y-87568324D01*
X141328598Y-87578922D01*
X141384456Y-87713775D01*
X141465549Y-87835140D01*
X141568761Y-87938352D01*
X141690126Y-88019445D01*
X141824979Y-88075303D01*
X141968139Y-88103780D01*
X142114103Y-88103780D01*
X142251805Y-88076389D01*
X142169236Y-88131559D01*
X142066024Y-88234771D01*
X141984931Y-88356136D01*
X141929073Y-88490989D01*
X141900596Y-88634149D01*
X141900596Y-88780113D01*
X141929073Y-88923273D01*
X141984931Y-89058126D01*
X142066024Y-89179491D01*
X142169236Y-89282703D01*
X142290601Y-89363796D01*
X142425454Y-89419654D01*
X142568614Y-89448131D01*
X142714578Y-89448131D01*
X142857738Y-89419654D01*
X142992591Y-89363796D01*
X143113956Y-89282703D01*
X143217168Y-89179491D01*
X143298261Y-89058126D01*
X143354119Y-88923273D01*
X143382596Y-88780113D01*
X143382596Y-88634149D01*
X143354119Y-88490989D01*
X143298261Y-88356136D01*
X143217168Y-88234771D01*
X143113956Y-88131559D01*
X142992591Y-88050466D01*
X142857738Y-87994608D01*
X142714578Y-87966131D01*
X142568614Y-87966131D01*
X142430912Y-87993522D01*
X142513481Y-87938352D01*
X142616693Y-87835140D01*
X142697786Y-87713775D01*
X142753644Y-87578922D01*
X142782121Y-87435762D01*
X142782121Y-87289798D01*
X142753644Y-87146638D01*
X142697786Y-87011785D01*
X142616693Y-86890420D01*
X142579277Y-86853004D01*
X142678133Y-86833340D01*
X142812986Y-86777482D01*
X142934351Y-86696389D01*
X143037563Y-86593177D01*
X143118656Y-86471812D01*
X143174514Y-86336959D01*
X143202991Y-86193799D01*
X143202991Y-86047835D01*
X143174514Y-85904675D01*
X143118656Y-85769822D01*
X143116941Y-85767254D01*
X147192839Y-85767254D01*
X147192839Y-85913218D01*
X147221316Y-86056378D01*
X147277174Y-86191231D01*
X147358267Y-86312596D01*
X147461479Y-86415808D01*
X147582844Y-86496901D01*
X147717697Y-86552759D01*
X147860857Y-86581236D01*
X148006821Y-86581236D01*
X148149981Y-86552759D01*
X148284834Y-86496901D01*
X148406199Y-86415808D01*
X148509411Y-86312596D01*
X148590504Y-86191231D01*
X148646362Y-86056378D01*
X148674839Y-85913218D01*
X148674839Y-85767254D01*
X148646362Y-85624094D01*
X148590504Y-85489241D01*
X148509411Y-85367876D01*
X148468499Y-85326964D01*
X148492777Y-85310742D01*
X148595989Y-85207530D01*
X148677082Y-85086165D01*
X148732940Y-84951312D01*
X148761417Y-84808152D01*
X148761417Y-84662188D01*
X148732940Y-84519028D01*
X148677082Y-84384175D01*
X148595989Y-84262810D01*
X148492777Y-84159598D01*
X148371412Y-84078505D01*
X148236559Y-84022647D01*
X148093399Y-83994170D01*
X147947435Y-83994170D01*
X147804275Y-84022647D01*
X147669422Y-84078505D01*
X147548057Y-84159598D01*
X147444845Y-84262810D01*
X147363752Y-84384175D01*
X147307894Y-84519028D01*
X147279417Y-84662188D01*
X147279417Y-84808152D01*
X147307894Y-84951312D01*
X147363752Y-85086165D01*
X147444845Y-85207530D01*
X147485757Y-85248442D01*
X147461479Y-85264664D01*
X147358267Y-85367876D01*
X147277174Y-85489241D01*
X147221316Y-85624094D01*
X147192839Y-85767254D01*
X143116941Y-85767254D01*
X143037563Y-85648457D01*
X142934351Y-85545245D01*
X142812986Y-85464152D01*
X142678133Y-85408294D01*
X142534973Y-85379817D01*
X142389009Y-85379817D01*
X142245849Y-85408294D01*
X142110996Y-85464152D01*
X141989631Y-85545245D01*
X141886419Y-85648457D01*
X141805326Y-85769822D01*
X141749468Y-85904675D01*
X141720991Y-86047835D01*
X141720991Y-86136488D01*
X141618987Y-86116198D01*
X141473023Y-86116198D01*
X141329863Y-86144675D01*
X141195010Y-86200533D01*
X141073645Y-86281626D01*
X140970433Y-86384838D01*
X140889340Y-86506203D01*
X140833482Y-86641056D01*
X140805005Y-86784216D01*
X126339163Y-86784216D01*
X126339163Y-84395468D01*
X144379147Y-84395468D01*
X144379147Y-84541432D01*
X144407624Y-84684592D01*
X144463482Y-84819445D01*
X144544575Y-84940810D01*
X144647787Y-85044022D01*
X144769152Y-85125115D01*
X144904005Y-85180973D01*
X145047165Y-85209450D01*
X145193129Y-85209450D01*
X145336289Y-85180973D01*
X145471142Y-85125115D01*
X145592507Y-85044022D01*
X145695719Y-84940810D01*
X145776812Y-84819445D01*
X145832670Y-84684592D01*
X145861147Y-84541432D01*
X145861147Y-84395468D01*
X145832670Y-84252308D01*
X145776812Y-84117455D01*
X145695719Y-83996090D01*
X145592507Y-83892878D01*
X145471142Y-83811785D01*
X145336289Y-83755927D01*
X145193129Y-83727450D01*
X145047165Y-83727450D01*
X144904005Y-83755927D01*
X144769152Y-83811785D01*
X144647787Y-83892878D01*
X144544575Y-83996090D01*
X144463482Y-84117455D01*
X144407624Y-84252308D01*
X144379147Y-84395468D01*
X126339163Y-84395468D01*
X126339163Y-83558490D01*
X126942420Y-82955233D01*
X140147537Y-82955233D01*
X140147537Y-83101197D01*
X140176014Y-83244357D01*
X140231872Y-83379210D01*
X140312965Y-83500575D01*
X140416177Y-83603787D01*
X140537542Y-83684880D01*
X140672395Y-83740738D01*
X140815555Y-83769215D01*
X140961519Y-83769215D01*
X141030988Y-83755397D01*
X141080338Y-83804747D01*
X141201703Y-83885840D01*
X141336556Y-83941698D01*
X141479716Y-83970175D01*
X141625680Y-83970175D01*
X141768840Y-83941698D01*
X141903693Y-83885840D01*
X142025058Y-83804747D01*
X142128270Y-83701535D01*
X142209363Y-83580170D01*
X142265221Y-83445317D01*
X142293698Y-83302157D01*
X142293698Y-83156193D01*
X142265221Y-83013033D01*
X142209363Y-82878180D01*
X142128270Y-82756815D01*
X142025058Y-82653603D01*
X141903693Y-82572510D01*
X141768840Y-82516652D01*
X141625680Y-82488175D01*
X141479716Y-82488175D01*
X141410247Y-82501993D01*
X141360897Y-82452643D01*
X141239532Y-82371550D01*
X141104679Y-82315692D01*
X140961519Y-82287215D01*
X140815555Y-82287215D01*
X140672395Y-82315692D01*
X140537542Y-82371550D01*
X140416177Y-82452643D01*
X140312965Y-82555855D01*
X140231872Y-82677220D01*
X140176014Y-82812073D01*
X140147537Y-82955233D01*
X126942420Y-82955233D01*
X128177866Y-81719788D01*
X146125092Y-81719788D01*
X154438725Y-90033423D01*
X154438725Y-90033423D01*
G37*
X154438725Y-90033423D02*
X154454751Y-90052951D01*
X154474279Y-90068977D01*
X154474284Y-90068982D01*
X154532712Y-90116932D01*
X154621659Y-90164476D01*
X154715712Y-90193006D01*
X154715194Y-90194715D01*
X154712754Y-90219491D01*
X154715194Y-90244267D01*
X154722421Y-90268092D01*
X154734157Y-90290048D01*
X154749951Y-90309294D01*
X154769197Y-90325088D01*
X154791153Y-90336824D01*
X154814978Y-90344051D01*
X154839754Y-90346491D01*
X154864530Y-90344051D01*
X154888355Y-90336824D01*
X154910311Y-90325088D01*
X154929557Y-90309294D01*
X156569596Y-88669255D01*
X156488847Y-88790105D01*
X156423416Y-88948071D01*
X156390059Y-89115766D01*
X156390059Y-89286748D01*
X156423416Y-89454443D01*
X156488847Y-89612409D01*
X156583839Y-89754575D01*
X156704741Y-89875477D01*
X156846907Y-89970469D01*
X156951166Y-90013654D01*
X156974959Y-90133266D01*
X157040390Y-90291232D01*
X157135382Y-90433398D01*
X157256284Y-90554300D01*
X157398450Y-90649292D01*
X157556416Y-90714723D01*
X157724111Y-90748080D01*
X157895093Y-90748080D01*
X158062788Y-90714723D01*
X158220754Y-90649292D01*
X158362920Y-90554300D01*
X158483822Y-90433398D01*
X158578814Y-90291232D01*
X158644245Y-90133266D01*
X158677602Y-89965571D01*
X158677602Y-89794589D01*
X158644245Y-89626894D01*
X158578814Y-89468928D01*
X158483822Y-89326762D01*
X158362920Y-89205860D01*
X158304826Y-89167043D01*
X158313423Y-89161299D01*
X158434325Y-89040397D01*
X158529317Y-88898231D01*
X158594748Y-88740265D01*
X158628105Y-88572570D01*
X158628105Y-88401588D01*
X158594748Y-88233893D01*
X158582024Y-88203174D01*
X160178341Y-88203174D01*
X160178341Y-88349138D01*
X160206818Y-88492298D01*
X160262676Y-88627151D01*
X160343769Y-88748516D01*
X160446981Y-88851728D01*
X160568346Y-88932821D01*
X160703199Y-88988679D01*
X160846359Y-89017156D01*
X160992323Y-89017156D01*
X161135483Y-88988679D01*
X161270336Y-88932821D01*
X161391701Y-88851728D01*
X161494913Y-88748516D01*
X161576006Y-88627151D01*
X161631864Y-88492298D01*
X161660341Y-88349138D01*
X161660341Y-88210669D01*
X166232985Y-88210669D01*
X166232985Y-88381651D01*
X166266342Y-88549346D01*
X166331773Y-88707312D01*
X166426765Y-88849478D01*
X166547667Y-88970380D01*
X166689833Y-89065372D01*
X166847799Y-89130803D01*
X167015494Y-89164160D01*
X167186476Y-89164160D01*
X167354171Y-89130803D01*
X167512137Y-89065372D01*
X167654303Y-88970380D01*
X167775205Y-88849478D01*
X167870197Y-88707312D01*
X167935628Y-88549346D01*
X167968985Y-88381651D01*
X167968985Y-88210669D01*
X167935628Y-88042974D01*
X167870197Y-87885008D01*
X167775205Y-87742842D01*
X167654303Y-87621940D01*
X167512137Y-87526948D01*
X167354171Y-87461517D01*
X167186476Y-87428160D01*
X167015494Y-87428160D01*
X166847799Y-87461517D01*
X166689833Y-87526948D01*
X166547667Y-87621940D01*
X166426765Y-87742842D01*
X166331773Y-87885008D01*
X166266342Y-88042974D01*
X166232985Y-88210669D01*
X161660341Y-88210669D01*
X161660341Y-88203174D01*
X161631864Y-88060014D01*
X161576006Y-87925161D01*
X161553397Y-87891324D01*
X161581297Y-87863424D01*
X161662390Y-87742059D01*
X161718248Y-87607206D01*
X161746725Y-87464046D01*
X161746725Y-87318082D01*
X161718248Y-87174922D01*
X161662390Y-87040069D01*
X161605157Y-86954413D01*
X161669461Y-86858175D01*
X161725319Y-86723322D01*
X161753796Y-86580162D01*
X161753796Y-86434198D01*
X161725319Y-86291038D01*
X161669461Y-86156185D01*
X161588368Y-86034820D01*
X161485156Y-85931608D01*
X161363791Y-85850515D01*
X161228938Y-85794657D01*
X161085778Y-85766180D01*
X160939814Y-85766180D01*
X160796654Y-85794657D01*
X160661801Y-85850515D01*
X160540436Y-85931608D01*
X160437224Y-86034820D01*
X160356131Y-86156185D01*
X160300273Y-86291038D01*
X160271796Y-86434198D01*
X160271796Y-86580162D01*
X160300273Y-86723322D01*
X160356131Y-86858175D01*
X160413364Y-86943831D01*
X160349060Y-87040069D01*
X160293202Y-87174922D01*
X160264725Y-87318082D01*
X160264725Y-87464046D01*
X160293202Y-87607206D01*
X160349060Y-87742059D01*
X160371669Y-87775896D01*
X160343769Y-87803796D01*
X160262676Y-87925161D01*
X160206818Y-88060014D01*
X160178341Y-88203174D01*
X158582024Y-88203174D01*
X158529317Y-88075927D01*
X158434325Y-87933761D01*
X158313423Y-87812859D01*
X158171257Y-87717867D01*
X158013291Y-87652436D01*
X157845596Y-87619079D01*
X157674614Y-87619079D01*
X157606154Y-87632697D01*
X160694544Y-84544307D01*
X165913100Y-84544307D01*
X185419239Y-104050446D01*
X185419240Y-113511641D01*
X181478587Y-117452294D01*
X181474296Y-117457523D01*
X163519063Y-117457523D01*
X161610303Y-115548763D01*
X168803510Y-115548763D01*
X168825946Y-115776555D01*
X168892390Y-115995593D01*
X169000290Y-116197459D01*
X169145499Y-116374396D01*
X169322436Y-116519605D01*
X169524302Y-116627505D01*
X169743340Y-116693949D01*
X169914052Y-116710763D01*
X170028212Y-116710763D01*
X170198924Y-116693949D01*
X170417962Y-116627505D01*
X170619828Y-116519605D01*
X170796765Y-116374396D01*
X170941974Y-116197459D01*
X171049874Y-115995593D01*
X171116318Y-115776555D01*
X171138754Y-115548763D01*
X171134676Y-115507361D01*
X171198078Y-115541249D01*
X171289877Y-115569096D01*
X171385346Y-115578499D01*
X171480815Y-115569096D01*
X171572614Y-115541249D01*
X171657218Y-115496028D01*
X171731373Y-115435170D01*
X172685967Y-114480576D01*
X172746825Y-114406421D01*
X172792046Y-114321817D01*
X172819893Y-114230018D01*
X172829296Y-114134549D01*
X172819893Y-114039080D01*
X172792046Y-113947281D01*
X172746825Y-113862677D01*
X172685967Y-113788522D01*
X171731373Y-112833928D01*
X171657218Y-112773070D01*
X171572614Y-112727849D01*
X171480815Y-112700002D01*
X171385346Y-112690599D01*
X171289877Y-112700002D01*
X171198078Y-112727849D01*
X171113474Y-112773070D01*
X171039319Y-112833928D01*
X170084725Y-113788522D01*
X170023867Y-113862677D01*
X169978646Y-113947281D01*
X169950799Y-114039080D01*
X169941396Y-114134549D01*
X169950799Y-114230018D01*
X169978646Y-114321817D01*
X170013360Y-114386763D01*
X169914052Y-114386763D01*
X169743340Y-114403577D01*
X169524302Y-114470021D01*
X169322436Y-114577921D01*
X169145499Y-114723130D01*
X169000290Y-114900067D01*
X168892390Y-115101933D01*
X168825946Y-115320971D01*
X168803510Y-115548763D01*
X161610303Y-115548763D01*
X160504945Y-114443405D01*
X163758540Y-114443405D01*
X163758540Y-114589369D01*
X163787017Y-114732529D01*
X163842875Y-114867382D01*
X163923968Y-114988747D01*
X164027180Y-115091959D01*
X164148545Y-115173052D01*
X164283398Y-115228910D01*
X164426558Y-115257387D01*
X164572522Y-115257387D01*
X164715682Y-115228910D01*
X164850535Y-115173052D01*
X164971900Y-115091959D01*
X165075112Y-114988747D01*
X165156205Y-114867382D01*
X165212063Y-114732529D01*
X165240540Y-114589369D01*
X165240540Y-114443405D01*
X165212063Y-114300245D01*
X165156205Y-114165392D01*
X165075112Y-114044027D01*
X164971900Y-113940815D01*
X164850535Y-113859722D01*
X164715682Y-113803864D01*
X164572522Y-113775387D01*
X164426558Y-113775387D01*
X164283398Y-113803864D01*
X164148545Y-113859722D01*
X164027180Y-113940815D01*
X163923968Y-114044027D01*
X163842875Y-114165392D01*
X163787017Y-114300245D01*
X163758540Y-114443405D01*
X160504945Y-114443405D01*
X158978301Y-112916761D01*
X165823998Y-112916761D01*
X165823998Y-113062725D01*
X165852475Y-113205885D01*
X165908333Y-113340738D01*
X165989426Y-113462103D01*
X166092638Y-113565315D01*
X166214003Y-113646408D01*
X166348856Y-113702266D01*
X166492016Y-113730743D01*
X166637980Y-113730743D01*
X166781140Y-113702266D01*
X166915993Y-113646408D01*
X167037358Y-113565315D01*
X167140570Y-113462103D01*
X167221663Y-113340738D01*
X167277521Y-113205885D01*
X167305998Y-113062725D01*
X167305998Y-112916761D01*
X167277521Y-112773601D01*
X167221663Y-112638748D01*
X167140570Y-112517383D01*
X167037358Y-112414171D01*
X166915993Y-112333078D01*
X166781140Y-112277220D01*
X166637980Y-112248743D01*
X166492016Y-112248743D01*
X166348856Y-112277220D01*
X166214003Y-112333078D01*
X166092638Y-112414171D01*
X165989426Y-112517383D01*
X165908333Y-112638748D01*
X165852475Y-112773601D01*
X165823998Y-112916761D01*
X158978301Y-112916761D01*
X155762510Y-109700970D01*
X172763734Y-109700970D01*
X172763734Y-109846934D01*
X172792211Y-109990094D01*
X172848069Y-110124947D01*
X172929162Y-110246312D01*
X173032374Y-110349524D01*
X173153739Y-110430617D01*
X173288592Y-110486475D01*
X173431752Y-110514952D01*
X173577716Y-110514952D01*
X173688735Y-110492868D01*
X173689935Y-110494068D01*
X173811300Y-110575161D01*
X173946153Y-110631019D01*
X174089313Y-110659496D01*
X174235277Y-110659496D01*
X174378437Y-110631019D01*
X174513290Y-110575161D01*
X174634655Y-110494068D01*
X174737867Y-110390856D01*
X174818960Y-110269491D01*
X174874818Y-110134638D01*
X174903295Y-109991478D01*
X174903295Y-109845514D01*
X174874818Y-109702354D01*
X174818960Y-109567501D01*
X174737867Y-109446136D01*
X174634655Y-109342924D01*
X174513290Y-109261831D01*
X174378437Y-109205973D01*
X174235277Y-109177496D01*
X174089313Y-109177496D01*
X173978294Y-109199580D01*
X173977094Y-109198380D01*
X173855729Y-109117287D01*
X173720876Y-109061429D01*
X173577716Y-109032952D01*
X173431752Y-109032952D01*
X173288592Y-109061429D01*
X173153739Y-109117287D01*
X173032374Y-109198380D01*
X172929162Y-109301592D01*
X172848069Y-109422957D01*
X172792211Y-109557810D01*
X172763734Y-109700970D01*
X155762510Y-109700970D01*
X154123120Y-108061580D01*
X168416168Y-108061580D01*
X168416168Y-108207544D01*
X168444645Y-108350704D01*
X168500503Y-108485557D01*
X168581596Y-108606922D01*
X168684808Y-108710134D01*
X168806173Y-108791227D01*
X168941026Y-108847085D01*
X169084186Y-108875562D01*
X169230150Y-108875562D01*
X169373310Y-108847085D01*
X169508163Y-108791227D01*
X169629528Y-108710134D01*
X169732740Y-108606922D01*
X169813833Y-108485557D01*
X169869052Y-108352245D01*
X170002364Y-108297026D01*
X170123729Y-108215933D01*
X170226941Y-108112721D01*
X170308034Y-107991356D01*
X170363892Y-107856503D01*
X170392369Y-107713343D01*
X170392369Y-107567379D01*
X170363892Y-107424219D01*
X170308034Y-107289366D01*
X170226941Y-107168001D01*
X170123729Y-107064789D01*
X170002364Y-106983696D01*
X169867511Y-106927838D01*
X169724351Y-106899361D01*
X169578387Y-106899361D01*
X169435227Y-106927838D01*
X169300374Y-106983696D01*
X169179009Y-107064789D01*
X169075797Y-107168001D01*
X168994704Y-107289366D01*
X168939485Y-107422678D01*
X168806173Y-107477897D01*
X168684808Y-107558990D01*
X168581596Y-107662202D01*
X168500503Y-107783567D01*
X168444645Y-107918420D01*
X168416168Y-108061580D01*
X154123120Y-108061580D01*
X151973695Y-105912155D01*
X166650189Y-105912155D01*
X166650189Y-106058119D01*
X166678666Y-106201279D01*
X166734524Y-106336132D01*
X166815617Y-106457497D01*
X166918829Y-106560709D01*
X167040194Y-106641802D01*
X167175047Y-106697660D01*
X167318207Y-106726137D01*
X167464171Y-106726137D01*
X167607331Y-106697660D01*
X167742184Y-106641802D01*
X167863549Y-106560709D01*
X167966761Y-106457497D01*
X168047854Y-106336132D01*
X168103712Y-106201279D01*
X168132189Y-106058119D01*
X168132189Y-105912155D01*
X168103712Y-105768995D01*
X168047854Y-105634142D01*
X168043372Y-105627434D01*
X172232175Y-105627434D01*
X172276381Y-106021540D01*
X172396294Y-106399553D01*
X172587346Y-106747076D01*
X172842261Y-107050871D01*
X173151329Y-107299368D01*
X173502776Y-107483101D01*
X173883218Y-107595071D01*
X174278163Y-107631013D01*
X174672567Y-107589560D01*
X175051409Y-107472289D01*
X175400257Y-107283667D01*
X175705825Y-107030880D01*
X175956473Y-106723555D01*
X176142655Y-106373398D01*
X176257278Y-105993747D01*
X176295977Y-105599063D01*
X176295185Y-105542326D01*
X176245480Y-105148876D01*
X176120301Y-104772574D01*
X175924415Y-104427753D01*
X175665284Y-104127546D01*
X175352777Y-103883389D01*
X174998798Y-103704581D01*
X174616830Y-103597934D01*
X174221422Y-103567509D01*
X173827635Y-103614465D01*
X173450468Y-103737014D01*
X173104287Y-103930488D01*
X172802279Y-104187517D01*
X172555946Y-104498312D01*
X172374671Y-104851034D01*
X172265360Y-105232248D01*
X172232175Y-105627434D01*
X168043372Y-105627434D01*
X167966761Y-105512777D01*
X167863549Y-105409565D01*
X167742184Y-105328472D01*
X167607331Y-105272614D01*
X167464171Y-105244137D01*
X167318207Y-105244137D01*
X167175047Y-105272614D01*
X167040194Y-105328472D01*
X166918829Y-105409565D01*
X166815617Y-105512777D01*
X166734524Y-105634142D01*
X166678666Y-105768995D01*
X166650189Y-105912155D01*
X151973695Y-105912155D01*
X150128302Y-104066763D01*
X150109056Y-104050969D01*
X150087100Y-104039233D01*
X150063275Y-104032006D01*
X150038499Y-104029566D01*
X149926054Y-104029566D01*
X149893941Y-104026403D01*
X149893933Y-104026403D01*
X149868793Y-104023927D01*
X149843653Y-104026403D01*
X126368942Y-104026403D01*
X126364410Y-104022684D01*
X126342454Y-104010948D01*
X126339163Y-104009950D01*
X126339163Y-103975969D01*
X160432302Y-103975969D01*
X160432302Y-104121933D01*
X160460779Y-104265093D01*
X160516637Y-104399946D01*
X160597730Y-104521311D01*
X160700942Y-104624523D01*
X160822307Y-104705616D01*
X160957160Y-104761474D01*
X161100320Y-104789951D01*
X161246284Y-104789951D01*
X161389444Y-104761474D01*
X161524297Y-104705616D01*
X161645662Y-104624523D01*
X161748874Y-104521311D01*
X161829967Y-104399946D01*
X161885825Y-104265093D01*
X161914302Y-104121933D01*
X161914302Y-103975969D01*
X161885825Y-103832809D01*
X161829967Y-103697956D01*
X161748874Y-103576591D01*
X161645662Y-103473379D01*
X161524297Y-103392286D01*
X161389444Y-103336428D01*
X161246284Y-103307951D01*
X161100320Y-103307951D01*
X160957160Y-103336428D01*
X160822307Y-103392286D01*
X160700942Y-103473379D01*
X160597730Y-103576591D01*
X160516637Y-103697956D01*
X160460779Y-103832809D01*
X160432302Y-103975969D01*
X126339163Y-103975969D01*
X126339163Y-102737592D01*
X128976231Y-102737592D01*
X128976231Y-102883556D01*
X129004708Y-103026716D01*
X129060566Y-103161569D01*
X129141659Y-103282934D01*
X129244871Y-103386146D01*
X129366236Y-103467239D01*
X129501089Y-103523097D01*
X129644249Y-103551574D01*
X129790213Y-103551574D01*
X129933373Y-103523097D01*
X130068226Y-103467239D01*
X130189591Y-103386146D01*
X130292803Y-103282934D01*
X130373896Y-103161569D01*
X130429754Y-103026716D01*
X130458231Y-102883556D01*
X130458231Y-102737592D01*
X130446630Y-102679270D01*
X152533219Y-102679270D01*
X152533219Y-102825234D01*
X152561696Y-102968394D01*
X152617554Y-103103247D01*
X152698647Y-103224612D01*
X152801859Y-103327824D01*
X152923224Y-103408917D01*
X153058077Y-103464775D01*
X153201237Y-103493252D01*
X153347201Y-103493252D01*
X153490361Y-103464775D01*
X153625214Y-103408917D01*
X153746579Y-103327824D01*
X153849791Y-103224612D01*
X153914156Y-103128282D01*
X154419073Y-103128282D01*
X154419073Y-103274246D01*
X154447550Y-103417406D01*
X154503408Y-103552259D01*
X154584501Y-103673624D01*
X154687713Y-103776836D01*
X154809078Y-103857929D01*
X154943931Y-103913787D01*
X155087091Y-103942264D01*
X155233055Y-103942264D01*
X155376215Y-103913787D01*
X155511068Y-103857929D01*
X155632433Y-103776836D01*
X155735645Y-103673624D01*
X155816738Y-103552259D01*
X155872596Y-103417406D01*
X155901073Y-103274246D01*
X155901073Y-103128282D01*
X155872596Y-102985122D01*
X155816738Y-102850269D01*
X155814131Y-102846366D01*
X174569491Y-102846366D01*
X174569491Y-103017348D01*
X174602848Y-103185043D01*
X174668279Y-103343009D01*
X174763271Y-103485175D01*
X174884173Y-103606077D01*
X175026339Y-103701069D01*
X175184305Y-103766500D01*
X175352000Y-103799857D01*
X175522982Y-103799857D01*
X175690677Y-103766500D01*
X175848643Y-103701069D01*
X175990809Y-103606077D01*
X176111711Y-103485175D01*
X176206703Y-103343009D01*
X176272134Y-103185043D01*
X176305491Y-103017348D01*
X176305491Y-102846366D01*
X176272134Y-102678671D01*
X176206703Y-102520705D01*
X176111711Y-102378539D01*
X175990809Y-102257637D01*
X175848643Y-102162645D01*
X175690677Y-102097214D01*
X175522982Y-102063857D01*
X175352000Y-102063857D01*
X175184305Y-102097214D01*
X175026339Y-102162645D01*
X174884173Y-102257637D01*
X174763271Y-102378539D01*
X174668279Y-102520705D01*
X174602848Y-102678671D01*
X174569491Y-102846366D01*
X155814131Y-102846366D01*
X155735645Y-102728904D01*
X155632433Y-102625692D01*
X155511068Y-102544599D01*
X155376215Y-102488741D01*
X155233055Y-102460264D01*
X155087091Y-102460264D01*
X154943931Y-102488741D01*
X154809078Y-102544599D01*
X154687713Y-102625692D01*
X154584501Y-102728904D01*
X154503408Y-102850269D01*
X154447550Y-102985122D01*
X154419073Y-103128282D01*
X153914156Y-103128282D01*
X153930884Y-103103247D01*
X153986742Y-102968394D01*
X154015219Y-102825234D01*
X154015219Y-102679270D01*
X153986742Y-102536110D01*
X153930884Y-102401257D01*
X153849791Y-102279892D01*
X153746579Y-102176680D01*
X153625214Y-102095587D01*
X153490361Y-102039729D01*
X153347201Y-102011252D01*
X153201237Y-102011252D01*
X153058077Y-102039729D01*
X152923224Y-102095587D01*
X152801859Y-102176680D01*
X152698647Y-102279892D01*
X152617554Y-102401257D01*
X152561696Y-102536110D01*
X152533219Y-102679270D01*
X130446630Y-102679270D01*
X130429754Y-102594432D01*
X130373896Y-102459579D01*
X130292803Y-102338214D01*
X130189591Y-102235002D01*
X130068226Y-102153909D01*
X129933373Y-102098051D01*
X129790213Y-102069574D01*
X129644249Y-102069574D01*
X129501089Y-102098051D01*
X129366236Y-102153909D01*
X129244871Y-102235002D01*
X129141659Y-102338214D01*
X129060566Y-102459579D01*
X129004708Y-102594432D01*
X128976231Y-102737592D01*
X126339163Y-102737592D01*
X126339163Y-101326674D01*
X160072111Y-101326674D01*
X160072111Y-101497656D01*
X160105468Y-101665351D01*
X160170899Y-101823317D01*
X160265891Y-101965483D01*
X160386793Y-102086385D01*
X160528959Y-102181377D01*
X160686925Y-102246808D01*
X160854620Y-102280165D01*
X161025602Y-102280165D01*
X161193297Y-102246808D01*
X161351263Y-102181377D01*
X161493429Y-102086385D01*
X161614331Y-101965483D01*
X161709323Y-101823317D01*
X161774754Y-101665351D01*
X161808111Y-101497656D01*
X161808111Y-101491823D01*
X161886793Y-101609580D01*
X161990005Y-101712792D01*
X162111370Y-101793885D01*
X162246223Y-101849743D01*
X162389383Y-101878220D01*
X162535347Y-101878220D01*
X162660533Y-101853318D01*
X162718786Y-101911571D01*
X162840151Y-101992664D01*
X162975004Y-102048522D01*
X163118164Y-102076999D01*
X163264128Y-102076999D01*
X163407288Y-102048522D01*
X163542141Y-101992664D01*
X163663506Y-101911571D01*
X163766718Y-101808359D01*
X163847811Y-101686994D01*
X163860097Y-101657333D01*
X163889063Y-101686299D01*
X164010428Y-101767392D01*
X164145281Y-101823250D01*
X164288441Y-101851727D01*
X164434405Y-101851727D01*
X164577565Y-101823250D01*
X164712418Y-101767392D01*
X164833783Y-101686299D01*
X164936995Y-101583087D01*
X165018088Y-101461722D01*
X165073946Y-101326869D01*
X165102423Y-101183709D01*
X165102423Y-101037745D01*
X165073946Y-100894585D01*
X165024712Y-100775724D01*
X165035289Y-100759895D01*
X165091147Y-100625042D01*
X165113410Y-100513121D01*
X168317562Y-100513121D01*
X168317562Y-100659085D01*
X168346039Y-100802245D01*
X168401897Y-100937098D01*
X168482990Y-101058463D01*
X168586202Y-101161675D01*
X168707567Y-101242768D01*
X168842420Y-101298626D01*
X168985580Y-101327103D01*
X169131544Y-101327103D01*
X169274704Y-101298626D01*
X169409557Y-101242768D01*
X169530922Y-101161675D01*
X169612327Y-101080270D01*
X169630743Y-101172854D01*
X169686601Y-101307707D01*
X169767694Y-101429072D01*
X169870906Y-101532284D01*
X169992271Y-101613377D01*
X170127124Y-101669235D01*
X170270284Y-101697712D01*
X170416248Y-101697712D01*
X170559408Y-101669235D01*
X170694261Y-101613377D01*
X170815626Y-101532284D01*
X170864354Y-101483556D01*
X170873191Y-101527979D01*
X170929049Y-101662832D01*
X171010142Y-101784197D01*
X171113354Y-101887409D01*
X171234719Y-101968502D01*
X171369572Y-102024360D01*
X171512732Y-102052837D01*
X171658696Y-102052837D01*
X171801856Y-102024360D01*
X171936709Y-101968502D01*
X172058074Y-101887409D01*
X172161286Y-101784197D01*
X172242379Y-101662832D01*
X172298237Y-101527979D01*
X172326714Y-101384819D01*
X172326714Y-101358259D01*
X172389591Y-101316246D01*
X172491968Y-101213870D01*
X172594344Y-101316246D01*
X172715709Y-101397339D01*
X172850562Y-101453197D01*
X172993722Y-101481674D01*
X173139686Y-101481674D01*
X173282846Y-101453197D01*
X173417699Y-101397339D01*
X173539064Y-101316246D01*
X173642276Y-101213034D01*
X173723369Y-101091669D01*
X173779227Y-100956816D01*
X173807704Y-100813656D01*
X173807704Y-100667692D01*
X173779227Y-100524532D01*
X173723369Y-100389679D01*
X173642276Y-100268314D01*
X173539064Y-100165102D01*
X173417699Y-100084009D01*
X173282846Y-100028151D01*
X173273602Y-100026312D01*
X173367136Y-99987569D01*
X173488501Y-99906476D01*
X173591713Y-99803264D01*
X173672806Y-99681899D01*
X173728664Y-99547046D01*
X173757141Y-99403886D01*
X173757141Y-99257922D01*
X173728664Y-99114762D01*
X173672806Y-98979909D01*
X173591713Y-98858544D01*
X173488501Y-98755332D01*
X173367136Y-98674239D01*
X173258027Y-98629045D01*
X173208737Y-98510048D01*
X173127644Y-98388683D01*
X173024432Y-98285471D01*
X172903067Y-98204378D01*
X172768214Y-98148520D01*
X172625054Y-98120043D01*
X172479090Y-98120043D01*
X172335930Y-98148520D01*
X172201077Y-98204378D01*
X172079712Y-98285471D01*
X171976500Y-98388683D01*
X171895407Y-98510048D01*
X171839549Y-98644901D01*
X171811072Y-98788061D01*
X171811072Y-98934025D01*
X171839549Y-99077185D01*
X171895407Y-99212038D01*
X171976500Y-99333403D01*
X172079712Y-99436615D01*
X172201077Y-99517708D01*
X172310186Y-99562902D01*
X172359476Y-99681899D01*
X172440569Y-99803264D01*
X172543781Y-99906476D01*
X172665146Y-99987569D01*
X172799999Y-100043427D01*
X172809243Y-100045266D01*
X172715709Y-100084009D01*
X172594344Y-100165102D01*
X172491968Y-100267479D01*
X172389591Y-100165102D01*
X172268226Y-100084009D01*
X172133373Y-100028151D01*
X171990213Y-99999674D01*
X171844249Y-99999674D01*
X171701089Y-100028151D01*
X171566236Y-100084009D01*
X171444871Y-100165102D01*
X171341659Y-100268314D01*
X171260566Y-100389679D01*
X171204708Y-100524532D01*
X171176231Y-100667692D01*
X171176231Y-100694252D01*
X171113354Y-100736265D01*
X171064626Y-100784993D01*
X171055789Y-100740570D01*
X170999931Y-100605717D01*
X170918838Y-100484352D01*
X170815626Y-100381140D01*
X170694261Y-100300047D01*
X170559408Y-100244189D01*
X170416248Y-100215712D01*
X170270284Y-100215712D01*
X170127124Y-100244189D01*
X169992271Y-100300047D01*
X169870906Y-100381140D01*
X169789501Y-100462545D01*
X169771085Y-100369961D01*
X169715227Y-100235108D01*
X169634134Y-100113743D01*
X169530922Y-100010531D01*
X169409557Y-99929438D01*
X169274704Y-99873580D01*
X169131544Y-99845103D01*
X168985580Y-99845103D01*
X168842420Y-99873580D01*
X168707567Y-99929438D01*
X168586202Y-100010531D01*
X168482990Y-100113743D01*
X168401897Y-100235108D01*
X168346039Y-100369961D01*
X168317562Y-100513121D01*
X165113410Y-100513121D01*
X165119624Y-100481882D01*
X165119624Y-100335918D01*
X165091147Y-100192758D01*
X165035289Y-100057905D01*
X164954196Y-99936540D01*
X164850984Y-99833328D01*
X164729619Y-99752235D01*
X164594766Y-99696377D01*
X164451606Y-99667900D01*
X164305642Y-99667900D01*
X164162482Y-99696377D01*
X164027629Y-99752235D01*
X163906264Y-99833328D01*
X163803052Y-99936540D01*
X163721959Y-100057905D01*
X163666101Y-100192758D01*
X163637624Y-100335918D01*
X163637624Y-100481882D01*
X163666101Y-100625042D01*
X163715335Y-100743903D01*
X163704758Y-100759732D01*
X163692472Y-100789393D01*
X163663506Y-100760427D01*
X163542141Y-100679334D01*
X163407288Y-100623476D01*
X163264128Y-100594999D01*
X163118164Y-100594999D01*
X162992978Y-100619901D01*
X162934725Y-100561648D01*
X162813360Y-100480555D01*
X162678507Y-100424697D01*
X162535347Y-100396220D01*
X162389383Y-100396220D01*
X162246223Y-100424697D01*
X162111370Y-100480555D01*
X161990005Y-100561648D01*
X161886793Y-100664860D01*
X161805700Y-100786225D01*
X161749842Y-100921078D01*
X161725955Y-101041165D01*
X161709323Y-101001013D01*
X161614331Y-100858847D01*
X161493429Y-100737945D01*
X161351263Y-100642953D01*
X161193297Y-100577522D01*
X161025602Y-100544165D01*
X160854620Y-100544165D01*
X160686925Y-100577522D01*
X160528959Y-100642953D01*
X160386793Y-100737945D01*
X160265891Y-100858847D01*
X160170899Y-101001013D01*
X160105468Y-101158979D01*
X160072111Y-101326674D01*
X126339163Y-101326674D01*
X126339163Y-99793079D01*
X128019398Y-99793079D01*
X128019398Y-99964061D01*
X128052755Y-100131756D01*
X128118186Y-100289722D01*
X128213178Y-100431888D01*
X128334080Y-100552790D01*
X128476246Y-100647782D01*
X128634212Y-100713213D01*
X128801907Y-100746570D01*
X128972889Y-100746570D01*
X129140584Y-100713213D01*
X129298550Y-100647782D01*
X129440716Y-100552790D01*
X129561618Y-100431888D01*
X129608489Y-100361740D01*
X129673271Y-100458693D01*
X129776483Y-100561905D01*
X129897848Y-100642998D01*
X130032701Y-100698856D01*
X130175861Y-100727333D01*
X130321825Y-100727333D01*
X130464985Y-100698856D01*
X130599838Y-100642998D01*
X130721203Y-100561905D01*
X130824415Y-100458693D01*
X130905508Y-100337328D01*
X130961366Y-100202475D01*
X130989843Y-100059315D01*
X130989843Y-99913351D01*
X130961366Y-99770191D01*
X130936822Y-99710936D01*
X135386658Y-99710936D01*
X135386658Y-99856900D01*
X135415135Y-100000060D01*
X135470993Y-100134913D01*
X135552086Y-100256278D01*
X135655298Y-100359490D01*
X135776663Y-100440583D01*
X135911516Y-100496441D01*
X136054676Y-100524918D01*
X136200640Y-100524918D01*
X136343800Y-100496441D01*
X136478653Y-100440583D01*
X136600018Y-100359490D01*
X136703230Y-100256278D01*
X136784323Y-100134913D01*
X136808983Y-100075378D01*
X136846332Y-100067949D01*
X136981185Y-100012091D01*
X137102550Y-99930998D01*
X137205762Y-99827786D01*
X137286855Y-99706421D01*
X137288876Y-99701540D01*
X141957234Y-99701540D01*
X141957234Y-99847504D01*
X141985711Y-99990664D01*
X142041569Y-100125517D01*
X142122662Y-100246882D01*
X142225874Y-100350094D01*
X142347239Y-100431187D01*
X142482092Y-100487045D01*
X142625252Y-100515522D01*
X142771216Y-100515522D01*
X142869284Y-100496014D01*
X142869838Y-100496568D01*
X142991203Y-100577661D01*
X143126056Y-100633519D01*
X143269216Y-100661996D01*
X143415180Y-100661996D01*
X143558340Y-100633519D01*
X143693193Y-100577661D01*
X143814558Y-100496568D01*
X143917770Y-100393356D01*
X143998863Y-100271991D01*
X144054721Y-100137138D01*
X144061038Y-100105377D01*
X145871845Y-100105377D01*
X145871845Y-100251341D01*
X145900322Y-100394501D01*
X145956180Y-100529354D01*
X146037273Y-100650719D01*
X146140485Y-100753931D01*
X146261850Y-100835024D01*
X146396703Y-100890882D01*
X146539863Y-100919359D01*
X146685827Y-100919359D01*
X146828987Y-100890882D01*
X146963840Y-100835024D01*
X147085205Y-100753931D01*
X147188417Y-100650719D01*
X147225409Y-100595357D01*
X147310468Y-100680416D01*
X147431833Y-100761509D01*
X147566686Y-100817367D01*
X147709846Y-100845844D01*
X147855810Y-100845844D01*
X147998970Y-100817367D01*
X148133823Y-100761509D01*
X148149546Y-100751004D01*
X148226700Y-100782962D01*
X148369860Y-100811439D01*
X148515824Y-100811439D01*
X148658984Y-100782962D01*
X148793837Y-100727104D01*
X148915202Y-100646011D01*
X149018414Y-100542799D01*
X149043254Y-100505623D01*
X149721763Y-100505623D01*
X149721763Y-100651587D01*
X149750240Y-100794747D01*
X149806098Y-100929600D01*
X149887191Y-101050965D01*
X149990403Y-101154177D01*
X150111768Y-101235270D01*
X150246621Y-101291128D01*
X150389781Y-101319605D01*
X150535745Y-101319605D01*
X150678905Y-101291128D01*
X150813758Y-101235270D01*
X150935123Y-101154177D01*
X151038335Y-101050965D01*
X151119428Y-100929600D01*
X151175286Y-100794747D01*
X151176322Y-100789537D01*
X151209376Y-100782962D01*
X151344229Y-100727104D01*
X151465594Y-100646011D01*
X151568806Y-100542799D01*
X151649899Y-100421434D01*
X151705757Y-100286581D01*
X151734234Y-100143421D01*
X151734234Y-99997457D01*
X151705757Y-99854297D01*
X151649899Y-99719444D01*
X151568806Y-99598079D01*
X151465594Y-99494867D01*
X151344229Y-99413774D01*
X151209376Y-99357916D01*
X151066216Y-99329439D01*
X150920252Y-99329439D01*
X150777092Y-99357916D01*
X150642239Y-99413774D01*
X150520874Y-99494867D01*
X150417662Y-99598079D01*
X150336569Y-99719444D01*
X150280711Y-99854297D01*
X150279675Y-99859507D01*
X150246621Y-99866082D01*
X150111768Y-99921940D01*
X149990403Y-100003033D01*
X149887191Y-100106245D01*
X149806098Y-100227610D01*
X149750240Y-100362463D01*
X149721763Y-100505623D01*
X149043254Y-100505623D01*
X149099507Y-100421434D01*
X149155365Y-100286581D01*
X149183842Y-100143421D01*
X149183842Y-99997457D01*
X149155365Y-99854297D01*
X149099507Y-99719444D01*
X149018414Y-99598079D01*
X148915202Y-99494867D01*
X148793837Y-99413774D01*
X148658984Y-99357916D01*
X148515824Y-99329439D01*
X148369860Y-99329439D01*
X148226700Y-99357916D01*
X148091847Y-99413774D01*
X148076124Y-99424279D01*
X147998970Y-99392321D01*
X147855810Y-99363844D01*
X147709846Y-99363844D01*
X147566686Y-99392321D01*
X147431833Y-99448179D01*
X147310468Y-99529272D01*
X147207256Y-99632484D01*
X147170264Y-99687846D01*
X147085205Y-99602787D01*
X146963840Y-99521694D01*
X146828987Y-99465836D01*
X146685827Y-99437359D01*
X146539863Y-99437359D01*
X146396703Y-99465836D01*
X146261850Y-99521694D01*
X146140485Y-99602787D01*
X146037273Y-99705999D01*
X145956180Y-99827364D01*
X145900322Y-99962217D01*
X145871845Y-100105377D01*
X144061038Y-100105377D01*
X144083198Y-99993978D01*
X144083198Y-99848014D01*
X144054721Y-99704854D01*
X143998863Y-99570001D01*
X143917770Y-99448636D01*
X143814558Y-99345424D01*
X143693193Y-99264331D01*
X143558340Y-99208473D01*
X143415180Y-99179996D01*
X143269216Y-99179996D01*
X143171148Y-99199504D01*
X143170594Y-99198950D01*
X143049229Y-99117857D01*
X142914376Y-99061999D01*
X142771216Y-99033522D01*
X142625252Y-99033522D01*
X142482092Y-99061999D01*
X142347239Y-99117857D01*
X142225874Y-99198950D01*
X142122662Y-99302162D01*
X142041569Y-99423527D01*
X141985711Y-99558380D01*
X141957234Y-99701540D01*
X137288876Y-99701540D01*
X137342713Y-99571568D01*
X137371190Y-99428408D01*
X137371190Y-99282444D01*
X137342713Y-99139284D01*
X137291899Y-99016606D01*
X156465911Y-99016606D01*
X156488347Y-99244398D01*
X156554791Y-99463436D01*
X156662691Y-99665302D01*
X156807900Y-99842239D01*
X156984837Y-99987448D01*
X157186703Y-100095348D01*
X157405741Y-100161792D01*
X157576453Y-100178606D01*
X157690613Y-100178606D01*
X157861325Y-100161792D01*
X158080363Y-100095348D01*
X158282229Y-99987448D01*
X158459166Y-99842239D01*
X158604375Y-99665302D01*
X158712275Y-99463436D01*
X158778719Y-99244398D01*
X158783179Y-99199109D01*
X166798671Y-99199109D01*
X166798671Y-99370091D01*
X166832028Y-99537786D01*
X166897459Y-99695752D01*
X166992451Y-99837918D01*
X167113353Y-99958820D01*
X167255519Y-100053812D01*
X167413485Y-100119243D01*
X167581180Y-100152600D01*
X167752162Y-100152600D01*
X167919857Y-100119243D01*
X168077823Y-100053812D01*
X168219989Y-99958820D01*
X168340891Y-99837918D01*
X168435883Y-99695752D01*
X168501314Y-99537786D01*
X168534671Y-99370091D01*
X168534671Y-99199109D01*
X168501314Y-99031414D01*
X168435883Y-98873448D01*
X168340891Y-98731282D01*
X168219989Y-98610380D01*
X168077823Y-98515388D01*
X167919857Y-98449957D01*
X167752162Y-98416600D01*
X167581180Y-98416600D01*
X167413485Y-98449957D01*
X167255519Y-98515388D01*
X167113353Y-98610380D01*
X166992451Y-98731282D01*
X166897459Y-98873448D01*
X166832028Y-99031414D01*
X166798671Y-99199109D01*
X158783179Y-99199109D01*
X158801155Y-99016606D01*
X158778719Y-98788814D01*
X158712275Y-98569776D01*
X158604375Y-98367910D01*
X158459166Y-98190973D01*
X158282229Y-98045764D01*
X158080363Y-97937864D01*
X157861325Y-97871420D01*
X157690613Y-97854606D01*
X157576453Y-97854606D01*
X157405741Y-97871420D01*
X157186703Y-97937864D01*
X156984837Y-98045764D01*
X156807900Y-98190973D01*
X156662691Y-98367910D01*
X156554791Y-98569776D01*
X156488347Y-98788814D01*
X156465911Y-99016606D01*
X137291899Y-99016606D01*
X137286855Y-99004431D01*
X137205762Y-98883066D01*
X137102550Y-98779854D01*
X136981185Y-98698761D01*
X136846332Y-98642903D01*
X136703172Y-98614426D01*
X136557208Y-98614426D01*
X136414048Y-98642903D01*
X136279195Y-98698761D01*
X136157830Y-98779854D01*
X136054618Y-98883066D01*
X135973525Y-99004431D01*
X135948865Y-99063966D01*
X135911516Y-99071395D01*
X135776663Y-99127253D01*
X135655298Y-99208346D01*
X135552086Y-99311558D01*
X135470993Y-99432923D01*
X135415135Y-99567776D01*
X135386658Y-99710936D01*
X130936822Y-99710936D01*
X130905508Y-99635338D01*
X130824415Y-99513973D01*
X130721203Y-99410761D01*
X130599838Y-99329668D01*
X130464985Y-99273810D01*
X130321825Y-99245333D01*
X130175861Y-99245333D01*
X130032701Y-99273810D01*
X129897848Y-99329668D01*
X129776483Y-99410761D01*
X129675125Y-99512119D01*
X129656610Y-99467418D01*
X129561618Y-99325252D01*
X129440716Y-99204350D01*
X129298550Y-99109358D01*
X129140584Y-99043927D01*
X128972889Y-99010570D01*
X128801907Y-99010570D01*
X128634212Y-99043927D01*
X128476246Y-99109358D01*
X128334080Y-99204350D01*
X128213178Y-99325252D01*
X128118186Y-99467418D01*
X128052755Y-99625384D01*
X128019398Y-99793079D01*
X126339163Y-99793079D01*
X126339163Y-95841766D01*
X127979923Y-95841766D01*
X127979923Y-96012748D01*
X128013280Y-96180443D01*
X128078711Y-96338409D01*
X128173703Y-96480575D01*
X128294605Y-96601477D01*
X128436771Y-96696469D01*
X128594737Y-96761900D01*
X128762432Y-96795257D01*
X128933414Y-96795257D01*
X129101109Y-96761900D01*
X129259075Y-96696469D01*
X129401241Y-96601477D01*
X129519825Y-96482893D01*
X129813171Y-96482893D01*
X129813171Y-96628857D01*
X129841648Y-96772017D01*
X129897506Y-96906870D01*
X129978599Y-97028235D01*
X130081811Y-97131447D01*
X130203176Y-97212540D01*
X130338029Y-97268398D01*
X130481189Y-97296875D01*
X130627153Y-97296875D01*
X130770313Y-97268398D01*
X130905166Y-97212540D01*
X131026531Y-97131447D01*
X131129743Y-97028235D01*
X131210836Y-96906870D01*
X131252015Y-96807455D01*
X146872122Y-96807455D01*
X146872122Y-96953419D01*
X146900599Y-97096579D01*
X146956457Y-97231432D01*
X147037550Y-97352797D01*
X147140762Y-97456009D01*
X147262127Y-97537102D01*
X147396980Y-97592960D01*
X147540140Y-97621437D01*
X147686104Y-97621437D01*
X147829264Y-97592960D01*
X147964117Y-97537102D01*
X148085482Y-97456009D01*
X148188694Y-97352797D01*
X148269787Y-97231432D01*
X148271587Y-97227087D01*
X148344001Y-97275472D01*
X148478854Y-97331330D01*
X148622014Y-97359807D01*
X148767978Y-97359807D01*
X148911138Y-97331330D01*
X149045991Y-97275472D01*
X149167356Y-97194379D01*
X149270568Y-97091167D01*
X149351661Y-96969802D01*
X149407519Y-96834949D01*
X149435996Y-96691789D01*
X149435996Y-96545825D01*
X149407519Y-96402665D01*
X149351661Y-96267812D01*
X149270568Y-96146447D01*
X149167356Y-96043235D01*
X149045991Y-95962142D01*
X148911138Y-95906284D01*
X148767978Y-95877807D01*
X148622014Y-95877807D01*
X148478854Y-95906284D01*
X148344001Y-95962142D01*
X148222636Y-96043235D01*
X148119424Y-96146447D01*
X148038331Y-96267812D01*
X148036531Y-96272157D01*
X147964117Y-96223772D01*
X147829264Y-96167914D01*
X147686104Y-96139437D01*
X147540140Y-96139437D01*
X147396980Y-96167914D01*
X147262127Y-96223772D01*
X147140762Y-96304865D01*
X147037550Y-96408077D01*
X146956457Y-96529442D01*
X146900599Y-96664295D01*
X146872122Y-96807455D01*
X131252015Y-96807455D01*
X131266694Y-96772017D01*
X131295171Y-96628857D01*
X131295171Y-96482893D01*
X131266694Y-96339733D01*
X131210836Y-96204880D01*
X131129743Y-96083515D01*
X131026531Y-95980303D01*
X130905166Y-95899210D01*
X130770313Y-95843352D01*
X130627153Y-95814875D01*
X130481189Y-95814875D01*
X130338029Y-95843352D01*
X130203176Y-95899210D01*
X130081811Y-95980303D01*
X129978599Y-96083515D01*
X129897506Y-96204880D01*
X129841648Y-96339733D01*
X129813171Y-96482893D01*
X129519825Y-96482893D01*
X129522143Y-96480575D01*
X129617135Y-96338409D01*
X129682566Y-96180443D01*
X129715923Y-96012748D01*
X129715923Y-95841766D01*
X129706878Y-95796292D01*
X157627217Y-95796292D01*
X157627217Y-95942256D01*
X157655694Y-96085416D01*
X157711552Y-96220269D01*
X157792645Y-96341634D01*
X157895857Y-96444846D01*
X158017222Y-96525939D01*
X158152075Y-96581797D01*
X158295235Y-96610274D01*
X158441199Y-96610274D01*
X158584359Y-96581797D01*
X158719212Y-96525939D01*
X158840577Y-96444846D01*
X158850377Y-96435046D01*
X163039787Y-96435046D01*
X163083993Y-96829152D01*
X163203906Y-97207165D01*
X163394958Y-97554688D01*
X163649873Y-97858483D01*
X163958941Y-98106980D01*
X164310388Y-98290713D01*
X164690830Y-98402683D01*
X165085775Y-98438625D01*
X165480179Y-98397172D01*
X165859021Y-98279901D01*
X166207869Y-98091279D01*
X166513437Y-97838492D01*
X166764085Y-97531167D01*
X166950267Y-97181010D01*
X167064890Y-96801359D01*
X167103589Y-96406675D01*
X167102797Y-96349938D01*
X167053092Y-95956488D01*
X166929471Y-95584867D01*
X167889457Y-95584867D01*
X167889457Y-95730831D01*
X167917934Y-95873991D01*
X167973792Y-96008844D01*
X168054885Y-96130209D01*
X168158097Y-96233421D01*
X168279462Y-96314514D01*
X168414315Y-96370372D01*
X168557475Y-96398849D01*
X168703439Y-96398849D01*
X168846599Y-96370372D01*
X168981452Y-96314514D01*
X169102817Y-96233421D01*
X169206029Y-96130209D01*
X169287122Y-96008844D01*
X169342980Y-95873991D01*
X169371457Y-95730831D01*
X169371457Y-95584867D01*
X169342980Y-95441707D01*
X169287122Y-95306854D01*
X169206029Y-95185489D01*
X169102817Y-95082277D01*
X168981452Y-95001184D01*
X168846599Y-94945326D01*
X168703439Y-94916849D01*
X168557475Y-94916849D01*
X168414315Y-94945326D01*
X168279462Y-95001184D01*
X168158097Y-95082277D01*
X168054885Y-95185489D01*
X167973792Y-95306854D01*
X167917934Y-95441707D01*
X167889457Y-95584867D01*
X166929471Y-95584867D01*
X166927913Y-95580186D01*
X166732027Y-95235365D01*
X166472896Y-94935158D01*
X166160389Y-94691001D01*
X165806410Y-94512193D01*
X165424442Y-94405546D01*
X165029034Y-94375121D01*
X164635247Y-94422077D01*
X164258080Y-94544626D01*
X163911899Y-94738100D01*
X163609891Y-94995129D01*
X163363558Y-95305924D01*
X163182283Y-95658646D01*
X163072972Y-96039860D01*
X163039787Y-96435046D01*
X158850377Y-96435046D01*
X158943789Y-96341634D01*
X159024882Y-96220269D01*
X159080740Y-96085416D01*
X159109217Y-95942256D01*
X159109217Y-95796292D01*
X159080740Y-95653132D01*
X159024882Y-95518279D01*
X158943789Y-95396914D01*
X158840577Y-95293702D01*
X158719212Y-95212609D01*
X158584359Y-95156751D01*
X158441199Y-95128274D01*
X158295235Y-95128274D01*
X158152075Y-95156751D01*
X158017222Y-95212609D01*
X157895857Y-95293702D01*
X157792645Y-95396914D01*
X157711552Y-95518279D01*
X157655694Y-95653132D01*
X157627217Y-95796292D01*
X129706878Y-95796292D01*
X129682566Y-95674071D01*
X129617135Y-95516105D01*
X129522143Y-95373939D01*
X129401241Y-95253037D01*
X129259075Y-95158045D01*
X129101109Y-95092614D01*
X128933414Y-95059257D01*
X128762432Y-95059257D01*
X128594737Y-95092614D01*
X128436771Y-95158045D01*
X128294605Y-95253037D01*
X128173703Y-95373939D01*
X128078711Y-95516105D01*
X128013280Y-95674071D01*
X127979923Y-95841766D01*
X126339163Y-95841766D01*
X126339163Y-94700277D01*
X154980782Y-94700277D01*
X154980782Y-94846241D01*
X155009259Y-94989401D01*
X155065117Y-95124254D01*
X155146210Y-95245619D01*
X155249422Y-95348831D01*
X155370787Y-95429924D01*
X155505640Y-95485782D01*
X155648800Y-95514259D01*
X155794764Y-95514259D01*
X155937924Y-95485782D01*
X156072777Y-95429924D01*
X156194142Y-95348831D01*
X156297354Y-95245619D01*
X156378447Y-95124254D01*
X156434305Y-94989401D01*
X156462782Y-94846241D01*
X156462782Y-94700277D01*
X156434305Y-94557117D01*
X156378447Y-94422264D01*
X156297354Y-94300899D01*
X156194142Y-94197687D01*
X156072777Y-94116594D01*
X155937924Y-94060736D01*
X155794764Y-94032259D01*
X155648800Y-94032259D01*
X155505640Y-94060736D01*
X155370787Y-94116594D01*
X155249422Y-94197687D01*
X155146210Y-94300899D01*
X155065117Y-94422264D01*
X155009259Y-94557117D01*
X154980782Y-94700277D01*
X126339163Y-94700277D01*
X126339163Y-93842697D01*
X149336248Y-93842697D01*
X149336248Y-93988661D01*
X149364725Y-94131821D01*
X149420583Y-94266674D01*
X149501676Y-94388039D01*
X149604888Y-94491251D01*
X149726253Y-94572344D01*
X149861106Y-94628202D01*
X150004266Y-94656679D01*
X150150230Y-94656679D01*
X150293390Y-94628202D01*
X150428243Y-94572344D01*
X150549608Y-94491251D01*
X150652820Y-94388039D01*
X150733913Y-94266674D01*
X150789771Y-94131821D01*
X150818248Y-93988661D01*
X150818248Y-93842697D01*
X150789771Y-93699537D01*
X150733913Y-93564684D01*
X150652820Y-93443319D01*
X150549608Y-93340107D01*
X150428243Y-93259014D01*
X150293390Y-93203156D01*
X150150230Y-93174679D01*
X150004266Y-93174679D01*
X149861106Y-93203156D01*
X149726253Y-93259014D01*
X149604888Y-93340107D01*
X149501676Y-93443319D01*
X149420583Y-93564684D01*
X149364725Y-93699537D01*
X149336248Y-93842697D01*
X126339163Y-93842697D01*
X126339163Y-91004937D01*
X146103356Y-91004937D01*
X146103356Y-91150901D01*
X146131833Y-91294061D01*
X146187691Y-91428914D01*
X146268784Y-91550279D01*
X146371996Y-91653491D01*
X146493361Y-91734584D01*
X146628214Y-91790442D01*
X146771374Y-91818919D01*
X146917338Y-91818919D01*
X147060498Y-91790442D01*
X147195351Y-91734584D01*
X147316716Y-91653491D01*
X147419928Y-91550279D01*
X147501021Y-91428914D01*
X147556879Y-91294061D01*
X147571712Y-91219489D01*
X163222532Y-91219489D01*
X163222532Y-91365453D01*
X163251009Y-91508613D01*
X163306867Y-91643466D01*
X163387960Y-91764831D01*
X163491172Y-91868043D01*
X163612537Y-91949136D01*
X163747390Y-92004994D01*
X163890550Y-92033471D01*
X164036514Y-92033471D01*
X164179674Y-92004994D01*
X164314527Y-91949136D01*
X164435892Y-91868043D01*
X164539104Y-91764831D01*
X164566815Y-91723357D01*
X170852942Y-91723357D01*
X170852942Y-91869321D01*
X170881419Y-92012481D01*
X170937277Y-92147334D01*
X171018370Y-92268699D01*
X171121582Y-92371911D01*
X171242947Y-92453004D01*
X171377800Y-92508862D01*
X171520960Y-92537339D01*
X171666924Y-92537339D01*
X171810084Y-92508862D01*
X171944937Y-92453004D01*
X172066302Y-92371911D01*
X172169514Y-92268699D01*
X172250607Y-92147334D01*
X172306465Y-92012481D01*
X172334942Y-91869321D01*
X172334942Y-91723357D01*
X172306465Y-91580197D01*
X172250607Y-91445344D01*
X172169514Y-91323979D01*
X172066302Y-91220767D01*
X171944937Y-91139674D01*
X171810084Y-91083816D01*
X171666924Y-91055339D01*
X171520960Y-91055339D01*
X171377800Y-91083816D01*
X171242947Y-91139674D01*
X171121582Y-91220767D01*
X171018370Y-91323979D01*
X170937277Y-91445344D01*
X170881419Y-91580197D01*
X170852942Y-91723357D01*
X164566815Y-91723357D01*
X164620197Y-91643466D01*
X164676055Y-91508613D01*
X164704532Y-91365453D01*
X164704532Y-91219489D01*
X164676055Y-91076329D01*
X164620197Y-90941476D01*
X164539104Y-90820111D01*
X164435892Y-90716899D01*
X164314527Y-90635806D01*
X164179674Y-90579948D01*
X164036514Y-90551471D01*
X163890550Y-90551471D01*
X163747390Y-90579948D01*
X163612537Y-90635806D01*
X163491172Y-90716899D01*
X163387960Y-90820111D01*
X163306867Y-90941476D01*
X163251009Y-91076329D01*
X163222532Y-91219489D01*
X147571712Y-91219489D01*
X147585356Y-91150901D01*
X147585356Y-91004937D01*
X147556879Y-90861777D01*
X147501021Y-90726924D01*
X147419928Y-90605559D01*
X147316716Y-90502347D01*
X147195351Y-90421254D01*
X147060498Y-90365396D01*
X146917338Y-90336919D01*
X146771374Y-90336919D01*
X146628214Y-90365396D01*
X146493361Y-90421254D01*
X146371996Y-90502347D01*
X146268784Y-90605559D01*
X146187691Y-90726924D01*
X146131833Y-90861777D01*
X146103356Y-91004937D01*
X126339163Y-91004937D01*
X126339163Y-86784216D01*
X140805005Y-86784216D01*
X140805005Y-86930180D01*
X140833482Y-87073340D01*
X140889340Y-87208193D01*
X140970433Y-87329558D01*
X141073645Y-87432770D01*
X141195010Y-87513863D01*
X141326490Y-87568324D01*
X141328598Y-87578922D01*
X141384456Y-87713775D01*
X141465549Y-87835140D01*
X141568761Y-87938352D01*
X141690126Y-88019445D01*
X141824979Y-88075303D01*
X141968139Y-88103780D01*
X142114103Y-88103780D01*
X142251805Y-88076389D01*
X142169236Y-88131559D01*
X142066024Y-88234771D01*
X141984931Y-88356136D01*
X141929073Y-88490989D01*
X141900596Y-88634149D01*
X141900596Y-88780113D01*
X141929073Y-88923273D01*
X141984931Y-89058126D01*
X142066024Y-89179491D01*
X142169236Y-89282703D01*
X142290601Y-89363796D01*
X142425454Y-89419654D01*
X142568614Y-89448131D01*
X142714578Y-89448131D01*
X142857738Y-89419654D01*
X142992591Y-89363796D01*
X143113956Y-89282703D01*
X143217168Y-89179491D01*
X143298261Y-89058126D01*
X143354119Y-88923273D01*
X143382596Y-88780113D01*
X143382596Y-88634149D01*
X143354119Y-88490989D01*
X143298261Y-88356136D01*
X143217168Y-88234771D01*
X143113956Y-88131559D01*
X142992591Y-88050466D01*
X142857738Y-87994608D01*
X142714578Y-87966131D01*
X142568614Y-87966131D01*
X142430912Y-87993522D01*
X142513481Y-87938352D01*
X142616693Y-87835140D01*
X142697786Y-87713775D01*
X142753644Y-87578922D01*
X142782121Y-87435762D01*
X142782121Y-87289798D01*
X142753644Y-87146638D01*
X142697786Y-87011785D01*
X142616693Y-86890420D01*
X142579277Y-86853004D01*
X142678133Y-86833340D01*
X142812986Y-86777482D01*
X142934351Y-86696389D01*
X143037563Y-86593177D01*
X143118656Y-86471812D01*
X143174514Y-86336959D01*
X143202991Y-86193799D01*
X143202991Y-86047835D01*
X143174514Y-85904675D01*
X143118656Y-85769822D01*
X143116941Y-85767254D01*
X147192839Y-85767254D01*
X147192839Y-85913218D01*
X147221316Y-86056378D01*
X147277174Y-86191231D01*
X147358267Y-86312596D01*
X147461479Y-86415808D01*
X147582844Y-86496901D01*
X147717697Y-86552759D01*
X147860857Y-86581236D01*
X148006821Y-86581236D01*
X148149981Y-86552759D01*
X148284834Y-86496901D01*
X148406199Y-86415808D01*
X148509411Y-86312596D01*
X148590504Y-86191231D01*
X148646362Y-86056378D01*
X148674839Y-85913218D01*
X148674839Y-85767254D01*
X148646362Y-85624094D01*
X148590504Y-85489241D01*
X148509411Y-85367876D01*
X148468499Y-85326964D01*
X148492777Y-85310742D01*
X148595989Y-85207530D01*
X148677082Y-85086165D01*
X148732940Y-84951312D01*
X148761417Y-84808152D01*
X148761417Y-84662188D01*
X148732940Y-84519028D01*
X148677082Y-84384175D01*
X148595989Y-84262810D01*
X148492777Y-84159598D01*
X148371412Y-84078505D01*
X148236559Y-84022647D01*
X148093399Y-83994170D01*
X147947435Y-83994170D01*
X147804275Y-84022647D01*
X147669422Y-84078505D01*
X147548057Y-84159598D01*
X147444845Y-84262810D01*
X147363752Y-84384175D01*
X147307894Y-84519028D01*
X147279417Y-84662188D01*
X147279417Y-84808152D01*
X147307894Y-84951312D01*
X147363752Y-85086165D01*
X147444845Y-85207530D01*
X147485757Y-85248442D01*
X147461479Y-85264664D01*
X147358267Y-85367876D01*
X147277174Y-85489241D01*
X147221316Y-85624094D01*
X147192839Y-85767254D01*
X143116941Y-85767254D01*
X143037563Y-85648457D01*
X142934351Y-85545245D01*
X142812986Y-85464152D01*
X142678133Y-85408294D01*
X142534973Y-85379817D01*
X142389009Y-85379817D01*
X142245849Y-85408294D01*
X142110996Y-85464152D01*
X141989631Y-85545245D01*
X141886419Y-85648457D01*
X141805326Y-85769822D01*
X141749468Y-85904675D01*
X141720991Y-86047835D01*
X141720991Y-86136488D01*
X141618987Y-86116198D01*
X141473023Y-86116198D01*
X141329863Y-86144675D01*
X141195010Y-86200533D01*
X141073645Y-86281626D01*
X140970433Y-86384838D01*
X140889340Y-86506203D01*
X140833482Y-86641056D01*
X140805005Y-86784216D01*
X126339163Y-86784216D01*
X126339163Y-84395468D01*
X144379147Y-84395468D01*
X144379147Y-84541432D01*
X144407624Y-84684592D01*
X144463482Y-84819445D01*
X144544575Y-84940810D01*
X144647787Y-85044022D01*
X144769152Y-85125115D01*
X144904005Y-85180973D01*
X145047165Y-85209450D01*
X145193129Y-85209450D01*
X145336289Y-85180973D01*
X145471142Y-85125115D01*
X145592507Y-85044022D01*
X145695719Y-84940810D01*
X145776812Y-84819445D01*
X145832670Y-84684592D01*
X145861147Y-84541432D01*
X145861147Y-84395468D01*
X145832670Y-84252308D01*
X145776812Y-84117455D01*
X145695719Y-83996090D01*
X145592507Y-83892878D01*
X145471142Y-83811785D01*
X145336289Y-83755927D01*
X145193129Y-83727450D01*
X145047165Y-83727450D01*
X144904005Y-83755927D01*
X144769152Y-83811785D01*
X144647787Y-83892878D01*
X144544575Y-83996090D01*
X144463482Y-84117455D01*
X144407624Y-84252308D01*
X144379147Y-84395468D01*
X126339163Y-84395468D01*
X126339163Y-83558490D01*
X126942420Y-82955233D01*
X140147537Y-82955233D01*
X140147537Y-83101197D01*
X140176014Y-83244357D01*
X140231872Y-83379210D01*
X140312965Y-83500575D01*
X140416177Y-83603787D01*
X140537542Y-83684880D01*
X140672395Y-83740738D01*
X140815555Y-83769215D01*
X140961519Y-83769215D01*
X141030988Y-83755397D01*
X141080338Y-83804747D01*
X141201703Y-83885840D01*
X141336556Y-83941698D01*
X141479716Y-83970175D01*
X141625680Y-83970175D01*
X141768840Y-83941698D01*
X141903693Y-83885840D01*
X142025058Y-83804747D01*
X142128270Y-83701535D01*
X142209363Y-83580170D01*
X142265221Y-83445317D01*
X142293698Y-83302157D01*
X142293698Y-83156193D01*
X142265221Y-83013033D01*
X142209363Y-82878180D01*
X142128270Y-82756815D01*
X142025058Y-82653603D01*
X141903693Y-82572510D01*
X141768840Y-82516652D01*
X141625680Y-82488175D01*
X141479716Y-82488175D01*
X141410247Y-82501993D01*
X141360897Y-82452643D01*
X141239532Y-82371550D01*
X141104679Y-82315692D01*
X140961519Y-82287215D01*
X140815555Y-82287215D01*
X140672395Y-82315692D01*
X140537542Y-82371550D01*
X140416177Y-82452643D01*
X140312965Y-82555855D01*
X140231872Y-82677220D01*
X140176014Y-82812073D01*
X140147537Y-82955233D01*
X126942420Y-82955233D01*
X128177866Y-81719788D01*
X146125092Y-81719788D01*
X154438725Y-90033423D01*
M02*
