G04 #@! TF.GenerationSoftware,KiCad,Pcbnew,5.1.2*
G04 #@! TF.CreationDate,2019-08-08T06:06:32-07:00*
G04 #@! TF.ProjectId,totoro,746f746f-726f-42e6-9b69-6361645f7063,rev?*
G04 #@! TF.SameCoordinates,Original*
G04 #@! TF.FileFunction,Soldermask,Top*
G04 #@! TF.FilePolarity,Negative*
%FSLAX46Y46*%
G04 Gerber Fmt 4.6, Leading zero omitted, Abs format (unit mm)*
G04 Created by KiCad (PCBNEW 5.1.2) date 2019-08-08 06:06:32*
%MOMM*%
%LPD*%
G04 APERTURE LIST*
%ADD10C,0.100000*%
G04 APERTURE END LIST*
D10*
G36*
X178487489Y-115086727D02*
G01*
X178521454Y-115097030D01*
X178552755Y-115113761D01*
X178584957Y-115140188D01*
X179009945Y-115565176D01*
X179036372Y-115597378D01*
X179053103Y-115628679D01*
X179063406Y-115662644D01*
X179066884Y-115697962D01*
X179063406Y-115733280D01*
X179053103Y-115767245D01*
X179036372Y-115798546D01*
X179009945Y-115830748D01*
X178531923Y-116308770D01*
X178499721Y-116335197D01*
X178468420Y-116351928D01*
X178434455Y-116362231D01*
X178399137Y-116365709D01*
X178363819Y-116362231D01*
X178329854Y-116351928D01*
X178298553Y-116335197D01*
X178266351Y-116308770D01*
X177841363Y-115883782D01*
X177814936Y-115851580D01*
X177798205Y-115820279D01*
X177787902Y-115786314D01*
X177784424Y-115750996D01*
X177787902Y-115715678D01*
X177798205Y-115681713D01*
X177814936Y-115650412D01*
X177841363Y-115618210D01*
X178319385Y-115140188D01*
X178351587Y-115113761D01*
X178382888Y-115097030D01*
X178416853Y-115086727D01*
X178452171Y-115083249D01*
X178487489Y-115086727D01*
X178487489Y-115086727D01*
G37*
G36*
X170113415Y-114833465D02*
G01*
X170250227Y-114874967D01*
X170376315Y-114942362D01*
X170486833Y-115033062D01*
X170577533Y-115143580D01*
X170644928Y-115269668D01*
X170686430Y-115406480D01*
X170700443Y-115548763D01*
X170686430Y-115691046D01*
X170644928Y-115827858D01*
X170577533Y-115953946D01*
X170486833Y-116064464D01*
X170376315Y-116155164D01*
X170250227Y-116222559D01*
X170113415Y-116264061D01*
X170006782Y-116274563D01*
X169935482Y-116274563D01*
X169828849Y-116264061D01*
X169692037Y-116222559D01*
X169565949Y-116155164D01*
X169455431Y-116064464D01*
X169364731Y-115953946D01*
X169297336Y-115827858D01*
X169255834Y-115691046D01*
X169241821Y-115548763D01*
X169255834Y-115406480D01*
X169297336Y-115269668D01*
X169364731Y-115143580D01*
X169455431Y-115033062D01*
X169565949Y-114942362D01*
X169692037Y-114874967D01*
X169828849Y-114833465D01*
X169935482Y-114822963D01*
X170006782Y-114822963D01*
X170113415Y-114833465D01*
X170113415Y-114833465D01*
G37*
G36*
X179565120Y-114009097D02*
G01*
X179599085Y-114019400D01*
X179630386Y-114036131D01*
X179662588Y-114062558D01*
X180087576Y-114487546D01*
X180114003Y-114519748D01*
X180130734Y-114551049D01*
X180141037Y-114585014D01*
X180144515Y-114620332D01*
X180141037Y-114655650D01*
X180130734Y-114689615D01*
X180114003Y-114720916D01*
X180087576Y-114753118D01*
X179609554Y-115231140D01*
X179577352Y-115257567D01*
X179546051Y-115274298D01*
X179512086Y-115284601D01*
X179476768Y-115288079D01*
X179441450Y-115284601D01*
X179407485Y-115274298D01*
X179376184Y-115257567D01*
X179343982Y-115231140D01*
X178918994Y-114806152D01*
X178892567Y-114773950D01*
X178875836Y-114742649D01*
X178865533Y-114708684D01*
X178862055Y-114673366D01*
X178865533Y-114638048D01*
X178875836Y-114604083D01*
X178892567Y-114572782D01*
X178918994Y-114540580D01*
X179397016Y-114062558D01*
X179429218Y-114036131D01*
X179460519Y-114019400D01*
X179494484Y-114009097D01*
X179529802Y-114005619D01*
X179565120Y-114009097D01*
X179565120Y-114009097D01*
G37*
G36*
X177373795Y-113973033D02*
G01*
X177407760Y-113983336D01*
X177439061Y-114000067D01*
X177471263Y-114026494D01*
X177896251Y-114451482D01*
X177922678Y-114483684D01*
X177939409Y-114514985D01*
X177949712Y-114548950D01*
X177953190Y-114584268D01*
X177949712Y-114619586D01*
X177939409Y-114653551D01*
X177922678Y-114684852D01*
X177896251Y-114717054D01*
X177418229Y-115195076D01*
X177386027Y-115221503D01*
X177354726Y-115238234D01*
X177320761Y-115248537D01*
X177285443Y-115252015D01*
X177250125Y-115248537D01*
X177216160Y-115238234D01*
X177184859Y-115221503D01*
X177152657Y-115195076D01*
X176727669Y-114770088D01*
X176701242Y-114737886D01*
X176684511Y-114706585D01*
X176674208Y-114672620D01*
X176670730Y-114637302D01*
X176674208Y-114601984D01*
X176684511Y-114568019D01*
X176701242Y-114536718D01*
X176727669Y-114504516D01*
X177205691Y-114026494D01*
X177237893Y-114000067D01*
X177269194Y-113983336D01*
X177303159Y-113973033D01*
X177338477Y-113969555D01*
X177373795Y-113973033D01*
X177373795Y-113973033D01*
G37*
G36*
X172411782Y-114134549D02*
G01*
X171385346Y-115160985D01*
X170358910Y-114134549D01*
X171385346Y-113108113D01*
X172411782Y-114134549D01*
X172411782Y-114134549D01*
G37*
G36*
X181865268Y-113482532D02*
G01*
X181903920Y-113494257D01*
X181939543Y-113513298D01*
X181975531Y-113542833D01*
X182015377Y-113582679D01*
X182015388Y-113582688D01*
X182396024Y-113963324D01*
X182396033Y-113963335D01*
X182435879Y-114003181D01*
X182465414Y-114039169D01*
X182484455Y-114074792D01*
X182496180Y-114113444D01*
X182500139Y-114153642D01*
X182496180Y-114193840D01*
X182484455Y-114232492D01*
X182465414Y-114268115D01*
X182435879Y-114304103D01*
X182396033Y-114343949D01*
X182396024Y-114343960D01*
X181714868Y-115025116D01*
X181714857Y-115025125D01*
X181675011Y-115064971D01*
X181639023Y-115094506D01*
X181603400Y-115113547D01*
X181564748Y-115125272D01*
X181524550Y-115129231D01*
X181484352Y-115125272D01*
X181445700Y-115113547D01*
X181410077Y-115094506D01*
X181374089Y-115064971D01*
X181334243Y-115025125D01*
X181334232Y-115025116D01*
X180953596Y-114644480D01*
X180953587Y-114644469D01*
X180913741Y-114604623D01*
X180884206Y-114568635D01*
X180865165Y-114533012D01*
X180853440Y-114494360D01*
X180849481Y-114454162D01*
X180853440Y-114413964D01*
X180865165Y-114375312D01*
X180884206Y-114339689D01*
X180913741Y-114303701D01*
X180953587Y-114263855D01*
X180953596Y-114263844D01*
X181634752Y-113582688D01*
X181634763Y-113582679D01*
X181674609Y-113542833D01*
X181710597Y-113513298D01*
X181746220Y-113494257D01*
X181784872Y-113482532D01*
X181825070Y-113478573D01*
X181865268Y-113482532D01*
X181865268Y-113482532D01*
G37*
G36*
X164492388Y-111575792D02*
G01*
X164527937Y-111586576D01*
X164560702Y-111604089D01*
X164594182Y-111631566D01*
X164645486Y-111682870D01*
X164645497Y-111682879D01*
X165291773Y-112329155D01*
X165291782Y-112329166D01*
X165343086Y-112380470D01*
X165370563Y-112413950D01*
X165388076Y-112446715D01*
X165398860Y-112482264D01*
X165402501Y-112519235D01*
X165398860Y-112556206D01*
X165388076Y-112591755D01*
X165370563Y-112624520D01*
X165343086Y-112658000D01*
X165291782Y-112709304D01*
X165291773Y-112709315D01*
X163231283Y-114769805D01*
X163231272Y-114769814D01*
X163179968Y-114821118D01*
X163146488Y-114848595D01*
X163113723Y-114866108D01*
X163078174Y-114876892D01*
X163041203Y-114880533D01*
X163004232Y-114876892D01*
X162968683Y-114866108D01*
X162935918Y-114848595D01*
X162902438Y-114821118D01*
X162851134Y-114769814D01*
X162851123Y-114769805D01*
X162204847Y-114123529D01*
X162204838Y-114123518D01*
X162153534Y-114072214D01*
X162126057Y-114038734D01*
X162108544Y-114005969D01*
X162097760Y-113970420D01*
X162094119Y-113933449D01*
X162097760Y-113896478D01*
X162108544Y-113860929D01*
X162126057Y-113828164D01*
X162153534Y-113794684D01*
X162204838Y-113743380D01*
X162204847Y-113743369D01*
X164265337Y-111682879D01*
X164265348Y-111682870D01*
X164316652Y-111631566D01*
X164350132Y-111604089D01*
X164382897Y-111586576D01*
X164418446Y-111575792D01*
X164455417Y-111572151D01*
X164492388Y-111575792D01*
X164492388Y-111575792D01*
G37*
G36*
X184737360Y-113463505D02*
G01*
X183887700Y-114313165D01*
X183038040Y-113463505D01*
X183887700Y-112613845D01*
X184737360Y-113463505D01*
X184737360Y-113463505D01*
G37*
G36*
X178451426Y-112895403D02*
G01*
X178485391Y-112905706D01*
X178516692Y-112922437D01*
X178548894Y-112948864D01*
X178973882Y-113373852D01*
X179000309Y-113406054D01*
X179017040Y-113437355D01*
X179027343Y-113471320D01*
X179030821Y-113506638D01*
X179027343Y-113541956D01*
X179017040Y-113575921D01*
X179000309Y-113607222D01*
X178973882Y-113639424D01*
X178495860Y-114117446D01*
X178463658Y-114143873D01*
X178432357Y-114160604D01*
X178398392Y-114170907D01*
X178363074Y-114174385D01*
X178327756Y-114170907D01*
X178293791Y-114160604D01*
X178262490Y-114143873D01*
X178230288Y-114117446D01*
X177805300Y-113692458D01*
X177778873Y-113660256D01*
X177762142Y-113628955D01*
X177751839Y-113594990D01*
X177748361Y-113559672D01*
X177751839Y-113524354D01*
X177762142Y-113490389D01*
X177778873Y-113459088D01*
X177805300Y-113426886D01*
X178283322Y-112948864D01*
X178315524Y-112922437D01*
X178346825Y-112905706D01*
X178380790Y-112895403D01*
X178416108Y-112891925D01*
X178451426Y-112895403D01*
X178451426Y-112895403D01*
G37*
G36*
X176602341Y-112572256D02*
G01*
X176636306Y-112582559D01*
X176667607Y-112599290D01*
X176699809Y-112625717D01*
X177177831Y-113103739D01*
X177204258Y-113135941D01*
X177220989Y-113167242D01*
X177231292Y-113201207D01*
X177234770Y-113236525D01*
X177231292Y-113271843D01*
X177220989Y-113305808D01*
X177204258Y-113337109D01*
X177177831Y-113369311D01*
X176752843Y-113794299D01*
X176720641Y-113820726D01*
X176689340Y-113837457D01*
X176655375Y-113847760D01*
X176620057Y-113851238D01*
X176584739Y-113847760D01*
X176550774Y-113837457D01*
X176519473Y-113820726D01*
X176487271Y-113794299D01*
X176009249Y-113316277D01*
X175982822Y-113284075D01*
X175966091Y-113252774D01*
X175955788Y-113218809D01*
X175952310Y-113183491D01*
X175955788Y-113148173D01*
X175966091Y-113114208D01*
X175982822Y-113082907D01*
X176009249Y-113050705D01*
X176434237Y-112625717D01*
X176466439Y-112599290D01*
X176497740Y-112582559D01*
X176531705Y-112572256D01*
X176567023Y-112568778D01*
X176602341Y-112572256D01*
X176602341Y-112572256D01*
G37*
G36*
X180539442Y-112156706D02*
G01*
X180578094Y-112168431D01*
X180613717Y-112187472D01*
X180649705Y-112217007D01*
X180689551Y-112256853D01*
X180689562Y-112256862D01*
X181070198Y-112637498D01*
X181070207Y-112637509D01*
X181110053Y-112677355D01*
X181139588Y-112713343D01*
X181158629Y-112748966D01*
X181170354Y-112787618D01*
X181174313Y-112827816D01*
X181170354Y-112868014D01*
X181158629Y-112906666D01*
X181139588Y-112942289D01*
X181110053Y-112978277D01*
X181070207Y-113018123D01*
X181070198Y-113018134D01*
X180389042Y-113699290D01*
X180389031Y-113699299D01*
X180349185Y-113739145D01*
X180313197Y-113768680D01*
X180277574Y-113787721D01*
X180238922Y-113799446D01*
X180198724Y-113803405D01*
X180158526Y-113799446D01*
X180119874Y-113787721D01*
X180084251Y-113768680D01*
X180048263Y-113739145D01*
X180008417Y-113699299D01*
X180008406Y-113699290D01*
X179627770Y-113318654D01*
X179627761Y-113318643D01*
X179587915Y-113278797D01*
X179558380Y-113242809D01*
X179539339Y-113207186D01*
X179527614Y-113168534D01*
X179523655Y-113128336D01*
X179527614Y-113088138D01*
X179539339Y-113049486D01*
X179558380Y-113013863D01*
X179587915Y-112977875D01*
X179627761Y-112938029D01*
X179627770Y-112938018D01*
X180308926Y-112256862D01*
X180308937Y-112256853D01*
X180348783Y-112217007D01*
X180384771Y-112187472D01*
X180420394Y-112168431D01*
X180459046Y-112156706D01*
X180499244Y-112152747D01*
X180539442Y-112156706D01*
X180539442Y-112156706D01*
G37*
G36*
X177716035Y-111458562D02*
G01*
X177750000Y-111468865D01*
X177781301Y-111485596D01*
X177813503Y-111512023D01*
X178291525Y-111990045D01*
X178317952Y-112022247D01*
X178334683Y-112053548D01*
X178344986Y-112087513D01*
X178348464Y-112122831D01*
X178344986Y-112158149D01*
X178334683Y-112192114D01*
X178317952Y-112223415D01*
X178291525Y-112255617D01*
X177866537Y-112680605D01*
X177834335Y-112707032D01*
X177803034Y-112723763D01*
X177769069Y-112734066D01*
X177733751Y-112737544D01*
X177698433Y-112734066D01*
X177664468Y-112723763D01*
X177633167Y-112707032D01*
X177600965Y-112680605D01*
X177122943Y-112202583D01*
X177096516Y-112170381D01*
X177079785Y-112139080D01*
X177069482Y-112105115D01*
X177066004Y-112069797D01*
X177069482Y-112034479D01*
X177079785Y-112000514D01*
X177096516Y-111969213D01*
X177122943Y-111937011D01*
X177547931Y-111512023D01*
X177580133Y-111485596D01*
X177611434Y-111468865D01*
X177645399Y-111458562D01*
X177680717Y-111455084D01*
X177716035Y-111458562D01*
X177716035Y-111458562D01*
G37*
G36*
X182757462Y-111483607D02*
G01*
X181907802Y-112333267D01*
X181058142Y-111483607D01*
X181907802Y-110633947D01*
X182757462Y-111483607D01*
X182757462Y-111483607D01*
G37*
G36*
X179573359Y-108493251D02*
G01*
X179573359Y-108493252D01*
X179573358Y-108493253D01*
X179557813Y-108512195D01*
X179546262Y-108533806D01*
X179539149Y-108557255D01*
X179536747Y-108581641D01*
X179539149Y-108606027D01*
X179546262Y-108629476D01*
X179557814Y-108651086D01*
X179573353Y-108670022D01*
X180774316Y-109870985D01*
X180793252Y-109886525D01*
X180814863Y-109898076D01*
X180838312Y-109905189D01*
X180862698Y-109907591D01*
X180887084Y-109905189D01*
X180910533Y-109898076D01*
X180932144Y-109886525D01*
X180951080Y-109870984D01*
X180951086Y-109870978D01*
X181468406Y-110388298D01*
X181078366Y-110778338D01*
X180562172Y-110262144D01*
X180543236Y-110246604D01*
X180521625Y-110235053D01*
X180498176Y-110227940D01*
X180473790Y-110225538D01*
X180449404Y-110227940D01*
X180425955Y-110235053D01*
X180404344Y-110246604D01*
X180385403Y-110262149D01*
X180280466Y-110367085D01*
X180264920Y-110386027D01*
X180253369Y-110407637D01*
X180246256Y-110431086D01*
X180243854Y-110455472D01*
X180246256Y-110479859D01*
X180253369Y-110503307D01*
X180264920Y-110524918D01*
X180280460Y-110543855D01*
X180796654Y-111060049D01*
X180406614Y-111450089D01*
X179890420Y-110933895D01*
X179871484Y-110918355D01*
X179849873Y-110906804D01*
X179826424Y-110899691D01*
X179802038Y-110897289D01*
X179777652Y-110899691D01*
X179754203Y-110906804D01*
X179732592Y-110918355D01*
X179713650Y-110933901D01*
X179608714Y-111038838D01*
X179593169Y-111057780D01*
X179581618Y-111079391D01*
X179574505Y-111102839D01*
X179572103Y-111127226D01*
X179574505Y-111151612D01*
X179581618Y-111175061D01*
X179593169Y-111196671D01*
X179608709Y-111215607D01*
X180124903Y-111731801D01*
X179734863Y-112121841D01*
X179217543Y-111604521D01*
X179217549Y-111604515D01*
X179233089Y-111585579D01*
X179244641Y-111563969D01*
X179251754Y-111540520D01*
X179254156Y-111516134D01*
X179251754Y-111491748D01*
X179244641Y-111468299D01*
X179233090Y-111446688D01*
X179217550Y-111427751D01*
X178016587Y-110226788D01*
X177997651Y-110211248D01*
X177976040Y-110199697D01*
X177952591Y-110192584D01*
X177928205Y-110190182D01*
X177903819Y-110192584D01*
X177880370Y-110199697D01*
X177858759Y-110211248D01*
X177839818Y-110226793D01*
X177839817Y-110226794D01*
X177839816Y-110226794D01*
X177322496Y-109709474D01*
X177712536Y-109319434D01*
X178228731Y-109835629D01*
X178247667Y-109851169D01*
X178269278Y-109862720D01*
X178292727Y-109869833D01*
X178317113Y-109872235D01*
X178341499Y-109869833D01*
X178364948Y-109862720D01*
X178386559Y-109851169D01*
X178405495Y-109835628D01*
X178510437Y-109730686D01*
X178525982Y-109711744D01*
X178537533Y-109690133D01*
X178544646Y-109666685D01*
X178547048Y-109642298D01*
X178544646Y-109617912D01*
X178537533Y-109594463D01*
X178525982Y-109572853D01*
X178510442Y-109553917D01*
X177994248Y-109037723D01*
X178384288Y-108647683D01*
X178900482Y-109163877D01*
X178919418Y-109179417D01*
X178941029Y-109190968D01*
X178964478Y-109198081D01*
X178988864Y-109200483D01*
X179013250Y-109198081D01*
X179036699Y-109190968D01*
X179058310Y-109179417D01*
X179077251Y-109163872D01*
X179182193Y-109058930D01*
X179197734Y-109039994D01*
X179209285Y-109018384D01*
X179216398Y-108994935D01*
X179218800Y-108970549D01*
X179216398Y-108946162D01*
X179209285Y-108922714D01*
X179197734Y-108901103D01*
X179182194Y-108882166D01*
X178665999Y-108365971D01*
X179056039Y-107975931D01*
X179573359Y-108493251D01*
X179573359Y-108493251D01*
G37*
G36*
X167276267Y-108791912D02*
G01*
X167311816Y-108802696D01*
X167344581Y-108820209D01*
X167378061Y-108847686D01*
X167429365Y-108898990D01*
X167429376Y-108898999D01*
X168075652Y-109545275D01*
X168075661Y-109545286D01*
X168126965Y-109596590D01*
X168154442Y-109630070D01*
X168171955Y-109662835D01*
X168182739Y-109698384D01*
X168186380Y-109735355D01*
X168182739Y-109772326D01*
X168171955Y-109807875D01*
X168154442Y-109840640D01*
X168126965Y-109874120D01*
X168075661Y-109925424D01*
X168075652Y-109925435D01*
X166015162Y-111985925D01*
X166015151Y-111985934D01*
X165963847Y-112037238D01*
X165930367Y-112064715D01*
X165897602Y-112082228D01*
X165862053Y-112093012D01*
X165825082Y-112096653D01*
X165788111Y-112093012D01*
X165752562Y-112082228D01*
X165719797Y-112064715D01*
X165686317Y-112037238D01*
X165635013Y-111985934D01*
X165635002Y-111985925D01*
X164988726Y-111339649D01*
X164988717Y-111339638D01*
X164937413Y-111288334D01*
X164909936Y-111254854D01*
X164892423Y-111222089D01*
X164881639Y-111186540D01*
X164877998Y-111149569D01*
X164881639Y-111112598D01*
X164892423Y-111077049D01*
X164909936Y-111044284D01*
X164937413Y-111010804D01*
X164988717Y-110959500D01*
X164988726Y-110959489D01*
X167049216Y-108898999D01*
X167049227Y-108898990D01*
X167100531Y-108847686D01*
X167134011Y-108820209D01*
X167166776Y-108802696D01*
X167202325Y-108791912D01*
X167239296Y-108788271D01*
X167276267Y-108791912D01*
X167276267Y-108791912D01*
G37*
G36*
X176332228Y-110416994D02*
G01*
X176366193Y-110427297D01*
X176397494Y-110444028D01*
X176429696Y-110470455D01*
X176854684Y-110895443D01*
X176881111Y-110927645D01*
X176897842Y-110958946D01*
X176908145Y-110992911D01*
X176911623Y-111028229D01*
X176908145Y-111063547D01*
X176897842Y-111097512D01*
X176881111Y-111128813D01*
X176854684Y-111161015D01*
X176376662Y-111639037D01*
X176344460Y-111665464D01*
X176313159Y-111682195D01*
X176279194Y-111692498D01*
X176243876Y-111695976D01*
X176208558Y-111692498D01*
X176174593Y-111682195D01*
X176143292Y-111665464D01*
X176111090Y-111639037D01*
X175686102Y-111214049D01*
X175659675Y-111181847D01*
X175642944Y-111150546D01*
X175632641Y-111116581D01*
X175629163Y-111081263D01*
X175632641Y-111045945D01*
X175642944Y-111011980D01*
X175659675Y-110980679D01*
X175686102Y-110948477D01*
X176164124Y-110470455D01*
X176196326Y-110444028D01*
X176227627Y-110427297D01*
X176261592Y-110416994D01*
X176296910Y-110413516D01*
X176332228Y-110416994D01*
X176332228Y-110416994D01*
G37*
G36*
X183661319Y-109172009D02*
G01*
X183699971Y-109183734D01*
X183735594Y-109202775D01*
X183771582Y-109232310D01*
X183811428Y-109272156D01*
X183811439Y-109272165D01*
X184192075Y-109652801D01*
X184192084Y-109652812D01*
X184231930Y-109692658D01*
X184261465Y-109728646D01*
X184280506Y-109764269D01*
X184292231Y-109802921D01*
X184296190Y-109843119D01*
X184292231Y-109883317D01*
X184280506Y-109921969D01*
X184261465Y-109957592D01*
X184231930Y-109993580D01*
X184192084Y-110033426D01*
X184192075Y-110033437D01*
X183510919Y-110714593D01*
X183510908Y-110714602D01*
X183471062Y-110754448D01*
X183435074Y-110783983D01*
X183399451Y-110803024D01*
X183360799Y-110814749D01*
X183320601Y-110818708D01*
X183280403Y-110814749D01*
X183241751Y-110803024D01*
X183206128Y-110783983D01*
X183170140Y-110754448D01*
X183130294Y-110714602D01*
X183130283Y-110714593D01*
X182749647Y-110333957D01*
X182749638Y-110333946D01*
X182709792Y-110294100D01*
X182680257Y-110258112D01*
X182661216Y-110222489D01*
X182649491Y-110183837D01*
X182645532Y-110143639D01*
X182649491Y-110103441D01*
X182661216Y-110064789D01*
X182680257Y-110029166D01*
X182709792Y-109993178D01*
X182749638Y-109953332D01*
X182749647Y-109953321D01*
X183430803Y-109272165D01*
X183430814Y-109272156D01*
X183470660Y-109232310D01*
X183506648Y-109202775D01*
X183542271Y-109183734D01*
X183580923Y-109172009D01*
X183621121Y-109168050D01*
X183661319Y-109172009D01*
X183661319Y-109172009D01*
G37*
G36*
X160391168Y-107474572D02*
G01*
X160426717Y-107485356D01*
X160459482Y-107502869D01*
X160492962Y-107530346D01*
X160544266Y-107581650D01*
X160544277Y-107581659D01*
X161190553Y-108227935D01*
X161190562Y-108227946D01*
X161241866Y-108279250D01*
X161269343Y-108312730D01*
X161286856Y-108345495D01*
X161297640Y-108381044D01*
X161301281Y-108418015D01*
X161297640Y-108454986D01*
X161286856Y-108490535D01*
X161269343Y-108523300D01*
X161241866Y-108556780D01*
X161190562Y-108608084D01*
X161190553Y-108608095D01*
X159130063Y-110668585D01*
X159130052Y-110668594D01*
X159078748Y-110719898D01*
X159045268Y-110747375D01*
X159012503Y-110764888D01*
X158976954Y-110775672D01*
X158939983Y-110779313D01*
X158903012Y-110775672D01*
X158867463Y-110764888D01*
X158834698Y-110747375D01*
X158801218Y-110719898D01*
X158749914Y-110668594D01*
X158749903Y-110668585D01*
X158103627Y-110022309D01*
X158103618Y-110022298D01*
X158052314Y-109970994D01*
X158024837Y-109937514D01*
X158007324Y-109904749D01*
X157996540Y-109869200D01*
X157992899Y-109832229D01*
X157996540Y-109795258D01*
X158007324Y-109759709D01*
X158024837Y-109726944D01*
X158052314Y-109693464D01*
X158103618Y-109642160D01*
X158103627Y-109642149D01*
X160164117Y-107581659D01*
X160164128Y-107581650D01*
X160215432Y-107530346D01*
X160248912Y-107502869D01*
X160281677Y-107485356D01*
X160317226Y-107474572D01*
X160354197Y-107470931D01*
X160391168Y-107474572D01*
X160391168Y-107474572D01*
G37*
G36*
X175218534Y-109303300D02*
G01*
X175252499Y-109313603D01*
X175283800Y-109330334D01*
X175316002Y-109356761D01*
X175740990Y-109781749D01*
X175767417Y-109813951D01*
X175784148Y-109845252D01*
X175794451Y-109879217D01*
X175797929Y-109914535D01*
X175794451Y-109949853D01*
X175784148Y-109983818D01*
X175767417Y-110015119D01*
X175740990Y-110047321D01*
X175262968Y-110525343D01*
X175230766Y-110551770D01*
X175199465Y-110568501D01*
X175165500Y-110578804D01*
X175130182Y-110582282D01*
X175094864Y-110578804D01*
X175060899Y-110568501D01*
X175029598Y-110551770D01*
X174997396Y-110525343D01*
X174572408Y-110100355D01*
X174545981Y-110068153D01*
X174529250Y-110036852D01*
X174518947Y-110002887D01*
X174515469Y-109967569D01*
X174518947Y-109932251D01*
X174529250Y-109898286D01*
X174545981Y-109866985D01*
X174572408Y-109834783D01*
X175050430Y-109356761D01*
X175082632Y-109330334D01*
X175113933Y-109313603D01*
X175147898Y-109303300D01*
X175183216Y-109299822D01*
X175218534Y-109303300D01*
X175218534Y-109303300D01*
G37*
G36*
X172881545Y-109096119D02*
G01*
X172915510Y-109106422D01*
X172946811Y-109123153D01*
X172979013Y-109149580D01*
X173457035Y-109627602D01*
X173483462Y-109659804D01*
X173500193Y-109691105D01*
X173510496Y-109725070D01*
X173513974Y-109760388D01*
X173510496Y-109795706D01*
X173500193Y-109829671D01*
X173483462Y-109860972D01*
X173457035Y-109893174D01*
X173032047Y-110318162D01*
X172999845Y-110344589D01*
X172968544Y-110361320D01*
X172934579Y-110371623D01*
X172899261Y-110375101D01*
X172863943Y-110371623D01*
X172829978Y-110361320D01*
X172798677Y-110344589D01*
X172766475Y-110318162D01*
X172288453Y-109840140D01*
X172262026Y-109807938D01*
X172245295Y-109776637D01*
X172234992Y-109742672D01*
X172231514Y-109707354D01*
X172234992Y-109672036D01*
X172245295Y-109638071D01*
X172262026Y-109606770D01*
X172288453Y-109574568D01*
X172713441Y-109149580D01*
X172745643Y-109123153D01*
X172776944Y-109106422D01*
X172810909Y-109096119D01*
X172846227Y-109092641D01*
X172881545Y-109096119D01*
X172881545Y-109096119D01*
G37*
G36*
X176243131Y-108261733D02*
G01*
X176277096Y-108272036D01*
X176308397Y-108288767D01*
X176340599Y-108315194D01*
X176818621Y-108793216D01*
X176845048Y-108825418D01*
X176861779Y-108856719D01*
X176872082Y-108890684D01*
X176875560Y-108926002D01*
X176872082Y-108961320D01*
X176861779Y-108995285D01*
X176845048Y-109026586D01*
X176818621Y-109058788D01*
X176393633Y-109483776D01*
X176361431Y-109510203D01*
X176330130Y-109526934D01*
X176296165Y-109537237D01*
X176260847Y-109540715D01*
X176225529Y-109537237D01*
X176191564Y-109526934D01*
X176160263Y-109510203D01*
X176128061Y-109483776D01*
X175650039Y-109005754D01*
X175623612Y-108973552D01*
X175606881Y-108942251D01*
X175596578Y-108908286D01*
X175593100Y-108872968D01*
X175596578Y-108837650D01*
X175606881Y-108803685D01*
X175623612Y-108772384D01*
X175650039Y-108740182D01*
X176075027Y-108315194D01*
X176107229Y-108288767D01*
X176138530Y-108272036D01*
X176172495Y-108261733D01*
X176207813Y-108258255D01*
X176243131Y-108261733D01*
X176243131Y-108261733D01*
G37*
G36*
X182335493Y-107846183D02*
G01*
X182374145Y-107857908D01*
X182409768Y-107876949D01*
X182445756Y-107906484D01*
X182485602Y-107946330D01*
X182485613Y-107946339D01*
X182866249Y-108326975D01*
X182866258Y-108326986D01*
X182906104Y-108366832D01*
X182935639Y-108402820D01*
X182954680Y-108438443D01*
X182966405Y-108477095D01*
X182970364Y-108517293D01*
X182966405Y-108557491D01*
X182954680Y-108596143D01*
X182935639Y-108631766D01*
X182906104Y-108667754D01*
X182866258Y-108707600D01*
X182866249Y-108707611D01*
X182185093Y-109388767D01*
X182185082Y-109388776D01*
X182145236Y-109428622D01*
X182109248Y-109458157D01*
X182073625Y-109477198D01*
X182034973Y-109488923D01*
X181994775Y-109492882D01*
X181954577Y-109488923D01*
X181915925Y-109477198D01*
X181880302Y-109458157D01*
X181844314Y-109428622D01*
X181804468Y-109388776D01*
X181804457Y-109388767D01*
X181423821Y-109008131D01*
X181423812Y-109008120D01*
X181383966Y-108968274D01*
X181354431Y-108932286D01*
X181335390Y-108896663D01*
X181323665Y-108858011D01*
X181319706Y-108817813D01*
X181323665Y-108777615D01*
X181335390Y-108738963D01*
X181354431Y-108703340D01*
X181383966Y-108667352D01*
X181423812Y-108627506D01*
X181423821Y-108627495D01*
X182104977Y-107946339D01*
X182104988Y-107946330D01*
X182144834Y-107906484D01*
X182180822Y-107876949D01*
X182216445Y-107857908D01*
X182255097Y-107846183D01*
X182295295Y-107842224D01*
X182335493Y-107846183D01*
X182335493Y-107846183D01*
G37*
G36*
X171058881Y-108322967D02*
G01*
X171092846Y-108333270D01*
X171124147Y-108350001D01*
X171151581Y-108372516D01*
X171174096Y-108399950D01*
X171190827Y-108431251D01*
X171201130Y-108465216D01*
X171205213Y-108506674D01*
X171205213Y-109182694D01*
X171201130Y-109224152D01*
X171190827Y-109258117D01*
X171174096Y-109289418D01*
X171151581Y-109316852D01*
X171124147Y-109339367D01*
X171092846Y-109356098D01*
X171058881Y-109366401D01*
X171017423Y-109370484D01*
X170416403Y-109370484D01*
X170374945Y-109366401D01*
X170340980Y-109356098D01*
X170309679Y-109339367D01*
X170282245Y-109316852D01*
X170259730Y-109289418D01*
X170242999Y-109258117D01*
X170232696Y-109224152D01*
X170228613Y-109182694D01*
X170228613Y-108506674D01*
X170232696Y-108465216D01*
X170242999Y-108431251D01*
X170259730Y-108399950D01*
X170282245Y-108372516D01*
X170309679Y-108350001D01*
X170340980Y-108333270D01*
X170374945Y-108322967D01*
X170416403Y-108318884D01*
X171017423Y-108318884D01*
X171058881Y-108322967D01*
X171058881Y-108322967D01*
G37*
G36*
X169483881Y-108322967D02*
G01*
X169517846Y-108333270D01*
X169549147Y-108350001D01*
X169576581Y-108372516D01*
X169599096Y-108399950D01*
X169615827Y-108431251D01*
X169626130Y-108465216D01*
X169630213Y-108506674D01*
X169630213Y-109182694D01*
X169626130Y-109224152D01*
X169615827Y-109258117D01*
X169599096Y-109289418D01*
X169576581Y-109316852D01*
X169549147Y-109339367D01*
X169517846Y-109356098D01*
X169483881Y-109366401D01*
X169442423Y-109370484D01*
X168841403Y-109370484D01*
X168799945Y-109366401D01*
X168765980Y-109356098D01*
X168734679Y-109339367D01*
X168707245Y-109316852D01*
X168684730Y-109289418D01*
X168667999Y-109258117D01*
X168657696Y-109224152D01*
X168653613Y-109182694D01*
X168653613Y-108506674D01*
X168657696Y-108465216D01*
X168667999Y-108431251D01*
X168684730Y-108399950D01*
X168707245Y-108372516D01*
X168734679Y-108350001D01*
X168765980Y-108333270D01*
X168799945Y-108322967D01*
X168841403Y-108318884D01*
X169442423Y-108318884D01*
X169483881Y-108322967D01*
X169483881Y-108322967D01*
G37*
G36*
X173995239Y-107982425D02*
G01*
X174029204Y-107992728D01*
X174060505Y-108009459D01*
X174092707Y-108035886D01*
X174570729Y-108513908D01*
X174597156Y-108546110D01*
X174613887Y-108577411D01*
X174624190Y-108611376D01*
X174627668Y-108646694D01*
X174624190Y-108682012D01*
X174613887Y-108715977D01*
X174597156Y-108747278D01*
X174570729Y-108779480D01*
X174145741Y-109204468D01*
X174113539Y-109230895D01*
X174082238Y-109247626D01*
X174048273Y-109257929D01*
X174012955Y-109261407D01*
X173977637Y-109257929D01*
X173943672Y-109247626D01*
X173912371Y-109230895D01*
X173880169Y-109204468D01*
X173402147Y-108726446D01*
X173375720Y-108694244D01*
X173358989Y-108662943D01*
X173348686Y-108628978D01*
X173345208Y-108593660D01*
X173348686Y-108558342D01*
X173358989Y-108524377D01*
X173375720Y-108493076D01*
X173402147Y-108460874D01*
X173827135Y-108035886D01*
X173859337Y-108009459D01*
X173890638Y-107992728D01*
X173924603Y-107982425D01*
X173959921Y-107978947D01*
X173995239Y-107982425D01*
X173995239Y-107982425D01*
G37*
G36*
X177356825Y-107148039D02*
G01*
X177390790Y-107158342D01*
X177422091Y-107175073D01*
X177454293Y-107201500D01*
X177932315Y-107679522D01*
X177958742Y-107711724D01*
X177975473Y-107743025D01*
X177985776Y-107776990D01*
X177989254Y-107812308D01*
X177985776Y-107847626D01*
X177975473Y-107881591D01*
X177958742Y-107912892D01*
X177932315Y-107945094D01*
X177507327Y-108370082D01*
X177475125Y-108396509D01*
X177443824Y-108413240D01*
X177409859Y-108423543D01*
X177374541Y-108427021D01*
X177339223Y-108423543D01*
X177305258Y-108413240D01*
X177273957Y-108396509D01*
X177241755Y-108370082D01*
X176763733Y-107892060D01*
X176737306Y-107859858D01*
X176720575Y-107828557D01*
X176710272Y-107794592D01*
X176706794Y-107759274D01*
X176710272Y-107723956D01*
X176720575Y-107689991D01*
X176737306Y-107658690D01*
X176763733Y-107626488D01*
X177188721Y-107201500D01*
X177220923Y-107175073D01*
X177252224Y-107158342D01*
X177286189Y-107148039D01*
X177321507Y-107144561D01*
X177356825Y-107148039D01*
X177356825Y-107148039D01*
G37*
G36*
X181146848Y-106657537D02*
G01*
X181185500Y-106669262D01*
X181221123Y-106688303D01*
X181257111Y-106717838D01*
X181296957Y-106757684D01*
X181296968Y-106757693D01*
X181677604Y-107138329D01*
X181677613Y-107138340D01*
X181717459Y-107178186D01*
X181746994Y-107214174D01*
X181766035Y-107249797D01*
X181777760Y-107288449D01*
X181781719Y-107328647D01*
X181777760Y-107368845D01*
X181766035Y-107407497D01*
X181746994Y-107443120D01*
X181717459Y-107479108D01*
X181677613Y-107518954D01*
X181677604Y-107518965D01*
X180996448Y-108200121D01*
X180996437Y-108200130D01*
X180956591Y-108239976D01*
X180920603Y-108269511D01*
X180884980Y-108288552D01*
X180846328Y-108300277D01*
X180806130Y-108304236D01*
X180765932Y-108300277D01*
X180727280Y-108288552D01*
X180691657Y-108269511D01*
X180655669Y-108239976D01*
X180615823Y-108200130D01*
X180615812Y-108200121D01*
X180235176Y-107819485D01*
X180235167Y-107819474D01*
X180195321Y-107779628D01*
X180165786Y-107743640D01*
X180146745Y-107708017D01*
X180135020Y-107669365D01*
X180131061Y-107629167D01*
X180135020Y-107588969D01*
X180146745Y-107550317D01*
X180165786Y-107514694D01*
X180195321Y-107478706D01*
X180235167Y-107438860D01*
X180235176Y-107438849D01*
X180916332Y-106757693D01*
X180916343Y-106757684D01*
X180956189Y-106717838D01*
X180992177Y-106688303D01*
X181027800Y-106669262D01*
X181066452Y-106657537D01*
X181106650Y-106653578D01*
X181146848Y-106657537D01*
X181146848Y-106657537D01*
G37*
G36*
X184776024Y-105352913D02*
G01*
X184790500Y-105357304D01*
X184803832Y-105364430D01*
X184820286Y-105377934D01*
X185480618Y-106038266D01*
X185494122Y-106054720D01*
X185501248Y-106068052D01*
X185505639Y-106082528D01*
X185507121Y-106097574D01*
X185505639Y-106112620D01*
X185501248Y-106127096D01*
X185494122Y-106140428D01*
X185480618Y-106156882D01*
X183406072Y-108231428D01*
X183389618Y-108244932D01*
X183376286Y-108252058D01*
X183361810Y-108256449D01*
X183346764Y-108257931D01*
X183331718Y-108256449D01*
X183317242Y-108252058D01*
X183303910Y-108244932D01*
X183287456Y-108231428D01*
X182627124Y-107571096D01*
X182613620Y-107554642D01*
X182606494Y-107541310D01*
X182602103Y-107526834D01*
X182600621Y-107511788D01*
X182602103Y-107496742D01*
X182606494Y-107482266D01*
X182613620Y-107468934D01*
X182627124Y-107452480D01*
X184701670Y-105377934D01*
X184718124Y-105364430D01*
X184731456Y-105357304D01*
X184745932Y-105352913D01*
X184760978Y-105351431D01*
X184776024Y-105352913D01*
X184776024Y-105352913D01*
G37*
G36*
X163175047Y-104690692D02*
G01*
X163210596Y-104701476D01*
X163243361Y-104718989D01*
X163276841Y-104746466D01*
X163328145Y-104797770D01*
X163328156Y-104797779D01*
X163974432Y-105444055D01*
X163974441Y-105444066D01*
X164025745Y-105495370D01*
X164053222Y-105528850D01*
X164070735Y-105561615D01*
X164081519Y-105597164D01*
X164085160Y-105634135D01*
X164081519Y-105671106D01*
X164070735Y-105706655D01*
X164053222Y-105739420D01*
X164025745Y-105772900D01*
X163974441Y-105824204D01*
X163974432Y-105824215D01*
X161913942Y-107884705D01*
X161913931Y-107884714D01*
X161862627Y-107936018D01*
X161829147Y-107963495D01*
X161796382Y-107981008D01*
X161760833Y-107991792D01*
X161723862Y-107995433D01*
X161686891Y-107991792D01*
X161651342Y-107981008D01*
X161618577Y-107963495D01*
X161585097Y-107936018D01*
X161533793Y-107884714D01*
X161533782Y-107884705D01*
X160887506Y-107238429D01*
X160887497Y-107238418D01*
X160836193Y-107187114D01*
X160808716Y-107153634D01*
X160791203Y-107120869D01*
X160780419Y-107085320D01*
X160776778Y-107048349D01*
X160780419Y-107011378D01*
X160791203Y-106975829D01*
X160808716Y-106943064D01*
X160836193Y-106909584D01*
X160887497Y-106858280D01*
X160887506Y-106858269D01*
X162947996Y-104797779D01*
X162948007Y-104797770D01*
X162999311Y-104746466D01*
X163032791Y-104718989D01*
X163065556Y-104701476D01*
X163101105Y-104690692D01*
X163138076Y-104687051D01*
X163175047Y-104690692D01*
X163175047Y-104690692D01*
G37*
G36*
X174510192Y-104066856D02*
G01*
X174716329Y-104107859D01*
X174998556Y-104224762D01*
X175252555Y-104394478D01*
X175468562Y-104610485D01*
X175638278Y-104864484D01*
X175755181Y-105146711D01*
X175789476Y-105319127D01*
X175814777Y-105446321D01*
X175814777Y-105751805D01*
X175800374Y-105824215D01*
X175755181Y-106051415D01*
X175638278Y-106333642D01*
X175468562Y-106587641D01*
X175252555Y-106803648D01*
X174998556Y-106973364D01*
X174716329Y-107090267D01*
X174562481Y-107120869D01*
X174416719Y-107149863D01*
X174111235Y-107149863D01*
X173965473Y-107120869D01*
X173811625Y-107090267D01*
X173529398Y-106973364D01*
X173275399Y-106803648D01*
X173059392Y-106587641D01*
X172889676Y-106333642D01*
X172772773Y-106051415D01*
X172727580Y-105824215D01*
X172713177Y-105751805D01*
X172713177Y-105446321D01*
X172738478Y-105319127D01*
X172772773Y-105146711D01*
X172889676Y-104864484D01*
X173059392Y-104610485D01*
X173275399Y-104394478D01*
X173529398Y-104224762D01*
X173811625Y-104107859D01*
X174017762Y-104066856D01*
X174111235Y-104048263D01*
X174416719Y-104048263D01*
X174510192Y-104066856D01*
X174510192Y-104066856D01*
G37*
G36*
X179821022Y-105331711D02*
G01*
X179859674Y-105343436D01*
X179895297Y-105362477D01*
X179931285Y-105392012D01*
X179971131Y-105431858D01*
X179971142Y-105431867D01*
X180351778Y-105812503D01*
X180351787Y-105812514D01*
X180391633Y-105852360D01*
X180421168Y-105888348D01*
X180440209Y-105923971D01*
X180451934Y-105962623D01*
X180455893Y-106002821D01*
X180451934Y-106043019D01*
X180440209Y-106081671D01*
X180421168Y-106117294D01*
X180391633Y-106153282D01*
X180351787Y-106193128D01*
X180351778Y-106193139D01*
X179670622Y-106874295D01*
X179670611Y-106874304D01*
X179630765Y-106914150D01*
X179594777Y-106943685D01*
X179559154Y-106962726D01*
X179520502Y-106974451D01*
X179480304Y-106978410D01*
X179440106Y-106974451D01*
X179401454Y-106962726D01*
X179365831Y-106943685D01*
X179329843Y-106914150D01*
X179289997Y-106874304D01*
X179289986Y-106874295D01*
X178909350Y-106493659D01*
X178909341Y-106493648D01*
X178869495Y-106453802D01*
X178839960Y-106417814D01*
X178820919Y-106382191D01*
X178809194Y-106343539D01*
X178805235Y-106303341D01*
X178809194Y-106263143D01*
X178820919Y-106224491D01*
X178839960Y-106188868D01*
X178869495Y-106152880D01*
X178909341Y-106113034D01*
X178909350Y-106113023D01*
X179590506Y-105431867D01*
X179590517Y-105431858D01*
X179630363Y-105392012D01*
X179666351Y-105362477D01*
X179701974Y-105343436D01*
X179740626Y-105331711D01*
X179780824Y-105327752D01*
X179821022Y-105331711D01*
X179821022Y-105331711D01*
G37*
G36*
X183361810Y-103938699D02*
G01*
X183376286Y-103943090D01*
X183389618Y-103950216D01*
X183406072Y-103963720D01*
X184066404Y-104624052D01*
X184079908Y-104640506D01*
X184087034Y-104653838D01*
X184091425Y-104668314D01*
X184092907Y-104683360D01*
X184091425Y-104698406D01*
X184087034Y-104712882D01*
X184079908Y-104726214D01*
X184066404Y-104742668D01*
X181991858Y-106817214D01*
X181975404Y-106830718D01*
X181962072Y-106837844D01*
X181947596Y-106842235D01*
X181932550Y-106843717D01*
X181917504Y-106842235D01*
X181903028Y-106837844D01*
X181889696Y-106830718D01*
X181873242Y-106817214D01*
X181212910Y-106156882D01*
X181199406Y-106140428D01*
X181192280Y-106127096D01*
X181187889Y-106112620D01*
X181186407Y-106097574D01*
X181187889Y-106082528D01*
X181192280Y-106068052D01*
X181199406Y-106054720D01*
X181212910Y-106038266D01*
X183287456Y-103963720D01*
X183303910Y-103950216D01*
X183317242Y-103943090D01*
X183331718Y-103938699D01*
X183346764Y-103937217D01*
X183361810Y-103938699D01*
X183361810Y-103938699D01*
G37*
G36*
X154312216Y-104851357D02*
G01*
X154346181Y-104861660D01*
X154377482Y-104878391D01*
X154409684Y-104904818D01*
X154834672Y-105329806D01*
X154861099Y-105362008D01*
X154877830Y-105393309D01*
X154888133Y-105427274D01*
X154891611Y-105462592D01*
X154888133Y-105497910D01*
X154877830Y-105531875D01*
X154861099Y-105563176D01*
X154834672Y-105595378D01*
X154356650Y-106073400D01*
X154324448Y-106099827D01*
X154293147Y-106116558D01*
X154259182Y-106126861D01*
X154223864Y-106130339D01*
X154188546Y-106126861D01*
X154154581Y-106116558D01*
X154123280Y-106099827D01*
X154091078Y-106073400D01*
X153666090Y-105648412D01*
X153639663Y-105616210D01*
X153622932Y-105584909D01*
X153612629Y-105550944D01*
X153609151Y-105515626D01*
X153612629Y-105480308D01*
X153622932Y-105446343D01*
X153639663Y-105415042D01*
X153666090Y-105382840D01*
X154144112Y-104904818D01*
X154176314Y-104878391D01*
X154207615Y-104861660D01*
X154241580Y-104851357D01*
X154276898Y-104847879D01*
X154312216Y-104851357D01*
X154312216Y-104851357D01*
G37*
G36*
X169709391Y-100662616D02*
G01*
X169714040Y-100664026D01*
X169718325Y-100666316D01*
X169726851Y-100673313D01*
X169766696Y-100713158D01*
X169766707Y-100713167D01*
X169891017Y-100837477D01*
X169891026Y-100837488D01*
X169930871Y-100877333D01*
X169937868Y-100885859D01*
X169940158Y-100890144D01*
X169941568Y-100894793D01*
X169942396Y-100903196D01*
X169947176Y-100927229D01*
X169956553Y-100949868D01*
X169970167Y-100970242D01*
X169987493Y-100987570D01*
X170007868Y-101001184D01*
X170030506Y-101010561D01*
X170054542Y-101015342D01*
X170062944Y-101016169D01*
X170067593Y-101017580D01*
X170071878Y-101019870D01*
X170080404Y-101026867D01*
X170120249Y-101066712D01*
X170120260Y-101066721D01*
X170244570Y-101191031D01*
X170244579Y-101191042D01*
X170284424Y-101230887D01*
X170291421Y-101239413D01*
X170293711Y-101243698D01*
X170295122Y-101248347D01*
X170295949Y-101256749D01*
X170300729Y-101280782D01*
X170310106Y-101303421D01*
X170323720Y-101323796D01*
X170341047Y-101341123D01*
X170361421Y-101354737D01*
X170384060Y-101364114D01*
X170408095Y-101368895D01*
X170416498Y-101369723D01*
X170421147Y-101371133D01*
X170425432Y-101373423D01*
X170433958Y-101380420D01*
X170473803Y-101420265D01*
X170473814Y-101420274D01*
X170598124Y-101544584D01*
X170598133Y-101544595D01*
X170637978Y-101584440D01*
X170644975Y-101592966D01*
X170647265Y-101597251D01*
X170648676Y-101601900D01*
X170649503Y-101610302D01*
X170654283Y-101634335D01*
X170663660Y-101656974D01*
X170677274Y-101677349D01*
X170694601Y-101694676D01*
X170714975Y-101708290D01*
X170737614Y-101717667D01*
X170761649Y-101722448D01*
X170770051Y-101723275D01*
X170774700Y-101724686D01*
X170778985Y-101726976D01*
X170787511Y-101733973D01*
X170827356Y-101773818D01*
X170827367Y-101773827D01*
X170951677Y-101898137D01*
X170951686Y-101898148D01*
X170991531Y-101937993D01*
X170998528Y-101946519D01*
X171000818Y-101950804D01*
X171002228Y-101955453D01*
X171003056Y-101963856D01*
X171007836Y-101987889D01*
X171017213Y-102010528D01*
X171030827Y-102030902D01*
X171048153Y-102048230D01*
X171068528Y-102061844D01*
X171091166Y-102071221D01*
X171115202Y-102076002D01*
X171123604Y-102076829D01*
X171128253Y-102078240D01*
X171132538Y-102080530D01*
X171141064Y-102087527D01*
X171180909Y-102127372D01*
X171180920Y-102127381D01*
X171305230Y-102251691D01*
X171305239Y-102251702D01*
X171345084Y-102291547D01*
X171352081Y-102300073D01*
X171354371Y-102304358D01*
X171355782Y-102309007D01*
X171356609Y-102317409D01*
X171361389Y-102341442D01*
X171370766Y-102364081D01*
X171384380Y-102384456D01*
X171401707Y-102401783D01*
X171422081Y-102415397D01*
X171444720Y-102424774D01*
X171468755Y-102429555D01*
X171477158Y-102430383D01*
X171481807Y-102431793D01*
X171486092Y-102434083D01*
X171494618Y-102441080D01*
X171534463Y-102480925D01*
X171534474Y-102480934D01*
X171658784Y-102605244D01*
X171658793Y-102605255D01*
X171698638Y-102645100D01*
X171705635Y-102653626D01*
X171707925Y-102657911D01*
X171709335Y-102662560D01*
X171709812Y-102667399D01*
X171709335Y-102672238D01*
X171707925Y-102676887D01*
X171705635Y-102681172D01*
X171698638Y-102689698D01*
X171658793Y-102729543D01*
X171658784Y-102729554D01*
X171127888Y-103260450D01*
X171127877Y-103260459D01*
X171119896Y-103268440D01*
X171104351Y-103287382D01*
X171092800Y-103308993D01*
X171085687Y-103332442D01*
X171083285Y-103356828D01*
X171085687Y-103381214D01*
X171092800Y-103404663D01*
X171104351Y-103426274D01*
X171119896Y-103445216D01*
X171127877Y-103453197D01*
X171127888Y-103453206D01*
X171658784Y-103984102D01*
X171658793Y-103984113D01*
X171698638Y-104023958D01*
X171705635Y-104032484D01*
X171707925Y-104036769D01*
X171709335Y-104041418D01*
X171709812Y-104046257D01*
X171709335Y-104051096D01*
X171707925Y-104055745D01*
X171705635Y-104060030D01*
X171698638Y-104068556D01*
X171658793Y-104108401D01*
X171658784Y-104108412D01*
X171534474Y-104232722D01*
X171534463Y-104232731D01*
X171494618Y-104272576D01*
X171486092Y-104279573D01*
X171481807Y-104281863D01*
X171477158Y-104283273D01*
X171468755Y-104284101D01*
X171444722Y-104288881D01*
X171422083Y-104298258D01*
X171401709Y-104311872D01*
X171384381Y-104329198D01*
X171370767Y-104349573D01*
X171361390Y-104372211D01*
X171356609Y-104396247D01*
X171355782Y-104404649D01*
X171354371Y-104409298D01*
X171352081Y-104413583D01*
X171345084Y-104422109D01*
X171305239Y-104461954D01*
X171305230Y-104461965D01*
X171180920Y-104586275D01*
X171180909Y-104586284D01*
X171141064Y-104626129D01*
X171132538Y-104633126D01*
X171128253Y-104635416D01*
X171123604Y-104636827D01*
X171115202Y-104637654D01*
X171091169Y-104642434D01*
X171068530Y-104651811D01*
X171048155Y-104665425D01*
X171030828Y-104682752D01*
X171017214Y-104703126D01*
X171007837Y-104725765D01*
X171003056Y-104749800D01*
X171002228Y-104758203D01*
X171000818Y-104762852D01*
X170998528Y-104767137D01*
X170991531Y-104775663D01*
X170951686Y-104815508D01*
X170951677Y-104815519D01*
X170827367Y-104939829D01*
X170827356Y-104939838D01*
X170787511Y-104979683D01*
X170778985Y-104986680D01*
X170774700Y-104988970D01*
X170770051Y-104990381D01*
X170761649Y-104991208D01*
X170737616Y-104995988D01*
X170714977Y-105005365D01*
X170694602Y-105018979D01*
X170677275Y-105036306D01*
X170663661Y-105056680D01*
X170654284Y-105079319D01*
X170649503Y-105103354D01*
X170648676Y-105111756D01*
X170647265Y-105116405D01*
X170644975Y-105120690D01*
X170637978Y-105129216D01*
X170598133Y-105169061D01*
X170598124Y-105169072D01*
X170473814Y-105293382D01*
X170473803Y-105293391D01*
X170433958Y-105333236D01*
X170425432Y-105340233D01*
X170421147Y-105342523D01*
X170416498Y-105343933D01*
X170408095Y-105344761D01*
X170384062Y-105349541D01*
X170361423Y-105358918D01*
X170341049Y-105372532D01*
X170323721Y-105389858D01*
X170310107Y-105410233D01*
X170300730Y-105432871D01*
X170295949Y-105456907D01*
X170295122Y-105465309D01*
X170293711Y-105469958D01*
X170291421Y-105474243D01*
X170284424Y-105482769D01*
X170244579Y-105522614D01*
X170244570Y-105522625D01*
X170120260Y-105646935D01*
X170120249Y-105646944D01*
X170080404Y-105686789D01*
X170071878Y-105693786D01*
X170067593Y-105696076D01*
X170062944Y-105697487D01*
X170054542Y-105698314D01*
X170030509Y-105703094D01*
X170007870Y-105712471D01*
X169987495Y-105726085D01*
X169970168Y-105743412D01*
X169956554Y-105763786D01*
X169947177Y-105786425D01*
X169942396Y-105810460D01*
X169941568Y-105818863D01*
X169940158Y-105823512D01*
X169937868Y-105827797D01*
X169930871Y-105836323D01*
X169891026Y-105876168D01*
X169891017Y-105876179D01*
X169766707Y-106000489D01*
X169766696Y-106000498D01*
X169726851Y-106040343D01*
X169718325Y-106047340D01*
X169714040Y-106049630D01*
X169709391Y-106051040D01*
X169704552Y-106051517D01*
X169699713Y-106051040D01*
X169695064Y-106049630D01*
X169690779Y-106047340D01*
X169682253Y-106040343D01*
X169642408Y-106000498D01*
X169642397Y-106000489D01*
X169111501Y-105469593D01*
X169111492Y-105469582D01*
X169103511Y-105461601D01*
X169084569Y-105446056D01*
X169062958Y-105434505D01*
X169039509Y-105427392D01*
X169015123Y-105424990D01*
X168990737Y-105427392D01*
X168967288Y-105434505D01*
X168945677Y-105446056D01*
X168926735Y-105461601D01*
X168918754Y-105469582D01*
X168918745Y-105469593D01*
X168387849Y-106000489D01*
X168387838Y-106000498D01*
X168347993Y-106040343D01*
X168339467Y-106047340D01*
X168335182Y-106049630D01*
X168330533Y-106051040D01*
X168325694Y-106051517D01*
X168320855Y-106051040D01*
X168316206Y-106049630D01*
X168311921Y-106047340D01*
X168303395Y-106040343D01*
X168263550Y-106000498D01*
X168263539Y-106000489D01*
X168139229Y-105876179D01*
X168139220Y-105876168D01*
X168099375Y-105836323D01*
X168092378Y-105827797D01*
X168090088Y-105823512D01*
X168088678Y-105818863D01*
X168087850Y-105810460D01*
X168083070Y-105786427D01*
X168073693Y-105763788D01*
X168060079Y-105743414D01*
X168042753Y-105726086D01*
X168022378Y-105712472D01*
X167999740Y-105703095D01*
X167975704Y-105698314D01*
X167967302Y-105697487D01*
X167962653Y-105696076D01*
X167958368Y-105693786D01*
X167949842Y-105686789D01*
X167909997Y-105646944D01*
X167909986Y-105646935D01*
X167785676Y-105522625D01*
X167785667Y-105522614D01*
X167745822Y-105482769D01*
X167738825Y-105474243D01*
X167736535Y-105469958D01*
X167735124Y-105465309D01*
X167734297Y-105456907D01*
X167729517Y-105432874D01*
X167720140Y-105410235D01*
X167706526Y-105389860D01*
X167689199Y-105372533D01*
X167668825Y-105358919D01*
X167646186Y-105349542D01*
X167622151Y-105344761D01*
X167613748Y-105343933D01*
X167609099Y-105342523D01*
X167604814Y-105340233D01*
X167596288Y-105333236D01*
X167556443Y-105293391D01*
X167556432Y-105293382D01*
X167432122Y-105169072D01*
X167432113Y-105169061D01*
X167392268Y-105129216D01*
X167385271Y-105120690D01*
X167382981Y-105116405D01*
X167381570Y-105111756D01*
X167380743Y-105103354D01*
X167375963Y-105079321D01*
X167366586Y-105056682D01*
X167352972Y-105036307D01*
X167335645Y-105018980D01*
X167315271Y-105005366D01*
X167292632Y-104995989D01*
X167268597Y-104991208D01*
X167260195Y-104990381D01*
X167255546Y-104988970D01*
X167251261Y-104986680D01*
X167242735Y-104979683D01*
X167202890Y-104939838D01*
X167202879Y-104939829D01*
X167078569Y-104815519D01*
X167078560Y-104815508D01*
X167038715Y-104775663D01*
X167031718Y-104767137D01*
X167029428Y-104762852D01*
X167028018Y-104758203D01*
X167027190Y-104749800D01*
X167022410Y-104725767D01*
X167013033Y-104703128D01*
X166999419Y-104682754D01*
X166982093Y-104665426D01*
X166961718Y-104651812D01*
X166939080Y-104642435D01*
X166915044Y-104637654D01*
X166906642Y-104636827D01*
X166901993Y-104635416D01*
X166897708Y-104633126D01*
X166889182Y-104626129D01*
X166849337Y-104586284D01*
X166849326Y-104586275D01*
X166725016Y-104461965D01*
X166725007Y-104461954D01*
X166685162Y-104422109D01*
X166678165Y-104413583D01*
X166675875Y-104409298D01*
X166674464Y-104404649D01*
X166673637Y-104396247D01*
X166668857Y-104372214D01*
X166659480Y-104349575D01*
X166645866Y-104329200D01*
X166628539Y-104311873D01*
X166608165Y-104298259D01*
X166585526Y-104288882D01*
X166561491Y-104284101D01*
X166553088Y-104283273D01*
X166548439Y-104281863D01*
X166544154Y-104279573D01*
X166535628Y-104272576D01*
X166495783Y-104232731D01*
X166495772Y-104232722D01*
X166371462Y-104108412D01*
X166371453Y-104108401D01*
X166331608Y-104068556D01*
X166324611Y-104060030D01*
X166322321Y-104055745D01*
X166320911Y-104051096D01*
X166320434Y-104046257D01*
X166320911Y-104041418D01*
X166322321Y-104036769D01*
X166324611Y-104032484D01*
X166331608Y-104023958D01*
X166371453Y-103984113D01*
X166371462Y-103984102D01*
X166902358Y-103453206D01*
X166902369Y-103453197D01*
X166910350Y-103445216D01*
X166925895Y-103426274D01*
X166937446Y-103404663D01*
X166944559Y-103381214D01*
X166946961Y-103356828D01*
X166944559Y-103332442D01*
X166937446Y-103308993D01*
X166925895Y-103287382D01*
X166910350Y-103268440D01*
X166902369Y-103260459D01*
X166902358Y-103260450D01*
X166371462Y-102729554D01*
X166371453Y-102729543D01*
X166331608Y-102689698D01*
X166324611Y-102681172D01*
X166322321Y-102676887D01*
X166320911Y-102672238D01*
X166320434Y-102667399D01*
X166320911Y-102662560D01*
X166322321Y-102657911D01*
X166324611Y-102653626D01*
X166331608Y-102645100D01*
X166371453Y-102605255D01*
X166371462Y-102605244D01*
X166495772Y-102480934D01*
X166495783Y-102480925D01*
X166535628Y-102441080D01*
X166544154Y-102434083D01*
X166548439Y-102431793D01*
X166553088Y-102430383D01*
X166561491Y-102429555D01*
X166585524Y-102424775D01*
X166608163Y-102415398D01*
X166628537Y-102401784D01*
X166645865Y-102384458D01*
X166659479Y-102364083D01*
X166668856Y-102341445D01*
X166673637Y-102317409D01*
X166674464Y-102309007D01*
X166675875Y-102304358D01*
X166678165Y-102300073D01*
X166685162Y-102291547D01*
X166725007Y-102251702D01*
X166725016Y-102251691D01*
X166849326Y-102127381D01*
X166849337Y-102127372D01*
X166889182Y-102087527D01*
X166897708Y-102080530D01*
X166901993Y-102078240D01*
X166906642Y-102076829D01*
X166915044Y-102076002D01*
X166939077Y-102071222D01*
X166961716Y-102061845D01*
X166982091Y-102048231D01*
X166999418Y-102030904D01*
X167013032Y-102010530D01*
X167022409Y-101987891D01*
X167027190Y-101963856D01*
X167028018Y-101955453D01*
X167029428Y-101950804D01*
X167031718Y-101946519D01*
X167038715Y-101937993D01*
X167078560Y-101898148D01*
X167078569Y-101898137D01*
X167202879Y-101773827D01*
X167202890Y-101773818D01*
X167242735Y-101733973D01*
X167251261Y-101726976D01*
X167255546Y-101724686D01*
X167260195Y-101723275D01*
X167268597Y-101722448D01*
X167292630Y-101717668D01*
X167315269Y-101708291D01*
X167335644Y-101694677D01*
X167352971Y-101677350D01*
X167366585Y-101656976D01*
X167375962Y-101634337D01*
X167380743Y-101610302D01*
X167381570Y-101601900D01*
X167382981Y-101597251D01*
X167385271Y-101592966D01*
X167392268Y-101584440D01*
X167432113Y-101544595D01*
X167432122Y-101544584D01*
X167556432Y-101420274D01*
X167556443Y-101420265D01*
X167596288Y-101380420D01*
X167604814Y-101373423D01*
X167609099Y-101371133D01*
X167613748Y-101369723D01*
X167622151Y-101368895D01*
X167646184Y-101364115D01*
X167668823Y-101354738D01*
X167689197Y-101341124D01*
X167706525Y-101323798D01*
X167720139Y-101303423D01*
X167729516Y-101280785D01*
X167734297Y-101256749D01*
X167735124Y-101248347D01*
X167736535Y-101243698D01*
X167738825Y-101239413D01*
X167745822Y-101230887D01*
X167785667Y-101191042D01*
X167785676Y-101191031D01*
X167909986Y-101066721D01*
X167909997Y-101066712D01*
X167949842Y-101026867D01*
X167958368Y-101019870D01*
X167962653Y-101017580D01*
X167967302Y-101016169D01*
X167975704Y-101015342D01*
X167999737Y-101010562D01*
X168022376Y-101001185D01*
X168042751Y-100987571D01*
X168060078Y-100970244D01*
X168073692Y-100949870D01*
X168083069Y-100927231D01*
X168087850Y-100903196D01*
X168088678Y-100894793D01*
X168090088Y-100890144D01*
X168092378Y-100885859D01*
X168099375Y-100877333D01*
X168139220Y-100837488D01*
X168139229Y-100837477D01*
X168263539Y-100713167D01*
X168263550Y-100713158D01*
X168303395Y-100673313D01*
X168311921Y-100666316D01*
X168316206Y-100664026D01*
X168320855Y-100662616D01*
X168325694Y-100662139D01*
X168330533Y-100662616D01*
X168335182Y-100664026D01*
X168339467Y-100666316D01*
X168347993Y-100673313D01*
X168387838Y-100713158D01*
X168387849Y-100713167D01*
X168918745Y-101244063D01*
X168918754Y-101244074D01*
X168926735Y-101252055D01*
X168945677Y-101267600D01*
X168967288Y-101279151D01*
X168990737Y-101286264D01*
X169015123Y-101288666D01*
X169039509Y-101286264D01*
X169062958Y-101279151D01*
X169084569Y-101267600D01*
X169103511Y-101252055D01*
X169111492Y-101244074D01*
X169111501Y-101244063D01*
X169642397Y-100713167D01*
X169642408Y-100713158D01*
X169682253Y-100673313D01*
X169690779Y-100666316D01*
X169695064Y-100664026D01*
X169699713Y-100662616D01*
X169704552Y-100662139D01*
X169709391Y-100662616D01*
X169709391Y-100662616D01*
G37*
G36*
X153198522Y-103737663D02*
G01*
X153232487Y-103747966D01*
X153263788Y-103764697D01*
X153295990Y-103791124D01*
X153720978Y-104216112D01*
X153747405Y-104248314D01*
X153764136Y-104279615D01*
X153774439Y-104313580D01*
X153777917Y-104348898D01*
X153774439Y-104384216D01*
X153764136Y-104418181D01*
X153747405Y-104449482D01*
X153720978Y-104481684D01*
X153242956Y-104959706D01*
X153210754Y-104986133D01*
X153179453Y-105002864D01*
X153145488Y-105013167D01*
X153110170Y-105016645D01*
X153074852Y-105013167D01*
X153040887Y-105002864D01*
X153009586Y-104986133D01*
X152977384Y-104959706D01*
X152552396Y-104534718D01*
X152525969Y-104502516D01*
X152509238Y-104471215D01*
X152498935Y-104437250D01*
X152495457Y-104401932D01*
X152498935Y-104366614D01*
X152509238Y-104332649D01*
X152525969Y-104301348D01*
X152552396Y-104269146D01*
X153030418Y-103791124D01*
X153062620Y-103764697D01*
X153093921Y-103747966D01*
X153127886Y-103737663D01*
X153163204Y-103734185D01*
X153198522Y-103737663D01*
X153198522Y-103737663D01*
G37*
G36*
X155479649Y-103683923D02*
G01*
X155513614Y-103694226D01*
X155544915Y-103710957D01*
X155577117Y-103737384D01*
X156002105Y-104162372D01*
X156028532Y-104194574D01*
X156045263Y-104225875D01*
X156055566Y-104259840D01*
X156059044Y-104295158D01*
X156055566Y-104330476D01*
X156045263Y-104364441D01*
X156028532Y-104395742D01*
X156002105Y-104427944D01*
X155524083Y-104905966D01*
X155491881Y-104932393D01*
X155460580Y-104949124D01*
X155426615Y-104959427D01*
X155391297Y-104962905D01*
X155355979Y-104959427D01*
X155322014Y-104949124D01*
X155290713Y-104932393D01*
X155258511Y-104905966D01*
X154833523Y-104480978D01*
X154807096Y-104448776D01*
X154790365Y-104417475D01*
X154780062Y-104383510D01*
X154776584Y-104348192D01*
X154780062Y-104312874D01*
X154790365Y-104278909D01*
X154807096Y-104247608D01*
X154833523Y-104215406D01*
X155311545Y-103737384D01*
X155343747Y-103710957D01*
X155375048Y-103694226D01*
X155409013Y-103683923D01*
X155444331Y-103680445D01*
X155479649Y-103683923D01*
X155479649Y-103683923D01*
G37*
G36*
X160394502Y-104077370D02*
G01*
X159686264Y-104785608D01*
X159048736Y-104148080D01*
X159756974Y-103439842D01*
X160394502Y-104077370D01*
X160394502Y-104077370D01*
G37*
G36*
X132268167Y-103050457D02*
G01*
X132302132Y-103060760D01*
X132333433Y-103077491D01*
X132360867Y-103100006D01*
X132383382Y-103127440D01*
X132400113Y-103158741D01*
X132410416Y-103192706D01*
X132414499Y-103234164D01*
X132414499Y-103910184D01*
X132410416Y-103951642D01*
X132400113Y-103985607D01*
X132383382Y-104016908D01*
X132360867Y-104044342D01*
X132333433Y-104066857D01*
X132302132Y-104083588D01*
X132268167Y-104093891D01*
X132226709Y-104097974D01*
X131625689Y-104097974D01*
X131584231Y-104093891D01*
X131550266Y-104083588D01*
X131518965Y-104066857D01*
X131491531Y-104044342D01*
X131469016Y-104016908D01*
X131452285Y-103985607D01*
X131441982Y-103951642D01*
X131437899Y-103910184D01*
X131437899Y-103234164D01*
X131441982Y-103192706D01*
X131452285Y-103158741D01*
X131469016Y-103127440D01*
X131491531Y-103100006D01*
X131518965Y-103077491D01*
X131550266Y-103060760D01*
X131584231Y-103050457D01*
X131625689Y-103046374D01*
X132226709Y-103046374D01*
X132268167Y-103050457D01*
X132268167Y-103050457D01*
G37*
G36*
X130693167Y-103050457D02*
G01*
X130727132Y-103060760D01*
X130758433Y-103077491D01*
X130785867Y-103100006D01*
X130808382Y-103127440D01*
X130825113Y-103158741D01*
X130835416Y-103192706D01*
X130839499Y-103234164D01*
X130839499Y-103910184D01*
X130835416Y-103951642D01*
X130825113Y-103985607D01*
X130808382Y-104016908D01*
X130785867Y-104044342D01*
X130758433Y-104066857D01*
X130727132Y-104083588D01*
X130693167Y-104093891D01*
X130651709Y-104097974D01*
X130050689Y-104097974D01*
X130009231Y-104093891D01*
X129975266Y-104083588D01*
X129943965Y-104066857D01*
X129916531Y-104044342D01*
X129894016Y-104016908D01*
X129877285Y-103985607D01*
X129866982Y-103951642D01*
X129862899Y-103910184D01*
X129862899Y-103234164D01*
X129866982Y-103192706D01*
X129877285Y-103158741D01*
X129894016Y-103127440D01*
X129916531Y-103100006D01*
X129943965Y-103077491D01*
X129975266Y-103060760D01*
X130009231Y-103050457D01*
X130050689Y-103046374D01*
X130651709Y-103046374D01*
X130693167Y-103050457D01*
X130693167Y-103050457D01*
G37*
G36*
X127645167Y-103050456D02*
G01*
X127679132Y-103060759D01*
X127710433Y-103077490D01*
X127737867Y-103100005D01*
X127760382Y-103127439D01*
X127777113Y-103158740D01*
X127787416Y-103192705D01*
X127791499Y-103234163D01*
X127791499Y-103910183D01*
X127787416Y-103951641D01*
X127777113Y-103985606D01*
X127760382Y-104016907D01*
X127737867Y-104044341D01*
X127710433Y-104066856D01*
X127679132Y-104083587D01*
X127645167Y-104093890D01*
X127603709Y-104097973D01*
X127002689Y-104097973D01*
X126961231Y-104093890D01*
X126927266Y-104083587D01*
X126895965Y-104066856D01*
X126868531Y-104044341D01*
X126846016Y-104016907D01*
X126829285Y-103985606D01*
X126818982Y-103951641D01*
X126814899Y-103910183D01*
X126814899Y-103234163D01*
X126818982Y-103192705D01*
X126829285Y-103158740D01*
X126846016Y-103127439D01*
X126868531Y-103100005D01*
X126895965Y-103077490D01*
X126927266Y-103060759D01*
X126961231Y-103050456D01*
X127002689Y-103046373D01*
X127603709Y-103046373D01*
X127645167Y-103050456D01*
X127645167Y-103050456D01*
G37*
G36*
X129220167Y-103050456D02*
G01*
X129254132Y-103060759D01*
X129285433Y-103077490D01*
X129312867Y-103100005D01*
X129335382Y-103127439D01*
X129352113Y-103158740D01*
X129362416Y-103192705D01*
X129366499Y-103234163D01*
X129366499Y-103910183D01*
X129362416Y-103951641D01*
X129352113Y-103985606D01*
X129335382Y-104016907D01*
X129312867Y-104044341D01*
X129285433Y-104066856D01*
X129254132Y-104083587D01*
X129220167Y-104093890D01*
X129178709Y-104097973D01*
X128577689Y-104097973D01*
X128536231Y-104093890D01*
X128502266Y-104083587D01*
X128470965Y-104066856D01*
X128443531Y-104044341D01*
X128421016Y-104016907D01*
X128404285Y-103985606D01*
X128393982Y-103951641D01*
X128389899Y-103910183D01*
X128389899Y-103234163D01*
X128393982Y-103192705D01*
X128404285Y-103158740D01*
X128421016Y-103127439D01*
X128443531Y-103100005D01*
X128470965Y-103077490D01*
X128502266Y-103060759D01*
X128536231Y-103050456D01*
X128577689Y-103046373D01*
X129178709Y-103046373D01*
X129220167Y-103050456D01*
X129220167Y-103050456D01*
G37*
G36*
X162480467Y-103334908D02*
G01*
X161772229Y-104043146D01*
X161134701Y-103405618D01*
X161842939Y-102697380D01*
X162480467Y-103334908D01*
X162480467Y-103334908D01*
G37*
G36*
X154365955Y-102570229D02*
G01*
X154399920Y-102580532D01*
X154431221Y-102597263D01*
X154463423Y-102623690D01*
X154888411Y-103048678D01*
X154914838Y-103080880D01*
X154931569Y-103112181D01*
X154941872Y-103146146D01*
X154945350Y-103181464D01*
X154941872Y-103216782D01*
X154931569Y-103250747D01*
X154914838Y-103282048D01*
X154888411Y-103314250D01*
X154410389Y-103792272D01*
X154378187Y-103818699D01*
X154346886Y-103835430D01*
X154312921Y-103845733D01*
X154277603Y-103849211D01*
X154242285Y-103845733D01*
X154208320Y-103835430D01*
X154177019Y-103818699D01*
X154144817Y-103792272D01*
X153719829Y-103367284D01*
X153693402Y-103335082D01*
X153676671Y-103303781D01*
X153666368Y-103269816D01*
X153662890Y-103234498D01*
X153666368Y-103199180D01*
X153676671Y-103165215D01*
X153693402Y-103133914D01*
X153719829Y-103101712D01*
X154197851Y-102623690D01*
X154230053Y-102597263D01*
X154261354Y-102580532D01*
X154295319Y-102570229D01*
X154330637Y-102566751D01*
X154365955Y-102570229D01*
X154365955Y-102570229D01*
G37*
G36*
X163597235Y-102307894D02*
G01*
X163631200Y-102318197D01*
X163662501Y-102334928D01*
X163694703Y-102361355D01*
X164119691Y-102786343D01*
X164146118Y-102818545D01*
X164162849Y-102849846D01*
X164173152Y-102883811D01*
X164176630Y-102919129D01*
X164173152Y-102954447D01*
X164162849Y-102988412D01*
X164146118Y-103019713D01*
X164119691Y-103051915D01*
X163641669Y-103529937D01*
X163609467Y-103556364D01*
X163578166Y-103573095D01*
X163544201Y-103583398D01*
X163508883Y-103586876D01*
X163473565Y-103583398D01*
X163439600Y-103573095D01*
X163408299Y-103556364D01*
X163376097Y-103529937D01*
X162951109Y-103104949D01*
X162924682Y-103072747D01*
X162907951Y-103041446D01*
X162897648Y-103007481D01*
X162894170Y-102972163D01*
X162897648Y-102936845D01*
X162907951Y-102902880D01*
X162924682Y-102871579D01*
X162951109Y-102839377D01*
X163429131Y-102361355D01*
X163461333Y-102334928D01*
X163492634Y-102318197D01*
X163526599Y-102307894D01*
X163561917Y-102304416D01*
X163597235Y-102307894D01*
X163597235Y-102307894D01*
G37*
G36*
X161136964Y-101991405D02*
G01*
X160428726Y-102699643D01*
X159791198Y-102062115D01*
X160499436Y-101353877D01*
X161136964Y-101991405D01*
X161136964Y-101991405D01*
G37*
G36*
X150883453Y-101197736D02*
G01*
X150917418Y-101208039D01*
X150948719Y-101224770D01*
X150980921Y-101251197D01*
X151458943Y-101729219D01*
X151485370Y-101761421D01*
X151502101Y-101792722D01*
X151512404Y-101826687D01*
X151515882Y-101862005D01*
X151512404Y-101897323D01*
X151502101Y-101931288D01*
X151485370Y-101962589D01*
X151458943Y-101994791D01*
X151033955Y-102419779D01*
X151001753Y-102446206D01*
X150970452Y-102462937D01*
X150936487Y-102473240D01*
X150901169Y-102476718D01*
X150865851Y-102473240D01*
X150831886Y-102462937D01*
X150800585Y-102446206D01*
X150768383Y-102419779D01*
X150290361Y-101941757D01*
X150263934Y-101909555D01*
X150247203Y-101878254D01*
X150236900Y-101844289D01*
X150233422Y-101808971D01*
X150236900Y-101773653D01*
X150247203Y-101739688D01*
X150263934Y-101708387D01*
X150290361Y-101676185D01*
X150715349Y-101251197D01*
X150747551Y-101224770D01*
X150778852Y-101208039D01*
X150812817Y-101197736D01*
X150848135Y-101194258D01*
X150883453Y-101197736D01*
X150883453Y-101197736D01*
G37*
G36*
X162483541Y-101194200D02*
G01*
X162517506Y-101204503D01*
X162548807Y-101221234D01*
X162581009Y-101247661D01*
X163005997Y-101672649D01*
X163032424Y-101704851D01*
X163049155Y-101736152D01*
X163059458Y-101770117D01*
X163062936Y-101805435D01*
X163059458Y-101840753D01*
X163049155Y-101874718D01*
X163032424Y-101906019D01*
X163005997Y-101938221D01*
X162527975Y-102416243D01*
X162495773Y-102442670D01*
X162464472Y-102459401D01*
X162430507Y-102469704D01*
X162395189Y-102473182D01*
X162359871Y-102469704D01*
X162325906Y-102459401D01*
X162294605Y-102442670D01*
X162262403Y-102416243D01*
X161837415Y-101991255D01*
X161810988Y-101959053D01*
X161794257Y-101927752D01*
X161783954Y-101893787D01*
X161780476Y-101858469D01*
X161783954Y-101823151D01*
X161794257Y-101789186D01*
X161810988Y-101757885D01*
X161837415Y-101725683D01*
X162315437Y-101247661D01*
X162347639Y-101221234D01*
X162378940Y-101204503D01*
X162412905Y-101194200D01*
X162448223Y-101190722D01*
X162483541Y-101194200D01*
X162483541Y-101194200D01*
G37*
G36*
X130623499Y-102454973D02*
G01*
X129621899Y-102454973D01*
X129621899Y-100353373D01*
X130623499Y-100353373D01*
X130623499Y-102454973D01*
X130623499Y-102454973D01*
G37*
G36*
X144593499Y-102454973D02*
G01*
X143591899Y-102454973D01*
X143591899Y-100353373D01*
X144593499Y-100353373D01*
X144593499Y-102454973D01*
X144593499Y-102454973D01*
G37*
G36*
X142053499Y-102454973D02*
G01*
X141051899Y-102454973D01*
X141051899Y-100353373D01*
X142053499Y-100353373D01*
X142053499Y-102454973D01*
X142053499Y-102454973D01*
G37*
G36*
X143323499Y-102454973D02*
G01*
X142321899Y-102454973D01*
X142321899Y-100353373D01*
X143323499Y-100353373D01*
X143323499Y-102454973D01*
X143323499Y-102454973D01*
G37*
G36*
X140783499Y-102454973D02*
G01*
X139781899Y-102454973D01*
X139781899Y-100353373D01*
X140783499Y-100353373D01*
X140783499Y-102454973D01*
X140783499Y-102454973D01*
G37*
G36*
X139513499Y-102454973D02*
G01*
X138511899Y-102454973D01*
X138511899Y-100353373D01*
X139513499Y-100353373D01*
X139513499Y-102454973D01*
X139513499Y-102454973D01*
G37*
G36*
X138243499Y-102454973D02*
G01*
X137241899Y-102454973D01*
X137241899Y-100353373D01*
X138243499Y-100353373D01*
X138243499Y-102454973D01*
X138243499Y-102454973D01*
G37*
G36*
X136973499Y-102454973D02*
G01*
X135971899Y-102454973D01*
X135971899Y-100353373D01*
X136973499Y-100353373D01*
X136973499Y-102454973D01*
X136973499Y-102454973D01*
G37*
G36*
X135703499Y-102454973D02*
G01*
X134701899Y-102454973D01*
X134701899Y-100353373D01*
X135703499Y-100353373D01*
X135703499Y-102454973D01*
X135703499Y-102454973D01*
G37*
G36*
X134433499Y-102454973D02*
G01*
X133431899Y-102454973D01*
X133431899Y-100353373D01*
X134433499Y-100353373D01*
X134433499Y-102454973D01*
X134433499Y-102454973D01*
G37*
G36*
X133163499Y-102454973D02*
G01*
X132161899Y-102454973D01*
X132161899Y-100353373D01*
X133163499Y-100353373D01*
X133163499Y-102454973D01*
X133163499Y-102454973D01*
G37*
G36*
X131893499Y-102454973D02*
G01*
X130891899Y-102454973D01*
X130891899Y-100353373D01*
X131893499Y-100353373D01*
X131893499Y-102454973D01*
X131893499Y-102454973D01*
G37*
G36*
X129353499Y-102454973D02*
G01*
X128351899Y-102454973D01*
X128351899Y-100353373D01*
X129353499Y-100353373D01*
X129353499Y-102454973D01*
X129353499Y-102454973D01*
G37*
G36*
X128083499Y-102454973D02*
G01*
X127081899Y-102454973D01*
X127081899Y-100353373D01*
X128083499Y-100353373D01*
X128083499Y-102454973D01*
X128083499Y-102454973D01*
G37*
G36*
X166042408Y-100851254D02*
G01*
X166076373Y-100861557D01*
X166107674Y-100878288D01*
X166139876Y-100904715D01*
X166617898Y-101382737D01*
X166644325Y-101414939D01*
X166661056Y-101446240D01*
X166671359Y-101480205D01*
X166674837Y-101515523D01*
X166671359Y-101550841D01*
X166661056Y-101584806D01*
X166644325Y-101616107D01*
X166617898Y-101648309D01*
X166192910Y-102073297D01*
X166160708Y-102099724D01*
X166129407Y-102116455D01*
X166095442Y-102126758D01*
X166060124Y-102130236D01*
X166024806Y-102126758D01*
X165990841Y-102116455D01*
X165959540Y-102099724D01*
X165927338Y-102073297D01*
X165449316Y-101595275D01*
X165422889Y-101563073D01*
X165406158Y-101531772D01*
X165395855Y-101497807D01*
X165392377Y-101462489D01*
X165395855Y-101427171D01*
X165406158Y-101393206D01*
X165422889Y-101361905D01*
X165449316Y-101329703D01*
X165874304Y-100904715D01*
X165906506Y-100878288D01*
X165937807Y-100861557D01*
X165971772Y-100851254D01*
X166007090Y-100847776D01*
X166042408Y-100851254D01*
X166042408Y-100851254D01*
G37*
G36*
X157245755Y-100430820D02*
G01*
X156219319Y-101457256D01*
X155192883Y-100430820D01*
X156219319Y-99404384D01*
X157245755Y-100430820D01*
X157245755Y-100430820D01*
G37*
G36*
X175103029Y-98503247D02*
G01*
X175067673Y-98538603D01*
X175052128Y-98557545D01*
X175040577Y-98579156D01*
X175033464Y-98602605D01*
X175031062Y-98626991D01*
X175033464Y-98651377D01*
X175040577Y-98674826D01*
X175052128Y-98696437D01*
X175067673Y-98715379D01*
X175154931Y-98802637D01*
X175154931Y-98802636D01*
X175199131Y-98846836D01*
X175218067Y-98862376D01*
X175239678Y-98873927D01*
X175263127Y-98881040D01*
X175287513Y-98883442D01*
X175311899Y-98881040D01*
X175335348Y-98873927D01*
X175356959Y-98862376D01*
X175375901Y-98846831D01*
X175967909Y-98254823D01*
X175984119Y-98249906D01*
X176005730Y-98238355D01*
X176024666Y-98222815D01*
X176926234Y-97321247D01*
X176926235Y-97321248D01*
X176996315Y-97251167D01*
X176997701Y-97250426D01*
X177007554Y-97243118D01*
X177072596Y-97189739D01*
X177198683Y-97122344D01*
X177335494Y-97080842D01*
X177409975Y-97073507D01*
X177477777Y-97066829D01*
X177542540Y-97073208D01*
X177620060Y-97080842D01*
X177756867Y-97122343D01*
X177756869Y-97122344D01*
X177756872Y-97122345D01*
X177861489Y-97178264D01*
X177882963Y-97189742D01*
X177993478Y-97280439D01*
X178084175Y-97390954D01*
X178084177Y-97390958D01*
X178151572Y-97517045D01*
X178151573Y-97517048D01*
X178151574Y-97517050D01*
X178193075Y-97653857D01*
X178199983Y-97724001D01*
X178207088Y-97796140D01*
X178201786Y-97849973D01*
X178193075Y-97938423D01*
X178151573Y-98075234D01*
X178084178Y-98201321D01*
X178030799Y-98266363D01*
X178024375Y-98275977D01*
X177952670Y-98347683D01*
X177051102Y-99249251D01*
X177035562Y-99268187D01*
X177024011Y-99289798D01*
X177016898Y-99313247D01*
X177014496Y-99337633D01*
X177016898Y-99362019D01*
X177024011Y-99385468D01*
X177035562Y-99407079D01*
X177051107Y-99426021D01*
X177286221Y-99661135D01*
X176668790Y-100278566D01*
X176662731Y-100280404D01*
X176641120Y-100291955D01*
X176622184Y-100307495D01*
X175508485Y-101421194D01*
X174584141Y-100496850D01*
X174565205Y-100481310D01*
X174554682Y-100475003D01*
X174547403Y-100471112D01*
X174536688Y-100465385D01*
X174445204Y-100390307D01*
X174370126Y-100298823D01*
X174360507Y-100280827D01*
X174346894Y-100260454D01*
X174338666Y-100251375D01*
X174022429Y-99935138D01*
X174022430Y-99935138D01*
X173986536Y-99899244D01*
X173985928Y-99893075D01*
X173978815Y-99869626D01*
X173967264Y-99848015D01*
X173951719Y-99829073D01*
X171671299Y-97548653D01*
X172909867Y-96310085D01*
X175103029Y-98503247D01*
X175103029Y-98503247D01*
G37*
G36*
X151997147Y-100084042D02*
G01*
X152031112Y-100094345D01*
X152062413Y-100111076D01*
X152094615Y-100137503D01*
X152572637Y-100615525D01*
X152599064Y-100647727D01*
X152615795Y-100679028D01*
X152626098Y-100712993D01*
X152629576Y-100748311D01*
X152626098Y-100783629D01*
X152615795Y-100817594D01*
X152599064Y-100848895D01*
X152572637Y-100881097D01*
X152147649Y-101306085D01*
X152115447Y-101332512D01*
X152084146Y-101349243D01*
X152050181Y-101359546D01*
X152014863Y-101363024D01*
X151979545Y-101359546D01*
X151945580Y-101349243D01*
X151914279Y-101332512D01*
X151882077Y-101306085D01*
X151404055Y-100828063D01*
X151377628Y-100795861D01*
X151360897Y-100764560D01*
X151350594Y-100730595D01*
X151347116Y-100695277D01*
X151350594Y-100659959D01*
X151360897Y-100625994D01*
X151377628Y-100594693D01*
X151404055Y-100562491D01*
X151829043Y-100137503D01*
X151861245Y-100111076D01*
X151892546Y-100094345D01*
X151926511Y-100084042D01*
X151961829Y-100080564D01*
X151997147Y-100084042D01*
X151997147Y-100084042D01*
G37*
G36*
X148058545Y-100290234D02*
G01*
X148092510Y-100300537D01*
X148123811Y-100317268D01*
X148151245Y-100339783D01*
X148173760Y-100367217D01*
X148190491Y-100398518D01*
X148200794Y-100432483D01*
X148204877Y-100473941D01*
X148204877Y-101149961D01*
X148200794Y-101191419D01*
X148190491Y-101225384D01*
X148173760Y-101256685D01*
X148151245Y-101284119D01*
X148123811Y-101306634D01*
X148092510Y-101323365D01*
X148058545Y-101333668D01*
X148017087Y-101337751D01*
X147416067Y-101337751D01*
X147374609Y-101333668D01*
X147340644Y-101323365D01*
X147309343Y-101306634D01*
X147281909Y-101284119D01*
X147259394Y-101256685D01*
X147242663Y-101225384D01*
X147232360Y-101191419D01*
X147228277Y-101149961D01*
X147228277Y-100473941D01*
X147232360Y-100432483D01*
X147242663Y-100398518D01*
X147259394Y-100367217D01*
X147281909Y-100339783D01*
X147309343Y-100317268D01*
X147340644Y-100300537D01*
X147374609Y-100290234D01*
X147416067Y-100286151D01*
X148017087Y-100286151D01*
X148058545Y-100290234D01*
X148058545Y-100290234D01*
G37*
G36*
X149633545Y-100290234D02*
G01*
X149667510Y-100300537D01*
X149698811Y-100317268D01*
X149726245Y-100339783D01*
X149748760Y-100367217D01*
X149765491Y-100398518D01*
X149775794Y-100432483D01*
X149779877Y-100473941D01*
X149779877Y-101149961D01*
X149775794Y-101191419D01*
X149765491Y-101225384D01*
X149748760Y-101256685D01*
X149726245Y-101284119D01*
X149698811Y-101306634D01*
X149667510Y-101323365D01*
X149633545Y-101333668D01*
X149592087Y-101337751D01*
X148991067Y-101337751D01*
X148949609Y-101333668D01*
X148915644Y-101323365D01*
X148884343Y-101306634D01*
X148856909Y-101284119D01*
X148834394Y-101256685D01*
X148817663Y-101225384D01*
X148807360Y-101191419D01*
X148803277Y-101149961D01*
X148803277Y-100473941D01*
X148807360Y-100432483D01*
X148817663Y-100398518D01*
X148834394Y-100367217D01*
X148856909Y-100339783D01*
X148884343Y-100317268D01*
X148915644Y-100300537D01*
X148949609Y-100290234D01*
X148991067Y-100286151D01*
X149592087Y-100286151D01*
X149633545Y-100290234D01*
X149633545Y-100290234D01*
G37*
G36*
X167156102Y-99737560D02*
G01*
X167190067Y-99747863D01*
X167221368Y-99764594D01*
X167253570Y-99791021D01*
X167731592Y-100269043D01*
X167758019Y-100301245D01*
X167774750Y-100332546D01*
X167785053Y-100366511D01*
X167788531Y-100401829D01*
X167785053Y-100437147D01*
X167774750Y-100471112D01*
X167758019Y-100502413D01*
X167731592Y-100534615D01*
X167306604Y-100959603D01*
X167274402Y-100986030D01*
X167243101Y-101002761D01*
X167209136Y-101013064D01*
X167173818Y-101016542D01*
X167138500Y-101013064D01*
X167104535Y-101002761D01*
X167073234Y-100986030D01*
X167041032Y-100959603D01*
X166563010Y-100481581D01*
X166536583Y-100449379D01*
X166519852Y-100418078D01*
X166509549Y-100384113D01*
X166506071Y-100348795D01*
X166509549Y-100313477D01*
X166519852Y-100279512D01*
X166536583Y-100248211D01*
X166563010Y-100216009D01*
X166987998Y-99791021D01*
X167020200Y-99764594D01*
X167051501Y-99747863D01*
X167085466Y-99737560D01*
X167120784Y-99734082D01*
X167156102Y-99737560D01*
X167156102Y-99737560D01*
G37*
G36*
X172575492Y-99446580D02*
G01*
X172612974Y-99457951D01*
X172647514Y-99476413D01*
X172682558Y-99505172D01*
X173204775Y-100027389D01*
X173233534Y-100062433D01*
X173251996Y-100096973D01*
X173263367Y-100134455D01*
X173267205Y-100173432D01*
X173263367Y-100212409D01*
X173251996Y-100249891D01*
X173233534Y-100284431D01*
X173204775Y-100319475D01*
X172753268Y-100770982D01*
X172718224Y-100799741D01*
X172683684Y-100818203D01*
X172646202Y-100829574D01*
X172607225Y-100833412D01*
X172568248Y-100829574D01*
X172530766Y-100818203D01*
X172496226Y-100799741D01*
X172461182Y-100770982D01*
X171938965Y-100248765D01*
X171910206Y-100213721D01*
X171891744Y-100179181D01*
X171880373Y-100141699D01*
X171876535Y-100102722D01*
X171880373Y-100063745D01*
X171891744Y-100026263D01*
X171910206Y-99991723D01*
X171938965Y-99956679D01*
X172390472Y-99505172D01*
X172425516Y-99476413D01*
X172460056Y-99457951D01*
X172497538Y-99446580D01*
X172536515Y-99442742D01*
X172575492Y-99446580D01*
X172575492Y-99446580D01*
G37*
G36*
X164162920Y-99154197D02*
G01*
X164196885Y-99164500D01*
X164228186Y-99181231D01*
X164260388Y-99207658D01*
X164685376Y-99632646D01*
X164711803Y-99664848D01*
X164728534Y-99696149D01*
X164738837Y-99730114D01*
X164742315Y-99765432D01*
X164738837Y-99800750D01*
X164728534Y-99834715D01*
X164711803Y-99866016D01*
X164685376Y-99898218D01*
X164207354Y-100376240D01*
X164175152Y-100402667D01*
X164143851Y-100419398D01*
X164109886Y-100429701D01*
X164074568Y-100433179D01*
X164039250Y-100429701D01*
X164005285Y-100419398D01*
X163973984Y-100402667D01*
X163941782Y-100376240D01*
X163516794Y-99951252D01*
X163490367Y-99919050D01*
X163473636Y-99887749D01*
X163463333Y-99853784D01*
X163459855Y-99818466D01*
X163463333Y-99783148D01*
X163473636Y-99749183D01*
X163490367Y-99717882D01*
X163516794Y-99685680D01*
X163994816Y-99207658D01*
X164027018Y-99181231D01*
X164058319Y-99164500D01*
X164092284Y-99154197D01*
X164127602Y-99150719D01*
X164162920Y-99154197D01*
X164162920Y-99154197D01*
G37*
G36*
X157775816Y-98301308D02*
G01*
X157912628Y-98342810D01*
X158038716Y-98410205D01*
X158149234Y-98500905D01*
X158239934Y-98611423D01*
X158307329Y-98737511D01*
X158348831Y-98874323D01*
X158362844Y-99016606D01*
X158348831Y-99158889D01*
X158307329Y-99295701D01*
X158239934Y-99421789D01*
X158149234Y-99532307D01*
X158038716Y-99623007D01*
X157912628Y-99690402D01*
X157775816Y-99731904D01*
X157669183Y-99742406D01*
X157597883Y-99742406D01*
X157491250Y-99731904D01*
X157354438Y-99690402D01*
X157228350Y-99623007D01*
X157117832Y-99532307D01*
X157027132Y-99421789D01*
X156959737Y-99295701D01*
X156918235Y-99158889D01*
X156904222Y-99016606D01*
X156918235Y-98874323D01*
X156959737Y-98737511D01*
X157027132Y-98611423D01*
X157117832Y-98500905D01*
X157228350Y-98410205D01*
X157354438Y-98342810D01*
X157491250Y-98301308D01*
X157597883Y-98290806D01*
X157669183Y-98290806D01*
X157775816Y-98301308D01*
X157775816Y-98301308D01*
G37*
G36*
X171338056Y-98209144D02*
G01*
X171375538Y-98220515D01*
X171410078Y-98238977D01*
X171445122Y-98267736D01*
X171967339Y-98789953D01*
X171996098Y-98824997D01*
X172014560Y-98859537D01*
X172025931Y-98897019D01*
X172029769Y-98935996D01*
X172025931Y-98974973D01*
X172014560Y-99012455D01*
X171996098Y-99046995D01*
X171967339Y-99082039D01*
X171515832Y-99533546D01*
X171480788Y-99562305D01*
X171446248Y-99580767D01*
X171408766Y-99592138D01*
X171369789Y-99595976D01*
X171330812Y-99592138D01*
X171293330Y-99580767D01*
X171258790Y-99562305D01*
X171223746Y-99533546D01*
X170701529Y-99011329D01*
X170672770Y-98976285D01*
X170654308Y-98941745D01*
X170642937Y-98904263D01*
X170639099Y-98865286D01*
X170642937Y-98826309D01*
X170654308Y-98788827D01*
X170672770Y-98754287D01*
X170701529Y-98719243D01*
X171153036Y-98267736D01*
X171188080Y-98238977D01*
X171222620Y-98220515D01*
X171260102Y-98209144D01*
X171299079Y-98205306D01*
X171338056Y-98209144D01*
X171338056Y-98209144D01*
G37*
G36*
X169374297Y-98157177D02*
G01*
X169408262Y-98167480D01*
X169439563Y-98184211D01*
X169471765Y-98210638D01*
X169896753Y-98635626D01*
X169923180Y-98667828D01*
X169939911Y-98699129D01*
X169950214Y-98733094D01*
X169953692Y-98768412D01*
X169950214Y-98803730D01*
X169939911Y-98837695D01*
X169923180Y-98868996D01*
X169896753Y-98901198D01*
X169418731Y-99379220D01*
X169386529Y-99405647D01*
X169355228Y-99422378D01*
X169321263Y-99432681D01*
X169285945Y-99436159D01*
X169250627Y-99432681D01*
X169216662Y-99422378D01*
X169185361Y-99405647D01*
X169153159Y-99379220D01*
X168728171Y-98954232D01*
X168701744Y-98922030D01*
X168685013Y-98890729D01*
X168674710Y-98856764D01*
X168671232Y-98821446D01*
X168674710Y-98786128D01*
X168685013Y-98752163D01*
X168701744Y-98720862D01*
X168728171Y-98688660D01*
X169206193Y-98210638D01*
X169238395Y-98184211D01*
X169269696Y-98167480D01*
X169303661Y-98157177D01*
X169338979Y-98153699D01*
X169374297Y-98157177D01*
X169374297Y-98157177D01*
G37*
G36*
X163049226Y-98040503D02*
G01*
X163083191Y-98050806D01*
X163114492Y-98067537D01*
X163146694Y-98093964D01*
X163571682Y-98518952D01*
X163598109Y-98551154D01*
X163614840Y-98582455D01*
X163625143Y-98616420D01*
X163628621Y-98651738D01*
X163625143Y-98687056D01*
X163614840Y-98721021D01*
X163598109Y-98752322D01*
X163571682Y-98784524D01*
X163093660Y-99262546D01*
X163061458Y-99288973D01*
X163030157Y-99305704D01*
X162996192Y-99316007D01*
X162960874Y-99319485D01*
X162925556Y-99316007D01*
X162891591Y-99305704D01*
X162860290Y-99288973D01*
X162828088Y-99262546D01*
X162403100Y-98837558D01*
X162376673Y-98805356D01*
X162359942Y-98774055D01*
X162349639Y-98740090D01*
X162346161Y-98704772D01*
X162349639Y-98669454D01*
X162359942Y-98635489D01*
X162376673Y-98604188D01*
X162403100Y-98571986D01*
X162881122Y-98093964D01*
X162913324Y-98067537D01*
X162944625Y-98050806D01*
X162978590Y-98040503D01*
X163013908Y-98037025D01*
X163049226Y-98040503D01*
X163049226Y-98040503D01*
G37*
G36*
X146143499Y-99119973D02*
G01*
X144041899Y-99119973D01*
X144041899Y-98118373D01*
X146143499Y-98118373D01*
X146143499Y-99119973D01*
X146143499Y-99119973D01*
G37*
G36*
X168260603Y-97043483D02*
G01*
X168294568Y-97053786D01*
X168325869Y-97070517D01*
X168358071Y-97096944D01*
X168783059Y-97521932D01*
X168809486Y-97554134D01*
X168826217Y-97585435D01*
X168836520Y-97619400D01*
X168839998Y-97654718D01*
X168836520Y-97690036D01*
X168826217Y-97724001D01*
X168809486Y-97755302D01*
X168783059Y-97787504D01*
X168305037Y-98265526D01*
X168272835Y-98291953D01*
X168241534Y-98308684D01*
X168207569Y-98318987D01*
X168172251Y-98322465D01*
X168136933Y-98318987D01*
X168102968Y-98308684D01*
X168071667Y-98291953D01*
X168039465Y-98265526D01*
X167614477Y-97840538D01*
X167588050Y-97808336D01*
X167571319Y-97777035D01*
X167561016Y-97743070D01*
X167557538Y-97707752D01*
X167561016Y-97672434D01*
X167571319Y-97638469D01*
X167588050Y-97607168D01*
X167614477Y-97574966D01*
X168092499Y-97096944D01*
X168124701Y-97070517D01*
X168156002Y-97053786D01*
X168189967Y-97043483D01*
X168225285Y-97040005D01*
X168260603Y-97043483D01*
X168260603Y-97043483D01*
G37*
G36*
X165270934Y-94865145D02*
G01*
X165523941Y-94915471D01*
X165806168Y-95032374D01*
X166060167Y-95202090D01*
X166276174Y-95418097D01*
X166445890Y-95672096D01*
X166562793Y-95954323D01*
X166594401Y-96113226D01*
X166622389Y-96253933D01*
X166622389Y-96559417D01*
X166602620Y-96658803D01*
X166562793Y-96859027D01*
X166445890Y-97141254D01*
X166276174Y-97395253D01*
X166060167Y-97611260D01*
X165806168Y-97780976D01*
X165523941Y-97897879D01*
X165324200Y-97937610D01*
X165224331Y-97957475D01*
X164918847Y-97957475D01*
X164818978Y-97937610D01*
X164619237Y-97897879D01*
X164337010Y-97780976D01*
X164083011Y-97611260D01*
X163867004Y-97395253D01*
X163697288Y-97141254D01*
X163580385Y-96859027D01*
X163540558Y-96658803D01*
X163520789Y-96559417D01*
X163520789Y-96253933D01*
X163548777Y-96113226D01*
X163580385Y-95954323D01*
X163697288Y-95672096D01*
X163867004Y-95418097D01*
X164083011Y-95202090D01*
X164337010Y-95032374D01*
X164619237Y-94915471D01*
X164872244Y-94865145D01*
X164918847Y-94855875D01*
X165224331Y-94855875D01*
X165270934Y-94865145D01*
X165270934Y-94865145D01*
G37*
G36*
X148896143Y-97954228D02*
G01*
X147994543Y-97954228D01*
X147994543Y-96952628D01*
X148896143Y-96952628D01*
X148896143Y-97954228D01*
X148896143Y-97954228D01*
G37*
G36*
X177754680Y-96099084D02*
G01*
X175915071Y-97938693D01*
X174832066Y-96855688D01*
X176671675Y-95016079D01*
X177754680Y-96099084D01*
X177754680Y-96099084D01*
G37*
G36*
X146143499Y-97849973D02*
G01*
X144041899Y-97849973D01*
X144041899Y-96848373D01*
X146143499Y-96848373D01*
X146143499Y-97849973D01*
X146143499Y-97849973D01*
G37*
G36*
X173681737Y-93212405D02*
G01*
X173759257Y-93220039D01*
X173896064Y-93261540D01*
X173896066Y-93261541D01*
X173896069Y-93261542D01*
X173986031Y-93309628D01*
X174022160Y-93328939D01*
X174132675Y-93419636D01*
X174223372Y-93530151D01*
X174230371Y-93543246D01*
X174290769Y-93656242D01*
X174290770Y-93656245D01*
X174290771Y-93656247D01*
X174332272Y-93793054D01*
X174339238Y-93863787D01*
X174346285Y-93935337D01*
X174340180Y-93997318D01*
X174332272Y-94077620D01*
X174290770Y-94214431D01*
X174223375Y-94340519D01*
X174172832Y-94402105D01*
X174155398Y-94423348D01*
X173857497Y-94721249D01*
X173857491Y-94721254D01*
X173857490Y-94721255D01*
X173774670Y-94789225D01*
X173762168Y-94795907D01*
X173741793Y-94809521D01*
X173732714Y-94817749D01*
X172591669Y-95958794D01*
X172525624Y-96024838D01*
X172510079Y-96043780D01*
X172498528Y-96065391D01*
X172491415Y-96088840D01*
X172489013Y-96113226D01*
X172491415Y-96137612D01*
X172498528Y-96161061D01*
X172510079Y-96182672D01*
X172525619Y-96201608D01*
X172560981Y-96236970D01*
X172282205Y-96515746D01*
X172260357Y-96545206D01*
X172241199Y-96581048D01*
X172234497Y-96593585D01*
X172178234Y-96662143D01*
X171853651Y-96986726D01*
X171806759Y-97025208D01*
X171785096Y-97042987D01*
X171785094Y-97042988D01*
X171785093Y-97042989D01*
X171736706Y-97068853D01*
X171716341Y-97082461D01*
X171707262Y-97090689D01*
X171428479Y-97369472D01*
X171050062Y-96991055D01*
X171040988Y-96982832D01*
X171022807Y-96967911D01*
X171007886Y-96949730D01*
X170999663Y-96940656D01*
X169942423Y-95883416D01*
X171070264Y-94755575D01*
X171085804Y-94736639D01*
X171097355Y-94715028D01*
X171099193Y-94708969D01*
X171716624Y-94091538D01*
X171972951Y-94347865D01*
X171991893Y-94363410D01*
X172013504Y-94374961D01*
X172036953Y-94382074D01*
X172061339Y-94384476D01*
X172085725Y-94382074D01*
X172109174Y-94374961D01*
X172130785Y-94363410D01*
X172149721Y-94347870D01*
X173051289Y-93446302D01*
X173051290Y-93446303D01*
X173089028Y-93408564D01*
X173091838Y-93408287D01*
X173115287Y-93401174D01*
X173136898Y-93389623D01*
X173146751Y-93382315D01*
X173163279Y-93368751D01*
X173210935Y-93329640D01*
X173211793Y-93328936D01*
X173337880Y-93261541D01*
X173474691Y-93220039D01*
X173549172Y-93212704D01*
X173616974Y-93206026D01*
X173681737Y-93212405D01*
X173681737Y-93212405D01*
G37*
G36*
X176397035Y-94741439D02*
G01*
X174557426Y-96581048D01*
X173474421Y-95498043D01*
X175314030Y-93658434D01*
X176397035Y-94741439D01*
X176397035Y-94741439D01*
G37*
G36*
X146143499Y-96579973D02*
G01*
X144041899Y-96579973D01*
X144041899Y-95578373D01*
X146143499Y-95578373D01*
X146143499Y-96579973D01*
X146143499Y-96579973D01*
G37*
G36*
X159375806Y-95279252D02*
G01*
X159409771Y-95289555D01*
X159441072Y-95306286D01*
X159473274Y-95332713D01*
X159951296Y-95810735D01*
X159977723Y-95842937D01*
X159994454Y-95874238D01*
X160004757Y-95908203D01*
X160008235Y-95943521D01*
X160004757Y-95978839D01*
X159994454Y-96012804D01*
X159977723Y-96044105D01*
X159951296Y-96076307D01*
X159526308Y-96501295D01*
X159494106Y-96527722D01*
X159462805Y-96544453D01*
X159428840Y-96554756D01*
X159393522Y-96558234D01*
X159358204Y-96554756D01*
X159324239Y-96544453D01*
X159292938Y-96527722D01*
X159260736Y-96501295D01*
X158782714Y-96023273D01*
X158756287Y-95991071D01*
X158739556Y-95959770D01*
X158729253Y-95925805D01*
X158725775Y-95890487D01*
X158729253Y-95855169D01*
X158739556Y-95821204D01*
X158756287Y-95789903D01*
X158782714Y-95757701D01*
X159207702Y-95332713D01*
X159239904Y-95306286D01*
X159271205Y-95289555D01*
X159305170Y-95279252D01*
X159340488Y-95275774D01*
X159375806Y-95279252D01*
X159375806Y-95279252D01*
G37*
G36*
X137633499Y-96454973D02*
G01*
X132531899Y-96454973D01*
X132531899Y-91353373D01*
X137633499Y-91353373D01*
X137633499Y-96454973D01*
X137633499Y-96454973D01*
G37*
G36*
X149846143Y-95954228D02*
G01*
X148944543Y-95954228D01*
X148944543Y-94952628D01*
X149846143Y-94952628D01*
X149846143Y-95954228D01*
X149846143Y-95954228D01*
G37*
G36*
X147946143Y-95954228D02*
G01*
X147044543Y-95954228D01*
X147044543Y-94952628D01*
X147946143Y-94952628D01*
X147946143Y-95954228D01*
X147946143Y-95954228D01*
G37*
G36*
X169215057Y-94445998D02*
G01*
X169249022Y-94456301D01*
X169280323Y-94473032D01*
X169312525Y-94499459D01*
X169737513Y-94924447D01*
X169763940Y-94956649D01*
X169780671Y-94987950D01*
X169790974Y-95021915D01*
X169794452Y-95057233D01*
X169790974Y-95092551D01*
X169780671Y-95126516D01*
X169763940Y-95157817D01*
X169737513Y-95190019D01*
X169259491Y-95668041D01*
X169227289Y-95694468D01*
X169195988Y-95711199D01*
X169162023Y-95721502D01*
X169126705Y-95724980D01*
X169091387Y-95721502D01*
X169057422Y-95711199D01*
X169026121Y-95694468D01*
X168993919Y-95668041D01*
X168568931Y-95243053D01*
X168542504Y-95210851D01*
X168525773Y-95179550D01*
X168515470Y-95145585D01*
X168511992Y-95110267D01*
X168515470Y-95074949D01*
X168525773Y-95040984D01*
X168542504Y-95009683D01*
X168568931Y-94977481D01*
X169046953Y-94499459D01*
X169079155Y-94473032D01*
X169110456Y-94456301D01*
X169144421Y-94445998D01*
X169179739Y-94442520D01*
X169215057Y-94445998D01*
X169215057Y-94445998D01*
G37*
G36*
X160489500Y-94165558D02*
G01*
X160523465Y-94175861D01*
X160554766Y-94192592D01*
X160586968Y-94219019D01*
X161064990Y-94697041D01*
X161091417Y-94729243D01*
X161108148Y-94760544D01*
X161118451Y-94794509D01*
X161121929Y-94829827D01*
X161118451Y-94865145D01*
X161108148Y-94899110D01*
X161091417Y-94930411D01*
X161064990Y-94962613D01*
X160640002Y-95387601D01*
X160607800Y-95414028D01*
X160576499Y-95430759D01*
X160542534Y-95441062D01*
X160507216Y-95444540D01*
X160471898Y-95441062D01*
X160437933Y-95430759D01*
X160406632Y-95414028D01*
X160374430Y-95387601D01*
X159896408Y-94909579D01*
X159869981Y-94877377D01*
X159853250Y-94846076D01*
X159842947Y-94812111D01*
X159839469Y-94776793D01*
X159842947Y-94741475D01*
X159853250Y-94707510D01*
X159869981Y-94676209D01*
X159896408Y-94644007D01*
X160321396Y-94219019D01*
X160353598Y-94192592D01*
X160384899Y-94175861D01*
X160418864Y-94165558D01*
X160454182Y-94162080D01*
X160489500Y-94165558D01*
X160489500Y-94165558D01*
G37*
G36*
X146143499Y-95309973D02*
G01*
X144041899Y-95309973D01*
X144041899Y-94308373D01*
X146143499Y-94308373D01*
X146143499Y-95309973D01*
X146143499Y-95309973D01*
G37*
G36*
X170292688Y-93368367D02*
G01*
X170326653Y-93378670D01*
X170357954Y-93395401D01*
X170390156Y-93421828D01*
X170815144Y-93846816D01*
X170841571Y-93879018D01*
X170858302Y-93910319D01*
X170868605Y-93944284D01*
X170872083Y-93979602D01*
X170868605Y-94014920D01*
X170858302Y-94048885D01*
X170841571Y-94080186D01*
X170815144Y-94112388D01*
X170337122Y-94590410D01*
X170304920Y-94616837D01*
X170273619Y-94633568D01*
X170239654Y-94643871D01*
X170204336Y-94647349D01*
X170169018Y-94643871D01*
X170135053Y-94633568D01*
X170103752Y-94616837D01*
X170071550Y-94590410D01*
X169646562Y-94165422D01*
X169620135Y-94133220D01*
X169603404Y-94101919D01*
X169593101Y-94067954D01*
X169589623Y-94032636D01*
X169593101Y-93997318D01*
X169603404Y-93963353D01*
X169620135Y-93932052D01*
X169646562Y-93899850D01*
X170124584Y-93421828D01*
X170156786Y-93395401D01*
X170188087Y-93378670D01*
X170222052Y-93368367D01*
X170257370Y-93364889D01*
X170292688Y-93368367D01*
X170292688Y-93368367D01*
G37*
G36*
X168101363Y-93332304D02*
G01*
X168135328Y-93342607D01*
X168166629Y-93359338D01*
X168198831Y-93385765D01*
X168623819Y-93810753D01*
X168650246Y-93842955D01*
X168666977Y-93874256D01*
X168677280Y-93908221D01*
X168680758Y-93943539D01*
X168677280Y-93978857D01*
X168666977Y-94012822D01*
X168650246Y-94044123D01*
X168623819Y-94076325D01*
X168145797Y-94554347D01*
X168113595Y-94580774D01*
X168082294Y-94597505D01*
X168048329Y-94607808D01*
X168013011Y-94611286D01*
X167977693Y-94607808D01*
X167943728Y-94597505D01*
X167912427Y-94580774D01*
X167880225Y-94554347D01*
X167455237Y-94129359D01*
X167428810Y-94097157D01*
X167412079Y-94065856D01*
X167401776Y-94031891D01*
X167398298Y-93996573D01*
X167401776Y-93961255D01*
X167412079Y-93927290D01*
X167428810Y-93895989D01*
X167455237Y-93863787D01*
X167933259Y-93385765D01*
X167965461Y-93359338D01*
X167996762Y-93342607D01*
X168030727Y-93332304D01*
X168066045Y-93328826D01*
X168101363Y-93332304D01*
X168101363Y-93332304D01*
G37*
G36*
X148140691Y-93428192D02*
G01*
X148179343Y-93439917D01*
X148214966Y-93458958D01*
X148246189Y-93484582D01*
X148271813Y-93515805D01*
X148290854Y-93551428D01*
X148302579Y-93590080D01*
X148307143Y-93636419D01*
X148307143Y-94287437D01*
X148302579Y-94333776D01*
X148290854Y-94372428D01*
X148271813Y-94408051D01*
X148246189Y-94439274D01*
X148214966Y-94464898D01*
X148179343Y-94483939D01*
X148140691Y-94495664D01*
X148094352Y-94500228D01*
X147018334Y-94500228D01*
X146971995Y-94495664D01*
X146933343Y-94483939D01*
X146897720Y-94464898D01*
X146866497Y-94439274D01*
X146840873Y-94408051D01*
X146821832Y-94372428D01*
X146810107Y-94333776D01*
X146805543Y-94287437D01*
X146805543Y-93636419D01*
X146810107Y-93590080D01*
X146821832Y-93551428D01*
X146840873Y-93515805D01*
X146866497Y-93484582D01*
X146897720Y-93458958D01*
X146933343Y-93439917D01*
X146971995Y-93428192D01*
X147018334Y-93423628D01*
X148094352Y-93423628D01*
X148140691Y-93428192D01*
X148140691Y-93428192D01*
G37*
G36*
X149698721Y-93314071D02*
G01*
X149736203Y-93325442D01*
X149770743Y-93343904D01*
X149801021Y-93368751D01*
X149825868Y-93399029D01*
X149844330Y-93433569D01*
X149855701Y-93471051D01*
X149860144Y-93516166D01*
X149860144Y-94254690D01*
X149855701Y-94299805D01*
X149844330Y-94337287D01*
X149825868Y-94371827D01*
X149801021Y-94402105D01*
X149770743Y-94426952D01*
X149736203Y-94445414D01*
X149698721Y-94456785D01*
X149653606Y-94461228D01*
X149015082Y-94461228D01*
X148969967Y-94456785D01*
X148932485Y-94445414D01*
X148897945Y-94426952D01*
X148867667Y-94402105D01*
X148842820Y-94371827D01*
X148824358Y-94337287D01*
X148812987Y-94299805D01*
X148808544Y-94254690D01*
X148808544Y-93516166D01*
X148812987Y-93471051D01*
X148824358Y-93433569D01*
X148842820Y-93399029D01*
X148867667Y-93368751D01*
X148897945Y-93343904D01*
X148932485Y-93325442D01*
X148969967Y-93314071D01*
X149015082Y-93309628D01*
X149653606Y-93309628D01*
X149698721Y-93314071D01*
X149698721Y-93314071D01*
G37*
G36*
X155479649Y-93087221D02*
G01*
X155513614Y-93097524D01*
X155544915Y-93114255D01*
X155577117Y-93140682D01*
X156002105Y-93565670D01*
X156028532Y-93597872D01*
X156045263Y-93629173D01*
X156055566Y-93663138D01*
X156059044Y-93698456D01*
X156055566Y-93733774D01*
X156045263Y-93767739D01*
X156028532Y-93799040D01*
X156002105Y-93831242D01*
X155524083Y-94309264D01*
X155491881Y-94335691D01*
X155460580Y-94352422D01*
X155426615Y-94362725D01*
X155391297Y-94366203D01*
X155355979Y-94362725D01*
X155322014Y-94352422D01*
X155290713Y-94335691D01*
X155258511Y-94309264D01*
X154833523Y-93884276D01*
X154807096Y-93852074D01*
X154790365Y-93820773D01*
X154780062Y-93786808D01*
X154776584Y-93751490D01*
X154780062Y-93716172D01*
X154790365Y-93682207D01*
X154807096Y-93650906D01*
X154833523Y-93618704D01*
X155311545Y-93140682D01*
X155343747Y-93114255D01*
X155375048Y-93097524D01*
X155409013Y-93087221D01*
X155444331Y-93083743D01*
X155479649Y-93087221D01*
X155479649Y-93087221D01*
G37*
G36*
X162977735Y-87965806D02*
G01*
X162982384Y-87967216D01*
X162986669Y-87969506D01*
X162995195Y-87976503D01*
X163035040Y-88016348D01*
X163035051Y-88016357D01*
X163159361Y-88140667D01*
X163159370Y-88140678D01*
X163199215Y-88180523D01*
X163206212Y-88189049D01*
X163208502Y-88193334D01*
X163209912Y-88197983D01*
X163210740Y-88206386D01*
X163215520Y-88230419D01*
X163224897Y-88253058D01*
X163238511Y-88273432D01*
X163255837Y-88290760D01*
X163276212Y-88304374D01*
X163298850Y-88313751D01*
X163322886Y-88318532D01*
X163331288Y-88319359D01*
X163335937Y-88320770D01*
X163340222Y-88323060D01*
X163348748Y-88330057D01*
X163388593Y-88369902D01*
X163388604Y-88369911D01*
X163512914Y-88494221D01*
X163512923Y-88494232D01*
X163552768Y-88534077D01*
X163559765Y-88542603D01*
X163562055Y-88546888D01*
X163563466Y-88551537D01*
X163564293Y-88559939D01*
X163569073Y-88583972D01*
X163578450Y-88606611D01*
X163592064Y-88626986D01*
X163609391Y-88644313D01*
X163629765Y-88657927D01*
X163652404Y-88667304D01*
X163676439Y-88672085D01*
X163684841Y-88672912D01*
X163689490Y-88674323D01*
X163693775Y-88676613D01*
X163702301Y-88683610D01*
X163742146Y-88723455D01*
X163742157Y-88723464D01*
X163866467Y-88847774D01*
X163866476Y-88847785D01*
X163906321Y-88887630D01*
X163913318Y-88896156D01*
X163915608Y-88900441D01*
X163917019Y-88905090D01*
X163917846Y-88913492D01*
X163922626Y-88937525D01*
X163932003Y-88960164D01*
X163945617Y-88980539D01*
X163962944Y-88997866D01*
X163983318Y-89011480D01*
X164005957Y-89020857D01*
X164029992Y-89025638D01*
X164038395Y-89026466D01*
X164043044Y-89027876D01*
X164047329Y-89030166D01*
X164055855Y-89037163D01*
X164095700Y-89077008D01*
X164095711Y-89077017D01*
X164220021Y-89201327D01*
X164220030Y-89201338D01*
X164259875Y-89241183D01*
X164266872Y-89249709D01*
X164269162Y-89253994D01*
X164270572Y-89258643D01*
X164271049Y-89263482D01*
X164270572Y-89268321D01*
X164269162Y-89272970D01*
X164266872Y-89277255D01*
X164259875Y-89285781D01*
X164220030Y-89325626D01*
X164220021Y-89325637D01*
X163689125Y-89856533D01*
X163689114Y-89856542D01*
X163663455Y-89882201D01*
X163647910Y-89901143D01*
X163636359Y-89922754D01*
X163629246Y-89946203D01*
X163626844Y-89970589D01*
X163629246Y-89994975D01*
X163636359Y-90018424D01*
X163647910Y-90040035D01*
X163663455Y-90058977D01*
X163689114Y-90084636D01*
X163689125Y-90084645D01*
X164220021Y-90615541D01*
X164220030Y-90615552D01*
X164259875Y-90655397D01*
X164266872Y-90663923D01*
X164269162Y-90668208D01*
X164270572Y-90672857D01*
X164271049Y-90677696D01*
X164270572Y-90682535D01*
X164269162Y-90687184D01*
X164266872Y-90691469D01*
X164259875Y-90699995D01*
X164220030Y-90739840D01*
X164220021Y-90739851D01*
X164095711Y-90864161D01*
X164095700Y-90864170D01*
X164055855Y-90904015D01*
X164047329Y-90911012D01*
X164043044Y-90913302D01*
X164038395Y-90914712D01*
X164029992Y-90915540D01*
X164005959Y-90920320D01*
X163983320Y-90929697D01*
X163962946Y-90943311D01*
X163945618Y-90960637D01*
X163932004Y-90981012D01*
X163922627Y-91003650D01*
X163917846Y-91027686D01*
X163917019Y-91036088D01*
X163915608Y-91040737D01*
X163913318Y-91045022D01*
X163906321Y-91053548D01*
X163866476Y-91093393D01*
X163866467Y-91093404D01*
X163742157Y-91217714D01*
X163742146Y-91217723D01*
X163702301Y-91257568D01*
X163693775Y-91264565D01*
X163689490Y-91266855D01*
X163684841Y-91268266D01*
X163676439Y-91269093D01*
X163652406Y-91273873D01*
X163629767Y-91283250D01*
X163609392Y-91296864D01*
X163592065Y-91314191D01*
X163578451Y-91334565D01*
X163569074Y-91357204D01*
X163564293Y-91381239D01*
X163563466Y-91389641D01*
X163562055Y-91394290D01*
X163559765Y-91398575D01*
X163552768Y-91407101D01*
X163512923Y-91446946D01*
X163512914Y-91446957D01*
X163388604Y-91571267D01*
X163388593Y-91571276D01*
X163348748Y-91611121D01*
X163340222Y-91618118D01*
X163335937Y-91620408D01*
X163331288Y-91621819D01*
X163322886Y-91622646D01*
X163298853Y-91627426D01*
X163276214Y-91636803D01*
X163255839Y-91650417D01*
X163238512Y-91667744D01*
X163224898Y-91688118D01*
X163215521Y-91710757D01*
X163210740Y-91734792D01*
X163209912Y-91743195D01*
X163208502Y-91747844D01*
X163206212Y-91752129D01*
X163199215Y-91760655D01*
X163159370Y-91800500D01*
X163159361Y-91800511D01*
X163035051Y-91924821D01*
X163035040Y-91924830D01*
X162995195Y-91964675D01*
X162986669Y-91971672D01*
X162982384Y-91973962D01*
X162977735Y-91975372D01*
X162972896Y-91975849D01*
X162968057Y-91975372D01*
X162963408Y-91973962D01*
X162959123Y-91971672D01*
X162950597Y-91964675D01*
X162910752Y-91924830D01*
X162910741Y-91924821D01*
X162379845Y-91393925D01*
X162379836Y-91393914D01*
X162354177Y-91368255D01*
X162335235Y-91352710D01*
X162313624Y-91341159D01*
X162290175Y-91334046D01*
X162265789Y-91331644D01*
X162241403Y-91334046D01*
X162217954Y-91341159D01*
X162196343Y-91352710D01*
X162177401Y-91368255D01*
X162151742Y-91393914D01*
X162151733Y-91393925D01*
X161620837Y-91924821D01*
X161620826Y-91924830D01*
X161580981Y-91964675D01*
X161572455Y-91971672D01*
X161568170Y-91973962D01*
X161563521Y-91975372D01*
X161558682Y-91975849D01*
X161553843Y-91975372D01*
X161549194Y-91973962D01*
X161544909Y-91971672D01*
X161536383Y-91964675D01*
X161502547Y-91930839D01*
X161483605Y-91915294D01*
X161461994Y-91903743D01*
X161438545Y-91896630D01*
X161414159Y-91894228D01*
X161389773Y-91896630D01*
X161366324Y-91903743D01*
X161344713Y-91915294D01*
X161325771Y-91930839D01*
X161310226Y-91949781D01*
X161298675Y-91971392D01*
X161291562Y-91994841D01*
X161289160Y-92019227D01*
X161291562Y-92043613D01*
X161303919Y-92078150D01*
X161307589Y-92085017D01*
X161311980Y-92099491D01*
X161313462Y-92114537D01*
X161311980Y-92129583D01*
X161307589Y-92144059D01*
X161300463Y-92157391D01*
X161286959Y-92173845D01*
X159212413Y-94248391D01*
X159195959Y-94261895D01*
X159182627Y-94269021D01*
X159168151Y-94273412D01*
X159153105Y-94274894D01*
X159138059Y-94273412D01*
X159123583Y-94269021D01*
X159110251Y-94261895D01*
X159093797Y-94248391D01*
X158433465Y-93588059D01*
X158419961Y-93571605D01*
X158412835Y-93558273D01*
X158408444Y-93543797D01*
X158406962Y-93528751D01*
X158408444Y-93513705D01*
X158412835Y-93499229D01*
X158419961Y-93485897D01*
X158433465Y-93469443D01*
X160181714Y-91721194D01*
X161017555Y-91721194D01*
X161017555Y-91745698D01*
X161022336Y-91769732D01*
X161031713Y-91792370D01*
X161053564Y-91821834D01*
X161121649Y-91889919D01*
X161140591Y-91905464D01*
X161162202Y-91917015D01*
X161185651Y-91924128D01*
X161210037Y-91926530D01*
X161234423Y-91924128D01*
X161257872Y-91917015D01*
X161279483Y-91905464D01*
X161298425Y-91889919D01*
X161313970Y-91870977D01*
X161325521Y-91849366D01*
X161332634Y-91825917D01*
X161335036Y-91801531D01*
X161332634Y-91777145D01*
X161325521Y-91753696D01*
X161323652Y-91749744D01*
X161321666Y-91743195D01*
X161320838Y-91734792D01*
X161316058Y-91710759D01*
X161306681Y-91688120D01*
X161293067Y-91667746D01*
X161275741Y-91650418D01*
X161255366Y-91636804D01*
X161232728Y-91627427D01*
X161208692Y-91622646D01*
X161200290Y-91621819D01*
X161189960Y-91618685D01*
X161178237Y-91613829D01*
X161154204Y-91609049D01*
X161129700Y-91609049D01*
X161105666Y-91613830D01*
X161083028Y-91623207D01*
X161062653Y-91636821D01*
X161045326Y-91654148D01*
X161031713Y-91674522D01*
X161022335Y-91697161D01*
X161017555Y-91721194D01*
X160181714Y-91721194D01*
X160508011Y-91394897D01*
X160524465Y-91381393D01*
X160537797Y-91374267D01*
X160552273Y-91369876D01*
X160567319Y-91368394D01*
X160582365Y-91369876D01*
X160596839Y-91374267D01*
X160603708Y-91377938D01*
X160626347Y-91387315D01*
X160650380Y-91392095D01*
X160664002Y-91392095D01*
X160664002Y-91392145D01*
X160668783Y-91416179D01*
X160678160Y-91438817D01*
X160700011Y-91468281D01*
X160768097Y-91536367D01*
X160787039Y-91551912D01*
X160808650Y-91563463D01*
X160832099Y-91570576D01*
X160856485Y-91572978D01*
X160880871Y-91570576D01*
X160904320Y-91563463D01*
X160925931Y-91551912D01*
X160944873Y-91536367D01*
X160960418Y-91517425D01*
X160971969Y-91495814D01*
X160979082Y-91472365D01*
X160981484Y-91447979D01*
X160979082Y-91423593D01*
X160972841Y-91406152D01*
X160973097Y-91406074D01*
X160968112Y-91389641D01*
X160967285Y-91381239D01*
X160962505Y-91357206D01*
X160953128Y-91334567D01*
X160939514Y-91314192D01*
X160922187Y-91296865D01*
X160901813Y-91283251D01*
X160879174Y-91273874D01*
X160855139Y-91269093D01*
X160846737Y-91268266D01*
X160836407Y-91265132D01*
X160824684Y-91260276D01*
X160800651Y-91255496D01*
X160787028Y-91255496D01*
X160787028Y-91255444D01*
X160782247Y-91231411D01*
X160772870Y-91208773D01*
X160751025Y-91179318D01*
X160665111Y-91093404D01*
X160665102Y-91093393D01*
X160625257Y-91053548D01*
X160618260Y-91045022D01*
X160615970Y-91040737D01*
X160614559Y-91036088D01*
X160613732Y-91027686D01*
X160608952Y-91003653D01*
X160599575Y-90981014D01*
X160585961Y-90960639D01*
X160568634Y-90943312D01*
X160548260Y-90929698D01*
X160525621Y-90920321D01*
X160501586Y-90915540D01*
X160493183Y-90914712D01*
X160488534Y-90913302D01*
X160484249Y-90911012D01*
X160475723Y-90904015D01*
X160435878Y-90864170D01*
X160435867Y-90864161D01*
X160311557Y-90739851D01*
X160311548Y-90739840D01*
X160271703Y-90699995D01*
X160264706Y-90691469D01*
X160262416Y-90687184D01*
X160261006Y-90682535D01*
X160260529Y-90677696D01*
X160261006Y-90672857D01*
X160262416Y-90668208D01*
X160264706Y-90663923D01*
X160271703Y-90655397D01*
X160311548Y-90615552D01*
X160311557Y-90615541D01*
X160842453Y-90084645D01*
X160842464Y-90084636D01*
X160868123Y-90058977D01*
X160883668Y-90040035D01*
X160895219Y-90018424D01*
X160902332Y-89994975D01*
X160904734Y-89970589D01*
X160902332Y-89946203D01*
X160895219Y-89922754D01*
X160883668Y-89901143D01*
X160868123Y-89882201D01*
X160842464Y-89856542D01*
X160842453Y-89856533D01*
X160311557Y-89325637D01*
X160311548Y-89325626D01*
X160271703Y-89285781D01*
X160264706Y-89277255D01*
X160262416Y-89272970D01*
X160261006Y-89268321D01*
X160260529Y-89263482D01*
X160261006Y-89258643D01*
X160262416Y-89253994D01*
X160264706Y-89249709D01*
X160271703Y-89241183D01*
X160311548Y-89201338D01*
X160311557Y-89201327D01*
X160435867Y-89077017D01*
X160435878Y-89077008D01*
X160475723Y-89037163D01*
X160484249Y-89030166D01*
X160488534Y-89027876D01*
X160493183Y-89026466D01*
X160501586Y-89025638D01*
X160525619Y-89020858D01*
X160548258Y-89011481D01*
X160568632Y-88997867D01*
X160585960Y-88980541D01*
X160599574Y-88960166D01*
X160608951Y-88937528D01*
X160613732Y-88913492D01*
X160614559Y-88905090D01*
X160615970Y-88900441D01*
X160618260Y-88896156D01*
X160625257Y-88887630D01*
X160665102Y-88847785D01*
X160665111Y-88847774D01*
X160789421Y-88723464D01*
X160789432Y-88723455D01*
X160829277Y-88683610D01*
X160837803Y-88676613D01*
X160842088Y-88674323D01*
X160846737Y-88672912D01*
X160855139Y-88672085D01*
X160879172Y-88667305D01*
X160901811Y-88657928D01*
X160922186Y-88644314D01*
X160939513Y-88626987D01*
X160953127Y-88606613D01*
X160962504Y-88583974D01*
X160967285Y-88559939D01*
X160968112Y-88551537D01*
X160969523Y-88546888D01*
X160971813Y-88542603D01*
X160978810Y-88534077D01*
X161018655Y-88494232D01*
X161018664Y-88494221D01*
X161142974Y-88369911D01*
X161142985Y-88369902D01*
X161182830Y-88330057D01*
X161191356Y-88323060D01*
X161195641Y-88320770D01*
X161200290Y-88319359D01*
X161208692Y-88318532D01*
X161232725Y-88313752D01*
X161255364Y-88304375D01*
X161275739Y-88290761D01*
X161293066Y-88273434D01*
X161306680Y-88253060D01*
X161316057Y-88230421D01*
X161320838Y-88206386D01*
X161321666Y-88197983D01*
X161323076Y-88193334D01*
X161325366Y-88189049D01*
X161332363Y-88180523D01*
X161372208Y-88140678D01*
X161372217Y-88140667D01*
X161496527Y-88016357D01*
X161496538Y-88016348D01*
X161536383Y-87976503D01*
X161544909Y-87969506D01*
X161549194Y-87967216D01*
X161553843Y-87965806D01*
X161558682Y-87965329D01*
X161563521Y-87965806D01*
X161568170Y-87967216D01*
X161572455Y-87969506D01*
X161580981Y-87976503D01*
X161620826Y-88016348D01*
X161620837Y-88016357D01*
X162151733Y-88547253D01*
X162151742Y-88547264D01*
X162177401Y-88572923D01*
X162196343Y-88588468D01*
X162217954Y-88600019D01*
X162241403Y-88607132D01*
X162265789Y-88609534D01*
X162290175Y-88607132D01*
X162313624Y-88600019D01*
X162335235Y-88588468D01*
X162354177Y-88572923D01*
X162379836Y-88547264D01*
X162379845Y-88547253D01*
X162910741Y-88016357D01*
X162910752Y-88016348D01*
X162950597Y-87976503D01*
X162959123Y-87969506D01*
X162963408Y-87967216D01*
X162968057Y-87965806D01*
X162972896Y-87965329D01*
X162977735Y-87965806D01*
X162977735Y-87965806D01*
G37*
G36*
X146143499Y-94039973D02*
G01*
X144041899Y-94039973D01*
X144041899Y-93038373D01*
X146143499Y-93038373D01*
X146143499Y-94039973D01*
X146143499Y-94039973D01*
G37*
G36*
X171368338Y-92269806D02*
G01*
X171402303Y-92280109D01*
X171433604Y-92296840D01*
X171465806Y-92323267D01*
X171890794Y-92748255D01*
X171917221Y-92780457D01*
X171933952Y-92811758D01*
X171944255Y-92845723D01*
X171947733Y-92881041D01*
X171944255Y-92916359D01*
X171933952Y-92950324D01*
X171917221Y-92981625D01*
X171890794Y-93013827D01*
X171412772Y-93491849D01*
X171380570Y-93518276D01*
X171349269Y-93535007D01*
X171315304Y-93545310D01*
X171279986Y-93548788D01*
X171244668Y-93545310D01*
X171210703Y-93535007D01*
X171179402Y-93518276D01*
X171147200Y-93491849D01*
X170722212Y-93066861D01*
X170695785Y-93034659D01*
X170679054Y-93003358D01*
X170668751Y-92969393D01*
X170665273Y-92934075D01*
X170668751Y-92898757D01*
X170679054Y-92864792D01*
X170695785Y-92833491D01*
X170722212Y-92801289D01*
X171200234Y-92323267D01*
X171232436Y-92296840D01*
X171263737Y-92280109D01*
X171297702Y-92269806D01*
X171333020Y-92266328D01*
X171368338Y-92269806D01*
X171368338Y-92269806D01*
G37*
G36*
X169178994Y-92254673D02*
G01*
X169212959Y-92264976D01*
X169244260Y-92281707D01*
X169276462Y-92308134D01*
X169701450Y-92733122D01*
X169727877Y-92765324D01*
X169744608Y-92796625D01*
X169754911Y-92830590D01*
X169758389Y-92865908D01*
X169754911Y-92901226D01*
X169744608Y-92935191D01*
X169727877Y-92966492D01*
X169701450Y-92998694D01*
X169223428Y-93476716D01*
X169191226Y-93503143D01*
X169159925Y-93519874D01*
X169125960Y-93530177D01*
X169090642Y-93533655D01*
X169055324Y-93530177D01*
X169021359Y-93519874D01*
X168990058Y-93503143D01*
X168957856Y-93476716D01*
X168532868Y-93051728D01*
X168506441Y-93019526D01*
X168489710Y-92988225D01*
X168479407Y-92954260D01*
X168475929Y-92918942D01*
X168479407Y-92883624D01*
X168489710Y-92849659D01*
X168506441Y-92818358D01*
X168532868Y-92786156D01*
X169010890Y-92308134D01*
X169043092Y-92281707D01*
X169074393Y-92264976D01*
X169108358Y-92254673D01*
X169143676Y-92251195D01*
X169178994Y-92254673D01*
X169178994Y-92254673D01*
G37*
G36*
X154365955Y-91973527D02*
G01*
X154399920Y-91983830D01*
X154431221Y-92000561D01*
X154463423Y-92026988D01*
X154888411Y-92451976D01*
X154914838Y-92484178D01*
X154931569Y-92515479D01*
X154941872Y-92549444D01*
X154945350Y-92584762D01*
X154941872Y-92620080D01*
X154931569Y-92654045D01*
X154914838Y-92685346D01*
X154888411Y-92717548D01*
X154410389Y-93195570D01*
X154378187Y-93221997D01*
X154346886Y-93238728D01*
X154312921Y-93249031D01*
X154277603Y-93252509D01*
X154242285Y-93249031D01*
X154208320Y-93238728D01*
X154177019Y-93221997D01*
X154144817Y-93195570D01*
X153719829Y-92770582D01*
X153693402Y-92738380D01*
X153676671Y-92707079D01*
X153666368Y-92673114D01*
X153662890Y-92637796D01*
X153666368Y-92602478D01*
X153676671Y-92568513D01*
X153693402Y-92537212D01*
X153719829Y-92505010D01*
X154197851Y-92026988D01*
X154230053Y-92000561D01*
X154261354Y-91983830D01*
X154295319Y-91973527D01*
X154330637Y-91970049D01*
X154365955Y-91973527D01*
X154365955Y-91973527D01*
G37*
G36*
X164382122Y-91658866D02*
G01*
X164416087Y-91669169D01*
X164447388Y-91685900D01*
X164479590Y-91712327D01*
X164957612Y-92190349D01*
X164984039Y-92222551D01*
X165000770Y-92253852D01*
X165011073Y-92287817D01*
X165014551Y-92323135D01*
X165011073Y-92358453D01*
X165000770Y-92392418D01*
X164984039Y-92423719D01*
X164957612Y-92455921D01*
X164532624Y-92880909D01*
X164500422Y-92907336D01*
X164469121Y-92924067D01*
X164435156Y-92934370D01*
X164399838Y-92937848D01*
X164364520Y-92934370D01*
X164330555Y-92924067D01*
X164299254Y-92907336D01*
X164267052Y-92880909D01*
X163789030Y-92402887D01*
X163762603Y-92370685D01*
X163745872Y-92339384D01*
X163735569Y-92305419D01*
X163732091Y-92270101D01*
X163735569Y-92234783D01*
X163745872Y-92200818D01*
X163762603Y-92169517D01*
X163789030Y-92137315D01*
X164214018Y-91712327D01*
X164246220Y-91685900D01*
X164277521Y-91669169D01*
X164311486Y-91658866D01*
X164346804Y-91655388D01*
X164382122Y-91658866D01*
X164382122Y-91658866D01*
G37*
G36*
X158365988Y-88392262D02*
G01*
X158404640Y-88403987D01*
X158440263Y-88423028D01*
X158476251Y-88452563D01*
X158516097Y-88492409D01*
X158516108Y-88492418D01*
X159197264Y-89173574D01*
X159197273Y-89173585D01*
X159237119Y-89213431D01*
X159266654Y-89249419D01*
X159285695Y-89285042D01*
X159297420Y-89323694D01*
X159301379Y-89363892D01*
X159297420Y-89404090D01*
X159285695Y-89442742D01*
X159266654Y-89478365D01*
X159237119Y-89514353D01*
X159197273Y-89554199D01*
X159197264Y-89554210D01*
X158999638Y-89751836D01*
X158984102Y-89770767D01*
X158972551Y-89792378D01*
X158965438Y-89815827D01*
X158963036Y-89840213D01*
X158965438Y-89864599D01*
X158972551Y-89888048D01*
X158984102Y-89909659D01*
X158999647Y-89928601D01*
X159018589Y-89944146D01*
X159040200Y-89955697D01*
X159063649Y-89962810D01*
X159088035Y-89965212D01*
X159112421Y-89962810D01*
X159124321Y-89959829D01*
X159138056Y-89955662D01*
X159153105Y-89954180D01*
X159168151Y-89955662D01*
X159182627Y-89960053D01*
X159195959Y-89967179D01*
X159212413Y-89980683D01*
X159872745Y-90641015D01*
X159886249Y-90657469D01*
X159893375Y-90670801D01*
X159897766Y-90685277D01*
X159899248Y-90700323D01*
X159897766Y-90715369D01*
X159893375Y-90729845D01*
X159886249Y-90743177D01*
X159872745Y-90759631D01*
X157798199Y-92834177D01*
X157781745Y-92847681D01*
X157768413Y-92854807D01*
X157753937Y-92859198D01*
X157738891Y-92860680D01*
X157723845Y-92859198D01*
X157709369Y-92854807D01*
X157696037Y-92847681D01*
X157679583Y-92834177D01*
X157019251Y-92173845D01*
X157005747Y-92157391D01*
X156998621Y-92144059D01*
X156994230Y-92129583D01*
X156992748Y-92114537D01*
X156994230Y-92099491D01*
X156998621Y-92085015D01*
X157005747Y-92071683D01*
X157019251Y-92055229D01*
X158852694Y-90221786D01*
X158868239Y-90202844D01*
X158879790Y-90181233D01*
X158886903Y-90157784D01*
X158889305Y-90133398D01*
X158886903Y-90109012D01*
X158879790Y-90085563D01*
X158868239Y-90063952D01*
X158852694Y-90045010D01*
X158833752Y-90029465D01*
X158812141Y-90017914D01*
X158788692Y-90010801D01*
X158764306Y-90008399D01*
X158739920Y-90010801D01*
X158716471Y-90017914D01*
X158705381Y-90023159D01*
X158705160Y-90023277D01*
X158666508Y-90035002D01*
X158626310Y-90038961D01*
X158586112Y-90035002D01*
X158547460Y-90023277D01*
X158511837Y-90004236D01*
X158475849Y-89974701D01*
X158436003Y-89934855D01*
X158435992Y-89934846D01*
X157754836Y-89253690D01*
X157754827Y-89253679D01*
X157714981Y-89213833D01*
X157685446Y-89177845D01*
X157666405Y-89142222D01*
X157654680Y-89103570D01*
X157650721Y-89063372D01*
X157654680Y-89023174D01*
X157666405Y-88984522D01*
X157685446Y-88948899D01*
X157714981Y-88912911D01*
X157754827Y-88873065D01*
X157754836Y-88873054D01*
X158135472Y-88492418D01*
X158135483Y-88492409D01*
X158175329Y-88452563D01*
X158211317Y-88423028D01*
X158246940Y-88403987D01*
X158285592Y-88392262D01*
X158325790Y-88388303D01*
X158365988Y-88392262D01*
X158365988Y-88392262D01*
G37*
G36*
X146143499Y-92769973D02*
G01*
X144041899Y-92769973D01*
X144041899Y-91768373D01*
X146143499Y-91768373D01*
X146143499Y-92769973D01*
X146143499Y-92769973D01*
G37*
G36*
X149698721Y-91564071D02*
G01*
X149736203Y-91575442D01*
X149770743Y-91593904D01*
X149801021Y-91618751D01*
X149825868Y-91649029D01*
X149844330Y-91683569D01*
X149855701Y-91721051D01*
X149860144Y-91766166D01*
X149860144Y-92504690D01*
X149855701Y-92549805D01*
X149844330Y-92587287D01*
X149825868Y-92621827D01*
X149801021Y-92652105D01*
X149770743Y-92676952D01*
X149736203Y-92695414D01*
X149698721Y-92706785D01*
X149653606Y-92711228D01*
X149015082Y-92711228D01*
X148969967Y-92706785D01*
X148932485Y-92695414D01*
X148897945Y-92676952D01*
X148867667Y-92652105D01*
X148842820Y-92621827D01*
X148824358Y-92587287D01*
X148812987Y-92549805D01*
X148808544Y-92504690D01*
X148808544Y-91766166D01*
X148812987Y-91721051D01*
X148824358Y-91683569D01*
X148842820Y-91649029D01*
X148867667Y-91618751D01*
X148897945Y-91593904D01*
X148932485Y-91575442D01*
X148969967Y-91564071D01*
X149015082Y-91559628D01*
X149653606Y-91559628D01*
X149698721Y-91564071D01*
X149698721Y-91564071D01*
G37*
G36*
X148140691Y-91553192D02*
G01*
X148179343Y-91564917D01*
X148214966Y-91583958D01*
X148246189Y-91609582D01*
X148271813Y-91640805D01*
X148290854Y-91676428D01*
X148302579Y-91715080D01*
X148307143Y-91761419D01*
X148307143Y-92412437D01*
X148302579Y-92458776D01*
X148290854Y-92497428D01*
X148271813Y-92533051D01*
X148246189Y-92564274D01*
X148214966Y-92589898D01*
X148179343Y-92608939D01*
X148140691Y-92620664D01*
X148094352Y-92625228D01*
X147018334Y-92625228D01*
X146971995Y-92620664D01*
X146933343Y-92608939D01*
X146897720Y-92589898D01*
X146866497Y-92564274D01*
X146840873Y-92533051D01*
X146821832Y-92497428D01*
X146810107Y-92458776D01*
X146805543Y-92412437D01*
X146805543Y-91761419D01*
X146810107Y-91715080D01*
X146821832Y-91676428D01*
X146840873Y-91640805D01*
X146866497Y-91609582D01*
X146897720Y-91583958D01*
X146933343Y-91564917D01*
X146971995Y-91553192D01*
X147018334Y-91548628D01*
X148094352Y-91548628D01*
X148140691Y-91553192D01*
X148140691Y-91553192D01*
G37*
G36*
X172445969Y-91192175D02*
G01*
X172479934Y-91202478D01*
X172511235Y-91219209D01*
X172543437Y-91245636D01*
X172968425Y-91670624D01*
X172994852Y-91702826D01*
X173011583Y-91734127D01*
X173021886Y-91768092D01*
X173025364Y-91803410D01*
X173021886Y-91838728D01*
X173011583Y-91872693D01*
X172994852Y-91903994D01*
X172968425Y-91936196D01*
X172490403Y-92414218D01*
X172458201Y-92440645D01*
X172426900Y-92457376D01*
X172392935Y-92467679D01*
X172357617Y-92471157D01*
X172322299Y-92467679D01*
X172288334Y-92457376D01*
X172257033Y-92440645D01*
X172224831Y-92414218D01*
X171799843Y-91989230D01*
X171773416Y-91957028D01*
X171756685Y-91925727D01*
X171746382Y-91891762D01*
X171742904Y-91856444D01*
X171746382Y-91821126D01*
X171756685Y-91787161D01*
X171773416Y-91755860D01*
X171799843Y-91723658D01*
X172277865Y-91245636D01*
X172310067Y-91219209D01*
X172341368Y-91202478D01*
X172375333Y-91192175D01*
X172410651Y-91188697D01*
X172445969Y-91192175D01*
X172445969Y-91192175D01*
G37*
G36*
X170254644Y-91156112D02*
G01*
X170288609Y-91166415D01*
X170319910Y-91183146D01*
X170352112Y-91209573D01*
X170777100Y-91634561D01*
X170803527Y-91666763D01*
X170820258Y-91698064D01*
X170830561Y-91732029D01*
X170834039Y-91767347D01*
X170830561Y-91802665D01*
X170820258Y-91836630D01*
X170803527Y-91867931D01*
X170777100Y-91900133D01*
X170299078Y-92378155D01*
X170266876Y-92404582D01*
X170235575Y-92421313D01*
X170201610Y-92431616D01*
X170166292Y-92435094D01*
X170130974Y-92431616D01*
X170097009Y-92421313D01*
X170065708Y-92404582D01*
X170033506Y-92378155D01*
X169608518Y-91953167D01*
X169582091Y-91920965D01*
X169565360Y-91889664D01*
X169555057Y-91855699D01*
X169551579Y-91820381D01*
X169555057Y-91785063D01*
X169565360Y-91751098D01*
X169582091Y-91719797D01*
X169608518Y-91687595D01*
X170086540Y-91209573D01*
X170118742Y-91183146D01*
X170150043Y-91166415D01*
X170184008Y-91156112D01*
X170219326Y-91152634D01*
X170254644Y-91156112D01*
X170254644Y-91156112D01*
G37*
G36*
X165495816Y-90545172D02*
G01*
X165529781Y-90555475D01*
X165561082Y-90572206D01*
X165593284Y-90598633D01*
X166071306Y-91076655D01*
X166097733Y-91108857D01*
X166114464Y-91140158D01*
X166124767Y-91174123D01*
X166128245Y-91209441D01*
X166124767Y-91244759D01*
X166114464Y-91278724D01*
X166097733Y-91310025D01*
X166071306Y-91342227D01*
X165646318Y-91767215D01*
X165614116Y-91793642D01*
X165582815Y-91810373D01*
X165548850Y-91820676D01*
X165513532Y-91824154D01*
X165478214Y-91820676D01*
X165444249Y-91810373D01*
X165412948Y-91793642D01*
X165380746Y-91767215D01*
X164902724Y-91289193D01*
X164876297Y-91256991D01*
X164859566Y-91225690D01*
X164849263Y-91191725D01*
X164845785Y-91156407D01*
X164849263Y-91121089D01*
X164859566Y-91087124D01*
X164876297Y-91055823D01*
X164902724Y-91023621D01*
X165327712Y-90598633D01*
X165359914Y-90572206D01*
X165391215Y-90555475D01*
X165425180Y-90545172D01*
X165460498Y-90541694D01*
X165495816Y-90545172D01*
X165495816Y-90545172D01*
G37*
G36*
X151446773Y-91280150D02*
G01*
X150915311Y-91811612D01*
X150101007Y-90997308D01*
X150632469Y-90465846D01*
X151446773Y-91280150D01*
X151446773Y-91280150D01*
G37*
G36*
X146143499Y-91499973D02*
G01*
X144041899Y-91499973D01*
X144041899Y-90498373D01*
X146143499Y-90498373D01*
X146143499Y-91499973D01*
X146143499Y-91499973D01*
G37*
G36*
X171332275Y-90078481D02*
G01*
X171366240Y-90088784D01*
X171397541Y-90105515D01*
X171429743Y-90131942D01*
X171854731Y-90556930D01*
X171881158Y-90589132D01*
X171897889Y-90620433D01*
X171908192Y-90654398D01*
X171911670Y-90689716D01*
X171908192Y-90725034D01*
X171897889Y-90758999D01*
X171881158Y-90790300D01*
X171854731Y-90822502D01*
X171376709Y-91300524D01*
X171344507Y-91326951D01*
X171313206Y-91343682D01*
X171279241Y-91353985D01*
X171243923Y-91357463D01*
X171208605Y-91353985D01*
X171174640Y-91343682D01*
X171143339Y-91326951D01*
X171111137Y-91300524D01*
X170686149Y-90875536D01*
X170659722Y-90843334D01*
X170642991Y-90812033D01*
X170632688Y-90778068D01*
X170629210Y-90742750D01*
X170632688Y-90707432D01*
X170642991Y-90673467D01*
X170659722Y-90642166D01*
X170686149Y-90609964D01*
X171164171Y-90131942D01*
X171196373Y-90105515D01*
X171227674Y-90088784D01*
X171261639Y-90078481D01*
X171296957Y-90075003D01*
X171332275Y-90078481D01*
X171332275Y-90078481D01*
G37*
G36*
X166248885Y-89134494D02*
G01*
X166282850Y-89144797D01*
X166314151Y-89161528D01*
X166346353Y-89187955D01*
X166771341Y-89612943D01*
X166797768Y-89645145D01*
X166814499Y-89676446D01*
X166824802Y-89710411D01*
X166828280Y-89745729D01*
X166824802Y-89781047D01*
X166814499Y-89815012D01*
X166797768Y-89846313D01*
X166771341Y-89878515D01*
X166293319Y-90356537D01*
X166261117Y-90382964D01*
X166229816Y-90399695D01*
X166195851Y-90409998D01*
X166160533Y-90413476D01*
X166125215Y-90409998D01*
X166091250Y-90399695D01*
X166059949Y-90382964D01*
X166027747Y-90356537D01*
X165602759Y-89931549D01*
X165576332Y-89899347D01*
X165559601Y-89868046D01*
X165549298Y-89834081D01*
X165545820Y-89798763D01*
X165549298Y-89763445D01*
X165559601Y-89729480D01*
X165576332Y-89698179D01*
X165602759Y-89665977D01*
X166080781Y-89187955D01*
X166112983Y-89161528D01*
X166144284Y-89144797D01*
X166178249Y-89134494D01*
X166213567Y-89131016D01*
X166248885Y-89134494D01*
X166248885Y-89134494D01*
G37*
G36*
X152967052Y-89759871D02*
G01*
X152435590Y-90291333D01*
X151621286Y-89477029D01*
X152152748Y-88945567D01*
X152967052Y-89759871D01*
X152967052Y-89759871D01*
G37*
G36*
X146143499Y-90229973D02*
G01*
X144041899Y-90229973D01*
X144041899Y-89228373D01*
X146143499Y-89228373D01*
X146143499Y-90229973D01*
X146143499Y-90229973D01*
G37*
G36*
X165135191Y-88020800D02*
G01*
X165169156Y-88031103D01*
X165200457Y-88047834D01*
X165232659Y-88074261D01*
X165657647Y-88499249D01*
X165684074Y-88531451D01*
X165700805Y-88562752D01*
X165711108Y-88596717D01*
X165714586Y-88632035D01*
X165711108Y-88667353D01*
X165700805Y-88701318D01*
X165684074Y-88732619D01*
X165657647Y-88764821D01*
X165179625Y-89242843D01*
X165147423Y-89269270D01*
X165116122Y-89286001D01*
X165082157Y-89296304D01*
X165046839Y-89299782D01*
X165011521Y-89296304D01*
X164977556Y-89286001D01*
X164946255Y-89269270D01*
X164914053Y-89242843D01*
X164489065Y-88817855D01*
X164462638Y-88785653D01*
X164445907Y-88754352D01*
X164435604Y-88720387D01*
X164432126Y-88685069D01*
X164435604Y-88649751D01*
X164445907Y-88615786D01*
X164462638Y-88584485D01*
X164489065Y-88552283D01*
X164967087Y-88074261D01*
X164999289Y-88047834D01*
X165030590Y-88031103D01*
X165064555Y-88020800D01*
X165099873Y-88017322D01*
X165135191Y-88020800D01*
X165135191Y-88020800D01*
G37*
G36*
X146143499Y-88959973D02*
G01*
X144041899Y-88959973D01*
X144041899Y-87958373D01*
X146143499Y-87958373D01*
X146143499Y-88959973D01*
X146143499Y-88959973D01*
G37*
G36*
X148512280Y-88345657D02*
G01*
X147980818Y-88877119D01*
X147166514Y-88062815D01*
X147697976Y-87531353D01*
X148512280Y-88345657D01*
X148512280Y-88345657D01*
G37*
G36*
X159691814Y-87066436D02*
G01*
X159730466Y-87078161D01*
X159766089Y-87097202D01*
X159802077Y-87126737D01*
X159841923Y-87166583D01*
X159841934Y-87166592D01*
X160523090Y-87847748D01*
X160523099Y-87847759D01*
X160562945Y-87887605D01*
X160592480Y-87923593D01*
X160611521Y-87959216D01*
X160623246Y-87997868D01*
X160627205Y-88038066D01*
X160623246Y-88078264D01*
X160611521Y-88116916D01*
X160592480Y-88152539D01*
X160562945Y-88188527D01*
X160523099Y-88228373D01*
X160523090Y-88228384D01*
X160142454Y-88609020D01*
X160142443Y-88609029D01*
X160102597Y-88648875D01*
X160066609Y-88678410D01*
X160030986Y-88697451D01*
X159992334Y-88709176D01*
X159952136Y-88713135D01*
X159911938Y-88709176D01*
X159873286Y-88697451D01*
X159837663Y-88678410D01*
X159801675Y-88648875D01*
X159761829Y-88609029D01*
X159761818Y-88609020D01*
X159080662Y-87927864D01*
X159080653Y-87927853D01*
X159040807Y-87888007D01*
X159011272Y-87852019D01*
X158992231Y-87816396D01*
X158980506Y-87777744D01*
X158976547Y-87737546D01*
X158980506Y-87697348D01*
X158992231Y-87658696D01*
X159011272Y-87623073D01*
X159040807Y-87587085D01*
X159080653Y-87547239D01*
X159080662Y-87547228D01*
X159461298Y-87166592D01*
X159461309Y-87166583D01*
X159501155Y-87126737D01*
X159537143Y-87097202D01*
X159572766Y-87078161D01*
X159611418Y-87066436D01*
X159651616Y-87062477D01*
X159691814Y-87066436D01*
X159691814Y-87066436D01*
G37*
G36*
X164362254Y-86624495D02*
G01*
X164400906Y-86636220D01*
X164436529Y-86655261D01*
X164472517Y-86684796D01*
X164512363Y-86724642D01*
X164512374Y-86724651D01*
X164893010Y-87105287D01*
X164893019Y-87105298D01*
X164932865Y-87145144D01*
X164962400Y-87181132D01*
X164981441Y-87216755D01*
X164993166Y-87255407D01*
X164997125Y-87295605D01*
X164993166Y-87335803D01*
X164981441Y-87374455D01*
X164962400Y-87410078D01*
X164932865Y-87446066D01*
X164893019Y-87485912D01*
X164893010Y-87485923D01*
X164211854Y-88167079D01*
X164211843Y-88167088D01*
X164171997Y-88206934D01*
X164136009Y-88236469D01*
X164100386Y-88255510D01*
X164061734Y-88267235D01*
X164021536Y-88271194D01*
X163981338Y-88267235D01*
X163942686Y-88255510D01*
X163907063Y-88236469D01*
X163871075Y-88206934D01*
X163831229Y-88167088D01*
X163831218Y-88167079D01*
X163450582Y-87786443D01*
X163450573Y-87786432D01*
X163410727Y-87746586D01*
X163381192Y-87710598D01*
X163362151Y-87674975D01*
X163350426Y-87636323D01*
X163346467Y-87596125D01*
X163350426Y-87555927D01*
X163362151Y-87517275D01*
X163381192Y-87481652D01*
X163410727Y-87445664D01*
X163450573Y-87405818D01*
X163450582Y-87405807D01*
X164131738Y-86724651D01*
X164131749Y-86724642D01*
X164171595Y-86684796D01*
X164207583Y-86655261D01*
X164243206Y-86636220D01*
X164281858Y-86624495D01*
X164322056Y-86620536D01*
X164362254Y-86624495D01*
X164362254Y-86624495D01*
G37*
G36*
X146143499Y-87689973D02*
G01*
X144041899Y-87689973D01*
X144041899Y-86688373D01*
X146143499Y-86688373D01*
X146143499Y-87689973D01*
X146143499Y-87689973D01*
G37*
G36*
X150032559Y-86825378D02*
G01*
X149501097Y-87356840D01*
X148686793Y-86542536D01*
X149218255Y-86011074D01*
X150032559Y-86825378D01*
X150032559Y-86825378D01*
G37*
G36*
X163036428Y-85298669D02*
G01*
X163075080Y-85310394D01*
X163110703Y-85329435D01*
X163146691Y-85358970D01*
X163186537Y-85398816D01*
X163186548Y-85398825D01*
X163567184Y-85779461D01*
X163567193Y-85779472D01*
X163607039Y-85819318D01*
X163636574Y-85855306D01*
X163655615Y-85890929D01*
X163667340Y-85929581D01*
X163671299Y-85969779D01*
X163667340Y-86009977D01*
X163655615Y-86048629D01*
X163636574Y-86084252D01*
X163607039Y-86120240D01*
X163567193Y-86160086D01*
X163567184Y-86160097D01*
X162886028Y-86841253D01*
X162886017Y-86841262D01*
X162846171Y-86881108D01*
X162810183Y-86910643D01*
X162774560Y-86929684D01*
X162735908Y-86941409D01*
X162695710Y-86945368D01*
X162655512Y-86941409D01*
X162616860Y-86929684D01*
X162581237Y-86910643D01*
X162545249Y-86881108D01*
X162505403Y-86841262D01*
X162505392Y-86841253D01*
X162124756Y-86460617D01*
X162124747Y-86460606D01*
X162084901Y-86420760D01*
X162055366Y-86384772D01*
X162036325Y-86349149D01*
X162024600Y-86310497D01*
X162020641Y-86270299D01*
X162024600Y-86230101D01*
X162036325Y-86191449D01*
X162055366Y-86155826D01*
X162084901Y-86119838D01*
X162124747Y-86079992D01*
X162124756Y-86079981D01*
X162805912Y-85398825D01*
X162805923Y-85398816D01*
X162845769Y-85358970D01*
X162881757Y-85329435D01*
X162917380Y-85310394D01*
X162956032Y-85298669D01*
X162996230Y-85294710D01*
X163036428Y-85298669D01*
X163036428Y-85298669D01*
G37*
G36*
X142053499Y-85454973D02*
G01*
X141051899Y-85454973D01*
X141051899Y-83353373D01*
X142053499Y-83353373D01*
X142053499Y-85454973D01*
X142053499Y-85454973D01*
G37*
G36*
X139513499Y-85454973D02*
G01*
X138511899Y-85454973D01*
X138511899Y-83353373D01*
X139513499Y-83353373D01*
X139513499Y-85454973D01*
X139513499Y-85454973D01*
G37*
G36*
X140783499Y-85454973D02*
G01*
X139781899Y-85454973D01*
X139781899Y-83353373D01*
X140783499Y-83353373D01*
X140783499Y-85454973D01*
X140783499Y-85454973D01*
G37*
G36*
X128083499Y-85454973D02*
G01*
X127081899Y-85454973D01*
X127081899Y-83353373D01*
X128083499Y-83353373D01*
X128083499Y-85454973D01*
X128083499Y-85454973D01*
G37*
G36*
X144593499Y-85454973D02*
G01*
X143591899Y-85454973D01*
X143591899Y-83353373D01*
X144593499Y-83353373D01*
X144593499Y-85454973D01*
X144593499Y-85454973D01*
G37*
G36*
X129353499Y-85454973D02*
G01*
X128351899Y-85454973D01*
X128351899Y-83353373D01*
X129353499Y-83353373D01*
X129353499Y-85454973D01*
X129353499Y-85454973D01*
G37*
G36*
X130623499Y-85454973D02*
G01*
X129621899Y-85454973D01*
X129621899Y-83353373D01*
X130623499Y-83353373D01*
X130623499Y-85454973D01*
X130623499Y-85454973D01*
G37*
G36*
X131893499Y-85454973D02*
G01*
X130891899Y-85454973D01*
X130891899Y-83353373D01*
X131893499Y-83353373D01*
X131893499Y-85454973D01*
X131893499Y-85454973D01*
G37*
G36*
X133163499Y-85454973D02*
G01*
X132161899Y-85454973D01*
X132161899Y-83353373D01*
X133163499Y-83353373D01*
X133163499Y-85454973D01*
X133163499Y-85454973D01*
G37*
G36*
X134433499Y-85454973D02*
G01*
X133431899Y-85454973D01*
X133431899Y-83353373D01*
X134433499Y-83353373D01*
X134433499Y-85454973D01*
X134433499Y-85454973D01*
G37*
G36*
X135703499Y-85454973D02*
G01*
X134701899Y-85454973D01*
X134701899Y-83353373D01*
X135703499Y-83353373D01*
X135703499Y-85454973D01*
X135703499Y-85454973D01*
G37*
G36*
X136973499Y-85454973D02*
G01*
X135971899Y-85454973D01*
X135971899Y-83353373D01*
X136973499Y-83353373D01*
X136973499Y-85454973D01*
X136973499Y-85454973D01*
G37*
G36*
X143323499Y-85454973D02*
G01*
X142321899Y-85454973D01*
X142321899Y-83353373D01*
X143323499Y-83353373D01*
X143323499Y-85454973D01*
X143323499Y-85454973D01*
G37*
G36*
X138243499Y-85454973D02*
G01*
X137241899Y-85454973D01*
X137241899Y-83353373D01*
X138243499Y-83353373D01*
X138243499Y-85454973D01*
X138243499Y-85454973D01*
G37*
M02*
